0, 0, Header, 1, 10, 192
1, 0, Start_track
1, 0, Title_t, "Act 2-2"
1, 0, Text_t, "By Jay Reichard (silentzora@yahoo.com)"
1, 0, Copyright_t, "Original Melody- Act 2-2"
1, 0, Copyright_t, "From Ninja Gaiden"
1, 0, Text_t, "Generated by NoteWorthy Composer"
1, 0, Tempo, 400000
1, 0, Time_signature, 4, 2, 24, 8
1, 0, End_track
2, 0, Start_track
2, 0, MIDI_port, 0
2, 0, Title_t, "Staff-1"
2, 0, Program_c, 9, 8
2, 0, Control_c, 9, 7, 127
2, 0, Control_c, 9, 10, 64
2, 0, Note_on_c, 9, 42, 127
2, 0, Note_on_c, 9, 49, 127
2, 48, Note_on_c, 9, 42, 0
2, 48, Note_on_c, 9, 49, 0
2, 192, Note_on_c, 9, 42, 127
2, 240, Note_on_c, 9, 42, 0
2, 336, Note_on_c, 9, 42, 127
2, 384, Note_on_c, 9, 42, 0
2, 480, Note_on_c, 9, 42, 127
2, 528, Note_on_c, 9, 42, 0
2, 576, Note_on_c, 9, 42, 127
2, 624, Note_on_c, 9, 42, 0
2, 768, Note_on_c, 9, 42, 127
2, 816, Note_on_c, 9, 42, 0
2, 960, Note_on_c, 9, 42, 127
2, 1008, Note_on_c, 9, 42, 0
2, 1104, Note_on_c, 9, 42, 127
2, 1152, Note_on_c, 9, 42, 0
2, 1248, Note_on_c, 9, 42, 127
2, 1296, Note_on_c, 9, 42, 0
2, 1344, Note_on_c, 9, 42, 127
2, 1392, Note_on_c, 9, 42, 0
2, 1536, Note_on_c, 9, 42, 127
2, 1584, Note_on_c, 9, 42, 0
2, 1728, Note_on_c, 9, 42, 127
2, 1776, Note_on_c, 9, 42, 0
2, 1872, Note_on_c, 9, 42, 127
2, 1920, Note_on_c, 9, 42, 0
2, 2016, Note_on_c, 9, 42, 127
2, 2064, Note_on_c, 9, 42, 0
2, 2112, Note_on_c, 9, 42, 127
2, 2160, Note_on_c, 9, 42, 0
2, 2304, Note_on_c, 9, 42, 127
2, 2352, Note_on_c, 9, 42, 0
2, 2496, Note_on_c, 9, 42, 127
2, 2544, Note_on_c, 9, 42, 0
2, 2640, Note_on_c, 9, 42, 127
2, 2688, Note_on_c, 9, 42, 0
2, 2784, Note_on_c, 9, 42, 127
2, 2832, Note_on_c, 9, 42, 0
2, 2880, Note_on_c, 9, 42, 127
2, 2928, Note_on_c, 9, 42, 0
2, 3072, Note_on_c, 9, 42, 127
2, 3072, Note_on_c, 9, 49, 127
2, 3120, Note_on_c, 9, 42, 0
2, 3120, Note_on_c, 9, 49, 0
2, 3264, Note_on_c, 9, 42, 127
2, 3312, Note_on_c, 9, 42, 0
2, 3408, Note_on_c, 9, 42, 127
2, 3456, Note_on_c, 9, 42, 0
2, 3552, Note_on_c, 9, 42, 127
2, 3600, Note_on_c, 9, 42, 0
2, 3648, Note_on_c, 9, 42, 127
2, 3696, Note_on_c, 9, 42, 0
2, 3840, Note_on_c, 9, 42, 127
2, 3888, Note_on_c, 9, 42, 0
2, 4032, Note_on_c, 9, 42, 127
2, 4080, Note_on_c, 9, 42, 0
2, 4176, Note_on_c, 9, 42, 127
2, 4224, Note_on_c, 9, 42, 0
2, 4320, Note_on_c, 9, 42, 127
2, 4368, Note_on_c, 9, 42, 0
2, 4416, Note_on_c, 9, 42, 127
2, 4464, Note_on_c, 9, 42, 0
2, 4608, Note_on_c, 9, 42, 127
2, 4656, Note_on_c, 9, 42, 0
2, 4800, Note_on_c, 9, 42, 127
2, 4848, Note_on_c, 9, 42, 0
2, 4944, Note_on_c, 9, 42, 127
2, 4992, Note_on_c, 9, 42, 0
2, 5088, Note_on_c, 9, 42, 127
2, 5136, Note_on_c, 9, 42, 0
2, 5184, Note_on_c, 9, 42, 127
2, 5232, Note_on_c, 9, 42, 0
2, 5376, Note_on_c, 9, 42, 127
2, 5424, Note_on_c, 9, 42, 0
2, 5568, Note_on_c, 9, 42, 127
2, 5616, Note_on_c, 9, 42, 0
2, 5712, Note_on_c, 9, 42, 127
2, 5760, Note_on_c, 9, 42, 0
2, 5856, Note_on_c, 9, 42, 127
2, 5904, Note_on_c, 9, 42, 0
2, 5952, Note_on_c, 9, 42, 127
2, 6000, Note_on_c, 9, 42, 0
2, 6144, Note_on_c, 9, 42, 127
2, 6144, Note_on_c, 9, 49, 127
2, 6192, Note_on_c, 9, 42, 0
2, 6192, Note_on_c, 9, 49, 0
2, 6336, Note_on_c, 9, 42, 127
2, 6384, Note_on_c, 9, 42, 0
2, 6480, Note_on_c, 9, 42, 127
2, 6528, Note_on_c, 9, 42, 0
2, 6624, Note_on_c, 9, 42, 127
2, 6672, Note_on_c, 9, 42, 0
2, 6720, Note_on_c, 9, 42, 127
2, 6768, Note_on_c, 9, 42, 0
2, 6912, Note_on_c, 9, 42, 127
2, 6960, Note_on_c, 9, 42, 0
2, 7104, Note_on_c, 9, 42, 127
2, 7152, Note_on_c, 9, 42, 0
2, 7248, Note_on_c, 9, 42, 127
2, 7296, Note_on_c, 9, 42, 0
2, 7392, Note_on_c, 9, 42, 127
2, 7440, Note_on_c, 9, 42, 0
2, 7488, Note_on_c, 9, 42, 127
2, 7536, Note_on_c, 9, 42, 0
2, 7680, Note_on_c, 9, 42, 127
2, 7728, Note_on_c, 9, 42, 0
2, 7872, Note_on_c, 9, 42, 127
2, 7920, Note_on_c, 9, 42, 0
2, 8016, Note_on_c, 9, 42, 127
2, 8064, Note_on_c, 9, 42, 0
2, 8160, Note_on_c, 9, 42, 127
2, 8208, Note_on_c, 9, 42, 0
2, 8256, Note_on_c, 9, 42, 127
2, 8304, Note_on_c, 9, 42, 0
2, 8448, Note_on_c, 9, 42, 127
2, 8496, Note_on_c, 9, 42, 0
2, 8640, Note_on_c, 9, 42, 127
2, 8688, Note_on_c, 9, 42, 0
2, 8784, Note_on_c, 9, 42, 127
2, 8832, Note_on_c, 9, 42, 0
2, 8928, Note_on_c, 9, 42, 127
2, 8976, Note_on_c, 9, 42, 0
2, 9024, Note_on_c, 9, 42, 127
2, 9072, Note_on_c, 9, 42, 0
2, 9216, Note_on_c, 9, 42, 127
2, 9216, Note_on_c, 9, 49, 127
2, 9264, Note_on_c, 9, 42, 0
2, 9264, Note_on_c, 9, 49, 0
2, 9408, Note_on_c, 9, 42, 127
2, 9456, Note_on_c, 9, 42, 0
2, 9552, Note_on_c, 9, 42, 127
2, 9600, Note_on_c, 9, 42, 0
2, 9696, Note_on_c, 9, 42, 127
2, 9744, Note_on_c, 9, 42, 0
2, 9792, Note_on_c, 9, 42, 127
2, 9840, Note_on_c, 9, 42, 0
2, 9984, Note_on_c, 9, 42, 127
2, 10032, Note_on_c, 9, 42, 0
2, 10176, Note_on_c, 9, 42, 127
2, 10224, Note_on_c, 9, 42, 0
2, 10320, Note_on_c, 9, 42, 127
2, 10368, Note_on_c, 9, 42, 0
2, 10464, Note_on_c, 9, 42, 127
2, 10512, Note_on_c, 9, 42, 0
2, 10560, Note_on_c, 9, 42, 127
2, 10608, Note_on_c, 9, 42, 0
2, 10752, Note_on_c, 9, 42, 127
2, 10800, Note_on_c, 9, 42, 0
2, 10944, Note_on_c, 9, 42, 127
2, 10992, Note_on_c, 9, 42, 0
2, 11088, Note_on_c, 9, 42, 127
2, 11136, Note_on_c, 9, 42, 0
2, 11232, Note_on_c, 9, 42, 127
2, 11280, Note_on_c, 9, 42, 0
2, 11328, Note_on_c, 9, 42, 127
2, 11376, Note_on_c, 9, 42, 0
2, 11520, Note_on_c, 9, 42, 127
2, 11568, Note_on_c, 9, 42, 0
2, 11712, Note_on_c, 9, 42, 127
2, 11760, Note_on_c, 9, 42, 0
2, 11856, Note_on_c, 9, 42, 127
2, 11904, Note_on_c, 9, 42, 0
2, 12000, Note_on_c, 9, 42, 127
2, 12048, Note_on_c, 9, 42, 0
2, 12096, Note_on_c, 9, 42, 127
2, 12144, Note_on_c, 9, 42, 0
2, 12288, Note_on_c, 9, 42, 127
2, 12288, Note_on_c, 9, 49, 127
2, 12336, Note_on_c, 9, 42, 0
2, 12336, Note_on_c, 9, 49, 0
2, 12480, Note_on_c, 9, 42, 127
2, 12528, Note_on_c, 9, 42, 0
2, 12624, Note_on_c, 9, 42, 127
2, 12672, Note_on_c, 9, 42, 0
2, 12768, Note_on_c, 9, 42, 127
2, 12816, Note_on_c, 9, 42, 0
2, 12864, Note_on_c, 9, 42, 127
2, 12912, Note_on_c, 9, 42, 0
2, 13056, Note_on_c, 9, 42, 127
2, 13104, Note_on_c, 9, 42, 0
2, 13248, Note_on_c, 9, 42, 127
2, 13296, Note_on_c, 9, 42, 0
2, 13392, Note_on_c, 9, 42, 127
2, 13440, Note_on_c, 9, 42, 0
2, 13536, Note_on_c, 9, 42, 127
2, 13584, Note_on_c, 9, 42, 0
2, 13632, Note_on_c, 9, 42, 127
2, 13680, Note_on_c, 9, 42, 0
2, 13824, Note_on_c, 9, 42, 127
2, 13872, Note_on_c, 9, 42, 0
2, 14016, Note_on_c, 9, 42, 127
2, 14064, Note_on_c, 9, 42, 0
2, 14160, Note_on_c, 9, 42, 127
2, 14208, Note_on_c, 9, 42, 0
2, 14304, Note_on_c, 9, 42, 127
2, 14352, Note_on_c, 9, 42, 0
2, 14400, Note_on_c, 9, 42, 127
2, 14448, Note_on_c, 9, 42, 0
2, 14592, Note_on_c, 9, 42, 127
2, 14640, Note_on_c, 9, 42, 0
2, 14784, Note_on_c, 9, 42, 127
2, 14832, Note_on_c, 9, 42, 0
2, 14928, Note_on_c, 9, 42, 127
2, 14976, Note_on_c, 9, 42, 0
2, 15072, Note_on_c, 9, 42, 127
2, 15120, Note_on_c, 9, 42, 0
2, 15168, Note_on_c, 9, 42, 127
2, 15216, Note_on_c, 9, 42, 0
2, 15360, Note_on_c, 9, 42, 127
2, 15360, Note_on_c, 9, 49, 127
2, 15408, Note_on_c, 9, 42, 0
2, 15408, Note_on_c, 9, 49, 0
2, 15552, Note_on_c, 9, 42, 127
2, 15600, Note_on_c, 9, 42, 0
2, 15696, Note_on_c, 9, 42, 127
2, 15744, Note_on_c, 9, 42, 0
2, 15840, Note_on_c, 9, 42, 127
2, 15888, Note_on_c, 9, 42, 0
2, 15936, Note_on_c, 9, 42, 127
2, 15984, Note_on_c, 9, 42, 0
2, 16128, Note_on_c, 9, 42, 127
2, 16176, Note_on_c, 9, 42, 0
2, 16320, Note_on_c, 9, 42, 127
2, 16368, Note_on_c, 9, 42, 0
2, 16464, Note_on_c, 9, 42, 127
2, 16512, Note_on_c, 9, 42, 0
2, 16608, Note_on_c, 9, 42, 127
2, 16656, Note_on_c, 9, 42, 0
2, 16704, Note_on_c, 9, 42, 127
2, 16752, Note_on_c, 9, 42, 0
2, 16896, Note_on_c, 9, 42, 127
2, 16944, Note_on_c, 9, 42, 0
2, 17088, Note_on_c, 9, 42, 127
2, 17136, Note_on_c, 9, 42, 0
2, 17232, Note_on_c, 9, 42, 127
2, 17280, Note_on_c, 9, 42, 0
2, 17376, Note_on_c, 9, 42, 127
2, 17424, Note_on_c, 9, 42, 0
2, 17472, Note_on_c, 9, 42, 127
2, 17520, Note_on_c, 9, 42, 0
2, 17664, Note_on_c, 9, 42, 127
2, 17712, Note_on_c, 9, 42, 0
2, 17856, Note_on_c, 9, 42, 127
2, 17904, Note_on_c, 9, 42, 0
2, 18000, Note_on_c, 9, 42, 127
2, 18048, Note_on_c, 9, 42, 0
2, 18144, Note_on_c, 9, 42, 127
2, 18192, Note_on_c, 9, 42, 0
2, 18240, Note_on_c, 9, 42, 127
2, 18288, Note_on_c, 9, 42, 0
2, 18432, Note_on_c, 9, 42, 127
2, 18432, Note_on_c, 9, 49, 127
2, 18480, Note_on_c, 9, 42, 0
2, 18480, Note_on_c, 9, 49, 0
2, 18624, Note_on_c, 9, 42, 127
2, 18672, Note_on_c, 9, 42, 0
2, 18768, Note_on_c, 9, 42, 127
2, 18816, Note_on_c, 9, 42, 0
2, 18912, Note_on_c, 9, 42, 127
2, 18960, Note_on_c, 9, 42, 0
2, 19008, Note_on_c, 9, 42, 127
2, 19056, Note_on_c, 9, 42, 0
2, 19200, Note_on_c, 9, 42, 127
2, 19248, Note_on_c, 9, 42, 0
2, 19392, Note_on_c, 9, 42, 127
2, 19440, Note_on_c, 9, 42, 0
2, 19536, Note_on_c, 9, 42, 127
2, 19584, Note_on_c, 9, 42, 0
2, 19680, Note_on_c, 9, 42, 127
2, 19728, Note_on_c, 9, 42, 0
2, 19776, Note_on_c, 9, 42, 127
2, 19824, Note_on_c, 9, 42, 0
2, 19968, Note_on_c, 9, 42, 127
2, 20016, Note_on_c, 9, 42, 0
2, 20160, Note_on_c, 9, 42, 127
2, 20208, Note_on_c, 9, 42, 0
2, 20304, Note_on_c, 9, 42, 127
2, 20352, Note_on_c, 9, 42, 0
2, 20448, Note_on_c, 9, 42, 127
2, 20496, Note_on_c, 9, 42, 0
2, 20544, Note_on_c, 9, 42, 127
2, 20592, Note_on_c, 9, 42, 0
2, 20736, Note_on_c, 9, 42, 127
2, 20784, Note_on_c, 9, 42, 0
2, 20928, Note_on_c, 9, 42, 127
2, 20976, Note_on_c, 9, 42, 0
2, 21072, Note_on_c, 9, 42, 127
2, 21120, Note_on_c, 9, 42, 0
2, 21216, Note_on_c, 9, 42, 127
2, 21264, Note_on_c, 9, 42, 0
2, 21312, Note_on_c, 9, 42, 127
2, 21360, Note_on_c, 9, 42, 0
2, 21504, Note_on_c, 9, 42, 127
2, 21504, Note_on_c, 9, 49, 127
2, 21552, Note_on_c, 9, 42, 0
2, 21552, Note_on_c, 9, 49, 0
2, 21696, Note_on_c, 9, 42, 127
2, 21744, Note_on_c, 9, 42, 0
2, 21840, Note_on_c, 9, 42, 127
2, 21888, Note_on_c, 9, 42, 0
2, 21984, Note_on_c, 9, 42, 127
2, 22032, Note_on_c, 9, 42, 0
2, 22080, Note_on_c, 9, 42, 127
2, 22128, Note_on_c, 9, 42, 0
2, 22272, Note_on_c, 9, 42, 127
2, 22320, Note_on_c, 9, 42, 0
2, 22464, Note_on_c, 9, 42, 127
2, 22512, Note_on_c, 9, 42, 0
2, 22608, Note_on_c, 9, 42, 127
2, 22656, Note_on_c, 9, 42, 0
2, 22752, Note_on_c, 9, 42, 127
2, 22800, Note_on_c, 9, 42, 0
2, 22848, Note_on_c, 9, 42, 127
2, 22896, Note_on_c, 9, 42, 0
2, 23040, Note_on_c, 9, 42, 127
2, 23088, Note_on_c, 9, 42, 0
2, 23232, Note_on_c, 9, 42, 127
2, 23280, Note_on_c, 9, 42, 0
2, 23376, Note_on_c, 9, 42, 127
2, 23424, Note_on_c, 9, 42, 0
2, 23520, Note_on_c, 9, 42, 127
2, 23568, Note_on_c, 9, 42, 0
2, 23616, Note_on_c, 9, 42, 127
2, 23664, Note_on_c, 9, 42, 0
2, 23808, Note_on_c, 9, 42, 127
2, 23856, Note_on_c, 9, 42, 0
2, 24000, Note_on_c, 9, 42, 127
2, 24048, Note_on_c, 9, 42, 0
2, 24144, Note_on_c, 9, 42, 127
2, 24192, Note_on_c, 9, 42, 0
2, 24288, Note_on_c, 9, 42, 127
2, 24336, Note_on_c, 9, 42, 0
2, 24384, Note_on_c, 9, 42, 127
2, 24432, Note_on_c, 9, 42, 0
2, 24576, Note_on_c, 9, 42, 127
2, 24576, Note_on_c, 9, 49, 127
2, 24624, Note_on_c, 9, 42, 0
2, 24624, Note_on_c, 9, 49, 0
2, 24768, Note_on_c, 9, 42, 127
2, 24816, Note_on_c, 9, 42, 0
2, 24912, Note_on_c, 9, 42, 127
2, 24960, Note_on_c, 9, 42, 0
2, 25056, Note_on_c, 9, 42, 127
2, 25104, Note_on_c, 9, 42, 0
2, 25152, Note_on_c, 9, 42, 127
2, 25200, Note_on_c, 9, 42, 0
2, 25344, Note_on_c, 9, 42, 127
2, 25392, Note_on_c, 9, 42, 0
2, 25536, Note_on_c, 9, 42, 127
2, 25584, Note_on_c, 9, 42, 0
2, 25680, Note_on_c, 9, 42, 127
2, 25728, Note_on_c, 9, 42, 0
2, 25824, Note_on_c, 9, 42, 127
2, 25872, Note_on_c, 9, 42, 0
2, 25920, Note_on_c, 9, 42, 127
2, 25968, Note_on_c, 9, 42, 0
2, 26112, Note_on_c, 9, 42, 127
2, 26160, Note_on_c, 9, 42, 0
2, 26304, Note_on_c, 9, 42, 127
2, 26352, Note_on_c, 9, 42, 0
2, 26448, Note_on_c, 9, 42, 127
2, 26496, Note_on_c, 9, 42, 0
2, 26592, Note_on_c, 9, 42, 127
2, 26640, Note_on_c, 9, 42, 0
2, 26688, Note_on_c, 9, 42, 127
2, 26736, Note_on_c, 9, 42, 0
2, 26880, Note_on_c, 9, 42, 127
2, 26928, Note_on_c, 9, 42, 0
2, 27072, Note_on_c, 9, 42, 127
2, 27120, Note_on_c, 9, 42, 0
2, 27216, Note_on_c, 9, 42, 127
2, 27264, Note_on_c, 9, 42, 0
2, 27360, Note_on_c, 9, 42, 127
2, 27408, Note_on_c, 9, 42, 0
2, 27456, Note_on_c, 9, 42, 127
2, 27504, Note_on_c, 9, 42, 0
2, 27648, Note_on_c, 9, 42, 127
2, 27648, Note_on_c, 9, 49, 127
2, 27696, Note_on_c, 9, 42, 0
2, 27696, Note_on_c, 9, 49, 0
2, 27840, Note_on_c, 9, 42, 127
2, 27888, Note_on_c, 9, 42, 0
2, 27984, Note_on_c, 9, 42, 127
2, 28032, Note_on_c, 9, 42, 0
2, 28128, Note_on_c, 9, 42, 127
2, 28176, Note_on_c, 9, 42, 0
2, 28224, Note_on_c, 9, 42, 127
2, 28272, Note_on_c, 9, 42, 0
2, 28416, Note_on_c, 9, 42, 127
2, 28464, Note_on_c, 9, 42, 0
2, 28608, Note_on_c, 9, 42, 127
2, 28656, Note_on_c, 9, 42, 0
2, 28752, Note_on_c, 9, 42, 127
2, 28800, Note_on_c, 9, 42, 0
2, 28896, Note_on_c, 9, 42, 127
2, 28944, Note_on_c, 9, 42, 0
2, 28992, Note_on_c, 9, 42, 127
2, 29040, Note_on_c, 9, 42, 0
2, 29184, Note_on_c, 9, 42, 127
2, 29232, Note_on_c, 9, 42, 0
2, 29376, Note_on_c, 9, 42, 127
2, 29424, Note_on_c, 9, 42, 0
2, 29520, Note_on_c, 9, 42, 127
2, 29568, Note_on_c, 9, 42, 0
2, 29664, Note_on_c, 9, 42, 127
2, 29712, Note_on_c, 9, 42, 0
2, 29760, Note_on_c, 9, 42, 127
2, 29808, Note_on_c, 9, 42, 0
2, 29952, Note_on_c, 9, 42, 127
2, 30000, Note_on_c, 9, 42, 0
2, 30144, Note_on_c, 9, 42, 127
2, 30192, Note_on_c, 9, 42, 0
2, 30288, Note_on_c, 9, 42, 127
2, 30336, Note_on_c, 9, 42, 0
2, 30432, Note_on_c, 9, 42, 127
2, 30480, Note_on_c, 9, 42, 0
2, 30528, Note_on_c, 9, 42, 127
2, 30576, Note_on_c, 9, 42, 0
2, 30720, Note_on_c, 9, 42, 127
2, 30720, Note_on_c, 9, 49, 127
2, 30768, Note_on_c, 9, 42, 0
2, 30768, Note_on_c, 9, 49, 0
2, 30912, Note_on_c, 9, 42, 127
2, 30960, Note_on_c, 9, 42, 0
2, 31056, Note_on_c, 9, 42, 127
2, 31104, Note_on_c, 9, 42, 0
2, 31200, Note_on_c, 9, 42, 127
2, 31248, Note_on_c, 9, 42, 0
2, 31296, Note_on_c, 9, 42, 127
2, 31344, Note_on_c, 9, 42, 0
2, 31488, Note_on_c, 9, 42, 127
2, 31536, Note_on_c, 9, 42, 0
2, 31680, Note_on_c, 9, 42, 127
2, 31728, Note_on_c, 9, 42, 0
2, 31824, Note_on_c, 9, 42, 127
2, 31872, Note_on_c, 9, 42, 0
2, 31968, Note_on_c, 9, 42, 127
2, 32016, Note_on_c, 9, 42, 0
2, 32064, Note_on_c, 9, 42, 127
2, 32112, Note_on_c, 9, 42, 0
2, 32256, Note_on_c, 9, 42, 127
2, 32304, Note_on_c, 9, 42, 0
2, 32448, Note_on_c, 9, 42, 127
2, 32496, Note_on_c, 9, 42, 0
2, 32592, Note_on_c, 9, 42, 127
2, 32640, Note_on_c, 9, 42, 0
2, 32736, Note_on_c, 9, 42, 127
2, 32784, Note_on_c, 9, 42, 0
2, 32832, Note_on_c, 9, 42, 127
2, 32880, Note_on_c, 9, 42, 0
2, 33024, Note_on_c, 9, 42, 127
2, 33072, Note_on_c, 9, 42, 0
2, 33216, Note_on_c, 9, 42, 127
2, 33264, Note_on_c, 9, 42, 0
2, 33360, Note_on_c, 9, 42, 127
2, 33408, Note_on_c, 9, 42, 0
2, 33504, Note_on_c, 9, 42, 127
2, 33552, Note_on_c, 9, 42, 0
2, 33600, Note_on_c, 9, 42, 127
2, 33648, Note_on_c, 9, 42, 0
2, 33792, Note_on_c, 9, 42, 127
2, 33792, Note_on_c, 9, 49, 127
2, 33840, Note_on_c, 9, 42, 0
2, 33840, Note_on_c, 9, 49, 0
2, 33984, Note_on_c, 9, 42, 127
2, 34032, Note_on_c, 9, 42, 0
2, 34128, Note_on_c, 9, 42, 127
2, 34176, Note_on_c, 9, 42, 0
2, 34272, Note_on_c, 9, 42, 127
2, 34320, Note_on_c, 9, 42, 0
2, 34368, Note_on_c, 9, 42, 127
2, 34416, Note_on_c, 9, 42, 0
2, 34560, Note_on_c, 9, 42, 127
2, 34608, Note_on_c, 9, 42, 0
2, 34752, Note_on_c, 9, 42, 127
2, 34800, Note_on_c, 9, 42, 0
2, 34896, Note_on_c, 9, 42, 127
2, 34944, Note_on_c, 9, 42, 0
2, 35040, Note_on_c, 9, 42, 127
2, 35088, Note_on_c, 9, 42, 0
2, 35136, Note_on_c, 9, 42, 127
2, 35184, Note_on_c, 9, 42, 0
2, 35328, Note_on_c, 9, 42, 127
2, 35376, Note_on_c, 9, 42, 0
2, 35520, Note_on_c, 9, 42, 127
2, 35568, Note_on_c, 9, 42, 0
2, 35664, Note_on_c, 9, 42, 127
2, 35712, Note_on_c, 9, 42, 0
2, 35808, Note_on_c, 9, 42, 127
2, 35856, Note_on_c, 9, 42, 0
2, 35904, Note_on_c, 9, 42, 127
2, 35952, Note_on_c, 9, 42, 0
2, 36096, Note_on_c, 9, 42, 127
2, 36144, Note_on_c, 9, 42, 0
2, 36288, Note_on_c, 9, 42, 127
2, 36336, Note_on_c, 9, 42, 0
2, 36432, Note_on_c, 9, 42, 127
2, 36480, Note_on_c, 9, 42, 0
2, 36576, Note_on_c, 9, 42, 127
2, 36624, Note_on_c, 9, 42, 0
2, 36672, Note_on_c, 9, 42, 127
2, 36720, Note_on_c, 9, 42, 0
2, 36864, Note_on_c, 9, 42, 127
2, 36864, Note_on_c, 9, 49, 127
2, 36912, Note_on_c, 9, 42, 0
2, 36912, Note_on_c, 9, 49, 0
2, 37056, Note_on_c, 9, 42, 127
2, 37104, Note_on_c, 9, 42, 0
2, 37200, Note_on_c, 9, 42, 127
2, 37248, Note_on_c, 9, 42, 0
2, 37344, Note_on_c, 9, 42, 127
2, 37392, Note_on_c, 9, 42, 0
2, 37440, Note_on_c, 9, 42, 127
2, 37488, Note_on_c, 9, 42, 0
2, 37632, Note_on_c, 9, 42, 127
2, 37680, Note_on_c, 9, 42, 0
2, 37824, Note_on_c, 9, 42, 127
2, 37872, Note_on_c, 9, 42, 0
2, 37968, Note_on_c, 9, 42, 127
2, 38016, Note_on_c, 9, 42, 0
2, 38112, Note_on_c, 9, 42, 127
2, 38160, Note_on_c, 9, 42, 0
2, 38208, Note_on_c, 9, 42, 127
2, 38256, Note_on_c, 9, 42, 0
2, 38400, Note_on_c, 9, 42, 127
2, 38448, Note_on_c, 9, 42, 0
2, 38592, Note_on_c, 9, 42, 127
2, 38640, Note_on_c, 9, 42, 0
2, 38736, Note_on_c, 9, 42, 127
2, 38784, Note_on_c, 9, 42, 0
2, 38880, Note_on_c, 9, 42, 127
2, 38928, Note_on_c, 9, 42, 0
2, 38976, Note_on_c, 9, 42, 127
2, 39024, Note_on_c, 9, 42, 0
2, 39168, Note_on_c, 9, 42, 127
2, 39216, Note_on_c, 9, 42, 0
2, 39360, Note_on_c, 9, 42, 127
2, 39408, Note_on_c, 9, 42, 0
2, 39504, Note_on_c, 9, 42, 127
2, 39552, Note_on_c, 9, 42, 0
2, 39648, Note_on_c, 9, 42, 127
2, 39696, Note_on_c, 9, 42, 0
2, 39744, Note_on_c, 9, 42, 127
2, 39792, Note_on_c, 9, 42, 0
2, 39936, Note_on_c, 9, 42, 127
2, 39936, Note_on_c, 9, 49, 127
2, 39984, Note_on_c, 9, 42, 0
2, 39984, Note_on_c, 9, 49, 0
2, 40128, Note_on_c, 9, 42, 127
2, 40176, Note_on_c, 9, 42, 0
2, 40272, Note_on_c, 9, 42, 127
2, 40320, Note_on_c, 9, 42, 0
2, 40416, Note_on_c, 9, 42, 127
2, 40464, Note_on_c, 9, 42, 0
2, 40512, Note_on_c, 9, 42, 127
2, 40560, Note_on_c, 9, 42, 0
2, 40704, Note_on_c, 9, 42, 127
2, 40752, Note_on_c, 9, 42, 0
2, 40896, Note_on_c, 9, 42, 127
2, 40944, Note_on_c, 9, 42, 0
2, 41040, Note_on_c, 9, 42, 127
2, 41088, Note_on_c, 9, 42, 0
2, 41184, Note_on_c, 9, 42, 127
2, 41232, Note_on_c, 9, 42, 0
2, 41280, Note_on_c, 9, 42, 127
2, 41328, Note_on_c, 9, 42, 0
2, 41472, Note_on_c, 9, 42, 127
2, 41520, Note_on_c, 9, 42, 0
2, 41664, Note_on_c, 9, 42, 127
2, 41712, Note_on_c, 9, 42, 0
2, 41808, Note_on_c, 9, 42, 127
2, 41856, Note_on_c, 9, 42, 0
2, 41952, Note_on_c, 9, 42, 127
2, 42000, Note_on_c, 9, 42, 0
2, 42048, Note_on_c, 9, 42, 127
2, 42096, Note_on_c, 9, 42, 0
2, 42240, Note_on_c, 9, 42, 127
2, 42288, Note_on_c, 9, 42, 0
2, 42432, Note_on_c, 9, 42, 127
2, 42480, Note_on_c, 9, 42, 0
2, 42576, Note_on_c, 9, 42, 127
2, 42624, Note_on_c, 9, 42, 0
2, 42720, Note_on_c, 9, 42, 127
2, 42768, Note_on_c, 9, 42, 0
2, 42816, Note_on_c, 9, 42, 127
2, 42864, Note_on_c, 9, 42, 0
2, 43008, Note_on_c, 9, 42, 127
2, 43008, Note_on_c, 9, 49, 127
2, 43056, Note_on_c, 9, 42, 0
2, 43056, Note_on_c, 9, 49, 0
2, 43200, Note_on_c, 9, 42, 127
2, 43248, Note_on_c, 9, 42, 0
2, 43344, Note_on_c, 9, 42, 127
2, 43392, Note_on_c, 9, 42, 0
2, 43488, Note_on_c, 9, 42, 127
2, 43536, Note_on_c, 9, 42, 0
2, 43584, Note_on_c, 9, 42, 127
2, 43632, Note_on_c, 9, 42, 0
2, 43776, Note_on_c, 9, 42, 127
2, 43824, Note_on_c, 9, 42, 0
2, 43968, Note_on_c, 9, 42, 127
2, 44016, Note_on_c, 9, 42, 0
2, 44112, Note_on_c, 9, 42, 127
2, 44160, Note_on_c, 9, 42, 0
2, 44256, Note_on_c, 9, 42, 127
2, 44304, Note_on_c, 9, 42, 0
2, 44352, Note_on_c, 9, 42, 127
2, 44400, Note_on_c, 9, 42, 0
2, 44544, Note_on_c, 9, 42, 127
2, 44592, Note_on_c, 9, 42, 0
2, 44736, Note_on_c, 9, 42, 127
2, 44784, Note_on_c, 9, 42, 0
2, 44880, Note_on_c, 9, 42, 127
2, 44928, Note_on_c, 9, 42, 0
2, 45024, Note_on_c, 9, 42, 127
2, 45072, Note_on_c, 9, 42, 0
2, 45120, Note_on_c, 9, 42, 127
2, 45168, Note_on_c, 9, 42, 0
2, 45312, Note_on_c, 9, 42, 127
2, 45360, Note_on_c, 9, 42, 0
2, 45504, Note_on_c, 9, 42, 127
2, 45552, Note_on_c, 9, 42, 0
2, 45648, Note_on_c, 9, 42, 127
2, 45696, Note_on_c, 9, 42, 0
2, 45792, Note_on_c, 9, 42, 127
2, 45840, Note_on_c, 9, 42, 0
2, 45888, Note_on_c, 9, 42, 127
2, 45936, Note_on_c, 9, 42, 0
2, 46080, Note_on_c, 9, 42, 127
2, 46080, Note_on_c, 9, 49, 127
2, 46128, Note_on_c, 9, 42, 0
2, 46128, Note_on_c, 9, 49, 0
2, 46272, Note_on_c, 9, 42, 127
2, 46320, Note_on_c, 9, 42, 0
2, 46416, Note_on_c, 9, 42, 127
2, 46464, Note_on_c, 9, 42, 0
2, 46560, Note_on_c, 9, 42, 127
2, 46608, Note_on_c, 9, 42, 0
2, 46656, Note_on_c, 9, 42, 127
2, 46704, Note_on_c, 9, 42, 0
2, 46848, Note_on_c, 9, 42, 127
2, 46896, Note_on_c, 9, 42, 0
2, 47040, Note_on_c, 9, 42, 127
2, 47088, Note_on_c, 9, 42, 0
2, 47184, Note_on_c, 9, 42, 127
2, 47232, Note_on_c, 9, 42, 0
2, 47328, Note_on_c, 9, 42, 127
2, 47376, Note_on_c, 9, 42, 0
2, 47424, Note_on_c, 9, 42, 127
2, 47472, Note_on_c, 9, 42, 0
2, 47616, Note_on_c, 9, 42, 127
2, 47664, Note_on_c, 9, 42, 0
2, 47808, Note_on_c, 9, 42, 127
2, 47856, Note_on_c, 9, 42, 0
2, 47952, Note_on_c, 9, 42, 127
2, 48000, Note_on_c, 9, 42, 0
2, 48096, Note_on_c, 9, 42, 127
2, 48144, Note_on_c, 9, 42, 0
2, 48192, Note_on_c, 9, 42, 127
2, 48240, Note_on_c, 9, 42, 0
2, 48384, Note_on_c, 9, 42, 127
2, 48432, Note_on_c, 9, 42, 0
2, 48576, Note_on_c, 9, 42, 127
2, 48624, Note_on_c, 9, 42, 0
2, 48720, Note_on_c, 9, 42, 127
2, 48768, Note_on_c, 9, 42, 0
2, 48864, Note_on_c, 9, 42, 127
2, 48912, Note_on_c, 9, 42, 0
2, 48960, Note_on_c, 9, 42, 127
2, 49008, Note_on_c, 9, 42, 0
2, 49152, Note_on_c, 9, 42, 127
2, 49152, Note_on_c, 9, 49, 127
2, 49200, Note_on_c, 9, 42, 0
2, 49200, Note_on_c, 9, 49, 0
2, 49344, Note_on_c, 9, 42, 127
2, 49392, Note_on_c, 9, 42, 0
2, 49488, Note_on_c, 9, 42, 127
2, 49536, Note_on_c, 9, 42, 0
2, 49632, Note_on_c, 9, 42, 127
2, 49680, Note_on_c, 9, 42, 0
2, 49728, Note_on_c, 9, 42, 127
2, 49776, Note_on_c, 9, 42, 0
2, 49920, Note_on_c, 9, 42, 127
2, 49968, Note_on_c, 9, 42, 0
2, 50112, Note_on_c, 9, 42, 127
2, 50160, Note_on_c, 9, 42, 0
2, 50256, Note_on_c, 9, 42, 127
2, 50304, Note_on_c, 9, 42, 0
2, 50400, Note_on_c, 9, 42, 127
2, 50448, Note_on_c, 9, 42, 0
2, 50496, Note_on_c, 9, 42, 127
2, 50544, Note_on_c, 9, 42, 0
2, 50688, Note_on_c, 9, 42, 127
2, 50736, Note_on_c, 9, 42, 0
2, 50880, Note_on_c, 9, 42, 127
2, 50928, Note_on_c, 9, 42, 0
2, 51024, Note_on_c, 9, 42, 127
2, 51072, Note_on_c, 9, 42, 0
2, 51168, Note_on_c, 9, 42, 127
2, 51216, Note_on_c, 9, 42, 0
2, 51264, Note_on_c, 9, 42, 127
2, 51312, Note_on_c, 9, 42, 0
2, 51456, Note_on_c, 9, 42, 127
2, 51504, Note_on_c, 9, 42, 0
2, 51648, Note_on_c, 9, 42, 127
2, 51696, Note_on_c, 9, 42, 0
2, 51792, Note_on_c, 9, 42, 127
2, 51840, Note_on_c, 9, 42, 0
2, 51936, Note_on_c, 9, 42, 127
2, 51984, Note_on_c, 9, 42, 0
2, 52032, Note_on_c, 9, 42, 127
2, 52080, Note_on_c, 9, 42, 0
2, 52224, Note_on_c, 9, 42, 127
2, 52224, Note_on_c, 9, 49, 127
2, 52272, Note_on_c, 9, 42, 0
2, 52272, Note_on_c, 9, 49, 0
2, 52416, Note_on_c, 9, 42, 127
2, 52464, Note_on_c, 9, 42, 0
2, 52560, Note_on_c, 9, 42, 127
2, 52608, Note_on_c, 9, 42, 0
2, 52704, Note_on_c, 9, 42, 127
2, 52752, Note_on_c, 9, 42, 0
2, 52800, Note_on_c, 9, 42, 127
2, 52848, Note_on_c, 9, 42, 0
2, 52992, Note_on_c, 9, 42, 127
2, 53040, Note_on_c, 9, 42, 0
2, 53184, Note_on_c, 9, 42, 127
2, 53232, Note_on_c, 9, 42, 0
2, 53328, Note_on_c, 9, 42, 127
2, 53376, Note_on_c, 9, 42, 0
2, 53472, Note_on_c, 9, 42, 127
2, 53520, Note_on_c, 9, 42, 0
2, 53568, Note_on_c, 9, 42, 127
2, 53616, Note_on_c, 9, 42, 0
2, 53760, Note_on_c, 9, 42, 127
2, 53808, Note_on_c, 9, 42, 0
2, 53952, Note_on_c, 9, 42, 127
2, 54000, Note_on_c, 9, 42, 0
2, 54096, Note_on_c, 9, 42, 127
2, 54144, Note_on_c, 9, 42, 0
2, 54240, Note_on_c, 9, 42, 127
2, 54288, Note_on_c, 9, 42, 0
2, 54336, Note_on_c, 9, 42, 127
2, 54384, Note_on_c, 9, 42, 0
2, 54528, Note_on_c, 9, 42, 127
2, 54576, Note_on_c, 9, 42, 0
2, 54720, Note_on_c, 9, 42, 127
2, 54768, Note_on_c, 9, 42, 0
2, 54864, Note_on_c, 9, 42, 127
2, 54912, Note_on_c, 9, 42, 0
2, 55008, Note_on_c, 9, 42, 127
2, 55056, Note_on_c, 9, 42, 0
2, 55104, Note_on_c, 9, 42, 127
2, 55152, Note_on_c, 9, 42, 0
2, 55296, Note_on_c, 9, 42, 127
2, 55296, Note_on_c, 9, 49, 127
2, 55344, Note_on_c, 9, 42, 0
2, 55344, Note_on_c, 9, 49, 0
2, 55488, Note_on_c, 9, 42, 127
2, 55536, Note_on_c, 9, 42, 0
2, 55632, Note_on_c, 9, 42, 127
2, 55680, Note_on_c, 9, 42, 0
2, 55776, Note_on_c, 9, 42, 127
2, 55824, Note_on_c, 9, 42, 0
2, 55872, Note_on_c, 9, 42, 127
2, 55920, Note_on_c, 9, 42, 0
2, 56064, Note_on_c, 9, 42, 127
2, 56112, Note_on_c, 9, 42, 0
2, 56256, Note_on_c, 9, 42, 127
2, 56304, Note_on_c, 9, 42, 0
2, 56400, Note_on_c, 9, 42, 127
2, 56448, Note_on_c, 9, 42, 0
2, 56544, Note_on_c, 9, 42, 127
2, 56592, Note_on_c, 9, 42, 0
2, 56640, Note_on_c, 9, 42, 127
2, 56688, Note_on_c, 9, 42, 0
2, 56832, Note_on_c, 9, 42, 127
2, 56880, Note_on_c, 9, 42, 0
2, 57024, Note_on_c, 9, 42, 127
2, 57072, Note_on_c, 9, 42, 0
2, 57168, Note_on_c, 9, 42, 127
2, 57216, Note_on_c, 9, 42, 0
2, 57312, Note_on_c, 9, 42, 127
2, 57360, Note_on_c, 9, 42, 0
2, 57408, Note_on_c, 9, 42, 127
2, 57456, Note_on_c, 9, 42, 0
2, 57600, Note_on_c, 9, 42, 127
2, 57648, Note_on_c, 9, 42, 0
2, 57792, Note_on_c, 9, 42, 127
2, 57840, Note_on_c, 9, 42, 0
2, 57936, Note_on_c, 9, 42, 127
2, 57984, Note_on_c, 9, 42, 0
2, 58080, Note_on_c, 9, 42, 127
2, 58128, Note_on_c, 9, 42, 0
2, 58176, Note_on_c, 9, 42, 127
2, 58224, Note_on_c, 9, 42, 0
2, 58368, Note_on_c, 9, 42, 127
2, 58368, Note_on_c, 9, 49, 127
2, 58416, Note_on_c, 9, 42, 0
2, 58416, Note_on_c, 9, 49, 0
2, 58560, Note_on_c, 9, 42, 127
2, 58608, Note_on_c, 9, 42, 0
2, 58704, Note_on_c, 9, 42, 127
2, 58752, Note_on_c, 9, 42, 0
2, 58848, Note_on_c, 9, 42, 127
2, 58896, Note_on_c, 9, 42, 0
2, 58944, Note_on_c, 9, 42, 127
2, 58992, Note_on_c, 9, 42, 0
2, 59136, Note_on_c, 9, 42, 127
2, 59184, Note_on_c, 9, 42, 0
2, 59328, Note_on_c, 9, 42, 127
2, 59376, Note_on_c, 9, 42, 0
2, 59472, Note_on_c, 9, 42, 127
2, 59520, Note_on_c, 9, 42, 0
2, 59616, Note_on_c, 9, 42, 127
2, 59664, Note_on_c, 9, 42, 0
2, 59712, Note_on_c, 9, 42, 127
2, 59760, Note_on_c, 9, 42, 0
2, 59904, Note_on_c, 9, 42, 127
2, 59952, Note_on_c, 9, 42, 0
2, 60096, Note_on_c, 9, 42, 127
2, 60144, Note_on_c, 9, 42, 0
2, 60240, Note_on_c, 9, 42, 127
2, 60288, Note_on_c, 9, 42, 0
2, 60384, Note_on_c, 9, 42, 127
2, 60432, Note_on_c, 9, 42, 0
2, 60480, Note_on_c, 9, 42, 127
2, 60528, Note_on_c, 9, 42, 0
2, 60672, Note_on_c, 9, 42, 127
2, 60720, Note_on_c, 9, 42, 0
2, 60864, Note_on_c, 9, 42, 127
2, 60912, Note_on_c, 9, 42, 0
2, 61008, Note_on_c, 9, 42, 127
2, 61056, Note_on_c, 9, 42, 0
2, 61152, Note_on_c, 9, 42, 127
2, 61200, Note_on_c, 9, 42, 0
2, 61248, Note_on_c, 9, 42, 127
2, 61296, Note_on_c, 9, 42, 0
2, 61440, Note_on_c, 9, 42, 127
2, 61440, Note_on_c, 9, 49, 127
2, 61488, Note_on_c, 9, 42, 0
2, 61488, Note_on_c, 9, 49, 0
2, 61632, Note_on_c, 9, 42, 127
2, 61680, Note_on_c, 9, 42, 0
2, 61776, Note_on_c, 9, 42, 127
2, 61824, Note_on_c, 9, 42, 0
2, 61920, Note_on_c, 9, 42, 127
2, 61968, Note_on_c, 9, 42, 0
2, 62016, Note_on_c, 9, 42, 127
2, 62064, Note_on_c, 9, 42, 0
2, 62208, Note_on_c, 9, 42, 127
2, 62256, Note_on_c, 9, 42, 0
2, 62400, Note_on_c, 9, 42, 127
2, 62448, Note_on_c, 9, 42, 0
2, 62544, Note_on_c, 9, 42, 127
2, 62592, Note_on_c, 9, 42, 0
2, 62688, Note_on_c, 9, 42, 127
2, 62736, Note_on_c, 9, 42, 0
2, 62784, Note_on_c, 9, 42, 127
2, 62832, Note_on_c, 9, 42, 0
2, 62976, Note_on_c, 9, 42, 127
2, 63024, Note_on_c, 9, 42, 0
2, 63168, Note_on_c, 9, 42, 127
2, 63216, Note_on_c, 9, 42, 0
2, 63312, Note_on_c, 9, 42, 127
2, 63360, Note_on_c, 9, 42, 0
2, 63456, Note_on_c, 9, 42, 127
2, 63504, Note_on_c, 9, 42, 0
2, 63552, Note_on_c, 9, 42, 127
2, 63600, Note_on_c, 9, 42, 0
2, 63744, Note_on_c, 9, 42, 127
2, 63792, Note_on_c, 9, 42, 0
2, 63936, Note_on_c, 9, 42, 127
2, 63984, Note_on_c, 9, 42, 0
2, 64080, Note_on_c, 9, 42, 127
2, 64128, Note_on_c, 9, 42, 0
2, 64224, Note_on_c, 9, 42, 127
2, 64272, Note_on_c, 9, 42, 0
2, 64320, Note_on_c, 9, 42, 127
2, 64368, Note_on_c, 9, 42, 0
2, 64512, Note_on_c, 9, 42, 127
2, 64512, Note_on_c, 9, 49, 127
2, 64560, Note_on_c, 9, 42, 0
2, 64560, Note_on_c, 9, 49, 0
2, 64704, Note_on_c, 9, 42, 127
2, 64752, Note_on_c, 9, 42, 0
2, 64848, Note_on_c, 9, 42, 127
2, 64896, Note_on_c, 9, 42, 0
2, 64992, Note_on_c, 9, 42, 127
2, 65040, Note_on_c, 9, 42, 0
2, 65088, Note_on_c, 9, 42, 127
2, 65136, Note_on_c, 9, 42, 0
2, 65280, Note_on_c, 9, 42, 127
2, 65328, Note_on_c, 9, 42, 0
2, 65472, Note_on_c, 9, 42, 127
2, 65520, Note_on_c, 9, 42, 0
2, 65616, Note_on_c, 9, 42, 127
2, 65664, Note_on_c, 9, 42, 0
2, 65760, Note_on_c, 9, 42, 127
2, 65808, Note_on_c, 9, 42, 0
2, 65856, Note_on_c, 9, 42, 127
2, 65904, Note_on_c, 9, 42, 0
2, 66048, Note_on_c, 9, 42, 127
2, 66096, Note_on_c, 9, 42, 0
2, 66240, Note_on_c, 9, 42, 127
2, 66288, Note_on_c, 9, 42, 0
2, 66384, Note_on_c, 9, 42, 127
2, 66432, Note_on_c, 9, 42, 0
2, 66528, Note_on_c, 9, 42, 127
2, 66576, Note_on_c, 9, 42, 0
2, 66624, Note_on_c, 9, 42, 127
2, 66672, Note_on_c, 9, 42, 0
2, 66816, Note_on_c, 9, 42, 127
2, 66864, Note_on_c, 9, 42, 0
2, 67008, Note_on_c, 9, 42, 127
2, 67056, Note_on_c, 9, 42, 0
2, 67152, Note_on_c, 9, 42, 127
2, 67200, Note_on_c, 9, 42, 0
2, 67296, Note_on_c, 9, 42, 127
2, 67344, Note_on_c, 9, 42, 0
2, 67392, Note_on_c, 9, 42, 127
2, 67440, Note_on_c, 9, 42, 0
2, 67584, Note_on_c, 9, 42, 127
2, 67584, Note_on_c, 9, 49, 127
2, 67632, Note_on_c, 9, 42, 0
2, 67632, Note_on_c, 9, 49, 0
2, 67776, Note_on_c, 9, 42, 127
2, 67824, Note_on_c, 9, 42, 0
2, 67920, Note_on_c, 9, 42, 127
2, 67968, Note_on_c, 9, 42, 0
2, 68064, Note_on_c, 9, 42, 127
2, 68112, Note_on_c, 9, 42, 0
2, 68160, Note_on_c, 9, 42, 127
2, 68208, Note_on_c, 9, 42, 0
2, 68352, Note_on_c, 9, 42, 127
2, 68400, Note_on_c, 9, 42, 0
2, 68544, Note_on_c, 9, 42, 127
2, 68592, Note_on_c, 9, 42, 0
2, 68688, Note_on_c, 9, 42, 127
2, 68736, Note_on_c, 9, 42, 0
2, 68832, Note_on_c, 9, 42, 127
2, 68880, Note_on_c, 9, 42, 0
2, 68928, Note_on_c, 9, 42, 127
2, 68976, Note_on_c, 9, 42, 0
2, 69120, Note_on_c, 9, 42, 127
2, 69168, Note_on_c, 9, 42, 0
2, 69312, Note_on_c, 9, 42, 127
2, 69360, Note_on_c, 9, 42, 0
2, 69456, Note_on_c, 9, 42, 127
2, 69504, Note_on_c, 9, 42, 0
2, 69600, Note_on_c, 9, 42, 127
2, 69648, Note_on_c, 9, 42, 0
2, 69696, Note_on_c, 9, 42, 127
2, 69744, Note_on_c, 9, 42, 0
2, 69888, Note_on_c, 9, 42, 127
2, 69936, Note_on_c, 9, 42, 0
2, 70080, Note_on_c, 9, 42, 127
2, 70128, Note_on_c, 9, 42, 0
2, 70224, Note_on_c, 9, 42, 127
2, 70272, Note_on_c, 9, 42, 0
2, 70368, Note_on_c, 9, 42, 127
2, 70416, Note_on_c, 9, 42, 0
2, 70464, Note_on_c, 9, 42, 127
2, 70512, Note_on_c, 9, 42, 0
2, 70656, Note_on_c, 9, 42, 127
2, 70656, Note_on_c, 9, 49, 127
2, 70704, Note_on_c, 9, 42, 0
2, 70704, Note_on_c, 9, 49, 0
2, 70848, Note_on_c, 9, 42, 127
2, 70896, Note_on_c, 9, 42, 0
2, 70992, Note_on_c, 9, 42, 127
2, 71040, Note_on_c, 9, 42, 0
2, 71136, Note_on_c, 9, 42, 127
2, 71184, Note_on_c, 9, 42, 0
2, 71232, Note_on_c, 9, 42, 127
2, 71280, Note_on_c, 9, 42, 0
2, 71424, Note_on_c, 9, 42, 127
2, 71472, Note_on_c, 9, 42, 0
2, 71616, Note_on_c, 9, 42, 127
2, 71664, Note_on_c, 9, 42, 0
2, 71760, Note_on_c, 9, 42, 127
2, 71808, Note_on_c, 9, 42, 0
2, 71904, Note_on_c, 9, 42, 127
2, 71952, Note_on_c, 9, 42, 0
2, 72000, Note_on_c, 9, 42, 127
2, 72048, Note_on_c, 9, 42, 0
2, 72192, Note_on_c, 9, 42, 127
2, 72240, Note_on_c, 9, 42, 0
2, 72384, Note_on_c, 9, 42, 127
2, 72432, Note_on_c, 9, 42, 0
2, 72528, Note_on_c, 9, 42, 127
2, 72576, Note_on_c, 9, 42, 0
2, 72672, Note_on_c, 9, 42, 127
2, 72720, Note_on_c, 9, 42, 0
2, 72768, Note_on_c, 9, 42, 127
2, 72816, Note_on_c, 9, 42, 0
2, 72960, Note_on_c, 9, 42, 127
2, 73008, Note_on_c, 9, 42, 0
2, 73152, Note_on_c, 9, 42, 127
2, 73200, Note_on_c, 9, 42, 0
2, 73296, Note_on_c, 9, 42, 127
2, 73344, Note_on_c, 9, 42, 0
2, 73440, Note_on_c, 9, 42, 127
2, 73488, Note_on_c, 9, 42, 0
2, 73536, Note_on_c, 9, 42, 127
2, 73584, Note_on_c, 9, 42, 0
2, 73728, Note_on_c, 9, 42, 127
2, 73728, Note_on_c, 9, 49, 127
2, 73776, Note_on_c, 9, 42, 0
2, 73776, Note_on_c, 9, 49, 0
2, 73920, Note_on_c, 9, 42, 123
2, 73968, Note_on_c, 9, 42, 0
2, 74064, Note_on_c, 9, 42, 120
2, 74112, Note_on_c, 9, 42, 0
2, 74208, Note_on_c, 9, 42, 117
2, 74256, Note_on_c, 9, 42, 0
2, 74304, Note_on_c, 9, 42, 114
2, 74352, Note_on_c, 9, 42, 0
2, 74496, Note_on_c, 9, 42, 107
2, 74544, Note_on_c, 9, 42, 0
2, 74688, Note_on_c, 9, 42, 99
2, 74736, Note_on_c, 9, 42, 0
2, 74832, Note_on_c, 9, 42, 93
2, 74880, Note_on_c, 9, 42, 0
2, 74976, Note_on_c, 9, 42, 87
2, 75024, Note_on_c, 9, 42, 0
2, 75072, Note_on_c, 9, 42, 83
2, 75120, Note_on_c, 9, 42, 0
2, 75264, Note_on_c, 9, 42, 75
2, 75312, Note_on_c, 9, 42, 0
2, 75456, Note_on_c, 9, 42, 67
2, 75504, Note_on_c, 9, 42, 0
2, 75600, Note_on_c, 9, 42, 61
2, 75648, Note_on_c, 9, 42, 0
2, 75744, Note_on_c, 9, 42, 55
2, 75792, Note_on_c, 9, 42, 0
2, 75840, Note_on_c, 9, 42, 51
2, 75888, Note_on_c, 9, 42, 0
2, 76032, Note_on_c, 9, 42, 43
2, 76080, Note_on_c, 9, 42, 0
2, 76224, Note_on_c, 9, 42, 35
2, 76272, Note_on_c, 9, 42, 0
2, 76368, Note_on_c, 9, 42, 29
2, 76416, Note_on_c, 9, 42, 0
2, 76512, Note_on_c, 9, 42, 23
2, 76560, Note_on_c, 9, 42, 0
2, 76608, Note_on_c, 9, 42, 19
2, 76656, Note_on_c, 9, 42, 0
2, 76656, End_track
3, 0, Start_track
3, 0, MIDI_port, 0
3, 0, Title_t, "Staff-2"
3, 0, Program_c, 9, 8
3, 0, Control_c, 9, 7, 127
3, 0, Control_c, 9, 10, 64
3, 48, Note_on_c, 9, 42, 75
3, 96, Note_on_c, 9, 42, 0
3, 96, Note_on_c, 9, 42, 75
3, 144, Note_on_c, 9, 42, 0
3, 144, Note_on_c, 9, 42, 75
3, 192, Note_on_c, 9, 42, 0
3, 240, Note_on_c, 9, 42, 75
3, 288, Note_on_c, 9, 42, 0
3, 288, Note_on_c, 9, 42, 75
3, 336, Note_on_c, 9, 42, 0
3, 384, Note_on_c, 9, 42, 75
3, 432, Note_on_c, 9, 42, 0
3, 432, Note_on_c, 9, 42, 75
3, 480, Note_on_c, 9, 42, 0
3, 528, Note_on_c, 9, 42, 75
3, 576, Note_on_c, 9, 42, 0
3, 624, Note_on_c, 9, 42, 75
3, 672, Note_on_c, 9, 42, 0
3, 672, Note_on_c, 9, 42, 75
3, 720, Note_on_c, 9, 42, 0
3, 720, Note_on_c, 9, 42, 75
3, 768, Note_on_c, 9, 42, 0
3, 816, Note_on_c, 9, 42, 75
3, 864, Note_on_c, 9, 42, 0
3, 864, Note_on_c, 9, 42, 75
3, 912, Note_on_c, 9, 42, 0
3, 912, Note_on_c, 9, 42, 75
3, 960, Note_on_c, 9, 42, 0
3, 1008, Note_on_c, 9, 42, 75
3, 1056, Note_on_c, 9, 42, 0
3, 1056, Note_on_c, 9, 42, 75
3, 1104, Note_on_c, 9, 42, 0
3, 1152, Note_on_c, 9, 42, 75
3, 1200, Note_on_c, 9, 42, 0
3, 1200, Note_on_c, 9, 42, 75
3, 1248, Note_on_c, 9, 42, 0
3, 1296, Note_on_c, 9, 42, 75
3, 1344, Note_on_c, 9, 42, 0
3, 1392, Note_on_c, 9, 42, 75
3, 1440, Note_on_c, 9, 42, 0
3, 1440, Note_on_c, 9, 42, 75
3, 1488, Note_on_c, 9, 42, 0
3, 1488, Note_on_c, 9, 42, 75
3, 1536, Note_on_c, 9, 42, 0
3, 1584, Note_on_c, 9, 42, 75
3, 1632, Note_on_c, 9, 42, 0
3, 1632, Note_on_c, 9, 42, 75
3, 1680, Note_on_c, 9, 42, 0
3, 1680, Note_on_c, 9, 42, 75
3, 1728, Note_on_c, 9, 42, 0
3, 1776, Note_on_c, 9, 42, 75
3, 1824, Note_on_c, 9, 42, 0
3, 1824, Note_on_c, 9, 42, 75
3, 1872, Note_on_c, 9, 42, 0
3, 1920, Note_on_c, 9, 42, 75
3, 1968, Note_on_c, 9, 42, 0
3, 1968, Note_on_c, 9, 42, 75
3, 2016, Note_on_c, 9, 42, 0
3, 2064, Note_on_c, 9, 42, 75
3, 2112, Note_on_c, 9, 42, 0
3, 2160, Note_on_c, 9, 42, 75
3, 2208, Note_on_c, 9, 42, 0
3, 2208, Note_on_c, 9, 42, 75
3, 2256, Note_on_c, 9, 42, 0
3, 2256, Note_on_c, 9, 42, 75
3, 2304, Note_on_c, 9, 42, 0
3, 2352, Note_on_c, 9, 42, 75
3, 2400, Note_on_c, 9, 42, 0
3, 2400, Note_on_c, 9, 42, 75
3, 2448, Note_on_c, 9, 42, 0
3, 2448, Note_on_c, 9, 42, 75
3, 2496, Note_on_c, 9, 42, 0
3, 2544, Note_on_c, 9, 42, 75
3, 2592, Note_on_c, 9, 42, 0
3, 2592, Note_on_c, 9, 42, 75
3, 2640, Note_on_c, 9, 42, 0
3, 2688, Note_on_c, 9, 42, 75
3, 2736, Note_on_c, 9, 42, 0
3, 2736, Note_on_c, 9, 42, 75
3, 2784, Note_on_c, 9, 42, 0
3, 2832, Note_on_c, 9, 42, 75
3, 2880, Note_on_c, 9, 42, 0
3, 2928, Note_on_c, 9, 42, 75
3, 2976, Note_on_c, 9, 42, 0
3, 2976, Note_on_c, 9, 42, 75
3, 3024, Note_on_c, 9, 42, 0
3, 3024, Note_on_c, 9, 42, 75
3, 3072, Note_on_c, 9, 42, 0
3, 3120, Note_on_c, 9, 42, 75
3, 3168, Note_on_c, 9, 42, 0
3, 3168, Note_on_c, 9, 42, 75
3, 3216, Note_on_c, 9, 42, 0
3, 3216, Note_on_c, 9, 42, 75
3, 3264, Note_on_c, 9, 42, 0
3, 3312, Note_on_c, 9, 42, 75
3, 3360, Note_on_c, 9, 42, 0
3, 3360, Note_on_c, 9, 42, 75
3, 3408, Note_on_c, 9, 42, 0
3, 3456, Note_on_c, 9, 42, 75
3, 3504, Note_on_c, 9, 42, 0
3, 3504, Note_on_c, 9, 42, 75
3, 3552, Note_on_c, 9, 42, 0
3, 3600, Note_on_c, 9, 42, 75
3, 3648, Note_on_c, 9, 42, 0
3, 3696, Note_on_c, 9, 42, 75
3, 3744, Note_on_c, 9, 42, 0
3, 3744, Note_on_c, 9, 42, 75
3, 3792, Note_on_c, 9, 42, 0
3, 3792, Note_on_c, 9, 42, 75
3, 3840, Note_on_c, 9, 42, 0
3, 3888, Note_on_c, 9, 42, 75
3, 3936, Note_on_c, 9, 42, 0
3, 3936, Note_on_c, 9, 42, 75
3, 3984, Note_on_c, 9, 42, 0
3, 3984, Note_on_c, 9, 42, 75
3, 4032, Note_on_c, 9, 42, 0
3, 4080, Note_on_c, 9, 42, 75
3, 4128, Note_on_c, 9, 42, 0
3, 4128, Note_on_c, 9, 42, 75
3, 4176, Note_on_c, 9, 42, 0
3, 4224, Note_on_c, 9, 42, 75
3, 4272, Note_on_c, 9, 42, 0
3, 4272, Note_on_c, 9, 42, 75
3, 4320, Note_on_c, 9, 42, 0
3, 4368, Note_on_c, 9, 42, 75
3, 4416, Note_on_c, 9, 42, 0
3, 4464, Note_on_c, 9, 42, 75
3, 4512, Note_on_c, 9, 42, 0
3, 4512, Note_on_c, 9, 42, 75
3, 4560, Note_on_c, 9, 42, 0
3, 4560, Note_on_c, 9, 42, 75
3, 4608, Note_on_c, 9, 42, 0
3, 4656, Note_on_c, 9, 42, 75
3, 4704, Note_on_c, 9, 42, 0
3, 4704, Note_on_c, 9, 42, 75
3, 4752, Note_on_c, 9, 42, 0
3, 4752, Note_on_c, 9, 42, 75
3, 4800, Note_on_c, 9, 42, 0
3, 4848, Note_on_c, 9, 42, 75
3, 4896, Note_on_c, 9, 42, 0
3, 4896, Note_on_c, 9, 42, 75
3, 4944, Note_on_c, 9, 42, 0
3, 4992, Note_on_c, 9, 42, 75
3, 5040, Note_on_c, 9, 42, 0
3, 5040, Note_on_c, 9, 42, 75
3, 5088, Note_on_c, 9, 42, 0
3, 5136, Note_on_c, 9, 42, 75
3, 5184, Note_on_c, 9, 42, 0
3, 5232, Note_on_c, 9, 42, 75
3, 5280, Note_on_c, 9, 42, 0
3, 5280, Note_on_c, 9, 42, 75
3, 5328, Note_on_c, 9, 42, 0
3, 5328, Note_on_c, 9, 42, 75
3, 5376, Note_on_c, 9, 42, 0
3, 5424, Note_on_c, 9, 42, 75
3, 5472, Note_on_c, 9, 42, 0
3, 5472, Note_on_c, 9, 42, 75
3, 5520, Note_on_c, 9, 42, 0
3, 5520, Note_on_c, 9, 42, 75
3, 5568, Note_on_c, 9, 42, 0
3, 5616, Note_on_c, 9, 42, 75
3, 5664, Note_on_c, 9, 42, 0
3, 5664, Note_on_c, 9, 42, 75
3, 5712, Note_on_c, 9, 42, 0
3, 5760, Note_on_c, 9, 42, 75
3, 5808, Note_on_c, 9, 42, 0
3, 5808, Note_on_c, 9, 42, 75
3, 5856, Note_on_c, 9, 42, 0
3, 5904, Note_on_c, 9, 42, 75
3, 5952, Note_on_c, 9, 42, 0
3, 6000, Note_on_c, 9, 42, 75
3, 6048, Note_on_c, 9, 42, 0
3, 6048, Note_on_c, 9, 42, 75
3, 6096, Note_on_c, 9, 42, 0
3, 6096, Note_on_c, 9, 42, 75
3, 6144, Note_on_c, 9, 42, 0
3, 6192, Note_on_c, 9, 42, 75
3, 6240, Note_on_c, 9, 42, 0
3, 6240, Note_on_c, 9, 42, 75
3, 6288, Note_on_c, 9, 42, 0
3, 6288, Note_on_c, 9, 42, 75
3, 6336, Note_on_c, 9, 42, 0
3, 6384, Note_on_c, 9, 42, 75
3, 6432, Note_on_c, 9, 42, 0
3, 6432, Note_on_c, 9, 42, 75
3, 6480, Note_on_c, 9, 42, 0
3, 6528, Note_on_c, 9, 42, 75
3, 6576, Note_on_c, 9, 42, 0
3, 6576, Note_on_c, 9, 42, 75
3, 6624, Note_on_c, 9, 42, 0
3, 6672, Note_on_c, 9, 42, 75
3, 6720, Note_on_c, 9, 42, 0
3, 6768, Note_on_c, 9, 42, 75
3, 6816, Note_on_c, 9, 42, 0
3, 6816, Note_on_c, 9, 42, 75
3, 6864, Note_on_c, 9, 42, 0
3, 6864, Note_on_c, 9, 42, 75
3, 6912, Note_on_c, 9, 42, 0
3, 6960, Note_on_c, 9, 42, 75
3, 7008, Note_on_c, 9, 42, 0
3, 7008, Note_on_c, 9, 42, 75
3, 7056, Note_on_c, 9, 42, 0
3, 7056, Note_on_c, 9, 42, 75
3, 7104, Note_on_c, 9, 42, 0
3, 7152, Note_on_c, 9, 42, 75
3, 7200, Note_on_c, 9, 42, 0
3, 7200, Note_on_c, 9, 42, 75
3, 7248, Note_on_c, 9, 42, 0
3, 7296, Note_on_c, 9, 42, 75
3, 7344, Note_on_c, 9, 42, 0
3, 7344, Note_on_c, 9, 42, 75
3, 7392, Note_on_c, 9, 42, 0
3, 7440, Note_on_c, 9, 42, 75
3, 7488, Note_on_c, 9, 42, 0
3, 7536, Note_on_c, 9, 42, 75
3, 7584, Note_on_c, 9, 42, 0
3, 7584, Note_on_c, 9, 42, 75
3, 7632, Note_on_c, 9, 42, 0
3, 7632, Note_on_c, 9, 42, 75
3, 7680, Note_on_c, 9, 42, 0
3, 7728, Note_on_c, 9, 42, 75
3, 7776, Note_on_c, 9, 42, 0
3, 7776, Note_on_c, 9, 42, 75
3, 7824, Note_on_c, 9, 42, 0
3, 7824, Note_on_c, 9, 42, 75
3, 7872, Note_on_c, 9, 42, 0
3, 7920, Note_on_c, 9, 42, 75
3, 7968, Note_on_c, 9, 42, 0
3, 7968, Note_on_c, 9, 42, 75
3, 8016, Note_on_c, 9, 42, 0
3, 8064, Note_on_c, 9, 42, 75
3, 8112, Note_on_c, 9, 42, 0
3, 8112, Note_on_c, 9, 42, 75
3, 8160, Note_on_c, 9, 42, 0
3, 8208, Note_on_c, 9, 42, 75
3, 8256, Note_on_c, 9, 42, 0
3, 8304, Note_on_c, 9, 42, 75
3, 8352, Note_on_c, 9, 42, 0
3, 8352, Note_on_c, 9, 42, 75
3, 8400, Note_on_c, 9, 42, 0
3, 8400, Note_on_c, 9, 42, 75
3, 8448, Note_on_c, 9, 42, 0
3, 8496, Note_on_c, 9, 42, 75
3, 8544, Note_on_c, 9, 42, 0
3, 8544, Note_on_c, 9, 42, 75
3, 8592, Note_on_c, 9, 42, 0
3, 8592, Note_on_c, 9, 42, 75
3, 8640, Note_on_c, 9, 42, 0
3, 8688, Note_on_c, 9, 42, 75
3, 8736, Note_on_c, 9, 42, 0
3, 8736, Note_on_c, 9, 42, 75
3, 8784, Note_on_c, 9, 42, 0
3, 8832, Note_on_c, 9, 42, 75
3, 8880, Note_on_c, 9, 42, 0
3, 8880, Note_on_c, 9, 42, 75
3, 8928, Note_on_c, 9, 42, 0
3, 8976, Note_on_c, 9, 42, 75
3, 9024, Note_on_c, 9, 42, 0
3, 9072, Note_on_c, 9, 42, 75
3, 9120, Note_on_c, 9, 42, 0
3, 9120, Note_on_c, 9, 42, 75
3, 9168, Note_on_c, 9, 42, 0
3, 9168, Note_on_c, 9, 42, 75
3, 9216, Note_on_c, 9, 42, 0
3, 9264, Note_on_c, 9, 42, 75
3, 9312, Note_on_c, 9, 42, 0
3, 9312, Note_on_c, 9, 42, 75
3, 9360, Note_on_c, 9, 42, 0
3, 9360, Note_on_c, 9, 42, 75
3, 9408, Note_on_c, 9, 42, 0
3, 9456, Note_on_c, 9, 42, 75
3, 9504, Note_on_c, 9, 42, 0
3, 9504, Note_on_c, 9, 42, 75
3, 9552, Note_on_c, 9, 42, 0
3, 9600, Note_on_c, 9, 42, 75
3, 9648, Note_on_c, 9, 42, 0
3, 9648, Note_on_c, 9, 42, 75
3, 9696, Note_on_c, 9, 42, 0
3, 9744, Note_on_c, 9, 42, 75
3, 9792, Note_on_c, 9, 42, 0
3, 9840, Note_on_c, 9, 42, 75
3, 9888, Note_on_c, 9, 42, 0
3, 9888, Note_on_c, 9, 42, 75
3, 9936, Note_on_c, 9, 42, 0
3, 9936, Note_on_c, 9, 42, 75
3, 9984, Note_on_c, 9, 42, 0
3, 10032, Note_on_c, 9, 42, 75
3, 10080, Note_on_c, 9, 42, 0
3, 10080, Note_on_c, 9, 42, 75
3, 10128, Note_on_c, 9, 42, 0
3, 10128, Note_on_c, 9, 42, 75
3, 10176, Note_on_c, 9, 42, 0
3, 10224, Note_on_c, 9, 42, 75
3, 10272, Note_on_c, 9, 42, 0
3, 10272, Note_on_c, 9, 42, 75
3, 10320, Note_on_c, 9, 42, 0
3, 10368, Note_on_c, 9, 42, 75
3, 10416, Note_on_c, 9, 42, 0
3, 10416, Note_on_c, 9, 42, 75
3, 10464, Note_on_c, 9, 42, 0
3, 10512, Note_on_c, 9, 42, 75
3, 10560, Note_on_c, 9, 42, 0
3, 10608, Note_on_c, 9, 42, 75
3, 10656, Note_on_c, 9, 42, 0
3, 10656, Note_on_c, 9, 42, 75
3, 10704, Note_on_c, 9, 42, 0
3, 10704, Note_on_c, 9, 42, 75
3, 10752, Note_on_c, 9, 42, 0
3, 10800, Note_on_c, 9, 42, 75
3, 10848, Note_on_c, 9, 42, 0
3, 10848, Note_on_c, 9, 42, 75
3, 10896, Note_on_c, 9, 42, 0
3, 10896, Note_on_c, 9, 42, 75
3, 10944, Note_on_c, 9, 42, 0
3, 10992, Note_on_c, 9, 42, 75
3, 11040, Note_on_c, 9, 42, 0
3, 11040, Note_on_c, 9, 42, 75
3, 11088, Note_on_c, 9, 42, 0
3, 11136, Note_on_c, 9, 42, 75
3, 11184, Note_on_c, 9, 42, 0
3, 11184, Note_on_c, 9, 42, 75
3, 11232, Note_on_c, 9, 42, 0
3, 11280, Note_on_c, 9, 42, 75
3, 11328, Note_on_c, 9, 42, 0
3, 11376, Note_on_c, 9, 42, 75
3, 11424, Note_on_c, 9, 42, 0
3, 11424, Note_on_c, 9, 42, 75
3, 11472, Note_on_c, 9, 42, 0
3, 11472, Note_on_c, 9, 42, 75
3, 11520, Note_on_c, 9, 42, 0
3, 11568, Note_on_c, 9, 42, 75
3, 11616, Note_on_c, 9, 42, 0
3, 11616, Note_on_c, 9, 42, 75
3, 11664, Note_on_c, 9, 42, 0
3, 11664, Note_on_c, 9, 42, 75
3, 11712, Note_on_c, 9, 42, 0
3, 11760, Note_on_c, 9, 42, 75
3, 11808, Note_on_c, 9, 42, 0
3, 11808, Note_on_c, 9, 42, 75
3, 11856, Note_on_c, 9, 42, 0
3, 11904, Note_on_c, 9, 42, 75
3, 11952, Note_on_c, 9, 42, 0
3, 11952, Note_on_c, 9, 42, 75
3, 12000, Note_on_c, 9, 42, 0
3, 12048, Note_on_c, 9, 42, 75
3, 12096, Note_on_c, 9, 42, 0
3, 12144, Note_on_c, 9, 42, 75
3, 12192, Note_on_c, 9, 42, 0
3, 12192, Note_on_c, 9, 42, 75
3, 12240, Note_on_c, 9, 42, 0
3, 12240, Note_on_c, 9, 42, 75
3, 12288, Note_on_c, 9, 42, 0
3, 12336, Note_on_c, 9, 42, 75
3, 12384, Note_on_c, 9, 42, 0
3, 12384, Note_on_c, 9, 42, 75
3, 12432, Note_on_c, 9, 42, 0
3, 12432, Note_on_c, 9, 42, 75
3, 12480, Note_on_c, 9, 42, 0
3, 12528, Note_on_c, 9, 42, 75
3, 12576, Note_on_c, 9, 42, 0
3, 12576, Note_on_c, 9, 42, 75
3, 12624, Note_on_c, 9, 42, 0
3, 12672, Note_on_c, 9, 42, 75
3, 12720, Note_on_c, 9, 42, 0
3, 12720, Note_on_c, 9, 42, 75
3, 12768, Note_on_c, 9, 42, 0
3, 12816, Note_on_c, 9, 42, 75
3, 12864, Note_on_c, 9, 42, 0
3, 12912, Note_on_c, 9, 42, 75
3, 12960, Note_on_c, 9, 42, 0
3, 12960, Note_on_c, 9, 42, 75
3, 13008, Note_on_c, 9, 42, 0
3, 13008, Note_on_c, 9, 42, 75
3, 13056, Note_on_c, 9, 42, 0
3, 13104, Note_on_c, 9, 42, 75
3, 13152, Note_on_c, 9, 42, 0
3, 13152, Note_on_c, 9, 42, 75
3, 13200, Note_on_c, 9, 42, 0
3, 13200, Note_on_c, 9, 42, 75
3, 13248, Note_on_c, 9, 42, 0
3, 13296, Note_on_c, 9, 42, 75
3, 13344, Note_on_c, 9, 42, 0
3, 13344, Note_on_c, 9, 42, 75
3, 13392, Note_on_c, 9, 42, 0
3, 13440, Note_on_c, 9, 42, 75
3, 13488, Note_on_c, 9, 42, 0
3, 13488, Note_on_c, 9, 42, 75
3, 13536, Note_on_c, 9, 42, 0
3, 13584, Note_on_c, 9, 42, 75
3, 13632, Note_on_c, 9, 42, 0
3, 13680, Note_on_c, 9, 42, 75
3, 13728, Note_on_c, 9, 42, 0
3, 13728, Note_on_c, 9, 42, 75
3, 13776, Note_on_c, 9, 42, 0
3, 13776, Note_on_c, 9, 42, 75
3, 13824, Note_on_c, 9, 42, 0
3, 13872, Note_on_c, 9, 42, 75
3, 13920, Note_on_c, 9, 42, 0
3, 13920, Note_on_c, 9, 42, 75
3, 13968, Note_on_c, 9, 42, 0
3, 13968, Note_on_c, 9, 42, 75
3, 14016, Note_on_c, 9, 42, 0
3, 14064, Note_on_c, 9, 42, 75
3, 14112, Note_on_c, 9, 42, 0
3, 14112, Note_on_c, 9, 42, 75
3, 14160, Note_on_c, 9, 42, 0
3, 14208, Note_on_c, 9, 42, 75
3, 14256, Note_on_c, 9, 42, 0
3, 14256, Note_on_c, 9, 42, 75
3, 14304, Note_on_c, 9, 42, 0
3, 14352, Note_on_c, 9, 42, 75
3, 14400, Note_on_c, 9, 42, 0
3, 14448, Note_on_c, 9, 42, 75
3, 14496, Note_on_c, 9, 42, 0
3, 14496, Note_on_c, 9, 42, 75
3, 14544, Note_on_c, 9, 42, 0
3, 14544, Note_on_c, 9, 42, 75
3, 14592, Note_on_c, 9, 42, 0
3, 14640, Note_on_c, 9, 42, 75
3, 14688, Note_on_c, 9, 42, 0
3, 14688, Note_on_c, 9, 42, 75
3, 14736, Note_on_c, 9, 42, 0
3, 14736, Note_on_c, 9, 42, 75
3, 14784, Note_on_c, 9, 42, 0
3, 14832, Note_on_c, 9, 42, 75
3, 14880, Note_on_c, 9, 42, 0
3, 14880, Note_on_c, 9, 42, 75
3, 14928, Note_on_c, 9, 42, 0
3, 14976, Note_on_c, 9, 42, 75
3, 15024, Note_on_c, 9, 42, 0
3, 15024, Note_on_c, 9, 42, 75
3, 15072, Note_on_c, 9, 42, 0
3, 15120, Note_on_c, 9, 42, 75
3, 15168, Note_on_c, 9, 42, 0
3, 15216, Note_on_c, 9, 42, 75
3, 15264, Note_on_c, 9, 42, 0
3, 15264, Note_on_c, 9, 42, 75
3, 15312, Note_on_c, 9, 42, 0
3, 15312, Note_on_c, 9, 42, 75
3, 15360, Note_on_c, 9, 42, 0
3, 15408, Note_on_c, 9, 42, 75
3, 15456, Note_on_c, 9, 42, 0
3, 15456, Note_on_c, 9, 42, 75
3, 15504, Note_on_c, 9, 42, 0
3, 15504, Note_on_c, 9, 42, 75
3, 15552, Note_on_c, 9, 42, 0
3, 15600, Note_on_c, 9, 42, 75
3, 15648, Note_on_c, 9, 42, 0
3, 15648, Note_on_c, 9, 42, 75
3, 15696, Note_on_c, 9, 42, 0
3, 15744, Note_on_c, 9, 42, 75
3, 15792, Note_on_c, 9, 42, 0
3, 15792, Note_on_c, 9, 42, 75
3, 15840, Note_on_c, 9, 42, 0
3, 15888, Note_on_c, 9, 42, 75
3, 15936, Note_on_c, 9, 42, 0
3, 15984, Note_on_c, 9, 42, 75
3, 16032, Note_on_c, 9, 42, 0
3, 16032, Note_on_c, 9, 42, 75
3, 16080, Note_on_c, 9, 42, 0
3, 16080, Note_on_c, 9, 42, 75
3, 16128, Note_on_c, 9, 42, 0
3, 16176, Note_on_c, 9, 42, 75
3, 16224, Note_on_c, 9, 42, 0
3, 16224, Note_on_c, 9, 42, 75
3, 16272, Note_on_c, 9, 42, 0
3, 16272, Note_on_c, 9, 42, 75
3, 16320, Note_on_c, 9, 42, 0
3, 16368, Note_on_c, 9, 42, 75
3, 16416, Note_on_c, 9, 42, 0
3, 16416, Note_on_c, 9, 42, 75
3, 16464, Note_on_c, 9, 42, 0
3, 16512, Note_on_c, 9, 42, 75
3, 16560, Note_on_c, 9, 42, 0
3, 16560, Note_on_c, 9, 42, 75
3, 16608, Note_on_c, 9, 42, 0
3, 16656, Note_on_c, 9, 42, 75
3, 16704, Note_on_c, 9, 42, 0
3, 16752, Note_on_c, 9, 42, 75
3, 16800, Note_on_c, 9, 42, 0
3, 16800, Note_on_c, 9, 42, 75
3, 16848, Note_on_c, 9, 42, 0
3, 16848, Note_on_c, 9, 42, 75
3, 16896, Note_on_c, 9, 42, 0
3, 16944, Note_on_c, 9, 42, 75
3, 16992, Note_on_c, 9, 42, 0
3, 16992, Note_on_c, 9, 42, 75
3, 17040, Note_on_c, 9, 42, 0
3, 17040, Note_on_c, 9, 42, 75
3, 17088, Note_on_c, 9, 42, 0
3, 17136, Note_on_c, 9, 42, 75
3, 17184, Note_on_c, 9, 42, 0
3, 17184, Note_on_c, 9, 42, 75
3, 17232, Note_on_c, 9, 42, 0
3, 17280, Note_on_c, 9, 42, 75
3, 17328, Note_on_c, 9, 42, 0
3, 17328, Note_on_c, 9, 42, 75
3, 17376, Note_on_c, 9, 42, 0
3, 17424, Note_on_c, 9, 42, 75
3, 17472, Note_on_c, 9, 42, 0
3, 17520, Note_on_c, 9, 42, 75
3, 17568, Note_on_c, 9, 42, 0
3, 17568, Note_on_c, 9, 42, 75
3, 17616, Note_on_c, 9, 42, 0
3, 17616, Note_on_c, 9, 42, 75
3, 17664, Note_on_c, 9, 42, 0
3, 17712, Note_on_c, 9, 42, 75
3, 17760, Note_on_c, 9, 42, 0
3, 17760, Note_on_c, 9, 42, 75
3, 17808, Note_on_c, 9, 42, 0
3, 17808, Note_on_c, 9, 42, 75
3, 17856, Note_on_c, 9, 42, 0
3, 17904, Note_on_c, 9, 42, 75
3, 17952, Note_on_c, 9, 42, 0
3, 17952, Note_on_c, 9, 42, 75
3, 18000, Note_on_c, 9, 42, 0
3, 18048, Note_on_c, 9, 42, 75
3, 18096, Note_on_c, 9, 42, 0
3, 18096, Note_on_c, 9, 42, 75
3, 18144, Note_on_c, 9, 42, 0
3, 18192, Note_on_c, 9, 42, 75
3, 18240, Note_on_c, 9, 42, 0
3, 18288, Note_on_c, 9, 42, 75
3, 18336, Note_on_c, 9, 42, 0
3, 18336, Note_on_c, 9, 42, 75
3, 18384, Note_on_c, 9, 42, 0
3, 18384, Note_on_c, 9, 42, 75
3, 18432, Note_on_c, 9, 42, 0
3, 18480, Note_on_c, 9, 42, 75
3, 18528, Note_on_c, 9, 42, 0
3, 18528, Note_on_c, 9, 42, 75
3, 18576, Note_on_c, 9, 42, 0
3, 18576, Note_on_c, 9, 42, 75
3, 18624, Note_on_c, 9, 42, 0
3, 18672, Note_on_c, 9, 42, 75
3, 18720, Note_on_c, 9, 42, 0
3, 18720, Note_on_c, 9, 42, 75
3, 18768, Note_on_c, 9, 42, 0
3, 18816, Note_on_c, 9, 42, 75
3, 18864, Note_on_c, 9, 42, 0
3, 18864, Note_on_c, 9, 42, 75
3, 18912, Note_on_c, 9, 42, 0
3, 18960, Note_on_c, 9, 42, 75
3, 19008, Note_on_c, 9, 42, 0
3, 19056, Note_on_c, 9, 42, 75
3, 19104, Note_on_c, 9, 42, 0
3, 19104, Note_on_c, 9, 42, 75
3, 19152, Note_on_c, 9, 42, 0
3, 19152, Note_on_c, 9, 42, 75
3, 19200, Note_on_c, 9, 42, 0
3, 19248, Note_on_c, 9, 42, 75
3, 19296, Note_on_c, 9, 42, 0
3, 19296, Note_on_c, 9, 42, 75
3, 19344, Note_on_c, 9, 42, 0
3, 19344, Note_on_c, 9, 42, 75
3, 19392, Note_on_c, 9, 42, 0
3, 19440, Note_on_c, 9, 42, 75
3, 19488, Note_on_c, 9, 42, 0
3, 19488, Note_on_c, 9, 42, 75
3, 19536, Note_on_c, 9, 42, 0
3, 19584, Note_on_c, 9, 42, 75
3, 19632, Note_on_c, 9, 42, 0
3, 19632, Note_on_c, 9, 42, 75
3, 19680, Note_on_c, 9, 42, 0
3, 19728, Note_on_c, 9, 42, 75
3, 19776, Note_on_c, 9, 42, 0
3, 19824, Note_on_c, 9, 42, 75
3, 19872, Note_on_c, 9, 42, 0
3, 19872, Note_on_c, 9, 42, 75
3, 19920, Note_on_c, 9, 42, 0
3, 19920, Note_on_c, 9, 42, 75
3, 19968, Note_on_c, 9, 42, 0
3, 20016, Note_on_c, 9, 42, 75
3, 20064, Note_on_c, 9, 42, 0
3, 20064, Note_on_c, 9, 42, 75
3, 20112, Note_on_c, 9, 42, 0
3, 20112, Note_on_c, 9, 42, 75
3, 20160, Note_on_c, 9, 42, 0
3, 20208, Note_on_c, 9, 42, 75
3, 20256, Note_on_c, 9, 42, 0
3, 20256, Note_on_c, 9, 42, 75
3, 20304, Note_on_c, 9, 42, 0
3, 20352, Note_on_c, 9, 42, 75
3, 20400, Note_on_c, 9, 42, 0
3, 20400, Note_on_c, 9, 42, 75
3, 20448, Note_on_c, 9, 42, 0
3, 20496, Note_on_c, 9, 42, 75
3, 20544, Note_on_c, 9, 42, 0
3, 20592, Note_on_c, 9, 42, 75
3, 20640, Note_on_c, 9, 42, 0
3, 20640, Note_on_c, 9, 42, 75
3, 20688, Note_on_c, 9, 42, 0
3, 20688, Note_on_c, 9, 42, 75
3, 20736, Note_on_c, 9, 42, 0
3, 20784, Note_on_c, 9, 42, 75
3, 20832, Note_on_c, 9, 42, 0
3, 20832, Note_on_c, 9, 42, 75
3, 20880, Note_on_c, 9, 42, 0
3, 20880, Note_on_c, 9, 42, 75
3, 20928, Note_on_c, 9, 42, 0
3, 20976, Note_on_c, 9, 42, 75
3, 21024, Note_on_c, 9, 42, 0
3, 21024, Note_on_c, 9, 42, 75
3, 21072, Note_on_c, 9, 42, 0
3, 21120, Note_on_c, 9, 42, 75
3, 21168, Note_on_c, 9, 42, 0
3, 21168, Note_on_c, 9, 42, 75
3, 21216, Note_on_c, 9, 42, 0
3, 21264, Note_on_c, 9, 42, 75
3, 21312, Note_on_c, 9, 42, 0
3, 21360, Note_on_c, 9, 42, 75
3, 21408, Note_on_c, 9, 42, 0
3, 21408, Note_on_c, 9, 42, 75
3, 21456, Note_on_c, 9, 42, 0
3, 21456, Note_on_c, 9, 42, 75
3, 21504, Note_on_c, 9, 42, 0
3, 21552, Note_on_c, 9, 42, 75
3, 21600, Note_on_c, 9, 42, 0
3, 21600, Note_on_c, 9, 42, 75
3, 21648, Note_on_c, 9, 42, 0
3, 21648, Note_on_c, 9, 42, 75
3, 21696, Note_on_c, 9, 42, 0
3, 21744, Note_on_c, 9, 42, 75
3, 21792, Note_on_c, 9, 42, 0
3, 21792, Note_on_c, 9, 42, 75
3, 21840, Note_on_c, 9, 42, 0
3, 21888, Note_on_c, 9, 42, 75
3, 21936, Note_on_c, 9, 42, 0
3, 21936, Note_on_c, 9, 42, 75
3, 21984, Note_on_c, 9, 42, 0
3, 22032, Note_on_c, 9, 42, 75
3, 22080, Note_on_c, 9, 42, 0
3, 22128, Note_on_c, 9, 42, 75
3, 22176, Note_on_c, 9, 42, 0
3, 22176, Note_on_c, 9, 42, 75
3, 22224, Note_on_c, 9, 42, 0
3, 22224, Note_on_c, 9, 42, 75
3, 22272, Note_on_c, 9, 42, 0
3, 22320, Note_on_c, 9, 42, 75
3, 22368, Note_on_c, 9, 42, 0
3, 22368, Note_on_c, 9, 42, 75
3, 22416, Note_on_c, 9, 42, 0
3, 22416, Note_on_c, 9, 42, 75
3, 22464, Note_on_c, 9, 42, 0
3, 22512, Note_on_c, 9, 42, 75
3, 22560, Note_on_c, 9, 42, 0
3, 22560, Note_on_c, 9, 42, 75
3, 22608, Note_on_c, 9, 42, 0
3, 22656, Note_on_c, 9, 42, 75
3, 22704, Note_on_c, 9, 42, 0
3, 22704, Note_on_c, 9, 42, 75
3, 22752, Note_on_c, 9, 42, 0
3, 22800, Note_on_c, 9, 42, 75
3, 22848, Note_on_c, 9, 42, 0
3, 22896, Note_on_c, 9, 42, 75
3, 22944, Note_on_c, 9, 42, 0
3, 22944, Note_on_c, 9, 42, 75
3, 22992, Note_on_c, 9, 42, 0
3, 22992, Note_on_c, 9, 42, 75
3, 23040, Note_on_c, 9, 42, 0
3, 23088, Note_on_c, 9, 42, 75
3, 23136, Note_on_c, 9, 42, 0
3, 23136, Note_on_c, 9, 42, 75
3, 23184, Note_on_c, 9, 42, 0
3, 23184, Note_on_c, 9, 42, 75
3, 23232, Note_on_c, 9, 42, 0
3, 23280, Note_on_c, 9, 42, 75
3, 23328, Note_on_c, 9, 42, 0
3, 23328, Note_on_c, 9, 42, 75
3, 23376, Note_on_c, 9, 42, 0
3, 23424, Note_on_c, 9, 42, 75
3, 23472, Note_on_c, 9, 42, 0
3, 23472, Note_on_c, 9, 42, 75
3, 23520, Note_on_c, 9, 42, 0
3, 23568, Note_on_c, 9, 42, 75
3, 23616, Note_on_c, 9, 42, 0
3, 23664, Note_on_c, 9, 42, 75
3, 23712, Note_on_c, 9, 42, 0
3, 23712, Note_on_c, 9, 42, 75
3, 23760, Note_on_c, 9, 42, 0
3, 23760, Note_on_c, 9, 42, 75
3, 23808, Note_on_c, 9, 42, 0
3, 23856, Note_on_c, 9, 42, 75
3, 23904, Note_on_c, 9, 42, 0
3, 23904, Note_on_c, 9, 42, 75
3, 23952, Note_on_c, 9, 42, 0
3, 23952, Note_on_c, 9, 42, 75
3, 24000, Note_on_c, 9, 42, 0
3, 24048, Note_on_c, 9, 42, 75
3, 24096, Note_on_c, 9, 42, 0
3, 24096, Note_on_c, 9, 42, 75
3, 24144, Note_on_c, 9, 42, 0
3, 24192, Note_on_c, 9, 42, 75
3, 24240, Note_on_c, 9, 42, 0
3, 24240, Note_on_c, 9, 42, 75
3, 24288, Note_on_c, 9, 42, 0
3, 24336, Note_on_c, 9, 42, 75
3, 24384, Note_on_c, 9, 42, 0
3, 24432, Note_on_c, 9, 42, 75
3, 24480, Note_on_c, 9, 42, 0
3, 24480, Note_on_c, 9, 42, 75
3, 24528, Note_on_c, 9, 42, 0
3, 24528, Note_on_c, 9, 42, 75
3, 24576, Note_on_c, 9, 42, 0
3, 24624, Note_on_c, 9, 42, 75
3, 24672, Note_on_c, 9, 42, 0
3, 24672, Note_on_c, 9, 42, 75
3, 24720, Note_on_c, 9, 42, 0
3, 24720, Note_on_c, 9, 42, 75
3, 24768, Note_on_c, 9, 42, 0
3, 24816, Note_on_c, 9, 42, 75
3, 24864, Note_on_c, 9, 42, 0
3, 24864, Note_on_c, 9, 42, 75
3, 24912, Note_on_c, 9, 42, 0
3, 24960, Note_on_c, 9, 42, 75
3, 25008, Note_on_c, 9, 42, 0
3, 25008, Note_on_c, 9, 42, 75
3, 25056, Note_on_c, 9, 42, 0
3, 25104, Note_on_c, 9, 42, 75
3, 25152, Note_on_c, 9, 42, 0
3, 25200, Note_on_c, 9, 42, 75
3, 25248, Note_on_c, 9, 42, 0
3, 25248, Note_on_c, 9, 42, 75
3, 25296, Note_on_c, 9, 42, 0
3, 25296, Note_on_c, 9, 42, 75
3, 25344, Note_on_c, 9, 42, 0
3, 25392, Note_on_c, 9, 42, 75
3, 25440, Note_on_c, 9, 42, 0
3, 25440, Note_on_c, 9, 42, 75
3, 25488, Note_on_c, 9, 42, 0
3, 25488, Note_on_c, 9, 42, 75
3, 25536, Note_on_c, 9, 42, 0
3, 25584, Note_on_c, 9, 42, 75
3, 25632, Note_on_c, 9, 42, 0
3, 25632, Note_on_c, 9, 42, 75
3, 25680, Note_on_c, 9, 42, 0
3, 25728, Note_on_c, 9, 42, 75
3, 25776, Note_on_c, 9, 42, 0
3, 25776, Note_on_c, 9, 42, 75
3, 25824, Note_on_c, 9, 42, 0
3, 25872, Note_on_c, 9, 42, 75
3, 25920, Note_on_c, 9, 42, 0
3, 25968, Note_on_c, 9, 42, 75
3, 26016, Note_on_c, 9, 42, 0
3, 26016, Note_on_c, 9, 42, 75
3, 26064, Note_on_c, 9, 42, 0
3, 26064, Note_on_c, 9, 42, 75
3, 26112, Note_on_c, 9, 42, 0
3, 26160, Note_on_c, 9, 42, 75
3, 26208, Note_on_c, 9, 42, 0
3, 26208, Note_on_c, 9, 42, 75
3, 26256, Note_on_c, 9, 42, 0
3, 26256, Note_on_c, 9, 42, 75
3, 26304, Note_on_c, 9, 42, 0
3, 26352, Note_on_c, 9, 42, 75
3, 26400, Note_on_c, 9, 42, 0
3, 26400, Note_on_c, 9, 42, 75
3, 26448, Note_on_c, 9, 42, 0
3, 26496, Note_on_c, 9, 42, 75
3, 26544, Note_on_c, 9, 42, 0
3, 26544, Note_on_c, 9, 42, 75
3, 26592, Note_on_c, 9, 42, 0
3, 26640, Note_on_c, 9, 42, 75
3, 26688, Note_on_c, 9, 42, 0
3, 26736, Note_on_c, 9, 42, 75
3, 26784, Note_on_c, 9, 42, 0
3, 26784, Note_on_c, 9, 42, 75
3, 26832, Note_on_c, 9, 42, 0
3, 26832, Note_on_c, 9, 42, 75
3, 26880, Note_on_c, 9, 42, 0
3, 26928, Note_on_c, 9, 42, 75
3, 26976, Note_on_c, 9, 42, 0
3, 26976, Note_on_c, 9, 42, 75
3, 27024, Note_on_c, 9, 42, 0
3, 27024, Note_on_c, 9, 42, 75
3, 27072, Note_on_c, 9, 42, 0
3, 27120, Note_on_c, 9, 42, 75
3, 27168, Note_on_c, 9, 42, 0
3, 27168, Note_on_c, 9, 42, 75
3, 27216, Note_on_c, 9, 42, 0
3, 27264, Note_on_c, 9, 42, 75
3, 27312, Note_on_c, 9, 42, 0
3, 27312, Note_on_c, 9, 42, 75
3, 27360, Note_on_c, 9, 42, 0
3, 27408, Note_on_c, 9, 42, 75
3, 27456, Note_on_c, 9, 42, 0
3, 27504, Note_on_c, 9, 42, 75
3, 27552, Note_on_c, 9, 42, 0
3, 27552, Note_on_c, 9, 42, 75
3, 27600, Note_on_c, 9, 42, 0
3, 27600, Note_on_c, 9, 42, 75
3, 27648, Note_on_c, 9, 42, 0
3, 27696, Note_on_c, 9, 42, 75
3, 27744, Note_on_c, 9, 42, 0
3, 27744, Note_on_c, 9, 42, 75
3, 27792, Note_on_c, 9, 42, 0
3, 27792, Note_on_c, 9, 42, 75
3, 27840, Note_on_c, 9, 42, 0
3, 27888, Note_on_c, 9, 42, 75
3, 27936, Note_on_c, 9, 42, 0
3, 27936, Note_on_c, 9, 42, 75
3, 27984, Note_on_c, 9, 42, 0
3, 28032, Note_on_c, 9, 42, 75
3, 28080, Note_on_c, 9, 42, 0
3, 28080, Note_on_c, 9, 42, 75
3, 28128, Note_on_c, 9, 42, 0
3, 28176, Note_on_c, 9, 42, 75
3, 28224, Note_on_c, 9, 42, 0
3, 28272, Note_on_c, 9, 42, 75
3, 28320, Note_on_c, 9, 42, 0
3, 28320, Note_on_c, 9, 42, 75
3, 28368, Note_on_c, 9, 42, 0
3, 28368, Note_on_c, 9, 42, 75
3, 28416, Note_on_c, 9, 42, 0
3, 28464, Note_on_c, 9, 42, 75
3, 28512, Note_on_c, 9, 42, 0
3, 28512, Note_on_c, 9, 42, 75
3, 28560, Note_on_c, 9, 42, 0
3, 28560, Note_on_c, 9, 42, 75
3, 28608, Note_on_c, 9, 42, 0
3, 28656, Note_on_c, 9, 42, 75
3, 28704, Note_on_c, 9, 42, 0
3, 28704, Note_on_c, 9, 42, 75
3, 28752, Note_on_c, 9, 42, 0
3, 28800, Note_on_c, 9, 42, 75
3, 28848, Note_on_c, 9, 42, 0
3, 28848, Note_on_c, 9, 42, 75
3, 28896, Note_on_c, 9, 42, 0
3, 28944, Note_on_c, 9, 42, 75
3, 28992, Note_on_c, 9, 42, 0
3, 29040, Note_on_c, 9, 42, 75
3, 29088, Note_on_c, 9, 42, 0
3, 29088, Note_on_c, 9, 42, 75
3, 29136, Note_on_c, 9, 42, 0
3, 29136, Note_on_c, 9, 42, 75
3, 29184, Note_on_c, 9, 42, 0
3, 29232, Note_on_c, 9, 42, 75
3, 29280, Note_on_c, 9, 42, 0
3, 29280, Note_on_c, 9, 42, 75
3, 29328, Note_on_c, 9, 42, 0
3, 29328, Note_on_c, 9, 42, 75
3, 29376, Note_on_c, 9, 42, 0
3, 29424, Note_on_c, 9, 42, 75
3, 29472, Note_on_c, 9, 42, 0
3, 29472, Note_on_c, 9, 42, 75
3, 29520, Note_on_c, 9, 42, 0
3, 29568, Note_on_c, 9, 42, 75
3, 29616, Note_on_c, 9, 42, 0
3, 29616, Note_on_c, 9, 42, 75
3, 29664, Note_on_c, 9, 42, 0
3, 29712, Note_on_c, 9, 42, 75
3, 29760, Note_on_c, 9, 42, 0
3, 29808, Note_on_c, 9, 42, 75
3, 29856, Note_on_c, 9, 42, 0
3, 29856, Note_on_c, 9, 42, 75
3, 29904, Note_on_c, 9, 42, 0
3, 29904, Note_on_c, 9, 42, 75
3, 29952, Note_on_c, 9, 42, 0
3, 30000, Note_on_c, 9, 42, 75
3, 30048, Note_on_c, 9, 42, 0
3, 30048, Note_on_c, 9, 42, 75
3, 30096, Note_on_c, 9, 42, 0
3, 30096, Note_on_c, 9, 42, 75
3, 30144, Note_on_c, 9, 42, 0
3, 30192, Note_on_c, 9, 42, 75
3, 30240, Note_on_c, 9, 42, 0
3, 30240, Note_on_c, 9, 42, 75
3, 30288, Note_on_c, 9, 42, 0
3, 30336, Note_on_c, 9, 42, 75
3, 30384, Note_on_c, 9, 42, 0
3, 30384, Note_on_c, 9, 42, 75
3, 30432, Note_on_c, 9, 42, 0
3, 30480, Note_on_c, 9, 42, 75
3, 30528, Note_on_c, 9, 42, 0
3, 30576, Note_on_c, 9, 42, 75
3, 30624, Note_on_c, 9, 42, 0
3, 30624, Note_on_c, 9, 42, 75
3, 30672, Note_on_c, 9, 42, 0
3, 30672, Note_on_c, 9, 42, 75
3, 30720, Note_on_c, 9, 42, 0
3, 30768, Note_on_c, 9, 42, 75
3, 30816, Note_on_c, 9, 42, 0
3, 30816, Note_on_c, 9, 42, 75
3, 30864, Note_on_c, 9, 42, 0
3, 30864, Note_on_c, 9, 42, 75
3, 30912, Note_on_c, 9, 42, 0
3, 30960, Note_on_c, 9, 42, 75
3, 31008, Note_on_c, 9, 42, 0
3, 31008, Note_on_c, 9, 42, 75
3, 31056, Note_on_c, 9, 42, 0
3, 31104, Note_on_c, 9, 42, 75
3, 31152, Note_on_c, 9, 42, 0
3, 31152, Note_on_c, 9, 42, 75
3, 31200, Note_on_c, 9, 42, 0
3, 31248, Note_on_c, 9, 42, 75
3, 31296, Note_on_c, 9, 42, 0
3, 31344, Note_on_c, 9, 42, 75
3, 31392, Note_on_c, 9, 42, 0
3, 31392, Note_on_c, 9, 42, 75
3, 31440, Note_on_c, 9, 42, 0
3, 31440, Note_on_c, 9, 42, 75
3, 31488, Note_on_c, 9, 42, 0
3, 31536, Note_on_c, 9, 42, 75
3, 31584, Note_on_c, 9, 42, 0
3, 31584, Note_on_c, 9, 42, 75
3, 31632, Note_on_c, 9, 42, 0
3, 31632, Note_on_c, 9, 42, 75
3, 31680, Note_on_c, 9, 42, 0
3, 31728, Note_on_c, 9, 42, 75
3, 31776, Note_on_c, 9, 42, 0
3, 31776, Note_on_c, 9, 42, 75
3, 31824, Note_on_c, 9, 42, 0
3, 31872, Note_on_c, 9, 42, 75
3, 31920, Note_on_c, 9, 42, 0
3, 31920, Note_on_c, 9, 42, 75
3, 31968, Note_on_c, 9, 42, 0
3, 32016, Note_on_c, 9, 42, 75
3, 32064, Note_on_c, 9, 42, 0
3, 32112, Note_on_c, 9, 42, 75
3, 32160, Note_on_c, 9, 42, 0
3, 32160, Note_on_c, 9, 42, 75
3, 32208, Note_on_c, 9, 42, 0
3, 32208, Note_on_c, 9, 42, 75
3, 32256, Note_on_c, 9, 42, 0
3, 32304, Note_on_c, 9, 42, 75
3, 32352, Note_on_c, 9, 42, 0
3, 32352, Note_on_c, 9, 42, 75
3, 32400, Note_on_c, 9, 42, 0
3, 32400, Note_on_c, 9, 42, 75
3, 32448, Note_on_c, 9, 42, 0
3, 32496, Note_on_c, 9, 42, 75
3, 32544, Note_on_c, 9, 42, 0
3, 32544, Note_on_c, 9, 42, 75
3, 32592, Note_on_c, 9, 42, 0
3, 32640, Note_on_c, 9, 42, 75
3, 32688, Note_on_c, 9, 42, 0
3, 32688, Note_on_c, 9, 42, 75
3, 32736, Note_on_c, 9, 42, 0
3, 32784, Note_on_c, 9, 42, 75
3, 32832, Note_on_c, 9, 42, 0
3, 32880, Note_on_c, 9, 42, 75
3, 32928, Note_on_c, 9, 42, 0
3, 32928, Note_on_c, 9, 42, 75
3, 32976, Note_on_c, 9, 42, 0
3, 32976, Note_on_c, 9, 42, 75
3, 33024, Note_on_c, 9, 42, 0
3, 33072, Note_on_c, 9, 42, 75
3, 33120, Note_on_c, 9, 42, 0
3, 33120, Note_on_c, 9, 42, 75
3, 33168, Note_on_c, 9, 42, 0
3, 33168, Note_on_c, 9, 42, 75
3, 33216, Note_on_c, 9, 42, 0
3, 33264, Note_on_c, 9, 42, 75
3, 33312, Note_on_c, 9, 42, 0
3, 33312, Note_on_c, 9, 42, 75
3, 33360, Note_on_c, 9, 42, 0
3, 33408, Note_on_c, 9, 42, 75
3, 33456, Note_on_c, 9, 42, 0
3, 33456, Note_on_c, 9, 42, 75
3, 33504, Note_on_c, 9, 42, 0
3, 33552, Note_on_c, 9, 42, 75
3, 33600, Note_on_c, 9, 42, 0
3, 33648, Note_on_c, 9, 42, 75
3, 33696, Note_on_c, 9, 42, 0
3, 33696, Note_on_c, 9, 42, 75
3, 33744, Note_on_c, 9, 42, 0
3, 33744, Note_on_c, 9, 42, 75
3, 33792, Note_on_c, 9, 42, 0
3, 33840, Note_on_c, 9, 42, 75
3, 33888, Note_on_c, 9, 42, 0
3, 33888, Note_on_c, 9, 42, 75
3, 33936, Note_on_c, 9, 42, 0
3, 33936, Note_on_c, 9, 42, 75
3, 33984, Note_on_c, 9, 42, 0
3, 34032, Note_on_c, 9, 42, 75
3, 34080, Note_on_c, 9, 42, 0
3, 34080, Note_on_c, 9, 42, 75
3, 34128, Note_on_c, 9, 42, 0
3, 34176, Note_on_c, 9, 42, 75
3, 34224, Note_on_c, 9, 42, 0
3, 34224, Note_on_c, 9, 42, 75
3, 34272, Note_on_c, 9, 42, 0
3, 34320, Note_on_c, 9, 42, 75
3, 34368, Note_on_c, 9, 42, 0
3, 34416, Note_on_c, 9, 42, 75
3, 34464, Note_on_c, 9, 42, 0
3, 34464, Note_on_c, 9, 42, 75
3, 34512, Note_on_c, 9, 42, 0
3, 34512, Note_on_c, 9, 42, 75
3, 34560, Note_on_c, 9, 42, 0
3, 34608, Note_on_c, 9, 42, 75
3, 34656, Note_on_c, 9, 42, 0
3, 34656, Note_on_c, 9, 42, 75
3, 34704, Note_on_c, 9, 42, 0
3, 34704, Note_on_c, 9, 42, 75
3, 34752, Note_on_c, 9, 42, 0
3, 34800, Note_on_c, 9, 42, 75
3, 34848, Note_on_c, 9, 42, 0
3, 34848, Note_on_c, 9, 42, 75
3, 34896, Note_on_c, 9, 42, 0
3, 34944, Note_on_c, 9, 42, 75
3, 34992, Note_on_c, 9, 42, 0
3, 34992, Note_on_c, 9, 42, 75
3, 35040, Note_on_c, 9, 42, 0
3, 35088, Note_on_c, 9, 42, 75
3, 35136, Note_on_c, 9, 42, 0
3, 35184, Note_on_c, 9, 42, 75
3, 35232, Note_on_c, 9, 42, 0
3, 35232, Note_on_c, 9, 42, 75
3, 35280, Note_on_c, 9, 42, 0
3, 35280, Note_on_c, 9, 42, 75
3, 35328, Note_on_c, 9, 42, 0
3, 35376, Note_on_c, 9, 42, 75
3, 35424, Note_on_c, 9, 42, 0
3, 35424, Note_on_c, 9, 42, 75
3, 35472, Note_on_c, 9, 42, 0
3, 35472, Note_on_c, 9, 42, 75
3, 35520, Note_on_c, 9, 42, 0
3, 35568, Note_on_c, 9, 42, 75
3, 35616, Note_on_c, 9, 42, 0
3, 35616, Note_on_c, 9, 42, 75
3, 35664, Note_on_c, 9, 42, 0
3, 35712, Note_on_c, 9, 42, 75
3, 35760, Note_on_c, 9, 42, 0
3, 35760, Note_on_c, 9, 42, 75
3, 35808, Note_on_c, 9, 42, 0
3, 35856, Note_on_c, 9, 42, 75
3, 35904, Note_on_c, 9, 42, 0
3, 35952, Note_on_c, 9, 42, 75
3, 36000, Note_on_c, 9, 42, 0
3, 36000, Note_on_c, 9, 42, 75
3, 36048, Note_on_c, 9, 42, 0
3, 36048, Note_on_c, 9, 42, 75
3, 36096, Note_on_c, 9, 42, 0
3, 36144, Note_on_c, 9, 42, 75
3, 36192, Note_on_c, 9, 42, 0
3, 36192, Note_on_c, 9, 42, 75
3, 36240, Note_on_c, 9, 42, 0
3, 36240, Note_on_c, 9, 42, 75
3, 36288, Note_on_c, 9, 42, 0
3, 36336, Note_on_c, 9, 42, 75
3, 36384, Note_on_c, 9, 42, 0
3, 36384, Note_on_c, 9, 42, 75
3, 36432, Note_on_c, 9, 42, 0
3, 36480, Note_on_c, 9, 42, 75
3, 36528, Note_on_c, 9, 42, 0
3, 36528, Note_on_c, 9, 42, 75
3, 36576, Note_on_c, 9, 42, 0
3, 36624, Note_on_c, 9, 42, 75
3, 36672, Note_on_c, 9, 42, 0
3, 36720, Note_on_c, 9, 42, 75
3, 36768, Note_on_c, 9, 42, 0
3, 36768, Note_on_c, 9, 42, 75
3, 36816, Note_on_c, 9, 42, 0
3, 36816, Note_on_c, 9, 42, 75
3, 36864, Note_on_c, 9, 42, 0
3, 36912, Note_on_c, 9, 42, 75
3, 36960, Note_on_c, 9, 42, 0
3, 36960, Note_on_c, 9, 42, 75
3, 37008, Note_on_c, 9, 42, 0
3, 37008, Note_on_c, 9, 42, 75
3, 37056, Note_on_c, 9, 42, 0
3, 37104, Note_on_c, 9, 42, 75
3, 37152, Note_on_c, 9, 42, 0
3, 37152, Note_on_c, 9, 42, 75
3, 37200, Note_on_c, 9, 42, 0
3, 37248, Note_on_c, 9, 42, 75
3, 37296, Note_on_c, 9, 42, 0
3, 37296, Note_on_c, 9, 42, 75
3, 37344, Note_on_c, 9, 42, 0
3, 37392, Note_on_c, 9, 42, 75
3, 37440, Note_on_c, 9, 42, 0
3, 37488, Note_on_c, 9, 42, 75
3, 37536, Note_on_c, 9, 42, 0
3, 37536, Note_on_c, 9, 42, 75
3, 37584, Note_on_c, 9, 42, 0
3, 37584, Note_on_c, 9, 42, 75
3, 37632, Note_on_c, 9, 42, 0
3, 37680, Note_on_c, 9, 42, 75
3, 37728, Note_on_c, 9, 42, 0
3, 37728, Note_on_c, 9, 42, 75
3, 37776, Note_on_c, 9, 42, 0
3, 37776, Note_on_c, 9, 42, 75
3, 37824, Note_on_c, 9, 42, 0
3, 37872, Note_on_c, 9, 42, 75
3, 37920, Note_on_c, 9, 42, 0
3, 37920, Note_on_c, 9, 42, 75
3, 37968, Note_on_c, 9, 42, 0
3, 38016, Note_on_c, 9, 42, 75
3, 38064, Note_on_c, 9, 42, 0
3, 38064, Note_on_c, 9, 42, 75
3, 38112, Note_on_c, 9, 42, 0
3, 38160, Note_on_c, 9, 42, 75
3, 38208, Note_on_c, 9, 42, 0
3, 38256, Note_on_c, 9, 42, 75
3, 38304, Note_on_c, 9, 42, 0
3, 38304, Note_on_c, 9, 42, 75
3, 38352, Note_on_c, 9, 42, 0
3, 38352, Note_on_c, 9, 42, 75
3, 38400, Note_on_c, 9, 42, 0
3, 38448, Note_on_c, 9, 42, 75
3, 38496, Note_on_c, 9, 42, 0
3, 38496, Note_on_c, 9, 42, 75
3, 38544, Note_on_c, 9, 42, 0
3, 38544, Note_on_c, 9, 42, 75
3, 38592, Note_on_c, 9, 42, 0
3, 38640, Note_on_c, 9, 42, 75
3, 38688, Note_on_c, 9, 42, 0
3, 38688, Note_on_c, 9, 42, 75
3, 38736, Note_on_c, 9, 42, 0
3, 38784, Note_on_c, 9, 42, 75
3, 38832, Note_on_c, 9, 42, 0
3, 38832, Note_on_c, 9, 42, 75
3, 38880, Note_on_c, 9, 42, 0
3, 38928, Note_on_c, 9, 42, 75
3, 38976, Note_on_c, 9, 42, 0
3, 39024, Note_on_c, 9, 42, 75
3, 39072, Note_on_c, 9, 42, 0
3, 39072, Note_on_c, 9, 42, 75
3, 39120, Note_on_c, 9, 42, 0
3, 39120, Note_on_c, 9, 42, 75
3, 39168, Note_on_c, 9, 42, 0
3, 39216, Note_on_c, 9, 42, 75
3, 39264, Note_on_c, 9, 42, 0
3, 39264, Note_on_c, 9, 42, 75
3, 39312, Note_on_c, 9, 42, 0
3, 39312, Note_on_c, 9, 42, 75
3, 39360, Note_on_c, 9, 42, 0
3, 39408, Note_on_c, 9, 42, 75
3, 39456, Note_on_c, 9, 42, 0
3, 39456, Note_on_c, 9, 42, 75
3, 39504, Note_on_c, 9, 42, 0
3, 39552, Note_on_c, 9, 42, 75
3, 39600, Note_on_c, 9, 42, 0
3, 39600, Note_on_c, 9, 42, 75
3, 39648, Note_on_c, 9, 42, 0
3, 39696, Note_on_c, 9, 42, 75
3, 39744, Note_on_c, 9, 42, 0
3, 39792, Note_on_c, 9, 42, 75
3, 39840, Note_on_c, 9, 42, 0
3, 39840, Note_on_c, 9, 42, 75
3, 39888, Note_on_c, 9, 42, 0
3, 39888, Note_on_c, 9, 42, 75
3, 39936, Note_on_c, 9, 42, 0
3, 39984, Note_on_c, 9, 42, 75
3, 40032, Note_on_c, 9, 42, 0
3, 40032, Note_on_c, 9, 42, 75
3, 40080, Note_on_c, 9, 42, 0
3, 40080, Note_on_c, 9, 42, 75
3, 40128, Note_on_c, 9, 42, 0
3, 40176, Note_on_c, 9, 42, 75
3, 40224, Note_on_c, 9, 42, 0
3, 40224, Note_on_c, 9, 42, 75
3, 40272, Note_on_c, 9, 42, 0
3, 40320, Note_on_c, 9, 42, 75
3, 40368, Note_on_c, 9, 42, 0
3, 40368, Note_on_c, 9, 42, 75
3, 40416, Note_on_c, 9, 42, 0
3, 40464, Note_on_c, 9, 42, 75
3, 40512, Note_on_c, 9, 42, 0
3, 40560, Note_on_c, 9, 42, 75
3, 40608, Note_on_c, 9, 42, 0
3, 40608, Note_on_c, 9, 42, 75
3, 40656, Note_on_c, 9, 42, 0
3, 40656, Note_on_c, 9, 42, 75
3, 40704, Note_on_c, 9, 42, 0
3, 40752, Note_on_c, 9, 42, 75
3, 40800, Note_on_c, 9, 42, 0
3, 40800, Note_on_c, 9, 42, 75
3, 40848, Note_on_c, 9, 42, 0
3, 40848, Note_on_c, 9, 42, 75
3, 40896, Note_on_c, 9, 42, 0
3, 40944, Note_on_c, 9, 42, 75
3, 40992, Note_on_c, 9, 42, 0
3, 40992, Note_on_c, 9, 42, 75
3, 41040, Note_on_c, 9, 42, 0
3, 41088, Note_on_c, 9, 42, 75
3, 41136, Note_on_c, 9, 42, 0
3, 41136, Note_on_c, 9, 42, 75
3, 41184, Note_on_c, 9, 42, 0
3, 41232, Note_on_c, 9, 42, 75
3, 41280, Note_on_c, 9, 42, 0
3, 41328, Note_on_c, 9, 42, 75
3, 41376, Note_on_c, 9, 42, 0
3, 41376, Note_on_c, 9, 42, 75
3, 41424, Note_on_c, 9, 42, 0
3, 41424, Note_on_c, 9, 42, 75
3, 41472, Note_on_c, 9, 42, 0
3, 41520, Note_on_c, 9, 42, 75
3, 41568, Note_on_c, 9, 42, 0
3, 41568, Note_on_c, 9, 42, 75
3, 41616, Note_on_c, 9, 42, 0
3, 41616, Note_on_c, 9, 42, 75
3, 41664, Note_on_c, 9, 42, 0
3, 41712, Note_on_c, 9, 42, 75
3, 41760, Note_on_c, 9, 42, 0
3, 41760, Note_on_c, 9, 42, 75
3, 41808, Note_on_c, 9, 42, 0
3, 41856, Note_on_c, 9, 42, 75
3, 41904, Note_on_c, 9, 42, 0
3, 41904, Note_on_c, 9, 42, 75
3, 41952, Note_on_c, 9, 42, 0
3, 42000, Note_on_c, 9, 42, 75
3, 42048, Note_on_c, 9, 42, 0
3, 42096, Note_on_c, 9, 42, 75
3, 42144, Note_on_c, 9, 42, 0
3, 42144, Note_on_c, 9, 42, 75
3, 42192, Note_on_c, 9, 42, 0
3, 42192, Note_on_c, 9, 42, 75
3, 42240, Note_on_c, 9, 42, 0
3, 42288, Note_on_c, 9, 42, 75
3, 42336, Note_on_c, 9, 42, 0
3, 42336, Note_on_c, 9, 42, 75
3, 42384, Note_on_c, 9, 42, 0
3, 42384, Note_on_c, 9, 42, 75
3, 42432, Note_on_c, 9, 42, 0
3, 42480, Note_on_c, 9, 42, 75
3, 42528, Note_on_c, 9, 42, 0
3, 42528, Note_on_c, 9, 42, 75
3, 42576, Note_on_c, 9, 42, 0
3, 42624, Note_on_c, 9, 42, 75
3, 42672, Note_on_c, 9, 42, 0
3, 42672, Note_on_c, 9, 42, 75
3, 42720, Note_on_c, 9, 42, 0
3, 42768, Note_on_c, 9, 42, 75
3, 42816, Note_on_c, 9, 42, 0
3, 42864, Note_on_c, 9, 42, 75
3, 42912, Note_on_c, 9, 42, 0
3, 42912, Note_on_c, 9, 42, 75
3, 42960, Note_on_c, 9, 42, 0
3, 42960, Note_on_c, 9, 42, 75
3, 43008, Note_on_c, 9, 42, 0
3, 43056, Note_on_c, 9, 42, 75
3, 43104, Note_on_c, 9, 42, 0
3, 43104, Note_on_c, 9, 42, 75
3, 43152, Note_on_c, 9, 42, 0
3, 43152, Note_on_c, 9, 42, 75
3, 43200, Note_on_c, 9, 42, 0
3, 43248, Note_on_c, 9, 42, 75
3, 43296, Note_on_c, 9, 42, 0
3, 43296, Note_on_c, 9, 42, 75
3, 43344, Note_on_c, 9, 42, 0
3, 43392, Note_on_c, 9, 42, 75
3, 43440, Note_on_c, 9, 42, 0
3, 43440, Note_on_c, 9, 42, 75
3, 43488, Note_on_c, 9, 42, 0
3, 43536, Note_on_c, 9, 42, 75
3, 43584, Note_on_c, 9, 42, 0
3, 43632, Note_on_c, 9, 42, 75
3, 43680, Note_on_c, 9, 42, 0
3, 43680, Note_on_c, 9, 42, 75
3, 43728, Note_on_c, 9, 42, 0
3, 43728, Note_on_c, 9, 42, 75
3, 43776, Note_on_c, 9, 42, 0
3, 43824, Note_on_c, 9, 42, 75
3, 43872, Note_on_c, 9, 42, 0
3, 43872, Note_on_c, 9, 42, 75
3, 43920, Note_on_c, 9, 42, 0
3, 43920, Note_on_c, 9, 42, 75
3, 43968, Note_on_c, 9, 42, 0
3, 44016, Note_on_c, 9, 42, 75
3, 44064, Note_on_c, 9, 42, 0
3, 44064, Note_on_c, 9, 42, 75
3, 44112, Note_on_c, 9, 42, 0
3, 44160, Note_on_c, 9, 42, 75
3, 44208, Note_on_c, 9, 42, 0
3, 44208, Note_on_c, 9, 42, 75
3, 44256, Note_on_c, 9, 42, 0
3, 44304, Note_on_c, 9, 42, 75
3, 44352, Note_on_c, 9, 42, 0
3, 44400, Note_on_c, 9, 42, 75
3, 44448, Note_on_c, 9, 42, 0
3, 44448, Note_on_c, 9, 42, 75
3, 44496, Note_on_c, 9, 42, 0
3, 44496, Note_on_c, 9, 42, 75
3, 44544, Note_on_c, 9, 42, 0
3, 44592, Note_on_c, 9, 42, 75
3, 44640, Note_on_c, 9, 42, 0
3, 44640, Note_on_c, 9, 42, 75
3, 44688, Note_on_c, 9, 42, 0
3, 44688, Note_on_c, 9, 42, 75
3, 44736, Note_on_c, 9, 42, 0
3, 44784, Note_on_c, 9, 42, 75
3, 44832, Note_on_c, 9, 42, 0
3, 44832, Note_on_c, 9, 42, 75
3, 44880, Note_on_c, 9, 42, 0
3, 44928, Note_on_c, 9, 42, 75
3, 44976, Note_on_c, 9, 42, 0
3, 44976, Note_on_c, 9, 42, 75
3, 45024, Note_on_c, 9, 42, 0
3, 45072, Note_on_c, 9, 42, 75
3, 45120, Note_on_c, 9, 42, 0
3, 45168, Note_on_c, 9, 42, 75
3, 45216, Note_on_c, 9, 42, 0
3, 45216, Note_on_c, 9, 42, 75
3, 45264, Note_on_c, 9, 42, 0
3, 45264, Note_on_c, 9, 42, 75
3, 45312, Note_on_c, 9, 42, 0
3, 45360, Note_on_c, 9, 42, 75
3, 45408, Note_on_c, 9, 42, 0
3, 45408, Note_on_c, 9, 42, 75
3, 45456, Note_on_c, 9, 42, 0
3, 45456, Note_on_c, 9, 42, 75
3, 45504, Note_on_c, 9, 42, 0
3, 45552, Note_on_c, 9, 42, 75
3, 45600, Note_on_c, 9, 42, 0
3, 45600, Note_on_c, 9, 42, 75
3, 45648, Note_on_c, 9, 42, 0
3, 45696, Note_on_c, 9, 42, 75
3, 45744, Note_on_c, 9, 42, 0
3, 45744, Note_on_c, 9, 42, 75
3, 45792, Note_on_c, 9, 42, 0
3, 45840, Note_on_c, 9, 42, 75
3, 45888, Note_on_c, 9, 42, 0
3, 45936, Note_on_c, 9, 42, 75
3, 45984, Note_on_c, 9, 42, 0
3, 45984, Note_on_c, 9, 42, 75
3, 46032, Note_on_c, 9, 42, 0
3, 46032, Note_on_c, 9, 42, 75
3, 46080, Note_on_c, 9, 42, 0
3, 46128, Note_on_c, 9, 42, 75
3, 46176, Note_on_c, 9, 42, 0
3, 46176, Note_on_c, 9, 42, 75
3, 46224, Note_on_c, 9, 42, 0
3, 46224, Note_on_c, 9, 42, 75
3, 46272, Note_on_c, 9, 42, 0
3, 46320, Note_on_c, 9, 42, 75
3, 46368, Note_on_c, 9, 42, 0
3, 46368, Note_on_c, 9, 42, 75
3, 46416, Note_on_c, 9, 42, 0
3, 46464, Note_on_c, 9, 42, 75
3, 46512, Note_on_c, 9, 42, 0
3, 46512, Note_on_c, 9, 42, 75
3, 46560, Note_on_c, 9, 42, 0
3, 46608, Note_on_c, 9, 42, 75
3, 46656, Note_on_c, 9, 42, 0
3, 46704, Note_on_c, 9, 42, 75
3, 46752, Note_on_c, 9, 42, 0
3, 46752, Note_on_c, 9, 42, 75
3, 46800, Note_on_c, 9, 42, 0
3, 46800, Note_on_c, 9, 42, 75
3, 46848, Note_on_c, 9, 42, 0
3, 46896, Note_on_c, 9, 42, 75
3, 46944, Note_on_c, 9, 42, 0
3, 46944, Note_on_c, 9, 42, 75
3, 46992, Note_on_c, 9, 42, 0
3, 46992, Note_on_c, 9, 42, 75
3, 47040, Note_on_c, 9, 42, 0
3, 47088, Note_on_c, 9, 42, 75
3, 47136, Note_on_c, 9, 42, 0
3, 47136, Note_on_c, 9, 42, 75
3, 47184, Note_on_c, 9, 42, 0
3, 47232, Note_on_c, 9, 42, 75
3, 47280, Note_on_c, 9, 42, 0
3, 47280, Note_on_c, 9, 42, 75
3, 47328, Note_on_c, 9, 42, 0
3, 47376, Note_on_c, 9, 42, 75
3, 47424, Note_on_c, 9, 42, 0
3, 47472, Note_on_c, 9, 42, 75
3, 47520, Note_on_c, 9, 42, 0
3, 47520, Note_on_c, 9, 42, 75
3, 47568, Note_on_c, 9, 42, 0
3, 47568, Note_on_c, 9, 42, 75
3, 47616, Note_on_c, 9, 42, 0
3, 47664, Note_on_c, 9, 42, 75
3, 47712, Note_on_c, 9, 42, 0
3, 47712, Note_on_c, 9, 42, 75
3, 47760, Note_on_c, 9, 42, 0
3, 47760, Note_on_c, 9, 42, 75
3, 47808, Note_on_c, 9, 42, 0
3, 47856, Note_on_c, 9, 42, 75
3, 47904, Note_on_c, 9, 42, 0
3, 47904, Note_on_c, 9, 42, 75
3, 47952, Note_on_c, 9, 42, 0
3, 48000, Note_on_c, 9, 42, 75
3, 48048, Note_on_c, 9, 42, 0
3, 48048, Note_on_c, 9, 42, 75
3, 48096, Note_on_c, 9, 42, 0
3, 48144, Note_on_c, 9, 42, 75
3, 48192, Note_on_c, 9, 42, 0
3, 48240, Note_on_c, 9, 42, 75
3, 48288, Note_on_c, 9, 42, 0
3, 48288, Note_on_c, 9, 42, 75
3, 48336, Note_on_c, 9, 42, 0
3, 48336, Note_on_c, 9, 42, 75
3, 48384, Note_on_c, 9, 42, 0
3, 48432, Note_on_c, 9, 42, 75
3, 48480, Note_on_c, 9, 42, 0
3, 48480, Note_on_c, 9, 42, 75
3, 48528, Note_on_c, 9, 42, 0
3, 48528, Note_on_c, 9, 42, 75
3, 48576, Note_on_c, 9, 42, 0
3, 48624, Note_on_c, 9, 42, 75
3, 48672, Note_on_c, 9, 42, 0
3, 48672, Note_on_c, 9, 42, 75
3, 48720, Note_on_c, 9, 42, 0
3, 48768, Note_on_c, 9, 42, 75
3, 48816, Note_on_c, 9, 42, 0
3, 48816, Note_on_c, 9, 42, 75
3, 48864, Note_on_c, 9, 42, 0
3, 48912, Note_on_c, 9, 42, 75
3, 48960, Note_on_c, 9, 42, 0
3, 49008, Note_on_c, 9, 42, 75
3, 49056, Note_on_c, 9, 42, 0
3, 49056, Note_on_c, 9, 42, 75
3, 49104, Note_on_c, 9, 42, 0
3, 49104, Note_on_c, 9, 42, 75
3, 49152, Note_on_c, 9, 42, 0
3, 49200, Note_on_c, 9, 42, 75
3, 49248, Note_on_c, 9, 42, 0
3, 49248, Note_on_c, 9, 42, 75
3, 49296, Note_on_c, 9, 42, 0
3, 49296, Note_on_c, 9, 42, 75
3, 49344, Note_on_c, 9, 42, 0
3, 49392, Note_on_c, 9, 42, 75
3, 49440, Note_on_c, 9, 42, 0
3, 49440, Note_on_c, 9, 42, 75
3, 49488, Note_on_c, 9, 42, 0
3, 49536, Note_on_c, 9, 42, 75
3, 49584, Note_on_c, 9, 42, 0
3, 49584, Note_on_c, 9, 42, 75
3, 49632, Note_on_c, 9, 42, 0
3, 49680, Note_on_c, 9, 42, 75
3, 49728, Note_on_c, 9, 42, 0
3, 49776, Note_on_c, 9, 42, 75
3, 49824, Note_on_c, 9, 42, 0
3, 49824, Note_on_c, 9, 42, 75
3, 49872, Note_on_c, 9, 42, 0
3, 49872, Note_on_c, 9, 42, 75
3, 49920, Note_on_c, 9, 42, 0
3, 49968, Note_on_c, 9, 42, 75
3, 50016, Note_on_c, 9, 42, 0
3, 50016, Note_on_c, 9, 42, 75
3, 50064, Note_on_c, 9, 42, 0
3, 50064, Note_on_c, 9, 42, 75
3, 50112, Note_on_c, 9, 42, 0
3, 50160, Note_on_c, 9, 42, 75
3, 50208, Note_on_c, 9, 42, 0
3, 50208, Note_on_c, 9, 42, 75
3, 50256, Note_on_c, 9, 42, 0
3, 50304, Note_on_c, 9, 42, 75
3, 50352, Note_on_c, 9, 42, 0
3, 50352, Note_on_c, 9, 42, 75
3, 50400, Note_on_c, 9, 42, 0
3, 50448, Note_on_c, 9, 42, 75
3, 50496, Note_on_c, 9, 42, 0
3, 50544, Note_on_c, 9, 42, 75
3, 50592, Note_on_c, 9, 42, 0
3, 50592, Note_on_c, 9, 42, 75
3, 50640, Note_on_c, 9, 42, 0
3, 50640, Note_on_c, 9, 42, 75
3, 50688, Note_on_c, 9, 42, 0
3, 50736, Note_on_c, 9, 42, 75
3, 50784, Note_on_c, 9, 42, 0
3, 50784, Note_on_c, 9, 42, 75
3, 50832, Note_on_c, 9, 42, 0
3, 50832, Note_on_c, 9, 42, 75
3, 50880, Note_on_c, 9, 42, 0
3, 50928, Note_on_c, 9, 42, 75
3, 50976, Note_on_c, 9, 42, 0
3, 50976, Note_on_c, 9, 42, 75
3, 51024, Note_on_c, 9, 42, 0
3, 51072, Note_on_c, 9, 42, 75
3, 51120, Note_on_c, 9, 42, 0
3, 51120, Note_on_c, 9, 42, 75
3, 51168, Note_on_c, 9, 42, 0
3, 51216, Note_on_c, 9, 42, 75
3, 51264, Note_on_c, 9, 42, 0
3, 51312, Note_on_c, 9, 42, 75
3, 51360, Note_on_c, 9, 42, 0
3, 51360, Note_on_c, 9, 42, 75
3, 51408, Note_on_c, 9, 42, 0
3, 51408, Note_on_c, 9, 42, 75
3, 51456, Note_on_c, 9, 42, 0
3, 51504, Note_on_c, 9, 42, 75
3, 51552, Note_on_c, 9, 42, 0
3, 51552, Note_on_c, 9, 42, 75
3, 51600, Note_on_c, 9, 42, 0
3, 51600, Note_on_c, 9, 42, 75
3, 51648, Note_on_c, 9, 42, 0
3, 51696, Note_on_c, 9, 42, 75
3, 51744, Note_on_c, 9, 42, 0
3, 51744, Note_on_c, 9, 42, 75
3, 51792, Note_on_c, 9, 42, 0
3, 51840, Note_on_c, 9, 42, 75
3, 51888, Note_on_c, 9, 42, 0
3, 51888, Note_on_c, 9, 42, 75
3, 51936, Note_on_c, 9, 42, 0
3, 51984, Note_on_c, 9, 42, 75
3, 52032, Note_on_c, 9, 42, 0
3, 52080, Note_on_c, 9, 42, 75
3, 52128, Note_on_c, 9, 42, 0
3, 52128, Note_on_c, 9, 42, 75
3, 52176, Note_on_c, 9, 42, 0
3, 52176, Note_on_c, 9, 42, 75
3, 52224, Note_on_c, 9, 42, 0
3, 52272, Note_on_c, 9, 42, 75
3, 52320, Note_on_c, 9, 42, 0
3, 52320, Note_on_c, 9, 42, 75
3, 52368, Note_on_c, 9, 42, 0
3, 52368, Note_on_c, 9, 42, 75
3, 52416, Note_on_c, 9, 42, 0
3, 52464, Note_on_c, 9, 42, 75
3, 52512, Note_on_c, 9, 42, 0
3, 52512, Note_on_c, 9, 42, 75
3, 52560, Note_on_c, 9, 42, 0
3, 52608, Note_on_c, 9, 42, 75
3, 52656, Note_on_c, 9, 42, 0
3, 52656, Note_on_c, 9, 42, 75
3, 52704, Note_on_c, 9, 42, 0
3, 52752, Note_on_c, 9, 42, 75
3, 52800, Note_on_c, 9, 42, 0
3, 52848, Note_on_c, 9, 42, 75
3, 52896, Note_on_c, 9, 42, 0
3, 52896, Note_on_c, 9, 42, 75
3, 52944, Note_on_c, 9, 42, 0
3, 52944, Note_on_c, 9, 42, 75
3, 52992, Note_on_c, 9, 42, 0
3, 53040, Note_on_c, 9, 42, 75
3, 53088, Note_on_c, 9, 42, 0
3, 53088, Note_on_c, 9, 42, 75
3, 53136, Note_on_c, 9, 42, 0
3, 53136, Note_on_c, 9, 42, 75
3, 53184, Note_on_c, 9, 42, 0
3, 53232, Note_on_c, 9, 42, 75
3, 53280, Note_on_c, 9, 42, 0
3, 53280, Note_on_c, 9, 42, 75
3, 53328, Note_on_c, 9, 42, 0
3, 53376, Note_on_c, 9, 42, 75
3, 53424, Note_on_c, 9, 42, 0
3, 53424, Note_on_c, 9, 42, 75
3, 53472, Note_on_c, 9, 42, 0
3, 53520, Note_on_c, 9, 42, 75
3, 53568, Note_on_c, 9, 42, 0
3, 53616, Note_on_c, 9, 42, 75
3, 53664, Note_on_c, 9, 42, 0
3, 53664, Note_on_c, 9, 42, 75
3, 53712, Note_on_c, 9, 42, 0
3, 53712, Note_on_c, 9, 42, 75
3, 53760, Note_on_c, 9, 42, 0
3, 53808, Note_on_c, 9, 42, 75
3, 53856, Note_on_c, 9, 42, 0
3, 53856, Note_on_c, 9, 42, 75
3, 53904, Note_on_c, 9, 42, 0
3, 53904, Note_on_c, 9, 42, 75
3, 53952, Note_on_c, 9, 42, 0
3, 54000, Note_on_c, 9, 42, 75
3, 54048, Note_on_c, 9, 42, 0
3, 54048, Note_on_c, 9, 42, 75
3, 54096, Note_on_c, 9, 42, 0
3, 54144, Note_on_c, 9, 42, 75
3, 54192, Note_on_c, 9, 42, 0
3, 54192, Note_on_c, 9, 42, 75
3, 54240, Note_on_c, 9, 42, 0
3, 54288, Note_on_c, 9, 42, 75
3, 54336, Note_on_c, 9, 42, 0
3, 54384, Note_on_c, 9, 42, 75
3, 54432, Note_on_c, 9, 42, 0
3, 54432, Note_on_c, 9, 42, 75
3, 54480, Note_on_c, 9, 42, 0
3, 54480, Note_on_c, 9, 42, 75
3, 54528, Note_on_c, 9, 42, 0
3, 54576, Note_on_c, 9, 42, 75
3, 54624, Note_on_c, 9, 42, 0
3, 54624, Note_on_c, 9, 42, 75
3, 54672, Note_on_c, 9, 42, 0
3, 54672, Note_on_c, 9, 42, 75
3, 54720, Note_on_c, 9, 42, 0
3, 54768, Note_on_c, 9, 42, 75
3, 54816, Note_on_c, 9, 42, 0
3, 54816, Note_on_c, 9, 42, 75
3, 54864, Note_on_c, 9, 42, 0
3, 54912, Note_on_c, 9, 42, 75
3, 54960, Note_on_c, 9, 42, 0
3, 54960, Note_on_c, 9, 42, 75
3, 55008, Note_on_c, 9, 42, 0
3, 55056, Note_on_c, 9, 42, 75
3, 55104, Note_on_c, 9, 42, 0
3, 55152, Note_on_c, 9, 42, 75
3, 55200, Note_on_c, 9, 42, 0
3, 55200, Note_on_c, 9, 42, 75
3, 55248, Note_on_c, 9, 42, 0
3, 55248, Note_on_c, 9, 42, 75
3, 55296, Note_on_c, 9, 42, 0
3, 55344, Note_on_c, 9, 42, 75
3, 55392, Note_on_c, 9, 42, 0
3, 55392, Note_on_c, 9, 42, 75
3, 55440, Note_on_c, 9, 42, 0
3, 55440, Note_on_c, 9, 42, 75
3, 55488, Note_on_c, 9, 42, 0
3, 55536, Note_on_c, 9, 42, 75
3, 55584, Note_on_c, 9, 42, 0
3, 55584, Note_on_c, 9, 42, 75
3, 55632, Note_on_c, 9, 42, 0
3, 55680, Note_on_c, 9, 42, 75
3, 55728, Note_on_c, 9, 42, 0
3, 55728, Note_on_c, 9, 42, 75
3, 55776, Note_on_c, 9, 42, 0
3, 55824, Note_on_c, 9, 42, 75
3, 55872, Note_on_c, 9, 42, 0
3, 55920, Note_on_c, 9, 42, 75
3, 55968, Note_on_c, 9, 42, 0
3, 55968, Note_on_c, 9, 42, 75
3, 56016, Note_on_c, 9, 42, 0
3, 56016, Note_on_c, 9, 42, 75
3, 56064, Note_on_c, 9, 42, 0
3, 56112, Note_on_c, 9, 42, 75
3, 56160, Note_on_c, 9, 42, 0
3, 56160, Note_on_c, 9, 42, 75
3, 56208, Note_on_c, 9, 42, 0
3, 56208, Note_on_c, 9, 42, 75
3, 56256, Note_on_c, 9, 42, 0
3, 56304, Note_on_c, 9, 42, 75
3, 56352, Note_on_c, 9, 42, 0
3, 56352, Note_on_c, 9, 42, 75
3, 56400, Note_on_c, 9, 42, 0
3, 56448, Note_on_c, 9, 42, 75
3, 56496, Note_on_c, 9, 42, 0
3, 56496, Note_on_c, 9, 42, 75
3, 56544, Note_on_c, 9, 42, 0
3, 56592, Note_on_c, 9, 42, 75
3, 56640, Note_on_c, 9, 42, 0
3, 56688, Note_on_c, 9, 42, 75
3, 56736, Note_on_c, 9, 42, 0
3, 56736, Note_on_c, 9, 42, 75
3, 56784, Note_on_c, 9, 42, 0
3, 56784, Note_on_c, 9, 42, 75
3, 56832, Note_on_c, 9, 42, 0
3, 56880, Note_on_c, 9, 42, 75
3, 56928, Note_on_c, 9, 42, 0
3, 56928, Note_on_c, 9, 42, 75
3, 56976, Note_on_c, 9, 42, 0
3, 56976, Note_on_c, 9, 42, 75
3, 57024, Note_on_c, 9, 42, 0
3, 57072, Note_on_c, 9, 42, 75
3, 57120, Note_on_c, 9, 42, 0
3, 57120, Note_on_c, 9, 42, 75
3, 57168, Note_on_c, 9, 42, 0
3, 57216, Note_on_c, 9, 42, 75
3, 57264, Note_on_c, 9, 42, 0
3, 57264, Note_on_c, 9, 42, 75
3, 57312, Note_on_c, 9, 42, 0
3, 57360, Note_on_c, 9, 42, 75
3, 57408, Note_on_c, 9, 42, 0
3, 57456, Note_on_c, 9, 42, 75
3, 57504, Note_on_c, 9, 42, 0
3, 57504, Note_on_c, 9, 42, 75
3, 57552, Note_on_c, 9, 42, 0
3, 57552, Note_on_c, 9, 42, 75
3, 57600, Note_on_c, 9, 42, 0
3, 57648, Note_on_c, 9, 42, 75
3, 57696, Note_on_c, 9, 42, 0
3, 57696, Note_on_c, 9, 42, 75
3, 57744, Note_on_c, 9, 42, 0
3, 57744, Note_on_c, 9, 42, 75
3, 57792, Note_on_c, 9, 42, 0
3, 57840, Note_on_c, 9, 42, 75
3, 57888, Note_on_c, 9, 42, 0
3, 57888, Note_on_c, 9, 42, 75
3, 57936, Note_on_c, 9, 42, 0
3, 57984, Note_on_c, 9, 42, 75
3, 58032, Note_on_c, 9, 42, 0
3, 58032, Note_on_c, 9, 42, 75
3, 58080, Note_on_c, 9, 42, 0
3, 58128, Note_on_c, 9, 42, 75
3, 58176, Note_on_c, 9, 42, 0
3, 58224, Note_on_c, 9, 42, 75
3, 58272, Note_on_c, 9, 42, 0
3, 58272, Note_on_c, 9, 42, 75
3, 58320, Note_on_c, 9, 42, 0
3, 58320, Note_on_c, 9, 42, 75
3, 58368, Note_on_c, 9, 42, 0
3, 58416, Note_on_c, 9, 42, 75
3, 58464, Note_on_c, 9, 42, 0
3, 58464, Note_on_c, 9, 42, 75
3, 58512, Note_on_c, 9, 42, 0
3, 58512, Note_on_c, 9, 42, 75
3, 58560, Note_on_c, 9, 42, 0
3, 58608, Note_on_c, 9, 42, 75
3, 58656, Note_on_c, 9, 42, 0
3, 58656, Note_on_c, 9, 42, 75
3, 58704, Note_on_c, 9, 42, 0
3, 58752, Note_on_c, 9, 42, 75
3, 58800, Note_on_c, 9, 42, 0
3, 58800, Note_on_c, 9, 42, 75
3, 58848, Note_on_c, 9, 42, 0
3, 58896, Note_on_c, 9, 42, 75
3, 58944, Note_on_c, 9, 42, 0
3, 58992, Note_on_c, 9, 42, 75
3, 59040, Note_on_c, 9, 42, 0
3, 59040, Note_on_c, 9, 42, 75
3, 59088, Note_on_c, 9, 42, 0
3, 59088, Note_on_c, 9, 42, 75
3, 59136, Note_on_c, 9, 42, 0
3, 59184, Note_on_c, 9, 42, 75
3, 59232, Note_on_c, 9, 42, 0
3, 59232, Note_on_c, 9, 42, 75
3, 59280, Note_on_c, 9, 42, 0
3, 59280, Note_on_c, 9, 42, 75
3, 59328, Note_on_c, 9, 42, 0
3, 59376, Note_on_c, 9, 42, 75
3, 59424, Note_on_c, 9, 42, 0
3, 59424, Note_on_c, 9, 42, 75
3, 59472, Note_on_c, 9, 42, 0
3, 59520, Note_on_c, 9, 42, 75
3, 59568, Note_on_c, 9, 42, 0
3, 59568, Note_on_c, 9, 42, 75
3, 59616, Note_on_c, 9, 42, 0
3, 59664, Note_on_c, 9, 42, 75
3, 59712, Note_on_c, 9, 42, 0
3, 59760, Note_on_c, 9, 42, 75
3, 59808, Note_on_c, 9, 42, 0
3, 59808, Note_on_c, 9, 42, 75
3, 59856, Note_on_c, 9, 42, 0
3, 59856, Note_on_c, 9, 42, 75
3, 59904, Note_on_c, 9, 42, 0
3, 59952, Note_on_c, 9, 42, 75
3, 60000, Note_on_c, 9, 42, 0
3, 60000, Note_on_c, 9, 42, 75
3, 60048, Note_on_c, 9, 42, 0
3, 60048, Note_on_c, 9, 42, 75
3, 60096, Note_on_c, 9, 42, 0
3, 60144, Note_on_c, 9, 42, 75
3, 60192, Note_on_c, 9, 42, 0
3, 60192, Note_on_c, 9, 42, 75
3, 60240, Note_on_c, 9, 42, 0
3, 60288, Note_on_c, 9, 42, 75
3, 60336, Note_on_c, 9, 42, 0
3, 60336, Note_on_c, 9, 42, 75
3, 60384, Note_on_c, 9, 42, 0
3, 60432, Note_on_c, 9, 42, 75
3, 60480, Note_on_c, 9, 42, 0
3, 60528, Note_on_c, 9, 42, 75
3, 60576, Note_on_c, 9, 42, 0
3, 60576, Note_on_c, 9, 42, 75
3, 60624, Note_on_c, 9, 42, 0
3, 60624, Note_on_c, 9, 42, 75
3, 60672, Note_on_c, 9, 42, 0
3, 60720, Note_on_c, 9, 42, 75
3, 60768, Note_on_c, 9, 42, 0
3, 60768, Note_on_c, 9, 42, 75
3, 60816, Note_on_c, 9, 42, 0
3, 60816, Note_on_c, 9, 42, 75
3, 60864, Note_on_c, 9, 42, 0
3, 60912, Note_on_c, 9, 42, 75
3, 60960, Note_on_c, 9, 42, 0
3, 60960, Note_on_c, 9, 42, 75
3, 61008, Note_on_c, 9, 42, 0
3, 61056, Note_on_c, 9, 42, 75
3, 61104, Note_on_c, 9, 42, 0
3, 61104, Note_on_c, 9, 42, 75
3, 61152, Note_on_c, 9, 42, 0
3, 61200, Note_on_c, 9, 42, 75
3, 61248, Note_on_c, 9, 42, 0
3, 61296, Note_on_c, 9, 42, 75
3, 61344, Note_on_c, 9, 42, 0
3, 61344, Note_on_c, 9, 42, 75
3, 61392, Note_on_c, 9, 42, 0
3, 61392, Note_on_c, 9, 42, 75
3, 61440, Note_on_c, 9, 42, 0
3, 61488, Note_on_c, 9, 42, 75
3, 61536, Note_on_c, 9, 42, 0
3, 61536, Note_on_c, 9, 42, 75
3, 61584, Note_on_c, 9, 42, 0
3, 61584, Note_on_c, 9, 42, 75
3, 61632, Note_on_c, 9, 42, 0
3, 61680, Note_on_c, 9, 42, 75
3, 61728, Note_on_c, 9, 42, 0
3, 61728, Note_on_c, 9, 42, 75
3, 61776, Note_on_c, 9, 42, 0
3, 61824, Note_on_c, 9, 42, 75
3, 61872, Note_on_c, 9, 42, 0
3, 61872, Note_on_c, 9, 42, 75
3, 61920, Note_on_c, 9, 42, 0
3, 61968, Note_on_c, 9, 42, 75
3, 62016, Note_on_c, 9, 42, 0
3, 62064, Note_on_c, 9, 42, 75
3, 62112, Note_on_c, 9, 42, 0
3, 62112, Note_on_c, 9, 42, 75
3, 62160, Note_on_c, 9, 42, 0
3, 62160, Note_on_c, 9, 42, 75
3, 62208, Note_on_c, 9, 42, 0
3, 62256, Note_on_c, 9, 42, 75
3, 62304, Note_on_c, 9, 42, 0
3, 62304, Note_on_c, 9, 42, 75
3, 62352, Note_on_c, 9, 42, 0
3, 62352, Note_on_c, 9, 42, 75
3, 62400, Note_on_c, 9, 42, 0
3, 62448, Note_on_c, 9, 42, 75
3, 62496, Note_on_c, 9, 42, 0
3, 62496, Note_on_c, 9, 42, 75
3, 62544, Note_on_c, 9, 42, 0
3, 62592, Note_on_c, 9, 42, 75
3, 62640, Note_on_c, 9, 42, 0
3, 62640, Note_on_c, 9, 42, 75
3, 62688, Note_on_c, 9, 42, 0
3, 62736, Note_on_c, 9, 42, 75
3, 62784, Note_on_c, 9, 42, 0
3, 62832, Note_on_c, 9, 42, 75
3, 62880, Note_on_c, 9, 42, 0
3, 62880, Note_on_c, 9, 42, 75
3, 62928, Note_on_c, 9, 42, 0
3, 62928, Note_on_c, 9, 42, 75
3, 62976, Note_on_c, 9, 42, 0
3, 63024, Note_on_c, 9, 42, 75
3, 63072, Note_on_c, 9, 42, 0
3, 63072, Note_on_c, 9, 42, 75
3, 63120, Note_on_c, 9, 42, 0
3, 63120, Note_on_c, 9, 42, 75
3, 63168, Note_on_c, 9, 42, 0
3, 63216, Note_on_c, 9, 42, 75
3, 63264, Note_on_c, 9, 42, 0
3, 63264, Note_on_c, 9, 42, 75
3, 63312, Note_on_c, 9, 42, 0
3, 63360, Note_on_c, 9, 42, 75
3, 63408, Note_on_c, 9, 42, 0
3, 63408, Note_on_c, 9, 42, 75
3, 63456, Note_on_c, 9, 42, 0
3, 63504, Note_on_c, 9, 42, 75
3, 63552, Note_on_c, 9, 42, 0
3, 63600, Note_on_c, 9, 42, 75
3, 63648, Note_on_c, 9, 42, 0
3, 63648, Note_on_c, 9, 42, 75
3, 63696, Note_on_c, 9, 42, 0
3, 63696, Note_on_c, 9, 42, 75
3, 63744, Note_on_c, 9, 42, 0
3, 63792, Note_on_c, 9, 42, 75
3, 63840, Note_on_c, 9, 42, 0
3, 63840, Note_on_c, 9, 42, 75
3, 63888, Note_on_c, 9, 42, 0
3, 63888, Note_on_c, 9, 42, 75
3, 63936, Note_on_c, 9, 42, 0
3, 63984, Note_on_c, 9, 42, 75
3, 64032, Note_on_c, 9, 42, 0
3, 64032, Note_on_c, 9, 42, 75
3, 64080, Note_on_c, 9, 42, 0
3, 64128, Note_on_c, 9, 42, 75
3, 64176, Note_on_c, 9, 42, 0
3, 64176, Note_on_c, 9, 42, 75
3, 64224, Note_on_c, 9, 42, 0
3, 64272, Note_on_c, 9, 42, 75
3, 64320, Note_on_c, 9, 42, 0
3, 64368, Note_on_c, 9, 42, 75
3, 64416, Note_on_c, 9, 42, 0
3, 64416, Note_on_c, 9, 42, 75
3, 64464, Note_on_c, 9, 42, 0
3, 64464, Note_on_c, 9, 42, 75
3, 64512, Note_on_c, 9, 42, 0
3, 64560, Note_on_c, 9, 42, 75
3, 64608, Note_on_c, 9, 42, 0
3, 64608, Note_on_c, 9, 42, 75
3, 64656, Note_on_c, 9, 42, 0
3, 64656, Note_on_c, 9, 42, 75
3, 64704, Note_on_c, 9, 42, 0
3, 64752, Note_on_c, 9, 42, 75
3, 64800, Note_on_c, 9, 42, 0
3, 64800, Note_on_c, 9, 42, 75
3, 64848, Note_on_c, 9, 42, 0
3, 64896, Note_on_c, 9, 42, 75
3, 64944, Note_on_c, 9, 42, 0
3, 64944, Note_on_c, 9, 42, 75
3, 64992, Note_on_c, 9, 42, 0
3, 65040, Note_on_c, 9, 42, 75
3, 65088, Note_on_c, 9, 42, 0
3, 65136, Note_on_c, 9, 42, 75
3, 65184, Note_on_c, 9, 42, 0
3, 65184, Note_on_c, 9, 42, 75
3, 65232, Note_on_c, 9, 42, 0
3, 65232, Note_on_c, 9, 42, 75
3, 65280, Note_on_c, 9, 42, 0
3, 65328, Note_on_c, 9, 42, 75
3, 65376, Note_on_c, 9, 42, 0
3, 65376, Note_on_c, 9, 42, 75
3, 65424, Note_on_c, 9, 42, 0
3, 65424, Note_on_c, 9, 42, 75
3, 65472, Note_on_c, 9, 42, 0
3, 65520, Note_on_c, 9, 42, 75
3, 65568, Note_on_c, 9, 42, 0
3, 65568, Note_on_c, 9, 42, 75
3, 65616, Note_on_c, 9, 42, 0
3, 65664, Note_on_c, 9, 42, 75
3, 65712, Note_on_c, 9, 42, 0
3, 65712, Note_on_c, 9, 42, 75
3, 65760, Note_on_c, 9, 42, 0
3, 65808, Note_on_c, 9, 42, 75
3, 65856, Note_on_c, 9, 42, 0
3, 65904, Note_on_c, 9, 42, 75
3, 65952, Note_on_c, 9, 42, 0
3, 65952, Note_on_c, 9, 42, 75
3, 66000, Note_on_c, 9, 42, 0
3, 66000, Note_on_c, 9, 42, 75
3, 66048, Note_on_c, 9, 42, 0
3, 66096, Note_on_c, 9, 42, 75
3, 66144, Note_on_c, 9, 42, 0
3, 66144, Note_on_c, 9, 42, 75
3, 66192, Note_on_c, 9, 42, 0
3, 66192, Note_on_c, 9, 42, 75
3, 66240, Note_on_c, 9, 42, 0
3, 66288, Note_on_c, 9, 42, 75
3, 66336, Note_on_c, 9, 42, 0
3, 66336, Note_on_c, 9, 42, 75
3, 66384, Note_on_c, 9, 42, 0
3, 66432, Note_on_c, 9, 42, 75
3, 66480, Note_on_c, 9, 42, 0
3, 66480, Note_on_c, 9, 42, 75
3, 66528, Note_on_c, 9, 42, 0
3, 66576, Note_on_c, 9, 42, 75
3, 66624, Note_on_c, 9, 42, 0
3, 66672, Note_on_c, 9, 42, 75
3, 66720, Note_on_c, 9, 42, 0
3, 66720, Note_on_c, 9, 42, 75
3, 66768, Note_on_c, 9, 42, 0
3, 66768, Note_on_c, 9, 42, 75
3, 66816, Note_on_c, 9, 42, 0
3, 66864, Note_on_c, 9, 42, 75
3, 66912, Note_on_c, 9, 42, 0
3, 66912, Note_on_c, 9, 42, 75
3, 66960, Note_on_c, 9, 42, 0
3, 66960, Note_on_c, 9, 42, 75
3, 67008, Note_on_c, 9, 42, 0
3, 67056, Note_on_c, 9, 42, 75
3, 67104, Note_on_c, 9, 42, 0
3, 67104, Note_on_c, 9, 42, 75
3, 67152, Note_on_c, 9, 42, 0
3, 67200, Note_on_c, 9, 42, 75
3, 67248, Note_on_c, 9, 42, 0
3, 67248, Note_on_c, 9, 42, 75
3, 67296, Note_on_c, 9, 42, 0
3, 67344, Note_on_c, 9, 42, 75
3, 67392, Note_on_c, 9, 42, 0
3, 67440, Note_on_c, 9, 42, 75
3, 67488, Note_on_c, 9, 42, 0
3, 67488, Note_on_c, 9, 42, 75
3, 67536, Note_on_c, 9, 42, 0
3, 67536, Note_on_c, 9, 42, 75
3, 67584, Note_on_c, 9, 42, 0
3, 67632, Note_on_c, 9, 42, 75
3, 67680, Note_on_c, 9, 42, 0
3, 67680, Note_on_c, 9, 42, 75
3, 67728, Note_on_c, 9, 42, 0
3, 67728, Note_on_c, 9, 42, 75
3, 67776, Note_on_c, 9, 42, 0
3, 67824, Note_on_c, 9, 42, 75
3, 67872, Note_on_c, 9, 42, 0
3, 67872, Note_on_c, 9, 42, 75
3, 67920, Note_on_c, 9, 42, 0
3, 67968, Note_on_c, 9, 42, 75
3, 68016, Note_on_c, 9, 42, 0
3, 68016, Note_on_c, 9, 42, 75
3, 68064, Note_on_c, 9, 42, 0
3, 68112, Note_on_c, 9, 42, 75
3, 68160, Note_on_c, 9, 42, 0
3, 68208, Note_on_c, 9, 42, 75
3, 68256, Note_on_c, 9, 42, 0
3, 68256, Note_on_c, 9, 42, 75
3, 68304, Note_on_c, 9, 42, 0
3, 68304, Note_on_c, 9, 42, 75
3, 68352, Note_on_c, 9, 42, 0
3, 68400, Note_on_c, 9, 42, 75
3, 68448, Note_on_c, 9, 42, 0
3, 68448, Note_on_c, 9, 42, 75
3, 68496, Note_on_c, 9, 42, 0
3, 68496, Note_on_c, 9, 42, 75
3, 68544, Note_on_c, 9, 42, 0
3, 68592, Note_on_c, 9, 42, 75
3, 68640, Note_on_c, 9, 42, 0
3, 68640, Note_on_c, 9, 42, 75
3, 68688, Note_on_c, 9, 42, 0
3, 68736, Note_on_c, 9, 42, 75
3, 68784, Note_on_c, 9, 42, 0
3, 68784, Note_on_c, 9, 42, 75
3, 68832, Note_on_c, 9, 42, 0
3, 68880, Note_on_c, 9, 42, 75
3, 68928, Note_on_c, 9, 42, 0
3, 68976, Note_on_c, 9, 42, 75
3, 69024, Note_on_c, 9, 42, 0
3, 69024, Note_on_c, 9, 42, 75
3, 69072, Note_on_c, 9, 42, 0
3, 69072, Note_on_c, 9, 42, 75
3, 69120, Note_on_c, 9, 42, 0
3, 69168, Note_on_c, 9, 42, 75
3, 69216, Note_on_c, 9, 42, 0
3, 69216, Note_on_c, 9, 42, 75
3, 69264, Note_on_c, 9, 42, 0
3, 69264, Note_on_c, 9, 42, 75
3, 69312, Note_on_c, 9, 42, 0
3, 69360, Note_on_c, 9, 42, 75
3, 69408, Note_on_c, 9, 42, 0
3, 69408, Note_on_c, 9, 42, 75
3, 69456, Note_on_c, 9, 42, 0
3, 69504, Note_on_c, 9, 42, 75
3, 69552, Note_on_c, 9, 42, 0
3, 69552, Note_on_c, 9, 42, 75
3, 69600, Note_on_c, 9, 42, 0
3, 69648, Note_on_c, 9, 42, 75
3, 69696, Note_on_c, 9, 42, 0
3, 69744, Note_on_c, 9, 42, 75
3, 69792, Note_on_c, 9, 42, 0
3, 69792, Note_on_c, 9, 42, 75
3, 69840, Note_on_c, 9, 42, 0
3, 69840, Note_on_c, 9, 42, 75
3, 69888, Note_on_c, 9, 42, 0
3, 69936, Note_on_c, 9, 42, 75
3, 69984, Note_on_c, 9, 42, 0
3, 69984, Note_on_c, 9, 42, 75
3, 70032, Note_on_c, 9, 42, 0
3, 70032, Note_on_c, 9, 42, 75
3, 70080, Note_on_c, 9, 42, 0
3, 70128, Note_on_c, 9, 42, 75
3, 70176, Note_on_c, 9, 42, 0
3, 70176, Note_on_c, 9, 42, 75
3, 70224, Note_on_c, 9, 42, 0
3, 70272, Note_on_c, 9, 42, 75
3, 70320, Note_on_c, 9, 42, 0
3, 70320, Note_on_c, 9, 42, 75
3, 70368, Note_on_c, 9, 42, 0
3, 70416, Note_on_c, 9, 42, 75
3, 70464, Note_on_c, 9, 42, 0
3, 70512, Note_on_c, 9, 42, 75
3, 70560, Note_on_c, 9, 42, 0
3, 70560, Note_on_c, 9, 42, 75
3, 70608, Note_on_c, 9, 42, 0
3, 70608, Note_on_c, 9, 42, 75
3, 70656, Note_on_c, 9, 42, 0
3, 70704, Note_on_c, 9, 42, 75
3, 70752, Note_on_c, 9, 42, 0
3, 70752, Note_on_c, 9, 42, 75
3, 70800, Note_on_c, 9, 42, 0
3, 70800, Note_on_c, 9, 42, 75
3, 70848, Note_on_c, 9, 42, 0
3, 70896, Note_on_c, 9, 42, 75
3, 70944, Note_on_c, 9, 42, 0
3, 70944, Note_on_c, 9, 42, 75
3, 70992, Note_on_c, 9, 42, 0
3, 71040, Note_on_c, 9, 42, 75
3, 71088, Note_on_c, 9, 42, 0
3, 71088, Note_on_c, 9, 42, 75
3, 71136, Note_on_c, 9, 42, 0
3, 71184, Note_on_c, 9, 42, 75
3, 71232, Note_on_c, 9, 42, 0
3, 71280, Note_on_c, 9, 42, 75
3, 71328, Note_on_c, 9, 42, 0
3, 71328, Note_on_c, 9, 42, 75
3, 71376, Note_on_c, 9, 42, 0
3, 71376, Note_on_c, 9, 42, 75
3, 71424, Note_on_c, 9, 42, 0
3, 71472, Note_on_c, 9, 42, 75
3, 71520, Note_on_c, 9, 42, 0
3, 71520, Note_on_c, 9, 42, 75
3, 71568, Note_on_c, 9, 42, 0
3, 71568, Note_on_c, 9, 42, 75
3, 71616, Note_on_c, 9, 42, 0
3, 71664, Note_on_c, 9, 42, 75
3, 71712, Note_on_c, 9, 42, 0
3, 71712, Note_on_c, 9, 42, 75
3, 71760, Note_on_c, 9, 42, 0
3, 71808, Note_on_c, 9, 42, 75
3, 71856, Note_on_c, 9, 42, 0
3, 71856, Note_on_c, 9, 42, 75
3, 71904, Note_on_c, 9, 42, 0
3, 71952, Note_on_c, 9, 42, 75
3, 72000, Note_on_c, 9, 42, 0
3, 72048, Note_on_c, 9, 42, 75
3, 72096, Note_on_c, 9, 42, 0
3, 72096, Note_on_c, 9, 42, 75
3, 72144, Note_on_c, 9, 42, 0
3, 72144, Note_on_c, 9, 42, 75
3, 72192, Note_on_c, 9, 42, 0
3, 72240, Note_on_c, 9, 42, 75
3, 72288, Note_on_c, 9, 42, 0
3, 72288, Note_on_c, 9, 42, 75
3, 72336, Note_on_c, 9, 42, 0
3, 72336, Note_on_c, 9, 42, 75
3, 72384, Note_on_c, 9, 42, 0
3, 72432, Note_on_c, 9, 42, 75
3, 72480, Note_on_c, 9, 42, 0
3, 72480, Note_on_c, 9, 42, 75
3, 72528, Note_on_c, 9, 42, 0
3, 72576, Note_on_c, 9, 42, 75
3, 72624, Note_on_c, 9, 42, 0
3, 72624, Note_on_c, 9, 42, 75
3, 72672, Note_on_c, 9, 42, 0
3, 72720, Note_on_c, 9, 42, 75
3, 72768, Note_on_c, 9, 42, 0
3, 72816, Note_on_c, 9, 42, 75
3, 72864, Note_on_c, 9, 42, 0
3, 72864, Note_on_c, 9, 42, 75
3, 72912, Note_on_c, 9, 42, 0
3, 72912, Note_on_c, 9, 42, 75
3, 72960, Note_on_c, 9, 42, 0
3, 73008, Note_on_c, 9, 42, 75
3, 73056, Note_on_c, 9, 42, 0
3, 73056, Note_on_c, 9, 42, 75
3, 73104, Note_on_c, 9, 42, 0
3, 73104, Note_on_c, 9, 42, 75
3, 73152, Note_on_c, 9, 42, 0
3, 73200, Note_on_c, 9, 42, 75
3, 73248, Note_on_c, 9, 42, 0
3, 73248, Note_on_c, 9, 42, 75
3, 73296, Note_on_c, 9, 42, 0
3, 73344, Note_on_c, 9, 42, 75
3, 73392, Note_on_c, 9, 42, 0
3, 73392, Note_on_c, 9, 42, 75
3, 73440, Note_on_c, 9, 42, 0
3, 73488, Note_on_c, 9, 42, 75
3, 73536, Note_on_c, 9, 42, 0
3, 73584, Note_on_c, 9, 42, 75
3, 73632, Note_on_c, 9, 42, 0
3, 73632, Note_on_c, 9, 42, 75
3, 73680, Note_on_c, 9, 42, 0
3, 73680, Note_on_c, 9, 42, 75
3, 73728, Note_on_c, 9, 42, 0
3, 73776, Note_on_c, 9, 42, 74
3, 73824, Note_on_c, 9, 42, 0
3, 73824, Note_on_c, 9, 42, 73
3, 73872, Note_on_c, 9, 42, 0
3, 73872, Note_on_c, 9, 42, 72
3, 73920, Note_on_c, 9, 42, 0
3, 73968, Note_on_c, 9, 42, 70
3, 74016, Note_on_c, 9, 42, 0
3, 74016, Note_on_c, 9, 42, 69
3, 74064, Note_on_c, 9, 42, 0
3, 74112, Note_on_c, 9, 42, 67
3, 74160, Note_on_c, 9, 42, 0
3, 74160, Note_on_c, 9, 42, 66
3, 74208, Note_on_c, 9, 42, 0
3, 74256, Note_on_c, 9, 42, 64
3, 74304, Note_on_c, 9, 42, 0
3, 74352, Note_on_c, 9, 42, 62
3, 74400, Note_on_c, 9, 42, 0
3, 74400, Note_on_c, 9, 42, 61
3, 74448, Note_on_c, 9, 42, 0
3, 74448, Note_on_c, 9, 42, 60
3, 74496, Note_on_c, 9, 42, 0
3, 74544, Note_on_c, 9, 42, 58
3, 74592, Note_on_c, 9, 42, 0
3, 74592, Note_on_c, 9, 42, 57
3, 74640, Note_on_c, 9, 42, 0
3, 74640, Note_on_c, 9, 42, 56
3, 74688, Note_on_c, 9, 42, 0
3, 74736, Note_on_c, 9, 42, 54
3, 74784, Note_on_c, 9, 42, 0
3, 74784, Note_on_c, 9, 42, 53
3, 74832, Note_on_c, 9, 42, 0
3, 74880, Note_on_c, 9, 42, 51
3, 74928, Note_on_c, 9, 42, 0
3, 74928, Note_on_c, 9, 42, 50
3, 74976, Note_on_c, 9, 42, 0
3, 75024, Note_on_c, 9, 42, 48
3, 75072, Note_on_c, 9, 42, 0
3, 75120, Note_on_c, 9, 42, 46
3, 75168, Note_on_c, 9, 42, 0
3, 75168, Note_on_c, 9, 42, 45
3, 75216, Note_on_c, 9, 42, 0
3, 75216, Note_on_c, 9, 42, 44
3, 75264, Note_on_c, 9, 42, 0
3, 75312, Note_on_c, 9, 42, 42
3, 75360, Note_on_c, 9, 42, 0
3, 75360, Note_on_c, 9, 42, 41
3, 75408, Note_on_c, 9, 42, 0
3, 75408, Note_on_c, 9, 42, 40
3, 75456, Note_on_c, 9, 42, 0
3, 75504, Note_on_c, 9, 42, 38
3, 75552, Note_on_c, 9, 42, 0
3, 75552, Note_on_c, 9, 42, 37
3, 75600, Note_on_c, 9, 42, 0
3, 75648, Note_on_c, 9, 42, 35
3, 75696, Note_on_c, 9, 42, 0
3, 75696, Note_on_c, 9, 42, 34
3, 75744, Note_on_c, 9, 42, 0
3, 75792, Note_on_c, 9, 42, 32
3, 75840, Note_on_c, 9, 42, 0
3, 75888, Note_on_c, 9, 42, 30
3, 75936, Note_on_c, 9, 42, 0
3, 75936, Note_on_c, 9, 42, 29
3, 75984, Note_on_c, 9, 42, 0
3, 75984, Note_on_c, 9, 42, 28
3, 76032, Note_on_c, 9, 42, 0
3, 76080, Note_on_c, 9, 42, 24
3, 76128, Note_on_c, 9, 42, 0
3, 76128, Note_on_c, 9, 42, 22
3, 76176, Note_on_c, 9, 42, 0
3, 76176, Note_on_c, 9, 42, 20
3, 76224, Note_on_c, 9, 42, 0
3, 76272, Note_on_c, 9, 42, 16
3, 76320, Note_on_c, 9, 42, 0
3, 76320, Note_on_c, 9, 42, 14
3, 76368, Note_on_c, 9, 42, 0
3, 76416, Note_on_c, 9, 42, 10
3, 76464, Note_on_c, 9, 42, 0
3, 76464, Note_on_c, 9, 42, 10
3, 76512, Note_on_c, 9, 42, 0
3, 76560, Note_on_c, 9, 42, 10
3, 76608, Note_on_c, 9, 42, 0
3, 76656, Note_on_c, 9, 42, 10
3, 76704, Note_on_c, 9, 42, 0
3, 76704, Note_on_c, 9, 42, 10
3, 76752, Note_on_c, 9, 42, 0
3, 76752, Note_on_c, 9, 42, 10
3, 76800, Note_on_c, 9, 42, 0
3, 76800, End_track
4, 0, Start_track
4, 0, MIDI_port, 0
4, 0, Title_t, "Staff"
4, 0, Program_c, 9, 8
4, 0, Control_c, 9, 7, 127
4, 0, Control_c, 9, 10, 64
4, 0, Note_on_c, 9, 36, 127
4, 48, Note_on_c, 9, 36, 0
4, 48, Note_on_c, 9, 36, 127
4, 96, Note_on_c, 9, 36, 0
4, 144, Note_on_c, 9, 36, 127
4, 192, Note_on_c, 9, 36, 0
4, 192, Note_on_c, 9, 38, 127
4, 240, Note_on_c, 9, 38, 0
4, 288, Note_on_c, 9, 36, 127
4, 336, Note_on_c, 9, 36, 0
4, 336, Note_on_c, 9, 36, 127
4, 384, Note_on_c, 9, 36, 0
4, 432, Note_on_c, 9, 36, 127
4, 480, Note_on_c, 9, 36, 0
4, 480, Note_on_c, 9, 36, 127
4, 528, Note_on_c, 9, 36, 0
4, 576, Note_on_c, 9, 38, 127
4, 624, Note_on_c, 9, 38, 0
4, 768, Note_on_c, 9, 36, 127
4, 816, Note_on_c, 9, 36, 0
4, 816, Note_on_c, 9, 36, 127
4, 864, Note_on_c, 9, 36, 0
4, 912, Note_on_c, 9, 36, 127
4, 960, Note_on_c, 9, 36, 0
4, 960, Note_on_c, 9, 38, 127
4, 1008, Note_on_c, 9, 38, 0
4, 1056, Note_on_c, 9, 36, 127
4, 1104, Note_on_c, 9, 36, 0
4, 1104, Note_on_c, 9, 36, 127
4, 1152, Note_on_c, 9, 36, 0
4, 1200, Note_on_c, 9, 36, 127
4, 1248, Note_on_c, 9, 36, 0
4, 1248, Note_on_c, 9, 36, 127
4, 1296, Note_on_c, 9, 36, 0
4, 1344, Note_on_c, 9, 38, 127
4, 1392, Note_on_c, 9, 38, 0
4, 1536, Note_on_c, 9, 36, 127
4, 1584, Note_on_c, 9, 36, 0
4, 1584, Note_on_c, 9, 36, 127
4, 1632, Note_on_c, 9, 36, 0
4, 1680, Note_on_c, 9, 36, 127
4, 1728, Note_on_c, 9, 36, 0
4, 1728, Note_on_c, 9, 38, 127
4, 1776, Note_on_c, 9, 38, 0
4, 1824, Note_on_c, 9, 36, 127
4, 1872, Note_on_c, 9, 36, 0
4, 1872, Note_on_c, 9, 36, 127
4, 1920, Note_on_c, 9, 36, 0
4, 1968, Note_on_c, 9, 36, 127
4, 2016, Note_on_c, 9, 36, 0
4, 2016, Note_on_c, 9, 36, 127
4, 2064, Note_on_c, 9, 36, 0
4, 2112, Note_on_c, 9, 38, 127
4, 2160, Note_on_c, 9, 38, 0
4, 2304, Note_on_c, 9, 36, 127
4, 2352, Note_on_c, 9, 36, 0
4, 2352, Note_on_c, 9, 36, 127
4, 2400, Note_on_c, 9, 36, 0
4, 2448, Note_on_c, 9, 36, 127
4, 2496, Note_on_c, 9, 36, 0
4, 2496, Note_on_c, 9, 38, 127
4, 2544, Note_on_c, 9, 38, 0
4, 2592, Note_on_c, 9, 36, 127
4, 2640, Note_on_c, 9, 36, 0
4, 2640, Note_on_c, 9, 36, 127
4, 2688, Note_on_c, 9, 36, 0
4, 2736, Note_on_c, 9, 36, 127
4, 2784, Note_on_c, 9, 36, 0
4, 2784, Note_on_c, 9, 36, 127
4, 2832, Note_on_c, 9, 36, 0
4, 2880, Note_on_c, 9, 38, 127
4, 2928, Note_on_c, 9, 38, 0
4, 3072, Note_on_c, 9, 36, 127
4, 3120, Note_on_c, 9, 36, 0
4, 3120, Note_on_c, 9, 36, 127
4, 3168, Note_on_c, 9, 36, 0
4, 3216, Note_on_c, 9, 36, 127
4, 3264, Note_on_c, 9, 36, 0
4, 3264, Note_on_c, 9, 38, 127
4, 3312, Note_on_c, 9, 38, 0
4, 3360, Note_on_c, 9, 36, 127
4, 3408, Note_on_c, 9, 36, 0
4, 3408, Note_on_c, 9, 36, 127
4, 3456, Note_on_c, 9, 36, 0
4, 3504, Note_on_c, 9, 36, 127
4, 3552, Note_on_c, 9, 36, 0
4, 3552, Note_on_c, 9, 36, 127
4, 3600, Note_on_c, 9, 36, 0
4, 3648, Note_on_c, 9, 38, 127
4, 3696, Note_on_c, 9, 38, 0
4, 3840, Note_on_c, 9, 36, 127
4, 3888, Note_on_c, 9, 36, 0
4, 3888, Note_on_c, 9, 36, 127
4, 3936, Note_on_c, 9, 36, 0
4, 3984, Note_on_c, 9, 36, 127
4, 4032, Note_on_c, 9, 36, 0
4, 4032, Note_on_c, 9, 38, 127
4, 4080, Note_on_c, 9, 38, 0
4, 4128, Note_on_c, 9, 36, 127
4, 4176, Note_on_c, 9, 36, 0
4, 4176, Note_on_c, 9, 36, 127
4, 4224, Note_on_c, 9, 36, 0
4, 4272, Note_on_c, 9, 36, 127
4, 4320, Note_on_c, 9, 36, 0
4, 4320, Note_on_c, 9, 36, 127
4, 4368, Note_on_c, 9, 36, 0
4, 4416, Note_on_c, 9, 38, 127
4, 4464, Note_on_c, 9, 38, 0
4, 4608, Note_on_c, 9, 36, 127
4, 4656, Note_on_c, 9, 36, 0
4, 4656, Note_on_c, 9, 36, 127
4, 4704, Note_on_c, 9, 36, 0
4, 4752, Note_on_c, 9, 36, 127
4, 4800, Note_on_c, 9, 36, 0
4, 4800, Note_on_c, 9, 38, 127
4, 4848, Note_on_c, 9, 38, 0
4, 4896, Note_on_c, 9, 36, 127
4, 4944, Note_on_c, 9, 36, 0
4, 4944, Note_on_c, 9, 36, 127
4, 4992, Note_on_c, 9, 36, 0
4, 5040, Note_on_c, 9, 36, 127
4, 5088, Note_on_c, 9, 36, 0
4, 5088, Note_on_c, 9, 36, 127
4, 5136, Note_on_c, 9, 36, 0
4, 5184, Note_on_c, 9, 38, 127
4, 5232, Note_on_c, 9, 38, 0
4, 5376, Note_on_c, 9, 36, 127
4, 5424, Note_on_c, 9, 36, 0
4, 5424, Note_on_c, 9, 36, 127
4, 5472, Note_on_c, 9, 36, 0
4, 5520, Note_on_c, 9, 36, 127
4, 5568, Note_on_c, 9, 36, 0
4, 5568, Note_on_c, 9, 38, 127
4, 5616, Note_on_c, 9, 38, 0
4, 5664, Note_on_c, 9, 36, 127
4, 5712, Note_on_c, 9, 36, 0
4, 5712, Note_on_c, 9, 36, 127
4, 5760, Note_on_c, 9, 36, 0
4, 5808, Note_on_c, 9, 36, 127
4, 5856, Note_on_c, 9, 36, 0
4, 5856, Note_on_c, 9, 36, 127
4, 5904, Note_on_c, 9, 36, 0
4, 5952, Note_on_c, 9, 38, 127
4, 6000, Note_on_c, 9, 38, 0
4, 6144, Note_on_c, 9, 36, 127
4, 6192, Note_on_c, 9, 36, 0
4, 6192, Note_on_c, 9, 36, 127
4, 6240, Note_on_c, 9, 36, 0
4, 6288, Note_on_c, 9, 36, 127
4, 6336, Note_on_c, 9, 36, 0
4, 6336, Note_on_c, 9, 38, 127
4, 6384, Note_on_c, 9, 38, 0
4, 6432, Note_on_c, 9, 36, 127
4, 6480, Note_on_c, 9, 36, 0
4, 6480, Note_on_c, 9, 36, 127
4, 6528, Note_on_c, 9, 36, 0
4, 6576, Note_on_c, 9, 36, 127
4, 6624, Note_on_c, 9, 36, 0
4, 6624, Note_on_c, 9, 36, 127
4, 6672, Note_on_c, 9, 36, 0
4, 6720, Note_on_c, 9, 38, 127
4, 6768, Note_on_c, 9, 38, 0
4, 6912, Note_on_c, 9, 36, 127
4, 6960, Note_on_c, 9, 36, 0
4, 6960, Note_on_c, 9, 36, 127
4, 7008, Note_on_c, 9, 36, 0
4, 7056, Note_on_c, 9, 36, 127
4, 7104, Note_on_c, 9, 36, 0
4, 7104, Note_on_c, 9, 38, 127
4, 7152, Note_on_c, 9, 38, 0
4, 7200, Note_on_c, 9, 36, 127
4, 7248, Note_on_c, 9, 36, 0
4, 7248, Note_on_c, 9, 36, 127
4, 7296, Note_on_c, 9, 36, 0
4, 7344, Note_on_c, 9, 36, 127
4, 7392, Note_on_c, 9, 36, 0
4, 7392, Note_on_c, 9, 36, 127
4, 7440, Note_on_c, 9, 36, 0
4, 7488, Note_on_c, 9, 38, 127
4, 7536, Note_on_c, 9, 38, 0
4, 7680, Note_on_c, 9, 36, 127
4, 7728, Note_on_c, 9, 36, 0
4, 7728, Note_on_c, 9, 36, 127
4, 7776, Note_on_c, 9, 36, 0
4, 7824, Note_on_c, 9, 36, 127
4, 7872, Note_on_c, 9, 36, 0
4, 7872, Note_on_c, 9, 38, 127
4, 7920, Note_on_c, 9, 38, 0
4, 7968, Note_on_c, 9, 36, 127
4, 8016, Note_on_c, 9, 36, 0
4, 8016, Note_on_c, 9, 36, 127
4, 8064, Note_on_c, 9, 36, 0
4, 8112, Note_on_c, 9, 36, 127
4, 8160, Note_on_c, 9, 36, 0
4, 8160, Note_on_c, 9, 36, 127
4, 8208, Note_on_c, 9, 36, 0
4, 8256, Note_on_c, 9, 38, 127
4, 8304, Note_on_c, 9, 38, 0
4, 8448, Note_on_c, 9, 36, 127
4, 8496, Note_on_c, 9, 36, 0
4, 8496, Note_on_c, 9, 36, 127
4, 8544, Note_on_c, 9, 36, 0
4, 8592, Note_on_c, 9, 36, 127
4, 8640, Note_on_c, 9, 36, 0
4, 8640, Note_on_c, 9, 38, 127
4, 8688, Note_on_c, 9, 38, 0
4, 8736, Note_on_c, 9, 36, 127
4, 8784, Note_on_c, 9, 36, 0
4, 8784, Note_on_c, 9, 36, 127
4, 8832, Note_on_c, 9, 36, 0
4, 8880, Note_on_c, 9, 36, 127
4, 8928, Note_on_c, 9, 36, 0
4, 8928, Note_on_c, 9, 36, 127
4, 8976, Note_on_c, 9, 36, 0
4, 9024, Note_on_c, 9, 38, 127
4, 9072, Note_on_c, 9, 38, 0
4, 9216, Note_on_c, 9, 36, 127
4, 9264, Note_on_c, 9, 36, 0
4, 9264, Note_on_c, 9, 36, 127
4, 9312, Note_on_c, 9, 36, 0
4, 9360, Note_on_c, 9, 36, 127
4, 9408, Note_on_c, 9, 36, 0
4, 9408, Note_on_c, 9, 38, 127
4, 9456, Note_on_c, 9, 38, 0
4, 9504, Note_on_c, 9, 36, 127
4, 9552, Note_on_c, 9, 36, 0
4, 9552, Note_on_c, 9, 36, 127
4, 9600, Note_on_c, 9, 36, 0
4, 9648, Note_on_c, 9, 36, 127
4, 9696, Note_on_c, 9, 36, 0
4, 9696, Note_on_c, 9, 36, 127
4, 9744, Note_on_c, 9, 36, 0
4, 9792, Note_on_c, 9, 38, 127
4, 9840, Note_on_c, 9, 38, 0
4, 9984, Note_on_c, 9, 36, 127
4, 10032, Note_on_c, 9, 36, 0
4, 10032, Note_on_c, 9, 36, 127
4, 10080, Note_on_c, 9, 36, 0
4, 10128, Note_on_c, 9, 36, 127
4, 10176, Note_on_c, 9, 36, 0
4, 10176, Note_on_c, 9, 38, 127
4, 10224, Note_on_c, 9, 38, 0
4, 10272, Note_on_c, 9, 36, 127
4, 10320, Note_on_c, 9, 36, 0
4, 10320, Note_on_c, 9, 36, 127
4, 10368, Note_on_c, 9, 36, 0
4, 10416, Note_on_c, 9, 36, 127
4, 10464, Note_on_c, 9, 36, 0
4, 10464, Note_on_c, 9, 36, 127
4, 10512, Note_on_c, 9, 36, 0
4, 10560, Note_on_c, 9, 38, 127
4, 10608, Note_on_c, 9, 38, 0
4, 10752, Note_on_c, 9, 36, 127
4, 10800, Note_on_c, 9, 36, 0
4, 10800, Note_on_c, 9, 36, 127
4, 10848, Note_on_c, 9, 36, 0
4, 10896, Note_on_c, 9, 36, 127
4, 10944, Note_on_c, 9, 36, 0
4, 10944, Note_on_c, 9, 38, 127
4, 10992, Note_on_c, 9, 38, 0
4, 11040, Note_on_c, 9, 36, 127
4, 11088, Note_on_c, 9, 36, 0
4, 11088, Note_on_c, 9, 36, 127
4, 11136, Note_on_c, 9, 36, 0
4, 11184, Note_on_c, 9, 36, 127
4, 11232, Note_on_c, 9, 36, 0
4, 11232, Note_on_c, 9, 36, 127
4, 11280, Note_on_c, 9, 36, 0
4, 11328, Note_on_c, 9, 38, 127
4, 11376, Note_on_c, 9, 38, 0
4, 11520, Note_on_c, 9, 36, 127
4, 11568, Note_on_c, 9, 36, 0
4, 11568, Note_on_c, 9, 36, 127
4, 11616, Note_on_c, 9, 36, 0
4, 11664, Note_on_c, 9, 36, 127
4, 11712, Note_on_c, 9, 36, 0
4, 11712, Note_on_c, 9, 38, 127
4, 11760, Note_on_c, 9, 38, 0
4, 11808, Note_on_c, 9, 36, 127
4, 11856, Note_on_c, 9, 36, 0
4, 11856, Note_on_c, 9, 36, 127
4, 11904, Note_on_c, 9, 36, 0
4, 11952, Note_on_c, 9, 36, 127
4, 12000, Note_on_c, 9, 36, 0
4, 12000, Note_on_c, 9, 36, 127
4, 12048, Note_on_c, 9, 36, 0
4, 12096, Note_on_c, 9, 38, 127
4, 12144, Note_on_c, 9, 38, 0
4, 12288, Note_on_c, 9, 36, 127
4, 12336, Note_on_c, 9, 36, 0
4, 12336, Note_on_c, 9, 36, 127
4, 12384, Note_on_c, 9, 36, 0
4, 12432, Note_on_c, 9, 36, 127
4, 12480, Note_on_c, 9, 36, 0
4, 12480, Note_on_c, 9, 38, 127
4, 12528, Note_on_c, 9, 38, 0
4, 12576, Note_on_c, 9, 36, 127
4, 12624, Note_on_c, 9, 36, 0
4, 12624, Note_on_c, 9, 36, 127
4, 12672, Note_on_c, 9, 36, 0
4, 12720, Note_on_c, 9, 36, 127
4, 12768, Note_on_c, 9, 36, 0
4, 12768, Note_on_c, 9, 36, 127
4, 12816, Note_on_c, 9, 36, 0
4, 12864, Note_on_c, 9, 38, 127
4, 12912, Note_on_c, 9, 38, 0
4, 13056, Note_on_c, 9, 36, 127
4, 13104, Note_on_c, 9, 36, 0
4, 13104, Note_on_c, 9, 36, 127
4, 13152, Note_on_c, 9, 36, 0
4, 13200, Note_on_c, 9, 36, 127
4, 13248, Note_on_c, 9, 36, 0
4, 13248, Note_on_c, 9, 38, 127
4, 13296, Note_on_c, 9, 38, 0
4, 13344, Note_on_c, 9, 36, 127
4, 13392, Note_on_c, 9, 36, 0
4, 13392, Note_on_c, 9, 36, 127
4, 13440, Note_on_c, 9, 36, 0
4, 13488, Note_on_c, 9, 36, 127
4, 13536, Note_on_c, 9, 36, 0
4, 13536, Note_on_c, 9, 36, 127
4, 13584, Note_on_c, 9, 36, 0
4, 13632, Note_on_c, 9, 38, 127
4, 13680, Note_on_c, 9, 38, 0
4, 13824, Note_on_c, 9, 36, 127
4, 13872, Note_on_c, 9, 36, 0
4, 13872, Note_on_c, 9, 36, 127
4, 13920, Note_on_c, 9, 36, 0
4, 13968, Note_on_c, 9, 36, 127
4, 14016, Note_on_c, 9, 36, 0
4, 14016, Note_on_c, 9, 38, 127
4, 14064, Note_on_c, 9, 38, 0
4, 14112, Note_on_c, 9, 36, 127
4, 14160, Note_on_c, 9, 36, 0
4, 14160, Note_on_c, 9, 36, 127
4, 14208, Note_on_c, 9, 36, 0
4, 14256, Note_on_c, 9, 36, 127
4, 14304, Note_on_c, 9, 36, 0
4, 14304, Note_on_c, 9, 36, 127
4, 14352, Note_on_c, 9, 36, 0
4, 14400, Note_on_c, 9, 38, 127
4, 14448, Note_on_c, 9, 38, 0
4, 14592, Note_on_c, 9, 36, 127
4, 14640, Note_on_c, 9, 36, 0
4, 14640, Note_on_c, 9, 36, 127
4, 14688, Note_on_c, 9, 36, 0
4, 14736, Note_on_c, 9, 36, 127
4, 14784, Note_on_c, 9, 36, 0
4, 14784, Note_on_c, 9, 38, 127
4, 14832, Note_on_c, 9, 38, 0
4, 14880, Note_on_c, 9, 36, 127
4, 14928, Note_on_c, 9, 36, 0
4, 14928, Note_on_c, 9, 36, 127
4, 14976, Note_on_c, 9, 36, 0
4, 15024, Note_on_c, 9, 36, 127
4, 15072, Note_on_c, 9, 36, 0
4, 15072, Note_on_c, 9, 36, 127
4, 15120, Note_on_c, 9, 36, 0
4, 15168, Note_on_c, 9, 38, 127
4, 15216, Note_on_c, 9, 38, 0
4, 15360, Note_on_c, 9, 36, 127
4, 15408, Note_on_c, 9, 36, 0
4, 15408, Note_on_c, 9, 36, 127
4, 15456, Note_on_c, 9, 36, 0
4, 15504, Note_on_c, 9, 36, 127
4, 15552, Note_on_c, 9, 36, 0
4, 15552, Note_on_c, 9, 38, 127
4, 15600, Note_on_c, 9, 38, 0
4, 15648, Note_on_c, 9, 36, 127
4, 15696, Note_on_c, 9, 36, 0
4, 15696, Note_on_c, 9, 36, 127
4, 15744, Note_on_c, 9, 36, 0
4, 15792, Note_on_c, 9, 36, 127
4, 15840, Note_on_c, 9, 36, 0
4, 15840, Note_on_c, 9, 36, 127
4, 15888, Note_on_c, 9, 36, 0
4, 15936, Note_on_c, 9, 38, 127
4, 15984, Note_on_c, 9, 38, 0
4, 16128, Note_on_c, 9, 36, 127
4, 16176, Note_on_c, 9, 36, 0
4, 16176, Note_on_c, 9, 36, 127
4, 16224, Note_on_c, 9, 36, 0
4, 16272, Note_on_c, 9, 36, 127
4, 16320, Note_on_c, 9, 36, 0
4, 16320, Note_on_c, 9, 38, 127
4, 16368, Note_on_c, 9, 38, 0
4, 16416, Note_on_c, 9, 36, 127
4, 16464, Note_on_c, 9, 36, 0
4, 16464, Note_on_c, 9, 36, 127
4, 16512, Note_on_c, 9, 36, 0
4, 16560, Note_on_c, 9, 36, 127
4, 16608, Note_on_c, 9, 36, 0
4, 16608, Note_on_c, 9, 36, 127
4, 16656, Note_on_c, 9, 36, 0
4, 16704, Note_on_c, 9, 38, 127
4, 16752, Note_on_c, 9, 38, 0
4, 16896, Note_on_c, 9, 36, 127
4, 16944, Note_on_c, 9, 36, 0
4, 16944, Note_on_c, 9, 36, 127
4, 16992, Note_on_c, 9, 36, 0
4, 17040, Note_on_c, 9, 36, 127
4, 17088, Note_on_c, 9, 36, 0
4, 17088, Note_on_c, 9, 38, 127
4, 17136, Note_on_c, 9, 38, 0
4, 17184, Note_on_c, 9, 36, 127
4, 17232, Note_on_c, 9, 36, 0
4, 17232, Note_on_c, 9, 36, 127
4, 17280, Note_on_c, 9, 36, 0
4, 17328, Note_on_c, 9, 36, 127
4, 17376, Note_on_c, 9, 36, 0
4, 17376, Note_on_c, 9, 36, 127
4, 17424, Note_on_c, 9, 36, 0
4, 17472, Note_on_c, 9, 38, 127
4, 17520, Note_on_c, 9, 38, 0
4, 17664, Note_on_c, 9, 36, 127
4, 17712, Note_on_c, 9, 36, 0
4, 17712, Note_on_c, 9, 36, 127
4, 17760, Note_on_c, 9, 36, 0
4, 17808, Note_on_c, 9, 36, 127
4, 17856, Note_on_c, 9, 36, 0
4, 17856, Note_on_c, 9, 38, 127
4, 17904, Note_on_c, 9, 38, 0
4, 17952, Note_on_c, 9, 36, 127
4, 18000, Note_on_c, 9, 36, 0
4, 18000, Note_on_c, 9, 36, 127
4, 18048, Note_on_c, 9, 36, 0
4, 18096, Note_on_c, 9, 36, 127
4, 18144, Note_on_c, 9, 36, 0
4, 18144, Note_on_c, 9, 36, 127
4, 18192, Note_on_c, 9, 36, 0
4, 18240, Note_on_c, 9, 38, 127
4, 18288, Note_on_c, 9, 38, 0
4, 18432, Note_on_c, 9, 36, 127
4, 18480, Note_on_c, 9, 36, 0
4, 18480, Note_on_c, 9, 36, 127
4, 18528, Note_on_c, 9, 36, 0
4, 18576, Note_on_c, 9, 36, 127
4, 18624, Note_on_c, 9, 36, 0
4, 18624, Note_on_c, 9, 38, 127
4, 18672, Note_on_c, 9, 38, 0
4, 18720, Note_on_c, 9, 36, 127
4, 18768, Note_on_c, 9, 36, 0
4, 18768, Note_on_c, 9, 36, 127
4, 18816, Note_on_c, 9, 36, 0
4, 18864, Note_on_c, 9, 36, 127
4, 18912, Note_on_c, 9, 36, 0
4, 18912, Note_on_c, 9, 36, 127
4, 18960, Note_on_c, 9, 36, 0
4, 19008, Note_on_c, 9, 38, 127
4, 19056, Note_on_c, 9, 38, 0
4, 19200, Note_on_c, 9, 36, 127
4, 19248, Note_on_c, 9, 36, 0
4, 19248, Note_on_c, 9, 36, 127
4, 19296, Note_on_c, 9, 36, 0
4, 19344, Note_on_c, 9, 36, 127
4, 19392, Note_on_c, 9, 36, 0
4, 19392, Note_on_c, 9, 38, 127
4, 19440, Note_on_c, 9, 38, 0
4, 19488, Note_on_c, 9, 36, 127
4, 19536, Note_on_c, 9, 36, 0
4, 19536, Note_on_c, 9, 36, 127
4, 19584, Note_on_c, 9, 36, 0
4, 19632, Note_on_c, 9, 36, 127
4, 19680, Note_on_c, 9, 36, 0
4, 19680, Note_on_c, 9, 36, 127
4, 19728, Note_on_c, 9, 36, 0
4, 19776, Note_on_c, 9, 38, 127
4, 19824, Note_on_c, 9, 38, 0
4, 19968, Note_on_c, 9, 36, 127
4, 20016, Note_on_c, 9, 36, 0
4, 20016, Note_on_c, 9, 36, 127
4, 20064, Note_on_c, 9, 36, 0
4, 20112, Note_on_c, 9, 36, 127
4, 20160, Note_on_c, 9, 36, 0
4, 20160, Note_on_c, 9, 38, 127
4, 20208, Note_on_c, 9, 38, 0
4, 20256, Note_on_c, 9, 36, 127
4, 20304, Note_on_c, 9, 36, 0
4, 20304, Note_on_c, 9, 36, 127
4, 20352, Note_on_c, 9, 36, 0
4, 20400, Note_on_c, 9, 36, 127
4, 20448, Note_on_c, 9, 36, 0
4, 20448, Note_on_c, 9, 36, 127
4, 20496, Note_on_c, 9, 36, 0
4, 20544, Note_on_c, 9, 38, 127
4, 20592, Note_on_c, 9, 38, 0
4, 20736, Note_on_c, 9, 36, 127
4, 20784, Note_on_c, 9, 36, 0
4, 20784, Note_on_c, 9, 36, 127
4, 20832, Note_on_c, 9, 36, 0
4, 20880, Note_on_c, 9, 36, 127
4, 20928, Note_on_c, 9, 36, 0
4, 20928, Note_on_c, 9, 38, 127
4, 20976, Note_on_c, 9, 38, 0
4, 21024, Note_on_c, 9, 36, 127
4, 21072, Note_on_c, 9, 36, 0
4, 21072, Note_on_c, 9, 36, 127
4, 21120, Note_on_c, 9, 36, 0
4, 21168, Note_on_c, 9, 36, 127
4, 21216, Note_on_c, 9, 36, 0
4, 21216, Note_on_c, 9, 36, 127
4, 21264, Note_on_c, 9, 36, 0
4, 21312, Note_on_c, 9, 38, 127
4, 21360, Note_on_c, 9, 38, 0
4, 21504, Note_on_c, 9, 36, 127
4, 21552, Note_on_c, 9, 36, 0
4, 21552, Note_on_c, 9, 36, 127
4, 21600, Note_on_c, 9, 36, 0
4, 21648, Note_on_c, 9, 36, 127
4, 21696, Note_on_c, 9, 36, 0
4, 21696, Note_on_c, 9, 38, 127
4, 21744, Note_on_c, 9, 38, 0
4, 21792, Note_on_c, 9, 36, 127
4, 21840, Note_on_c, 9, 36, 0
4, 21840, Note_on_c, 9, 36, 127
4, 21888, Note_on_c, 9, 36, 0
4, 21936, Note_on_c, 9, 36, 127
4, 21984, Note_on_c, 9, 36, 0
4, 21984, Note_on_c, 9, 36, 127
4, 22032, Note_on_c, 9, 36, 0
4, 22080, Note_on_c, 9, 38, 127
4, 22128, Note_on_c, 9, 38, 0
4, 22272, Note_on_c, 9, 36, 127
4, 22320, Note_on_c, 9, 36, 0
4, 22320, Note_on_c, 9, 36, 127
4, 22368, Note_on_c, 9, 36, 0
4, 22416, Note_on_c, 9, 36, 127
4, 22464, Note_on_c, 9, 36, 0
4, 22464, Note_on_c, 9, 38, 127
4, 22512, Note_on_c, 9, 38, 0
4, 22560, Note_on_c, 9, 36, 127
4, 22608, Note_on_c, 9, 36, 0
4, 22608, Note_on_c, 9, 36, 127
4, 22656, Note_on_c, 9, 36, 0
4, 22704, Note_on_c, 9, 36, 127
4, 22752, Note_on_c, 9, 36, 0
4, 22752, Note_on_c, 9, 36, 127
4, 22800, Note_on_c, 9, 36, 0
4, 22848, Note_on_c, 9, 38, 127
4, 22896, Note_on_c, 9, 38, 0
4, 23040, Note_on_c, 9, 36, 127
4, 23088, Note_on_c, 9, 36, 0
4, 23088, Note_on_c, 9, 36, 127
4, 23136, Note_on_c, 9, 36, 0
4, 23184, Note_on_c, 9, 36, 127
4, 23232, Note_on_c, 9, 36, 0
4, 23232, Note_on_c, 9, 38, 127
4, 23280, Note_on_c, 9, 38, 0
4, 23328, Note_on_c, 9, 36, 127
4, 23376, Note_on_c, 9, 36, 0
4, 23376, Note_on_c, 9, 36, 127
4, 23424, Note_on_c, 9, 36, 0
4, 23472, Note_on_c, 9, 36, 127
4, 23520, Note_on_c, 9, 36, 0
4, 23520, Note_on_c, 9, 36, 127
4, 23568, Note_on_c, 9, 36, 0
4, 23616, Note_on_c, 9, 38, 127
4, 23664, Note_on_c, 9, 38, 0
4, 23808, Note_on_c, 9, 36, 127
4, 23856, Note_on_c, 9, 36, 0
4, 23856, Note_on_c, 9, 36, 127
4, 23904, Note_on_c, 9, 36, 0
4, 23952, Note_on_c, 9, 36, 127
4, 24000, Note_on_c, 9, 36, 0
4, 24000, Note_on_c, 9, 38, 127
4, 24048, Note_on_c, 9, 38, 0
4, 24096, Note_on_c, 9, 36, 127
4, 24144, Note_on_c, 9, 36, 0
4, 24144, Note_on_c, 9, 36, 127
4, 24192, Note_on_c, 9, 36, 0
4, 24240, Note_on_c, 9, 36, 127
4, 24288, Note_on_c, 9, 36, 0
4, 24288, Note_on_c, 9, 36, 127
4, 24336, Note_on_c, 9, 36, 0
4, 24384, Note_on_c, 9, 38, 127
4, 24432, Note_on_c, 9, 38, 0
4, 24576, Note_on_c, 9, 36, 127
4, 24624, Note_on_c, 9, 36, 0
4, 24624, Note_on_c, 9, 36, 127
4, 24672, Note_on_c, 9, 36, 0
4, 24720, Note_on_c, 9, 36, 127
4, 24768, Note_on_c, 9, 36, 0
4, 24768, Note_on_c, 9, 38, 127
4, 24816, Note_on_c, 9, 38, 0
4, 24864, Note_on_c, 9, 36, 127
4, 24912, Note_on_c, 9, 36, 0
4, 24912, Note_on_c, 9, 36, 127
4, 24960, Note_on_c, 9, 36, 0
4, 25008, Note_on_c, 9, 36, 127
4, 25056, Note_on_c, 9, 36, 0
4, 25056, Note_on_c, 9, 36, 127
4, 25104, Note_on_c, 9, 36, 0
4, 25152, Note_on_c, 9, 38, 127
4, 25200, Note_on_c, 9, 38, 0
4, 25344, Note_on_c, 9, 36, 127
4, 25392, Note_on_c, 9, 36, 0
4, 25392, Note_on_c, 9, 36, 127
4, 25440, Note_on_c, 9, 36, 0
4, 25488, Note_on_c, 9, 36, 127
4, 25536, Note_on_c, 9, 36, 0
4, 25536, Note_on_c, 9, 38, 127
4, 25584, Note_on_c, 9, 38, 0
4, 25632, Note_on_c, 9, 36, 127
4, 25680, Note_on_c, 9, 36, 0
4, 25680, Note_on_c, 9, 36, 127
4, 25728, Note_on_c, 9, 36, 0
4, 25776, Note_on_c, 9, 36, 127
4, 25824, Note_on_c, 9, 36, 0
4, 25824, Note_on_c, 9, 36, 127
4, 25872, Note_on_c, 9, 36, 0
4, 25920, Note_on_c, 9, 38, 127
4, 25968, Note_on_c, 9, 38, 0
4, 26112, Note_on_c, 9, 36, 127
4, 26160, Note_on_c, 9, 36, 0
4, 26160, Note_on_c, 9, 36, 127
4, 26208, Note_on_c, 9, 36, 0
4, 26256, Note_on_c, 9, 36, 127
4, 26304, Note_on_c, 9, 36, 0
4, 26304, Note_on_c, 9, 38, 127
4, 26352, Note_on_c, 9, 38, 0
4, 26400, Note_on_c, 9, 36, 127
4, 26448, Note_on_c, 9, 36, 0
4, 26448, Note_on_c, 9, 36, 127
4, 26496, Note_on_c, 9, 36, 0
4, 26544, Note_on_c, 9, 36, 127
4, 26592, Note_on_c, 9, 36, 0
4, 26592, Note_on_c, 9, 36, 127
4, 26640, Note_on_c, 9, 36, 0
4, 26688, Note_on_c, 9, 38, 127
4, 26736, Note_on_c, 9, 38, 0
4, 26880, Note_on_c, 9, 36, 127
4, 26928, Note_on_c, 9, 36, 0
4, 26928, Note_on_c, 9, 36, 127
4, 26976, Note_on_c, 9, 36, 0
4, 27024, Note_on_c, 9, 36, 127
4, 27072, Note_on_c, 9, 36, 0
4, 27072, Note_on_c, 9, 38, 127
4, 27120, Note_on_c, 9, 38, 0
4, 27168, Note_on_c, 9, 36, 127
4, 27216, Note_on_c, 9, 36, 0
4, 27216, Note_on_c, 9, 36, 127
4, 27264, Note_on_c, 9, 36, 0
4, 27312, Note_on_c, 9, 36, 127
4, 27360, Note_on_c, 9, 36, 0
4, 27360, Note_on_c, 9, 36, 127
4, 27408, Note_on_c, 9, 36, 0
4, 27456, Note_on_c, 9, 38, 127
4, 27504, Note_on_c, 9, 38, 0
4, 27648, Note_on_c, 9, 36, 127
4, 27696, Note_on_c, 9, 36, 0
4, 27696, Note_on_c, 9, 36, 127
4, 27744, Note_on_c, 9, 36, 0
4, 27792, Note_on_c, 9, 36, 127
4, 27840, Note_on_c, 9, 36, 0
4, 27840, Note_on_c, 9, 38, 127
4, 27888, Note_on_c, 9, 38, 0
4, 27936, Note_on_c, 9, 36, 127
4, 27984, Note_on_c, 9, 36, 0
4, 27984, Note_on_c, 9, 36, 127
4, 28032, Note_on_c, 9, 36, 0
4, 28080, Note_on_c, 9, 36, 127
4, 28128, Note_on_c, 9, 36, 0
4, 28128, Note_on_c, 9, 36, 127
4, 28176, Note_on_c, 9, 36, 0
4, 28224, Note_on_c, 9, 38, 127
4, 28272, Note_on_c, 9, 38, 0
4, 28416, Note_on_c, 9, 36, 127
4, 28464, Note_on_c, 9, 36, 0
4, 28464, Note_on_c, 9, 36, 127
4, 28512, Note_on_c, 9, 36, 0
4, 28560, Note_on_c, 9, 36, 127
4, 28608, Note_on_c, 9, 36, 0
4, 28608, Note_on_c, 9, 38, 127
4, 28656, Note_on_c, 9, 38, 0
4, 28704, Note_on_c, 9, 36, 127
4, 28752, Note_on_c, 9, 36, 0
4, 28752, Note_on_c, 9, 36, 127
4, 28800, Note_on_c, 9, 36, 0
4, 28848, Note_on_c, 9, 36, 127
4, 28896, Note_on_c, 9, 36, 0
4, 28896, Note_on_c, 9, 36, 127
4, 28944, Note_on_c, 9, 36, 0
4, 28992, Note_on_c, 9, 38, 127
4, 29040, Note_on_c, 9, 38, 0
4, 29184, Note_on_c, 9, 36, 127
4, 29232, Note_on_c, 9, 36, 0
4, 29232, Note_on_c, 9, 36, 127
4, 29280, Note_on_c, 9, 36, 0
4, 29328, Note_on_c, 9, 36, 127
4, 29376, Note_on_c, 9, 36, 0
4, 29376, Note_on_c, 9, 38, 127
4, 29424, Note_on_c, 9, 38, 0
4, 29472, Note_on_c, 9, 36, 127
4, 29520, Note_on_c, 9, 36, 0
4, 29520, Note_on_c, 9, 36, 127
4, 29568, Note_on_c, 9, 36, 0
4, 29616, Note_on_c, 9, 36, 127
4, 29664, Note_on_c, 9, 36, 0
4, 29664, Note_on_c, 9, 36, 127
4, 29712, Note_on_c, 9, 36, 0
4, 29760, Note_on_c, 9, 38, 127
4, 29808, Note_on_c, 9, 38, 0
4, 29952, Note_on_c, 9, 36, 127
4, 30000, Note_on_c, 9, 36, 0
4, 30000, Note_on_c, 9, 36, 127
4, 30048, Note_on_c, 9, 36, 0
4, 30096, Note_on_c, 9, 36, 127
4, 30144, Note_on_c, 9, 36, 0
4, 30144, Note_on_c, 9, 38, 127
4, 30192, Note_on_c, 9, 38, 0
4, 30240, Note_on_c, 9, 36, 127
4, 30288, Note_on_c, 9, 36, 0
4, 30288, Note_on_c, 9, 36, 127
4, 30336, Note_on_c, 9, 36, 0
4, 30384, Note_on_c, 9, 36, 127
4, 30432, Note_on_c, 9, 36, 0
4, 30432, Note_on_c, 9, 36, 127
4, 30480, Note_on_c, 9, 36, 0
4, 30528, Note_on_c, 9, 38, 127
4, 30576, Note_on_c, 9, 38, 0
4, 30720, Note_on_c, 9, 36, 127
4, 30768, Note_on_c, 9, 36, 0
4, 30768, Note_on_c, 9, 36, 127
4, 30816, Note_on_c, 9, 36, 0
4, 30864, Note_on_c, 9, 36, 127
4, 30912, Note_on_c, 9, 36, 0
4, 30912, Note_on_c, 9, 38, 127
4, 30960, Note_on_c, 9, 38, 0
4, 31008, Note_on_c, 9, 36, 127
4, 31056, Note_on_c, 9, 36, 0
4, 31056, Note_on_c, 9, 36, 127
4, 31104, Note_on_c, 9, 36, 0
4, 31152, Note_on_c, 9, 36, 127
4, 31200, Note_on_c, 9, 36, 0
4, 31200, Note_on_c, 9, 36, 127
4, 31248, Note_on_c, 9, 36, 0
4, 31296, Note_on_c, 9, 38, 127
4, 31344, Note_on_c, 9, 38, 0
4, 31488, Note_on_c, 9, 36, 127
4, 31536, Note_on_c, 9, 36, 0
4, 31536, Note_on_c, 9, 36, 127
4, 31584, Note_on_c, 9, 36, 0
4, 31632, Note_on_c, 9, 36, 127
4, 31680, Note_on_c, 9, 36, 0
4, 31680, Note_on_c, 9, 38, 127
4, 31728, Note_on_c, 9, 38, 0
4, 31776, Note_on_c, 9, 36, 127
4, 31824, Note_on_c, 9, 36, 0
4, 31824, Note_on_c, 9, 36, 127
4, 31872, Note_on_c, 9, 36, 0
4, 31920, Note_on_c, 9, 36, 127
4, 31968, Note_on_c, 9, 36, 0
4, 31968, Note_on_c, 9, 36, 127
4, 32016, Note_on_c, 9, 36, 0
4, 32064, Note_on_c, 9, 38, 127
4, 32112, Note_on_c, 9, 38, 0
4, 32256, Note_on_c, 9, 36, 127
4, 32304, Note_on_c, 9, 36, 0
4, 32304, Note_on_c, 9, 36, 127
4, 32352, Note_on_c, 9, 36, 0
4, 32400, Note_on_c, 9, 36, 127
4, 32448, Note_on_c, 9, 36, 0
4, 32448, Note_on_c, 9, 38, 127
4, 32496, Note_on_c, 9, 38, 0
4, 32544, Note_on_c, 9, 36, 127
4, 32592, Note_on_c, 9, 36, 0
4, 32592, Note_on_c, 9, 36, 127
4, 32640, Note_on_c, 9, 36, 0
4, 32688, Note_on_c, 9, 36, 127
4, 32736, Note_on_c, 9, 36, 0
4, 32736, Note_on_c, 9, 36, 127
4, 32784, Note_on_c, 9, 36, 0
4, 32832, Note_on_c, 9, 38, 127
4, 32880, Note_on_c, 9, 38, 0
4, 33024, Note_on_c, 9, 36, 127
4, 33072, Note_on_c, 9, 36, 0
4, 33072, Note_on_c, 9, 36, 127
4, 33120, Note_on_c, 9, 36, 0
4, 33168, Note_on_c, 9, 36, 127
4, 33216, Note_on_c, 9, 36, 0
4, 33216, Note_on_c, 9, 38, 127
4, 33264, Note_on_c, 9, 38, 0
4, 33312, Note_on_c, 9, 36, 127
4, 33360, Note_on_c, 9, 36, 0
4, 33360, Note_on_c, 9, 36, 127
4, 33408, Note_on_c, 9, 36, 0
4, 33456, Note_on_c, 9, 36, 127
4, 33504, Note_on_c, 9, 36, 0
4, 33504, Note_on_c, 9, 36, 127
4, 33552, Note_on_c, 9, 36, 0
4, 33600, Note_on_c, 9, 38, 127
4, 33648, Note_on_c, 9, 38, 0
4, 33792, Note_on_c, 9, 36, 127
4, 33840, Note_on_c, 9, 36, 0
4, 33840, Note_on_c, 9, 36, 127
4, 33888, Note_on_c, 9, 36, 0
4, 33936, Note_on_c, 9, 36, 127
4, 33984, Note_on_c, 9, 36, 0
4, 33984, Note_on_c, 9, 38, 127
4, 34032, Note_on_c, 9, 38, 0
4, 34080, Note_on_c, 9, 36, 127
4, 34128, Note_on_c, 9, 36, 0
4, 34128, Note_on_c, 9, 36, 127
4, 34176, Note_on_c, 9, 36, 0
4, 34224, Note_on_c, 9, 36, 127
4, 34272, Note_on_c, 9, 36, 0
4, 34272, Note_on_c, 9, 36, 127
4, 34320, Note_on_c, 9, 36, 0
4, 34368, Note_on_c, 9, 38, 127
4, 34416, Note_on_c, 9, 38, 0
4, 34560, Note_on_c, 9, 36, 127
4, 34608, Note_on_c, 9, 36, 0
4, 34608, Note_on_c, 9, 36, 127
4, 34656, Note_on_c, 9, 36, 0
4, 34704, Note_on_c, 9, 36, 127
4, 34752, Note_on_c, 9, 36, 0
4, 34752, Note_on_c, 9, 38, 127
4, 34800, Note_on_c, 9, 38, 0
4, 34848, Note_on_c, 9, 36, 127
4, 34896, Note_on_c, 9, 36, 0
4, 34896, Note_on_c, 9, 36, 127
4, 34944, Note_on_c, 9, 36, 0
4, 34992, Note_on_c, 9, 36, 127
4, 35040, Note_on_c, 9, 36, 0
4, 35040, Note_on_c, 9, 36, 127
4, 35088, Note_on_c, 9, 36, 0
4, 35136, Note_on_c, 9, 38, 127
4, 35184, Note_on_c, 9, 38, 0
4, 35328, Note_on_c, 9, 36, 127
4, 35376, Note_on_c, 9, 36, 0
4, 35376, Note_on_c, 9, 36, 127
4, 35424, Note_on_c, 9, 36, 0
4, 35472, Note_on_c, 9, 36, 127
4, 35520, Note_on_c, 9, 36, 0
4, 35520, Note_on_c, 9, 38, 127
4, 35568, Note_on_c, 9, 38, 0
4, 35616, Note_on_c, 9, 36, 127
4, 35664, Note_on_c, 9, 36, 0
4, 35664, Note_on_c, 9, 36, 127
4, 35712, Note_on_c, 9, 36, 0
4, 35760, Note_on_c, 9, 36, 127
4, 35808, Note_on_c, 9, 36, 0
4, 35808, Note_on_c, 9, 36, 127
4, 35856, Note_on_c, 9, 36, 0
4, 35904, Note_on_c, 9, 38, 127
4, 35952, Note_on_c, 9, 38, 0
4, 36096, Note_on_c, 9, 36, 127
4, 36144, Note_on_c, 9, 36, 0
4, 36144, Note_on_c, 9, 36, 127
4, 36192, Note_on_c, 9, 36, 0
4, 36240, Note_on_c, 9, 36, 127
4, 36288, Note_on_c, 9, 36, 0
4, 36288, Note_on_c, 9, 38, 127
4, 36336, Note_on_c, 9, 38, 0
4, 36384, Note_on_c, 9, 36, 127
4, 36432, Note_on_c, 9, 36, 0
4, 36432, Note_on_c, 9, 36, 127
4, 36480, Note_on_c, 9, 36, 0
4, 36528, Note_on_c, 9, 36, 127
4, 36576, Note_on_c, 9, 36, 0
4, 36576, Note_on_c, 9, 36, 127
4, 36624, Note_on_c, 9, 36, 0
4, 36672, Note_on_c, 9, 38, 127
4, 36720, Note_on_c, 9, 38, 0
4, 36864, Note_on_c, 9, 36, 127
4, 36912, Note_on_c, 9, 36, 0
4, 36912, Note_on_c, 9, 36, 127
4, 36960, Note_on_c, 9, 36, 0
4, 37008, Note_on_c, 9, 36, 127
4, 37056, Note_on_c, 9, 36, 0
4, 37056, Note_on_c, 9, 38, 127
4, 37104, Note_on_c, 9, 38, 0
4, 37152, Note_on_c, 9, 36, 127
4, 37200, Note_on_c, 9, 36, 0
4, 37200, Note_on_c, 9, 36, 127
4, 37248, Note_on_c, 9, 36, 0
4, 37296, Note_on_c, 9, 36, 127
4, 37344, Note_on_c, 9, 36, 0
4, 37344, Note_on_c, 9, 36, 127
4, 37392, Note_on_c, 9, 36, 0
4, 37440, Note_on_c, 9, 38, 127
4, 37488, Note_on_c, 9, 38, 0
4, 37632, Note_on_c, 9, 36, 127
4, 37680, Note_on_c, 9, 36, 0
4, 37680, Note_on_c, 9, 36, 127
4, 37728, Note_on_c, 9, 36, 0
4, 37776, Note_on_c, 9, 36, 127
4, 37824, Note_on_c, 9, 36, 0
4, 37824, Note_on_c, 9, 38, 127
4, 37872, Note_on_c, 9, 38, 0
4, 37920, Note_on_c, 9, 36, 127
4, 37968, Note_on_c, 9, 36, 0
4, 37968, Note_on_c, 9, 36, 127
4, 38016, Note_on_c, 9, 36, 0
4, 38064, Note_on_c, 9, 36, 127
4, 38112, Note_on_c, 9, 36, 0
4, 38112, Note_on_c, 9, 36, 127
4, 38160, Note_on_c, 9, 36, 0
4, 38208, Note_on_c, 9, 38, 127
4, 38256, Note_on_c, 9, 38, 0
4, 38400, Note_on_c, 9, 36, 127
4, 38448, Note_on_c, 9, 36, 0
4, 38448, Note_on_c, 9, 36, 127
4, 38496, Note_on_c, 9, 36, 0
4, 38544, Note_on_c, 9, 36, 127
4, 38592, Note_on_c, 9, 36, 0
4, 38592, Note_on_c, 9, 38, 127
4, 38640, Note_on_c, 9, 38, 0
4, 38688, Note_on_c, 9, 36, 127
4, 38736, Note_on_c, 9, 36, 0
4, 38736, Note_on_c, 9, 36, 127
4, 38784, Note_on_c, 9, 36, 0
4, 38832, Note_on_c, 9, 36, 127
4, 38880, Note_on_c, 9, 36, 0
4, 38880, Note_on_c, 9, 36, 127
4, 38928, Note_on_c, 9, 36, 0
4, 38976, Note_on_c, 9, 38, 127
4, 39024, Note_on_c, 9, 38, 0
4, 39168, Note_on_c, 9, 36, 127
4, 39216, Note_on_c, 9, 36, 0
4, 39216, Note_on_c, 9, 36, 127
4, 39264, Note_on_c, 9, 36, 0
4, 39312, Note_on_c, 9, 36, 127
4, 39360, Note_on_c, 9, 36, 0
4, 39360, Note_on_c, 9, 38, 127
4, 39408, Note_on_c, 9, 38, 0
4, 39456, Note_on_c, 9, 36, 127
4, 39504, Note_on_c, 9, 36, 0
4, 39504, Note_on_c, 9, 36, 127
4, 39552, Note_on_c, 9, 36, 0
4, 39600, Note_on_c, 9, 36, 127
4, 39648, Note_on_c, 9, 36, 0
4, 39648, Note_on_c, 9, 36, 127
4, 39696, Note_on_c, 9, 36, 0
4, 39744, Note_on_c, 9, 38, 127
4, 39792, Note_on_c, 9, 38, 0
4, 39936, Note_on_c, 9, 36, 127
4, 39984, Note_on_c, 9, 36, 0
4, 39984, Note_on_c, 9, 36, 127
4, 40032, Note_on_c, 9, 36, 0
4, 40080, Note_on_c, 9, 36, 127
4, 40128, Note_on_c, 9, 36, 0
4, 40128, Note_on_c, 9, 38, 127
4, 40176, Note_on_c, 9, 38, 0
4, 40224, Note_on_c, 9, 36, 127
4, 40272, Note_on_c, 9, 36, 0
4, 40272, Note_on_c, 9, 36, 127
4, 40320, Note_on_c, 9, 36, 0
4, 40368, Note_on_c, 9, 36, 127
4, 40416, Note_on_c, 9, 36, 0
4, 40416, Note_on_c, 9, 36, 127
4, 40464, Note_on_c, 9, 36, 0
4, 40512, Note_on_c, 9, 38, 127
4, 40560, Note_on_c, 9, 38, 0
4, 40704, Note_on_c, 9, 36, 127
4, 40752, Note_on_c, 9, 36, 0
4, 40752, Note_on_c, 9, 36, 127
4, 40800, Note_on_c, 9, 36, 0
4, 40848, Note_on_c, 9, 36, 127
4, 40896, Note_on_c, 9, 36, 0
4, 40896, Note_on_c, 9, 38, 127
4, 40944, Note_on_c, 9, 38, 0
4, 40992, Note_on_c, 9, 36, 127
4, 41040, Note_on_c, 9, 36, 0
4, 41040, Note_on_c, 9, 36, 127
4, 41088, Note_on_c, 9, 36, 0
4, 41136, Note_on_c, 9, 36, 127
4, 41184, Note_on_c, 9, 36, 0
4, 41184, Note_on_c, 9, 36, 127
4, 41232, Note_on_c, 9, 36, 0
4, 41280, Note_on_c, 9, 38, 127
4, 41328, Note_on_c, 9, 38, 0
4, 41472, Note_on_c, 9, 36, 127
4, 41520, Note_on_c, 9, 36, 0
4, 41520, Note_on_c, 9, 36, 127
4, 41568, Note_on_c, 9, 36, 0
4, 41616, Note_on_c, 9, 36, 127
4, 41664, Note_on_c, 9, 36, 0
4, 41664, Note_on_c, 9, 38, 127
4, 41712, Note_on_c, 9, 38, 0
4, 41760, Note_on_c, 9, 36, 127
4, 41808, Note_on_c, 9, 36, 0
4, 41808, Note_on_c, 9, 36, 127
4, 41856, Note_on_c, 9, 36, 0
4, 41904, Note_on_c, 9, 36, 127
4, 41952, Note_on_c, 9, 36, 0
4, 41952, Note_on_c, 9, 36, 127
4, 42000, Note_on_c, 9, 36, 0
4, 42048, Note_on_c, 9, 38, 127
4, 42096, Note_on_c, 9, 38, 0
4, 42240, Note_on_c, 9, 36, 127
4, 42288, Note_on_c, 9, 36, 0
4, 42288, Note_on_c, 9, 36, 127
4, 42336, Note_on_c, 9, 36, 0
4, 42384, Note_on_c, 9, 36, 127
4, 42432, Note_on_c, 9, 36, 0
4, 42432, Note_on_c, 9, 38, 127
4, 42480, Note_on_c, 9, 38, 0
4, 42528, Note_on_c, 9, 36, 127
4, 42576, Note_on_c, 9, 36, 0
4, 42576, Note_on_c, 9, 36, 127
4, 42624, Note_on_c, 9, 36, 0
4, 42672, Note_on_c, 9, 36, 127
4, 42720, Note_on_c, 9, 36, 0
4, 42720, Note_on_c, 9, 36, 127
4, 42768, Note_on_c, 9, 36, 0
4, 42816, Note_on_c, 9, 38, 127
4, 42864, Note_on_c, 9, 38, 0
4, 43008, Note_on_c, 9, 36, 127
4, 43056, Note_on_c, 9, 36, 0
4, 43056, Note_on_c, 9, 36, 127
4, 43104, Note_on_c, 9, 36, 0
4, 43152, Note_on_c, 9, 36, 127
4, 43200, Note_on_c, 9, 36, 0
4, 43200, Note_on_c, 9, 38, 127
4, 43248, Note_on_c, 9, 38, 0
4, 43296, Note_on_c, 9, 36, 127
4, 43344, Note_on_c, 9, 36, 0
4, 43344, Note_on_c, 9, 36, 127
4, 43392, Note_on_c, 9, 36, 0
4, 43440, Note_on_c, 9, 36, 127
4, 43488, Note_on_c, 9, 36, 0
4, 43488, Note_on_c, 9, 36, 127
4, 43536, Note_on_c, 9, 36, 0
4, 43584, Note_on_c, 9, 38, 127
4, 43632, Note_on_c, 9, 38, 0
4, 43776, Note_on_c, 9, 36, 127
4, 43824, Note_on_c, 9, 36, 0
4, 43824, Note_on_c, 9, 36, 127
4, 43872, Note_on_c, 9, 36, 0
4, 43920, Note_on_c, 9, 36, 127
4, 43968, Note_on_c, 9, 36, 0
4, 43968, Note_on_c, 9, 38, 127
4, 44016, Note_on_c, 9, 38, 0
4, 44064, Note_on_c, 9, 36, 127
4, 44112, Note_on_c, 9, 36, 0
4, 44112, Note_on_c, 9, 36, 127
4, 44160, Note_on_c, 9, 36, 0
4, 44208, Note_on_c, 9, 36, 127
4, 44256, Note_on_c, 9, 36, 0
4, 44256, Note_on_c, 9, 36, 127
4, 44304, Note_on_c, 9, 36, 0
4, 44352, Note_on_c, 9, 38, 127
4, 44400, Note_on_c, 9, 38, 0
4, 44544, Note_on_c, 9, 36, 127
4, 44592, Note_on_c, 9, 36, 0
4, 44592, Note_on_c, 9, 36, 127
4, 44640, Note_on_c, 9, 36, 0
4, 44688, Note_on_c, 9, 36, 127
4, 44736, Note_on_c, 9, 36, 0
4, 44736, Note_on_c, 9, 38, 127
4, 44784, Note_on_c, 9, 38, 0
4, 44832, Note_on_c, 9, 36, 127
4, 44880, Note_on_c, 9, 36, 0
4, 44880, Note_on_c, 9, 36, 127
4, 44928, Note_on_c, 9, 36, 0
4, 44976, Note_on_c, 9, 36, 127
4, 45024, Note_on_c, 9, 36, 0
4, 45024, Note_on_c, 9, 36, 127
4, 45072, Note_on_c, 9, 36, 0
4, 45120, Note_on_c, 9, 38, 127
4, 45168, Note_on_c, 9, 38, 0
4, 45312, Note_on_c, 9, 36, 127
4, 45360, Note_on_c, 9, 36, 0
4, 45360, Note_on_c, 9, 36, 127
4, 45408, Note_on_c, 9, 36, 0
4, 45456, Note_on_c, 9, 36, 127
4, 45504, Note_on_c, 9, 36, 0
4, 45504, Note_on_c, 9, 38, 127
4, 45552, Note_on_c, 9, 38, 0
4, 45600, Note_on_c, 9, 36, 127
4, 45648, Note_on_c, 9, 36, 0
4, 45648, Note_on_c, 9, 36, 127
4, 45696, Note_on_c, 9, 36, 0
4, 45744, Note_on_c, 9, 36, 127
4, 45792, Note_on_c, 9, 36, 0
4, 45792, Note_on_c, 9, 36, 127
4, 45840, Note_on_c, 9, 36, 0
4, 45888, Note_on_c, 9, 38, 127
4, 45936, Note_on_c, 9, 38, 0
4, 46080, Note_on_c, 9, 36, 127
4, 46128, Note_on_c, 9, 36, 0
4, 46128, Note_on_c, 9, 36, 127
4, 46176, Note_on_c, 9, 36, 0
4, 46224, Note_on_c, 9, 36, 127
4, 46272, Note_on_c, 9, 36, 0
4, 46272, Note_on_c, 9, 38, 127
4, 46320, Note_on_c, 9, 38, 0
4, 46368, Note_on_c, 9, 36, 127
4, 46416, Note_on_c, 9, 36, 0
4, 46416, Note_on_c, 9, 36, 127
4, 46464, Note_on_c, 9, 36, 0
4, 46512, Note_on_c, 9, 36, 127
4, 46560, Note_on_c, 9, 36, 0
4, 46560, Note_on_c, 9, 36, 127
4, 46608, Note_on_c, 9, 36, 0
4, 46656, Note_on_c, 9, 38, 127
4, 46704, Note_on_c, 9, 38, 0
4, 46848, Note_on_c, 9, 36, 127
4, 46896, Note_on_c, 9, 36, 0
4, 46896, Note_on_c, 9, 36, 127
4, 46944, Note_on_c, 9, 36, 0
4, 46992, Note_on_c, 9, 36, 127
4, 47040, Note_on_c, 9, 36, 0
4, 47040, Note_on_c, 9, 38, 127
4, 47088, Note_on_c, 9, 38, 0
4, 47136, Note_on_c, 9, 36, 127
4, 47184, Note_on_c, 9, 36, 0
4, 47184, Note_on_c, 9, 36, 127
4, 47232, Note_on_c, 9, 36, 0
4, 47280, Note_on_c, 9, 36, 127
4, 47328, Note_on_c, 9, 36, 0
4, 47328, Note_on_c, 9, 36, 127
4, 47376, Note_on_c, 9, 36, 0
4, 47424, Note_on_c, 9, 38, 127
4, 47472, Note_on_c, 9, 38, 0
4, 47616, Note_on_c, 9, 36, 127
4, 47664, Note_on_c, 9, 36, 0
4, 47664, Note_on_c, 9, 36, 127
4, 47712, Note_on_c, 9, 36, 0
4, 47760, Note_on_c, 9, 36, 127
4, 47808, Note_on_c, 9, 36, 0
4, 47808, Note_on_c, 9, 38, 127
4, 47856, Note_on_c, 9, 38, 0
4, 47904, Note_on_c, 9, 36, 127
4, 47952, Note_on_c, 9, 36, 0
4, 47952, Note_on_c, 9, 36, 127
4, 48000, Note_on_c, 9, 36, 0
4, 48048, Note_on_c, 9, 36, 127
4, 48096, Note_on_c, 9, 36, 0
4, 48096, Note_on_c, 9, 36, 127
4, 48144, Note_on_c, 9, 36, 0
4, 48192, Note_on_c, 9, 38, 127
4, 48240, Note_on_c, 9, 38, 0
4, 48384, Note_on_c, 9, 36, 127
4, 48432, Note_on_c, 9, 36, 0
4, 48432, Note_on_c, 9, 36, 127
4, 48480, Note_on_c, 9, 36, 0
4, 48528, Note_on_c, 9, 36, 127
4, 48576, Note_on_c, 9, 36, 0
4, 48576, Note_on_c, 9, 38, 127
4, 48624, Note_on_c, 9, 38, 0
4, 48672, Note_on_c, 9, 36, 127
4, 48720, Note_on_c, 9, 36, 0
4, 48720, Note_on_c, 9, 36, 127
4, 48768, Note_on_c, 9, 36, 0
4, 48816, Note_on_c, 9, 36, 127
4, 48864, Note_on_c, 9, 36, 0
4, 48864, Note_on_c, 9, 36, 127
4, 48912, Note_on_c, 9, 36, 0
4, 48960, Note_on_c, 9, 38, 127
4, 49008, Note_on_c, 9, 38, 0
4, 49152, Note_on_c, 9, 36, 127
4, 49200, Note_on_c, 9, 36, 0
4, 49200, Note_on_c, 9, 36, 127
4, 49248, Note_on_c, 9, 36, 0
4, 49296, Note_on_c, 9, 36, 127
4, 49344, Note_on_c, 9, 36, 0
4, 49344, Note_on_c, 9, 38, 127
4, 49392, Note_on_c, 9, 38, 0
4, 49440, Note_on_c, 9, 36, 127
4, 49488, Note_on_c, 9, 36, 0
4, 49488, Note_on_c, 9, 36, 127
4, 49536, Note_on_c, 9, 36, 0
4, 49584, Note_on_c, 9, 36, 127
4, 49632, Note_on_c, 9, 36, 0
4, 49632, Note_on_c, 9, 36, 127
4, 49680, Note_on_c, 9, 36, 0
4, 49728, Note_on_c, 9, 38, 127
4, 49776, Note_on_c, 9, 38, 0
4, 49920, Note_on_c, 9, 36, 127
4, 49968, Note_on_c, 9, 36, 0
4, 49968, Note_on_c, 9, 36, 127
4, 50016, Note_on_c, 9, 36, 0
4, 50064, Note_on_c, 9, 36, 127
4, 50112, Note_on_c, 9, 36, 0
4, 50112, Note_on_c, 9, 38, 127
4, 50160, Note_on_c, 9, 38, 0
4, 50208, Note_on_c, 9, 36, 127
4, 50256, Note_on_c, 9, 36, 0
4, 50256, Note_on_c, 9, 36, 127
4, 50304, Note_on_c, 9, 36, 0
4, 50352, Note_on_c, 9, 36, 127
4, 50400, Note_on_c, 9, 36, 0
4, 50400, Note_on_c, 9, 36, 127
4, 50448, Note_on_c, 9, 36, 0
4, 50496, Note_on_c, 9, 38, 127
4, 50544, Note_on_c, 9, 38, 0
4, 50688, Note_on_c, 9, 36, 127
4, 50736, Note_on_c, 9, 36, 0
4, 50736, Note_on_c, 9, 36, 127
4, 50784, Note_on_c, 9, 36, 0
4, 50832, Note_on_c, 9, 36, 127
4, 50880, Note_on_c, 9, 36, 0
4, 50880, Note_on_c, 9, 38, 127
4, 50928, Note_on_c, 9, 38, 0
4, 50976, Note_on_c, 9, 36, 127
4, 51024, Note_on_c, 9, 36, 0
4, 51024, Note_on_c, 9, 36, 127
4, 51072, Note_on_c, 9, 36, 0
4, 51120, Note_on_c, 9, 36, 127
4, 51168, Note_on_c, 9, 36, 0
4, 51168, Note_on_c, 9, 36, 127
4, 51216, Note_on_c, 9, 36, 0
4, 51264, Note_on_c, 9, 38, 127
4, 51312, Note_on_c, 9, 38, 0
4, 51456, Note_on_c, 9, 36, 127
4, 51504, Note_on_c, 9, 36, 0
4, 51504, Note_on_c, 9, 36, 127
4, 51552, Note_on_c, 9, 36, 0
4, 51600, Note_on_c, 9, 36, 127
4, 51648, Note_on_c, 9, 36, 0
4, 51648, Note_on_c, 9, 38, 127
4, 51696, Note_on_c, 9, 38, 0
4, 51744, Note_on_c, 9, 36, 127
4, 51792, Note_on_c, 9, 36, 0
4, 51792, Note_on_c, 9, 36, 127
4, 51840, Note_on_c, 9, 36, 0
4, 51888, Note_on_c, 9, 36, 127
4, 51936, Note_on_c, 9, 36, 0
4, 51936, Note_on_c, 9, 36, 127
4, 51984, Note_on_c, 9, 36, 0
4, 52032, Note_on_c, 9, 38, 127
4, 52080, Note_on_c, 9, 38, 0
4, 52224, Note_on_c, 9, 36, 127
4, 52272, Note_on_c, 9, 36, 0
4, 52272, Note_on_c, 9, 36, 127
4, 52320, Note_on_c, 9, 36, 0
4, 52368, Note_on_c, 9, 36, 127
4, 52416, Note_on_c, 9, 36, 0
4, 52416, Note_on_c, 9, 38, 127
4, 52464, Note_on_c, 9, 38, 0
4, 52512, Note_on_c, 9, 36, 127
4, 52560, Note_on_c, 9, 36, 0
4, 52560, Note_on_c, 9, 36, 127
4, 52608, Note_on_c, 9, 36, 0
4, 52656, Note_on_c, 9, 36, 127
4, 52704, Note_on_c, 9, 36, 0
4, 52704, Note_on_c, 9, 36, 127
4, 52752, Note_on_c, 9, 36, 0
4, 52800, Note_on_c, 9, 38, 127
4, 52848, Note_on_c, 9, 38, 0
4, 52992, Note_on_c, 9, 36, 127
4, 53040, Note_on_c, 9, 36, 0
4, 53040, Note_on_c, 9, 36, 127
4, 53088, Note_on_c, 9, 36, 0
4, 53136, Note_on_c, 9, 36, 127
4, 53184, Note_on_c, 9, 36, 0
4, 53184, Note_on_c, 9, 38, 127
4, 53232, Note_on_c, 9, 38, 0
4, 53280, Note_on_c, 9, 36, 127
4, 53328, Note_on_c, 9, 36, 0
4, 53328, Note_on_c, 9, 36, 127
4, 53376, Note_on_c, 9, 36, 0
4, 53424, Note_on_c, 9, 36, 127
4, 53472, Note_on_c, 9, 36, 0
4, 53472, Note_on_c, 9, 36, 127
4, 53520, Note_on_c, 9, 36, 0
4, 53568, Note_on_c, 9, 38, 127
4, 53616, Note_on_c, 9, 38, 0
4, 53760, Note_on_c, 9, 36, 127
4, 53808, Note_on_c, 9, 36, 0
4, 53808, Note_on_c, 9, 36, 127
4, 53856, Note_on_c, 9, 36, 0
4, 53904, Note_on_c, 9, 36, 127
4, 53952, Note_on_c, 9, 36, 0
4, 53952, Note_on_c, 9, 38, 127
4, 54000, Note_on_c, 9, 38, 0
4, 54048, Note_on_c, 9, 36, 127
4, 54096, Note_on_c, 9, 36, 0
4, 54096, Note_on_c, 9, 36, 127
4, 54144, Note_on_c, 9, 36, 0
4, 54192, Note_on_c, 9, 36, 127
4, 54240, Note_on_c, 9, 36, 0
4, 54240, Note_on_c, 9, 36, 127
4, 54288, Note_on_c, 9, 36, 0
4, 54336, Note_on_c, 9, 38, 127
4, 54384, Note_on_c, 9, 38, 0
4, 54528, Note_on_c, 9, 36, 127
4, 54576, Note_on_c, 9, 36, 0
4, 54576, Note_on_c, 9, 36, 127
4, 54624, Note_on_c, 9, 36, 0
4, 54672, Note_on_c, 9, 36, 127
4, 54720, Note_on_c, 9, 36, 0
4, 54720, Note_on_c, 9, 38, 127
4, 54768, Note_on_c, 9, 38, 0
4, 54816, Note_on_c, 9, 36, 127
4, 54864, Note_on_c, 9, 36, 0
4, 54864, Note_on_c, 9, 36, 127
4, 54912, Note_on_c, 9, 36, 0
4, 54960, Note_on_c, 9, 36, 127
4, 55008, Note_on_c, 9, 36, 0
4, 55008, Note_on_c, 9, 36, 127
4, 55056, Note_on_c, 9, 36, 0
4, 55104, Note_on_c, 9, 38, 127
4, 55152, Note_on_c, 9, 38, 0
4, 55296, Note_on_c, 9, 36, 127
4, 55344, Note_on_c, 9, 36, 0
4, 55344, Note_on_c, 9, 36, 127
4, 55392, Note_on_c, 9, 36, 0
4, 55440, Note_on_c, 9, 36, 127
4, 55488, Note_on_c, 9, 36, 0
4, 55488, Note_on_c, 9, 38, 127
4, 55536, Note_on_c, 9, 38, 0
4, 55584, Note_on_c, 9, 36, 127
4, 55632, Note_on_c, 9, 36, 0
4, 55632, Note_on_c, 9, 36, 127
4, 55680, Note_on_c, 9, 36, 0
4, 55728, Note_on_c, 9, 36, 127
4, 55776, Note_on_c, 9, 36, 0
4, 55776, Note_on_c, 9, 36, 127
4, 55824, Note_on_c, 9, 36, 0
4, 55872, Note_on_c, 9, 38, 127
4, 55920, Note_on_c, 9, 38, 0
4, 56064, Note_on_c, 9, 36, 127
4, 56112, Note_on_c, 9, 36, 0
4, 56112, Note_on_c, 9, 36, 127
4, 56160, Note_on_c, 9, 36, 0
4, 56208, Note_on_c, 9, 36, 127
4, 56256, Note_on_c, 9, 36, 0
4, 56256, Note_on_c, 9, 38, 127
4, 56304, Note_on_c, 9, 38, 0
4, 56352, Note_on_c, 9, 36, 127
4, 56400, Note_on_c, 9, 36, 0
4, 56400, Note_on_c, 9, 36, 127
4, 56448, Note_on_c, 9, 36, 0
4, 56496, Note_on_c, 9, 36, 127
4, 56544, Note_on_c, 9, 36, 0
4, 56544, Note_on_c, 9, 36, 127
4, 56592, Note_on_c, 9, 36, 0
4, 56640, Note_on_c, 9, 38, 127
4, 56688, Note_on_c, 9, 38, 0
4, 56832, Note_on_c, 9, 36, 127
4, 56880, Note_on_c, 9, 36, 0
4, 56880, Note_on_c, 9, 36, 127
4, 56928, Note_on_c, 9, 36, 0
4, 56976, Note_on_c, 9, 36, 127
4, 57024, Note_on_c, 9, 36, 0
4, 57024, Note_on_c, 9, 38, 127
4, 57072, Note_on_c, 9, 38, 0
4, 57120, Note_on_c, 9, 36, 127
4, 57168, Note_on_c, 9, 36, 0
4, 57168, Note_on_c, 9, 36, 127
4, 57216, Note_on_c, 9, 36, 0
4, 57264, Note_on_c, 9, 36, 127
4, 57312, Note_on_c, 9, 36, 0
4, 57312, Note_on_c, 9, 36, 127
4, 57360, Note_on_c, 9, 36, 0
4, 57408, Note_on_c, 9, 38, 127
4, 57456, Note_on_c, 9, 38, 0
4, 57600, Note_on_c, 9, 36, 127
4, 57648, Note_on_c, 9, 36, 0
4, 57648, Note_on_c, 9, 36, 127
4, 57696, Note_on_c, 9, 36, 0
4, 57744, Note_on_c, 9, 36, 127
4, 57792, Note_on_c, 9, 36, 0
4, 57792, Note_on_c, 9, 38, 127
4, 57840, Note_on_c, 9, 38, 0
4, 57888, Note_on_c, 9, 36, 127
4, 57936, Note_on_c, 9, 36, 0
4, 57936, Note_on_c, 9, 36, 127
4, 57984, Note_on_c, 9, 36, 0
4, 58032, Note_on_c, 9, 36, 127
4, 58080, Note_on_c, 9, 36, 0
4, 58080, Note_on_c, 9, 36, 127
4, 58128, Note_on_c, 9, 36, 0
4, 58176, Note_on_c, 9, 38, 127
4, 58224, Note_on_c, 9, 38, 0
4, 58368, Note_on_c, 9, 36, 127
4, 58416, Note_on_c, 9, 36, 0
4, 58416, Note_on_c, 9, 36, 127
4, 58464, Note_on_c, 9, 36, 0
4, 58512, Note_on_c, 9, 36, 127
4, 58560, Note_on_c, 9, 36, 0
4, 58560, Note_on_c, 9, 38, 127
4, 58608, Note_on_c, 9, 38, 0
4, 58656, Note_on_c, 9, 36, 127
4, 58704, Note_on_c, 9, 36, 0
4, 58704, Note_on_c, 9, 36, 127
4, 58752, Note_on_c, 9, 36, 0
4, 58800, Note_on_c, 9, 36, 127
4, 58848, Note_on_c, 9, 36, 0
4, 58848, Note_on_c, 9, 36, 127
4, 58896, Note_on_c, 9, 36, 0
4, 58944, Note_on_c, 9, 38, 127
4, 58992, Note_on_c, 9, 38, 0
4, 59136, Note_on_c, 9, 36, 127
4, 59184, Note_on_c, 9, 36, 0
4, 59184, Note_on_c, 9, 36, 127
4, 59232, Note_on_c, 9, 36, 0
4, 59280, Note_on_c, 9, 36, 127
4, 59328, Note_on_c, 9, 36, 0
4, 59328, Note_on_c, 9, 38, 127
4, 59376, Note_on_c, 9, 38, 0
4, 59424, Note_on_c, 9, 36, 127
4, 59472, Note_on_c, 9, 36, 0
4, 59472, Note_on_c, 9, 36, 127
4, 59520, Note_on_c, 9, 36, 0
4, 59568, Note_on_c, 9, 36, 127
4, 59616, Note_on_c, 9, 36, 0
4, 59616, Note_on_c, 9, 36, 127
4, 59664, Note_on_c, 9, 36, 0
4, 59712, Note_on_c, 9, 38, 127
4, 59760, Note_on_c, 9, 38, 0
4, 59904, Note_on_c, 9, 36, 127
4, 59952, Note_on_c, 9, 36, 0
4, 59952, Note_on_c, 9, 36, 127
4, 60000, Note_on_c, 9, 36, 0
4, 60048, Note_on_c, 9, 36, 127
4, 60096, Note_on_c, 9, 36, 0
4, 60096, Note_on_c, 9, 38, 127
4, 60144, Note_on_c, 9, 38, 0
4, 60192, Note_on_c, 9, 36, 127
4, 60240, Note_on_c, 9, 36, 0
4, 60240, Note_on_c, 9, 36, 127
4, 60288, Note_on_c, 9, 36, 0
4, 60336, Note_on_c, 9, 36, 127
4, 60384, Note_on_c, 9, 36, 0
4, 60384, Note_on_c, 9, 36, 127
4, 60432, Note_on_c, 9, 36, 0
4, 60480, Note_on_c, 9, 38, 127
4, 60528, Note_on_c, 9, 38, 0
4, 60672, Note_on_c, 9, 36, 127
4, 60720, Note_on_c, 9, 36, 0
4, 60720, Note_on_c, 9, 36, 127
4, 60768, Note_on_c, 9, 36, 0
4, 60816, Note_on_c, 9, 36, 127
4, 60864, Note_on_c, 9, 36, 0
4, 60864, Note_on_c, 9, 38, 127
4, 60912, Note_on_c, 9, 38, 0
4, 60960, Note_on_c, 9, 36, 127
4, 61008, Note_on_c, 9, 36, 0
4, 61008, Note_on_c, 9, 36, 127
4, 61056, Note_on_c, 9, 36, 0
4, 61104, Note_on_c, 9, 36, 127
4, 61152, Note_on_c, 9, 36, 0
4, 61152, Note_on_c, 9, 36, 127
4, 61200, Note_on_c, 9, 36, 0
4, 61248, Note_on_c, 9, 38, 127
4, 61296, Note_on_c, 9, 38, 0
4, 61440, Note_on_c, 9, 36, 127
4, 61488, Note_on_c, 9, 36, 0
4, 61488, Note_on_c, 9, 36, 127
4, 61536, Note_on_c, 9, 36, 0
4, 61584, Note_on_c, 9, 36, 127
4, 61632, Note_on_c, 9, 36, 0
4, 61632, Note_on_c, 9, 38, 127
4, 61680, Note_on_c, 9, 38, 0
4, 61728, Note_on_c, 9, 36, 127
4, 61776, Note_on_c, 9, 36, 0
4, 61776, Note_on_c, 9, 36, 127
4, 61824, Note_on_c, 9, 36, 0
4, 61872, Note_on_c, 9, 36, 127
4, 61920, Note_on_c, 9, 36, 0
4, 61920, Note_on_c, 9, 36, 127
4, 61968, Note_on_c, 9, 36, 0
4, 62016, Note_on_c, 9, 38, 127
4, 62064, Note_on_c, 9, 38, 0
4, 62208, Note_on_c, 9, 36, 127
4, 62256, Note_on_c, 9, 36, 0
4, 62256, Note_on_c, 9, 36, 127
4, 62304, Note_on_c, 9, 36, 0
4, 62352, Note_on_c, 9, 36, 127
4, 62400, Note_on_c, 9, 36, 0
4, 62400, Note_on_c, 9, 38, 127
4, 62448, Note_on_c, 9, 38, 0
4, 62496, Note_on_c, 9, 36, 127
4, 62544, Note_on_c, 9, 36, 0
4, 62544, Note_on_c, 9, 36, 127
4, 62592, Note_on_c, 9, 36, 0
4, 62640, Note_on_c, 9, 36, 127
4, 62688, Note_on_c, 9, 36, 0
4, 62688, Note_on_c, 9, 36, 127
4, 62736, Note_on_c, 9, 36, 0
4, 62784, Note_on_c, 9, 38, 127
4, 62832, Note_on_c, 9, 38, 0
4, 62976, Note_on_c, 9, 36, 127
4, 63024, Note_on_c, 9, 36, 0
4, 63024, Note_on_c, 9, 36, 127
4, 63072, Note_on_c, 9, 36, 0
4, 63120, Note_on_c, 9, 36, 127
4, 63168, Note_on_c, 9, 36, 0
4, 63168, Note_on_c, 9, 38, 127
4, 63216, Note_on_c, 9, 38, 0
4, 63264, Note_on_c, 9, 36, 127
4, 63312, Note_on_c, 9, 36, 0
4, 63312, Note_on_c, 9, 36, 127
4, 63360, Note_on_c, 9, 36, 0
4, 63408, Note_on_c, 9, 36, 127
4, 63456, Note_on_c, 9, 36, 0
4, 63456, Note_on_c, 9, 36, 127
4, 63504, Note_on_c, 9, 36, 0
4, 63552, Note_on_c, 9, 38, 127
4, 63600, Note_on_c, 9, 38, 0
4, 63744, Note_on_c, 9, 36, 127
4, 63792, Note_on_c, 9, 36, 0
4, 63792, Note_on_c, 9, 36, 127
4, 63840, Note_on_c, 9, 36, 0
4, 63888, Note_on_c, 9, 36, 127
4, 63936, Note_on_c, 9, 36, 0
4, 63936, Note_on_c, 9, 38, 127
4, 63984, Note_on_c, 9, 38, 0
4, 64032, Note_on_c, 9, 36, 127
4, 64080, Note_on_c, 9, 36, 0
4, 64080, Note_on_c, 9, 36, 127
4, 64128, Note_on_c, 9, 36, 0
4, 64176, Note_on_c, 9, 36, 127
4, 64224, Note_on_c, 9, 36, 0
4, 64224, Note_on_c, 9, 36, 127
4, 64272, Note_on_c, 9, 36, 0
4, 64320, Note_on_c, 9, 38, 127
4, 64368, Note_on_c, 9, 38, 0
4, 64512, Note_on_c, 9, 36, 127
4, 64560, Note_on_c, 9, 36, 0
4, 64560, Note_on_c, 9, 36, 127
4, 64608, Note_on_c, 9, 36, 0
4, 64656, Note_on_c, 9, 36, 127
4, 64704, Note_on_c, 9, 36, 0
4, 64704, Note_on_c, 9, 38, 127
4, 64752, Note_on_c, 9, 38, 0
4, 64800, Note_on_c, 9, 36, 127
4, 64848, Note_on_c, 9, 36, 0
4, 64848, Note_on_c, 9, 36, 127
4, 64896, Note_on_c, 9, 36, 0
4, 64944, Note_on_c, 9, 36, 127
4, 64992, Note_on_c, 9, 36, 0
4, 64992, Note_on_c, 9, 36, 127
4, 65040, Note_on_c, 9, 36, 0
4, 65088, Note_on_c, 9, 38, 127
4, 65136, Note_on_c, 9, 38, 0
4, 65280, Note_on_c, 9, 36, 127
4, 65328, Note_on_c, 9, 36, 0
4, 65328, Note_on_c, 9, 36, 127
4, 65376, Note_on_c, 9, 36, 0
4, 65424, Note_on_c, 9, 36, 127
4, 65472, Note_on_c, 9, 36, 0
4, 65472, Note_on_c, 9, 38, 127
4, 65520, Note_on_c, 9, 38, 0
4, 65568, Note_on_c, 9, 36, 127
4, 65616, Note_on_c, 9, 36, 0
4, 65616, Note_on_c, 9, 36, 127
4, 65664, Note_on_c, 9, 36, 0
4, 65712, Note_on_c, 9, 36, 127
4, 65760, Note_on_c, 9, 36, 0
4, 65760, Note_on_c, 9, 36, 127
4, 65808, Note_on_c, 9, 36, 0
4, 65856, Note_on_c, 9, 38, 127
4, 65904, Note_on_c, 9, 38, 0
4, 66048, Note_on_c, 9, 36, 127
4, 66096, Note_on_c, 9, 36, 0
4, 66096, Note_on_c, 9, 36, 127
4, 66144, Note_on_c, 9, 36, 0
4, 66192, Note_on_c, 9, 36, 127
4, 66240, Note_on_c, 9, 36, 0
4, 66240, Note_on_c, 9, 38, 127
4, 66288, Note_on_c, 9, 38, 0
4, 66336, Note_on_c, 9, 36, 127
4, 66384, Note_on_c, 9, 36, 0
4, 66384, Note_on_c, 9, 36, 127
4, 66432, Note_on_c, 9, 36, 0
4, 66480, Note_on_c, 9, 36, 127
4, 66528, Note_on_c, 9, 36, 0
4, 66528, Note_on_c, 9, 36, 127
4, 66576, Note_on_c, 9, 36, 0
4, 66624, Note_on_c, 9, 38, 127
4, 66672, Note_on_c, 9, 38, 0
4, 66816, Note_on_c, 9, 36, 127
4, 66864, Note_on_c, 9, 36, 0
4, 66864, Note_on_c, 9, 36, 127
4, 66912, Note_on_c, 9, 36, 0
4, 66960, Note_on_c, 9, 36, 127
4, 67008, Note_on_c, 9, 36, 0
4, 67008, Note_on_c, 9, 38, 127
4, 67056, Note_on_c, 9, 38, 0
4, 67104, Note_on_c, 9, 36, 127
4, 67152, Note_on_c, 9, 36, 0
4, 67152, Note_on_c, 9, 36, 127
4, 67200, Note_on_c, 9, 36, 0
4, 67248, Note_on_c, 9, 36, 127
4, 67296, Note_on_c, 9, 36, 0
4, 67296, Note_on_c, 9, 36, 127
4, 67344, Note_on_c, 9, 36, 0
4, 67392, Note_on_c, 9, 38, 127
4, 67440, Note_on_c, 9, 38, 0
4, 67584, Note_on_c, 9, 36, 127
4, 67632, Note_on_c, 9, 36, 0
4, 67632, Note_on_c, 9, 36, 127
4, 67680, Note_on_c, 9, 36, 0
4, 67728, Note_on_c, 9, 36, 127
4, 67776, Note_on_c, 9, 36, 0
4, 67776, Note_on_c, 9, 38, 127
4, 67824, Note_on_c, 9, 38, 0
4, 67872, Note_on_c, 9, 36, 127
4, 67920, Note_on_c, 9, 36, 0
4, 67920, Note_on_c, 9, 36, 127
4, 67968, Note_on_c, 9, 36, 0
4, 68016, Note_on_c, 9, 36, 127
4, 68064, Note_on_c, 9, 36, 0
4, 68064, Note_on_c, 9, 36, 127
4, 68112, Note_on_c, 9, 36, 0
4, 68160, Note_on_c, 9, 38, 127
4, 68208, Note_on_c, 9, 38, 0
4, 68352, Note_on_c, 9, 36, 127
4, 68400, Note_on_c, 9, 36, 0
4, 68400, Note_on_c, 9, 36, 127
4, 68448, Note_on_c, 9, 36, 0
4, 68496, Note_on_c, 9, 36, 127
4, 68544, Note_on_c, 9, 36, 0
4, 68544, Note_on_c, 9, 38, 127
4, 68592, Note_on_c, 9, 38, 0
4, 68640, Note_on_c, 9, 36, 127
4, 68688, Note_on_c, 9, 36, 0
4, 68688, Note_on_c, 9, 36, 127
4, 68736, Note_on_c, 9, 36, 0
4, 68784, Note_on_c, 9, 36, 127
4, 68832, Note_on_c, 9, 36, 0
4, 68832, Note_on_c, 9, 36, 127
4, 68880, Note_on_c, 9, 36, 0
4, 68928, Note_on_c, 9, 38, 127
4, 68976, Note_on_c, 9, 38, 0
4, 69120, Note_on_c, 9, 36, 127
4, 69168, Note_on_c, 9, 36, 0
4, 69168, Note_on_c, 9, 36, 127
4, 69216, Note_on_c, 9, 36, 0
4, 69264, Note_on_c, 9, 36, 127
4, 69312, Note_on_c, 9, 36, 0
4, 69312, Note_on_c, 9, 38, 127
4, 69360, Note_on_c, 9, 38, 0
4, 69408, Note_on_c, 9, 36, 127
4, 69456, Note_on_c, 9, 36, 0
4, 69456, Note_on_c, 9, 36, 127
4, 69504, Note_on_c, 9, 36, 0
4, 69552, Note_on_c, 9, 36, 127
4, 69600, Note_on_c, 9, 36, 0
4, 69600, Note_on_c, 9, 36, 127
4, 69648, Note_on_c, 9, 36, 0
4, 69696, Note_on_c, 9, 38, 127
4, 69744, Note_on_c, 9, 38, 0
4, 69888, Note_on_c, 9, 36, 127
4, 69936, Note_on_c, 9, 36, 0
4, 69936, Note_on_c, 9, 36, 127
4, 69984, Note_on_c, 9, 36, 0
4, 70032, Note_on_c, 9, 36, 127
4, 70080, Note_on_c, 9, 36, 0
4, 70080, Note_on_c, 9, 38, 127
4, 70128, Note_on_c, 9, 38, 0
4, 70176, Note_on_c, 9, 36, 127
4, 70224, Note_on_c, 9, 36, 0
4, 70224, Note_on_c, 9, 36, 127
4, 70272, Note_on_c, 9, 36, 0
4, 70320, Note_on_c, 9, 36, 127
4, 70368, Note_on_c, 9, 36, 0
4, 70368, Note_on_c, 9, 36, 127
4, 70416, Note_on_c, 9, 36, 0
4, 70464, Note_on_c, 9, 38, 127
4, 70512, Note_on_c, 9, 38, 0
4, 70656, Note_on_c, 9, 36, 127
4, 70704, Note_on_c, 9, 36, 0
4, 70704, Note_on_c, 9, 36, 127
4, 70752, Note_on_c, 9, 36, 0
4, 70800, Note_on_c, 9, 36, 127
4, 70848, Note_on_c, 9, 36, 0
4, 70848, Note_on_c, 9, 38, 127
4, 70896, Note_on_c, 9, 38, 0
4, 70944, Note_on_c, 9, 36, 127
4, 70992, Note_on_c, 9, 36, 0
4, 70992, Note_on_c, 9, 36, 127
4, 71040, Note_on_c, 9, 36, 0
4, 71088, Note_on_c, 9, 36, 127
4, 71136, Note_on_c, 9, 36, 0
4, 71136, Note_on_c, 9, 36, 127
4, 71184, Note_on_c, 9, 36, 0
4, 71232, Note_on_c, 9, 38, 127
4, 71280, Note_on_c, 9, 38, 0
4, 71424, Note_on_c, 9, 36, 127
4, 71472, Note_on_c, 9, 36, 0
4, 71472, Note_on_c, 9, 36, 127
4, 71520, Note_on_c, 9, 36, 0
4, 71568, Note_on_c, 9, 36, 127
4, 71616, Note_on_c, 9, 36, 0
4, 71616, Note_on_c, 9, 38, 127
4, 71664, Note_on_c, 9, 38, 0
4, 71712, Note_on_c, 9, 36, 127
4, 71760, Note_on_c, 9, 36, 0
4, 71760, Note_on_c, 9, 36, 127
4, 71808, Note_on_c, 9, 36, 0
4, 71856, Note_on_c, 9, 36, 127
4, 71904, Note_on_c, 9, 36, 0
4, 71904, Note_on_c, 9, 36, 127
4, 71952, Note_on_c, 9, 36, 0
4, 72000, Note_on_c, 9, 38, 127
4, 72048, Note_on_c, 9, 38, 0
4, 72192, Note_on_c, 9, 36, 127
4, 72240, Note_on_c, 9, 36, 0
4, 72240, Note_on_c, 9, 36, 127
4, 72288, Note_on_c, 9, 36, 0
4, 72336, Note_on_c, 9, 36, 127
4, 72384, Note_on_c, 9, 36, 0
4, 72384, Note_on_c, 9, 38, 127
4, 72432, Note_on_c, 9, 38, 0
4, 72480, Note_on_c, 9, 36, 127
4, 72528, Note_on_c, 9, 36, 0
4, 72528, Note_on_c, 9, 36, 127
4, 72576, Note_on_c, 9, 36, 0
4, 72624, Note_on_c, 9, 36, 127
4, 72672, Note_on_c, 9, 36, 0
4, 72672, Note_on_c, 9, 36, 127
4, 72720, Note_on_c, 9, 36, 0
4, 72768, Note_on_c, 9, 38, 127
4, 72816, Note_on_c, 9, 38, 0
4, 72960, Note_on_c, 9, 36, 127
4, 73008, Note_on_c, 9, 36, 0
4, 73008, Note_on_c, 9, 36, 127
4, 73056, Note_on_c, 9, 36, 0
4, 73104, Note_on_c, 9, 36, 127
4, 73152, Note_on_c, 9, 36, 0
4, 73152, Note_on_c, 9, 38, 127
4, 73200, Note_on_c, 9, 38, 0
4, 73248, Note_on_c, 9, 36, 127
4, 73296, Note_on_c, 9, 36, 0
4, 73296, Note_on_c, 9, 36, 127
4, 73344, Note_on_c, 9, 36, 0
4, 73392, Note_on_c, 9, 36, 127
4, 73440, Note_on_c, 9, 36, 0
4, 73440, Note_on_c, 9, 36, 127
4, 73488, Note_on_c, 9, 36, 0
4, 73536, Note_on_c, 9, 38, 127
4, 73584, Note_on_c, 9, 38, 0
4, 73728, Note_on_c, 9, 36, 127
4, 73776, Note_on_c, 9, 36, 0
4, 73776, Note_on_c, 9, 36, 126
4, 73824, Note_on_c, 9, 36, 0
4, 73872, Note_on_c, 9, 36, 124
4, 73920, Note_on_c, 9, 36, 0
4, 73920, Note_on_c, 9, 38, 123
4, 73968, Note_on_c, 9, 38, 0
4, 74016, Note_on_c, 9, 36, 121
4, 74064, Note_on_c, 9, 36, 0
4, 74064, Note_on_c, 9, 36, 120
4, 74112, Note_on_c, 9, 36, 0
4, 74160, Note_on_c, 9, 36, 118
4, 74208, Note_on_c, 9, 36, 0
4, 74208, Note_on_c, 9, 36, 117
4, 74256, Note_on_c, 9, 36, 0
4, 74304, Note_on_c, 9, 38, 114
4, 74352, Note_on_c, 9, 38, 0
4, 74496, Note_on_c, 9, 36, 107
4, 74544, Note_on_c, 9, 36, 0
4, 74544, Note_on_c, 9, 36, 105
4, 74592, Note_on_c, 9, 36, 0
4, 74640, Note_on_c, 9, 36, 101
4, 74688, Note_on_c, 9, 36, 0
4, 74688, Note_on_c, 9, 38, 99
4, 74736, Note_on_c, 9, 38, 0
4, 74784, Note_on_c, 9, 36, 95
4, 74832, Note_on_c, 9, 36, 0
4, 74832, Note_on_c, 9, 36, 93
4, 74880, Note_on_c, 9, 36, 0
4, 74928, Note_on_c, 9, 36, 89
4, 74976, Note_on_c, 9, 36, 0
4, 74976, Note_on_c, 9, 36, 87
4, 75024, Note_on_c, 9, 36, 0
4, 75072, Note_on_c, 9, 38, 83
4, 75120, Note_on_c, 9, 38, 0
4, 75264, Note_on_c, 9, 36, 75
4, 75312, Note_on_c, 9, 36, 0
4, 75312, Note_on_c, 9, 36, 73
4, 75360, Note_on_c, 9, 36, 0
4, 75408, Note_on_c, 9, 36, 69
4, 75456, Note_on_c, 9, 36, 0
4, 75456, Note_on_c, 9, 38, 67
4, 75504, Note_on_c, 9, 38, 0
4, 75552, Note_on_c, 9, 36, 63
4, 75600, Note_on_c, 9, 36, 0
4, 75600, Note_on_c, 9, 36, 61
4, 75648, Note_on_c, 9, 36, 0
4, 75696, Note_on_c, 9, 36, 57
4, 75744, Note_on_c, 9, 36, 0
4, 75744, Note_on_c, 9, 36, 55
4, 75792, Note_on_c, 9, 36, 0
4, 75840, Note_on_c, 9, 38, 51
4, 75888, Note_on_c, 9, 38, 0
4, 76032, Note_on_c, 9, 36, 43
4, 76080, Note_on_c, 9, 36, 0
4, 76080, Note_on_c, 9, 36, 41
4, 76128, Note_on_c, 9, 36, 0
4, 76176, Note_on_c, 9, 36, 37
4, 76224, Note_on_c, 9, 36, 0
4, 76224, Note_on_c, 9, 38, 35
4, 76272, Note_on_c, 9, 38, 0
4, 76320, Note_on_c, 9, 36, 31
4, 76368, Note_on_c, 9, 36, 0
4, 76368, Note_on_c, 9, 36, 29
4, 76416, Note_on_c, 9, 36, 0
4, 76464, Note_on_c, 9, 36, 25
4, 76512, Note_on_c, 9, 36, 0
4, 76512, Note_on_c, 9, 36, 23
4, 76560, Note_on_c, 9, 36, 0
4, 76608, Note_on_c, 9, 38, 19
4, 76656, Note_on_c, 9, 38, 0
4, 76656, End_track
5, 0, Start_track
5, 0, MIDI_port, 0
5, 0, Title_t, "Staff-6"
5, 0, Program_c, 13, 107
5, 0, Control_c, 13, 7, 127
5, 0, Control_c, 13, 10, 64
5, 0, Control_c, 13, 7, 127
5, 15360, Note_on_c, 13, 73, 127
5, 15408, Note_on_c, 13, 73, 0
5, 15408, Note_on_c, 13, 73, 127
5, 15456, Note_on_c, 13, 73, 0
5, 15456, Note_on_c, 13, 73, 127
5, 15504, Note_on_c, 13, 73, 0
5, 15552, Note_on_c, 13, 78, 127
5, 15600, Note_on_c, 13, 78, 0
5, 15648, Note_on_c, 13, 73, 127
5, 15696, Note_on_c, 13, 73, 0
5, 15744, Note_on_c, 13, 78, 127
5, 15792, Note_on_c, 13, 78, 0
5, 15840, Note_on_c, 13, 73, 127
5, 15888, Note_on_c, 13, 73, 0
5, 15936, Note_on_c, 13, 78, 127
5, 15984, Note_on_c, 13, 78, 0
5, 15984, Note_on_c, 13, 73, 127
5, 16032, Note_on_c, 13, 73, 0
5, 16032, Note_on_c, 13, 76, 127
5, 16080, Note_on_c, 13, 76, 0
5, 16080, Note_on_c, 13, 73, 127
5, 16128, Note_on_c, 13, 73, 0
5, 16128, Note_on_c, 13, 73, 127
5, 16176, Note_on_c, 13, 73, 0
5, 16176, Note_on_c, 13, 73, 127
5, 16224, Note_on_c, 13, 73, 0
5, 16224, Note_on_c, 13, 73, 127
5, 16272, Note_on_c, 13, 73, 0
5, 16320, Note_on_c, 13, 80, 127
5, 16368, Note_on_c, 13, 80, 0
5, 16416, Note_on_c, 13, 73, 127
5, 16464, Note_on_c, 13, 73, 0
5, 16512, Note_on_c, 13, 80, 127
5, 16560, Note_on_c, 13, 80, 0
5, 16608, Note_on_c, 13, 73, 127
5, 16656, Note_on_c, 13, 73, 0
5, 16704, Note_on_c, 13, 80, 127
5, 16752, Note_on_c, 13, 80, 0
5, 16752, Note_on_c, 13, 73, 127
5, 16800, Note_on_c, 13, 73, 0
5, 16800, Note_on_c, 13, 76, 127
5, 16848, Note_on_c, 13, 76, 0
5, 16848, Note_on_c, 13, 73, 127
5, 16896, Note_on_c, 13, 73, 0
5, 16896, Note_on_c, 13, 73, 127
5, 16944, Note_on_c, 13, 73, 0
5, 16944, Note_on_c, 13, 73, 127
5, 16992, Note_on_c, 13, 73, 0
5, 16992, Note_on_c, 13, 73, 127
5, 17040, Note_on_c, 13, 73, 0
5, 17088, Note_on_c, 13, 78, 127
5, 17136, Note_on_c, 13, 78, 0
5, 17184, Note_on_c, 13, 73, 127
5, 17232, Note_on_c, 13, 73, 0
5, 17280, Note_on_c, 13, 78, 127
5, 17328, Note_on_c, 13, 78, 0
5, 17376, Note_on_c, 13, 73, 127
5, 17424, Note_on_c, 13, 73, 0
5, 17472, Note_on_c, 13, 78, 127
5, 17520, Note_on_c, 13, 78, 0
5, 17520, Note_on_c, 13, 73, 127
5, 17568, Note_on_c, 13, 73, 0
5, 17568, Note_on_c, 13, 76, 127
5, 17616, Note_on_c, 13, 76, 0
5, 17616, Note_on_c, 13, 73, 127
5, 17664, Note_on_c, 13, 73, 0
5, 17664, Note_on_c, 13, 73, 127
5, 17712, Note_on_c, 13, 73, 0
5, 17712, Note_on_c, 13, 73, 127
5, 17760, Note_on_c, 13, 73, 0
5, 17760, Note_on_c, 13, 73, 127
5, 17808, Note_on_c, 13, 73, 0
5, 17856, Note_on_c, 13, 80, 127
5, 17904, Note_on_c, 13, 80, 0
5, 17952, Note_on_c, 13, 73, 127
5, 18000, Note_on_c, 13, 73, 0
5, 18048, Note_on_c, 13, 80, 127
5, 18096, Note_on_c, 13, 80, 0
5, 18144, Note_on_c, 13, 73, 127
5, 18192, Note_on_c, 13, 73, 0
5, 18240, Note_on_c, 13, 80, 127
5, 18288, Note_on_c, 13, 80, 0
5, 18288, Note_on_c, 13, 73, 127
5, 18336, Note_on_c, 13, 73, 0
5, 18336, Note_on_c, 13, 71, 127
5, 18384, Note_on_c, 13, 71, 0
5, 18384, Note_on_c, 13, 73, 127
5, 18432, Note_on_c, 13, 73, 0
5, 33792, Note_on_c, 13, 73, 127
5, 33840, Note_on_c, 13, 73, 0
5, 33840, Note_on_c, 13, 73, 127
5, 33888, Note_on_c, 13, 73, 0
5, 33888, Note_on_c, 13, 73, 127
5, 33936, Note_on_c, 13, 73, 0
5, 33984, Note_on_c, 13, 78, 127
5, 34032, Note_on_c, 13, 78, 0
5, 34080, Note_on_c, 13, 73, 127
5, 34128, Note_on_c, 13, 73, 0
5, 34176, Note_on_c, 13, 78, 127
5, 34224, Note_on_c, 13, 78, 0
5, 34272, Note_on_c, 13, 73, 127
5, 34320, Note_on_c, 13, 73, 0
5, 34368, Note_on_c, 13, 78, 127
5, 34416, Note_on_c, 13, 78, 0
5, 34416, Note_on_c, 13, 73, 127
5, 34464, Note_on_c, 13, 73, 0
5, 34464, Note_on_c, 13, 76, 127
5, 34512, Note_on_c, 13, 76, 0
5, 34512, Note_on_c, 13, 73, 127
5, 34560, Note_on_c, 13, 73, 0
5, 34560, Note_on_c, 13, 73, 127
5, 34608, Note_on_c, 13, 73, 0
5, 34608, Note_on_c, 13, 73, 127
5, 34656, Note_on_c, 13, 73, 0
5, 34656, Note_on_c, 13, 73, 127
5, 34704, Note_on_c, 13, 73, 0
5, 34752, Note_on_c, 13, 80, 127
5, 34800, Note_on_c, 13, 80, 0
5, 34848, Note_on_c, 13, 73, 127
5, 34896, Note_on_c, 13, 73, 0
5, 34944, Note_on_c, 13, 80, 127
5, 34992, Note_on_c, 13, 80, 0
5, 35040, Note_on_c, 13, 73, 127
5, 35088, Note_on_c, 13, 73, 0
5, 35136, Note_on_c, 13, 80, 127
5, 35184, Note_on_c, 13, 80, 0
5, 35184, Note_on_c, 13, 73, 127
5, 35232, Note_on_c, 13, 73, 0
5, 35232, Note_on_c, 13, 76, 127
5, 35280, Note_on_c, 13, 76, 0
5, 35280, Note_on_c, 13, 73, 127
5, 35328, Note_on_c, 13, 73, 0
5, 35328, Note_on_c, 13, 73, 127
5, 35376, Note_on_c, 13, 73, 0
5, 35376, Note_on_c, 13, 73, 127
5, 35424, Note_on_c, 13, 73, 0
5, 35424, Note_on_c, 13, 73, 127
5, 35472, Note_on_c, 13, 73, 0
5, 35520, Note_on_c, 13, 78, 127
5, 35568, Note_on_c, 13, 78, 0
5, 35616, Note_on_c, 13, 73, 127
5, 35664, Note_on_c, 13, 73, 0
5, 35712, Note_on_c, 13, 78, 127
5, 35760, Note_on_c, 13, 78, 0
5, 35808, Note_on_c, 13, 73, 127
5, 35856, Note_on_c, 13, 73, 0
5, 35904, Note_on_c, 13, 78, 127
5, 35952, Note_on_c, 13, 78, 0
5, 35952, Note_on_c, 13, 73, 127
5, 36000, Note_on_c, 13, 73, 0
5, 36000, Note_on_c, 13, 76, 127
5, 36048, Note_on_c, 13, 76, 0
5, 36048, Note_on_c, 13, 73, 127
5, 36096, Note_on_c, 13, 73, 0
5, 36096, Note_on_c, 13, 73, 127
5, 36144, Note_on_c, 13, 73, 0
5, 36144, Note_on_c, 13, 73, 127
5, 36192, Note_on_c, 13, 73, 0
5, 36192, Note_on_c, 13, 73, 127
5, 36240, Note_on_c, 13, 73, 0
5, 36288, Note_on_c, 13, 80, 127
5, 36336, Note_on_c, 13, 80, 0
5, 36384, Note_on_c, 13, 73, 127
5, 36432, Note_on_c, 13, 73, 0
5, 36480, Note_on_c, 13, 80, 127
5, 36528, Note_on_c, 13, 80, 0
5, 36576, Note_on_c, 13, 73, 127
5, 36624, Note_on_c, 13, 73, 0
5, 36672, Note_on_c, 13, 80, 127
5, 36720, Note_on_c, 13, 80, 0
5, 36720, Note_on_c, 13, 73, 127
5, 36768, Note_on_c, 13, 73, 0
5, 36768, Note_on_c, 13, 71, 127
5, 36816, Note_on_c, 13, 71, 0
5, 36816, Note_on_c, 13, 73, 127
5, 36864, Note_on_c, 13, 73, 0
5, 52224, Note_on_c, 13, 73, 127
5, 52272, Note_on_c, 13, 73, 0
5, 52272, Note_on_c, 13, 73, 127
5, 52320, Note_on_c, 13, 73, 0
5, 52320, Note_on_c, 13, 73, 127
5, 52368, Note_on_c, 13, 73, 0
5, 52416, Note_on_c, 13, 78, 127
5, 52464, Note_on_c, 13, 78, 0
5, 52512, Note_on_c, 13, 73, 127
5, 52560, Note_on_c, 13, 73, 0
5, 52608, Note_on_c, 13, 78, 127
5, 52656, Note_on_c, 13, 78, 0
5, 52704, Note_on_c, 13, 73, 127
5, 52752, Note_on_c, 13, 73, 0
5, 52800, Note_on_c, 13, 78, 127
5, 52848, Note_on_c, 13, 78, 0
5, 52848, Note_on_c, 13, 73, 127
5, 52896, Note_on_c, 13, 73, 0
5, 52896, Note_on_c, 13, 76, 127
5, 52944, Note_on_c, 13, 76, 0
5, 52944, Note_on_c, 13, 73, 127
5, 52992, Note_on_c, 13, 73, 0
5, 52992, Note_on_c, 13, 73, 127
5, 53040, Note_on_c, 13, 73, 0
5, 53040, Note_on_c, 13, 73, 127
5, 53088, Note_on_c, 13, 73, 0
5, 53088, Note_on_c, 13, 73, 127
5, 53136, Note_on_c, 13, 73, 0
5, 53184, Note_on_c, 13, 80, 127
5, 53232, Note_on_c, 13, 80, 0
5, 53280, Note_on_c, 13, 73, 127
5, 53328, Note_on_c, 13, 73, 0
5, 53376, Note_on_c, 13, 80, 127
5, 53424, Note_on_c, 13, 80, 0
5, 53472, Note_on_c, 13, 73, 127
5, 53520, Note_on_c, 13, 73, 0
5, 53568, Note_on_c, 13, 80, 127
5, 53616, Note_on_c, 13, 80, 0
5, 53616, Note_on_c, 13, 73, 127
5, 53664, Note_on_c, 13, 73, 0
5, 53664, Note_on_c, 13, 76, 127
5, 53712, Note_on_c, 13, 76, 0
5, 53712, Note_on_c, 13, 73, 127
5, 53760, Note_on_c, 13, 73, 0
5, 53760, Note_on_c, 13, 73, 127
5, 53808, Note_on_c, 13, 73, 0
5, 53808, Note_on_c, 13, 73, 127
5, 53856, Note_on_c, 13, 73, 0
5, 53856, Note_on_c, 13, 73, 127
5, 53904, Note_on_c, 13, 73, 0
5, 53952, Note_on_c, 13, 78, 127
5, 54000, Note_on_c, 13, 78, 0
5, 54048, Note_on_c, 13, 73, 127
5, 54096, Note_on_c, 13, 73, 0
5, 54144, Note_on_c, 13, 78, 127
5, 54192, Note_on_c, 13, 78, 0
5, 54240, Note_on_c, 13, 73, 127
5, 54288, Note_on_c, 13, 73, 0
5, 54336, Note_on_c, 13, 78, 127
5, 54384, Note_on_c, 13, 78, 0
5, 54384, Note_on_c, 13, 73, 127
5, 54432, Note_on_c, 13, 73, 0
5, 54432, Note_on_c, 13, 76, 127
5, 54480, Note_on_c, 13, 76, 0
5, 54480, Note_on_c, 13, 73, 127
5, 54528, Note_on_c, 13, 73, 0
5, 54528, Note_on_c, 13, 73, 127
5, 54576, Note_on_c, 13, 73, 0
5, 54576, Note_on_c, 13, 73, 127
5, 54624, Note_on_c, 13, 73, 0
5, 54624, Note_on_c, 13, 73, 127
5, 54672, Note_on_c, 13, 73, 0
5, 54720, Note_on_c, 13, 80, 127
5, 54768, Note_on_c, 13, 80, 0
5, 54816, Note_on_c, 13, 73, 127
5, 54864, Note_on_c, 13, 73, 0
5, 54912, Note_on_c, 13, 80, 127
5, 54960, Note_on_c, 13, 80, 0
5, 55008, Note_on_c, 13, 73, 127
5, 55056, Note_on_c, 13, 73, 0
5, 55104, Note_on_c, 13, 80, 127
5, 55152, Note_on_c, 13, 80, 0
5, 55152, Note_on_c, 13, 73, 127
5, 55200, Note_on_c, 13, 73, 0
5, 55200, Note_on_c, 13, 71, 127
5, 55248, Note_on_c, 13, 71, 0
5, 55248, Note_on_c, 13, 73, 127
5, 55296, Note_on_c, 13, 73, 0
5, 70656, Note_on_c, 13, 73, 127
5, 70704, Note_on_c, 13, 73, 0
5, 70704, Note_on_c, 13, 73, 127
5, 70752, Note_on_c, 13, 73, 0
5, 70752, Note_on_c, 13, 73, 127
5, 70800, Note_on_c, 13, 73, 0
5, 70848, Note_on_c, 13, 78, 127
5, 70896, Note_on_c, 13, 78, 0
5, 70944, Note_on_c, 13, 73, 127
5, 70992, Note_on_c, 13, 73, 0
5, 71040, Note_on_c, 13, 78, 127
5, 71088, Note_on_c, 13, 78, 0
5, 71136, Note_on_c, 13, 73, 127
5, 71184, Note_on_c, 13, 73, 0
5, 71232, Note_on_c, 13, 78, 127
5, 71280, Note_on_c, 13, 78, 0
5, 71280, Note_on_c, 13, 73, 127
5, 71328, Note_on_c, 13, 73, 0
5, 71328, Note_on_c, 13, 76, 127
5, 71376, Note_on_c, 13, 76, 0
5, 71376, Note_on_c, 13, 73, 127
5, 71424, Note_on_c, 13, 73, 0
5, 71424, Note_on_c, 13, 73, 127
5, 71472, Note_on_c, 13, 73, 0
5, 71472, Note_on_c, 13, 73, 127
5, 71520, Note_on_c, 13, 73, 0
5, 71520, Note_on_c, 13, 73, 127
5, 71568, Note_on_c, 13, 73, 0
5, 71616, Note_on_c, 13, 80, 127
5, 71664, Note_on_c, 13, 80, 0
5, 71712, Note_on_c, 13, 73, 127
5, 71760, Note_on_c, 13, 73, 0
5, 71808, Note_on_c, 13, 80, 127
5, 71856, Note_on_c, 13, 80, 0
5, 71904, Note_on_c, 13, 73, 127
5, 71952, Note_on_c, 13, 73, 0
5, 72000, Note_on_c, 13, 80, 127
5, 72048, Note_on_c, 13, 80, 0
5, 72048, Note_on_c, 13, 73, 127
5, 72096, Note_on_c, 13, 73, 0
5, 72096, Note_on_c, 13, 76, 127
5, 72144, Note_on_c, 13, 76, 0
5, 72144, Note_on_c, 13, 73, 127
5, 72192, Note_on_c, 13, 73, 0
5, 72192, Note_on_c, 13, 73, 127
5, 72240, Note_on_c, 13, 73, 0
5, 72240, Note_on_c, 13, 73, 127
5, 72288, Note_on_c, 13, 73, 0
5, 72288, Note_on_c, 13, 73, 127
5, 72336, Note_on_c, 13, 73, 0
5, 72384, Note_on_c, 13, 78, 127
5, 72432, Note_on_c, 13, 78, 0
5, 72480, Note_on_c, 13, 73, 127
5, 72528, Note_on_c, 13, 73, 0
5, 72576, Note_on_c, 13, 78, 127
5, 72624, Note_on_c, 13, 78, 0
5, 72672, Note_on_c, 13, 73, 127
5, 72720, Note_on_c, 13, 73, 0
5, 72768, Note_on_c, 13, 78, 127
5, 72816, Note_on_c, 13, 78, 0
5, 72816, Note_on_c, 13, 73, 127
5, 72864, Note_on_c, 13, 73, 0
5, 72864, Note_on_c, 13, 76, 127
5, 72912, Note_on_c, 13, 76, 0
5, 72912, Note_on_c, 13, 73, 127
5, 72960, Note_on_c, 13, 73, 0
5, 72960, Note_on_c, 13, 73, 127
5, 73008, Note_on_c, 13, 73, 0
5, 73008, Note_on_c, 13, 73, 127
5, 73056, Note_on_c, 13, 73, 0
5, 73056, Note_on_c, 13, 73, 127
5, 73104, Note_on_c, 13, 73, 0
5, 73152, Note_on_c, 13, 80, 127
5, 73200, Note_on_c, 13, 80, 0
5, 73248, Note_on_c, 13, 73, 127
5, 73296, Note_on_c, 13, 73, 0
5, 73344, Note_on_c, 13, 80, 127
5, 73392, Note_on_c, 13, 80, 0
5, 73440, Note_on_c, 13, 73, 127
5, 73488, Note_on_c, 13, 73, 0
5, 73536, Note_on_c, 13, 80, 127
5, 73584, Note_on_c, 13, 80, 0
5, 73584, Note_on_c, 13, 73, 127
5, 73632, Note_on_c, 13, 73, 0
5, 73632, Note_on_c, 13, 71, 127
5, 73680, Note_on_c, 13, 71, 0
5, 73680, Note_on_c, 13, 73, 127
5, 73728, Note_on_c, 13, 73, 0
5, 73728, End_track
6, 0, Start_track
6, 0, MIDI_port, 0
6, 0, Title_t, "Staff-8"
6, 0, Program_c, 15, 107
6, 0, Control_c, 15, 7, 127
6, 0, Control_c, 15, 10, 64
6, 0, Control_c, 15, 7, 75
6, 15408, Note_on_c, 15, 73, 127
6, 15456, Note_on_c, 15, 73, 0
6, 15456, Note_on_c, 15, 73, 127
6, 15504, Note_on_c, 15, 73, 0
6, 15504, Note_on_c, 15, 73, 127
6, 15552, Note_on_c, 15, 73, 0
6, 15600, Note_on_c, 15, 78, 127
6, 15648, Note_on_c, 15, 78, 0
6, 15696, Note_on_c, 15, 73, 127
6, 15744, Note_on_c, 15, 73, 0
6, 15792, Note_on_c, 15, 78, 127
6, 15840, Note_on_c, 15, 78, 0
6, 15888, Note_on_c, 15, 73, 127
6, 15936, Note_on_c, 15, 73, 0
6, 15984, Note_on_c, 15, 78, 127
6, 16032, Note_on_c, 15, 78, 0
6, 16032, Note_on_c, 15, 73, 127
6, 16080, Note_on_c, 15, 73, 0
6, 16080, Note_on_c, 15, 76, 127
6, 16128, Note_on_c, 15, 76, 0
6, 16128, Note_on_c, 15, 73, 127
6, 16176, Note_on_c, 15, 73, 0
6, 16176, Note_on_c, 15, 73, 127
6, 16224, Note_on_c, 15, 73, 0
6, 16224, Note_on_c, 15, 73, 127
6, 16272, Note_on_c, 15, 73, 0
6, 16272, Note_on_c, 15, 73, 127
6, 16320, Note_on_c, 15, 73, 0
6, 16368, Note_on_c, 15, 80, 127
6, 16416, Note_on_c, 15, 80, 0
6, 16464, Note_on_c, 15, 73, 127
6, 16512, Note_on_c, 15, 73, 0
6, 16560, Note_on_c, 15, 80, 127
6, 16608, Note_on_c, 15, 80, 0
6, 16656, Note_on_c, 15, 73, 127
6, 16704, Note_on_c, 15, 73, 0
6, 16752, Note_on_c, 15, 80, 127
6, 16800, Note_on_c, 15, 80, 0
6, 16800, Note_on_c, 15, 73, 127
6, 16848, Note_on_c, 15, 73, 0
6, 16848, Note_on_c, 15, 76, 127
6, 16896, Note_on_c, 15, 76, 0
6, 16896, Note_on_c, 15, 73, 127
6, 16944, Note_on_c, 15, 73, 0
6, 16944, Note_on_c, 15, 73, 127
6, 16992, Note_on_c, 15, 73, 0
6, 16992, Note_on_c, 15, 73, 127
6, 17040, Note_on_c, 15, 73, 0
6, 17040, Note_on_c, 15, 73, 127
6, 17088, Note_on_c, 15, 73, 0
6, 17136, Note_on_c, 15, 78, 127
6, 17184, Note_on_c, 15, 78, 0
6, 17232, Note_on_c, 15, 73, 127
6, 17280, Note_on_c, 15, 73, 0
6, 17328, Note_on_c, 15, 78, 127
6, 17376, Note_on_c, 15, 78, 0
6, 17424, Note_on_c, 15, 73, 127
6, 17472, Note_on_c, 15, 73, 0
6, 17520, Note_on_c, 15, 78, 127
6, 17568, Note_on_c, 15, 78, 0
6, 17568, Note_on_c, 15, 73, 127
6, 17616, Note_on_c, 15, 73, 0
6, 17616, Note_on_c, 15, 76, 127
6, 17664, Note_on_c, 15, 76, 0
6, 17664, Note_on_c, 15, 73, 127
6, 17712, Note_on_c, 15, 73, 0
6, 17712, Note_on_c, 15, 73, 127
6, 17760, Note_on_c, 15, 73, 0
6, 17760, Note_on_c, 15, 73, 127
6, 17808, Note_on_c, 15, 73, 0
6, 17808, Note_on_c, 15, 73, 127
6, 17856, Note_on_c, 15, 73, 0
6, 17904, Note_on_c, 15, 80, 127
6, 17952, Note_on_c, 15, 80, 0
6, 18000, Note_on_c, 15, 73, 127
6, 18048, Note_on_c, 15, 73, 0
6, 18096, Note_on_c, 15, 80, 127
6, 18144, Note_on_c, 15, 80, 0
6, 18192, Note_on_c, 15, 73, 127
6, 18240, Note_on_c, 15, 73, 0
6, 18288, Note_on_c, 15, 80, 127
6, 18336, Note_on_c, 15, 80, 0
6, 18336, Note_on_c, 15, 73, 127
6, 18384, Note_on_c, 15, 73, 0
6, 18384, Note_on_c, 15, 71, 127
6, 18432, Note_on_c, 15, 71, 0
6, 18432, Note_on_c, 15, 73, 127
6, 18480, Note_on_c, 15, 73, 0
6, 33840, Note_on_c, 15, 73, 127
6, 33888, Note_on_c, 15, 73, 0
6, 33888, Note_on_c, 15, 73, 127
6, 33936, Note_on_c, 15, 73, 0
6, 33936, Note_on_c, 15, 73, 127
6, 33984, Note_on_c, 15, 73, 0
6, 34032, Note_on_c, 15, 78, 127
6, 34080, Note_on_c, 15, 78, 0
6, 34128, Note_on_c, 15, 73, 127
6, 34176, Note_on_c, 15, 73, 0
6, 34224, Note_on_c, 15, 78, 127
6, 34272, Note_on_c, 15, 78, 0
6, 34320, Note_on_c, 15, 73, 127
6, 34368, Note_on_c, 15, 73, 0
6, 34416, Note_on_c, 15, 78, 127
6, 34464, Note_on_c, 15, 78, 0
6, 34464, Note_on_c, 15, 73, 127
6, 34512, Note_on_c, 15, 73, 0
6, 34512, Note_on_c, 15, 76, 127
6, 34560, Note_on_c, 15, 76, 0
6, 34560, Note_on_c, 15, 73, 127
6, 34608, Note_on_c, 15, 73, 0
6, 34608, Note_on_c, 15, 73, 127
6, 34656, Note_on_c, 15, 73, 0
6, 34656, Note_on_c, 15, 73, 127
6, 34704, Note_on_c, 15, 73, 0
6, 34704, Note_on_c, 15, 73, 127
6, 34752, Note_on_c, 15, 73, 0
6, 34800, Note_on_c, 15, 80, 127
6, 34848, Note_on_c, 15, 80, 0
6, 34896, Note_on_c, 15, 73, 127
6, 34944, Note_on_c, 15, 73, 0
6, 34992, Note_on_c, 15, 80, 127
6, 35040, Note_on_c, 15, 80, 0
6, 35088, Note_on_c, 15, 73, 127
6, 35136, Note_on_c, 15, 73, 0
6, 35184, Note_on_c, 15, 80, 127
6, 35232, Note_on_c, 15, 80, 0
6, 35232, Note_on_c, 15, 73, 127
6, 35280, Note_on_c, 15, 73, 0
6, 35280, Note_on_c, 15, 76, 127
6, 35328, Note_on_c, 15, 76, 0
6, 35328, Note_on_c, 15, 73, 127
6, 35376, Note_on_c, 15, 73, 0
6, 35376, Note_on_c, 15, 73, 127
6, 35424, Note_on_c, 15, 73, 0
6, 35424, Note_on_c, 15, 73, 127
6, 35472, Note_on_c, 15, 73, 0
6, 35472, Note_on_c, 15, 73, 127
6, 35520, Note_on_c, 15, 73, 0
6, 35568, Note_on_c, 15, 78, 127
6, 35616, Note_on_c, 15, 78, 0
6, 35664, Note_on_c, 15, 73, 127
6, 35712, Note_on_c, 15, 73, 0
6, 35760, Note_on_c, 15, 78, 127
6, 35808, Note_on_c, 15, 78, 0
6, 35856, Note_on_c, 15, 73, 127
6, 35904, Note_on_c, 15, 73, 0
6, 35952, Note_on_c, 15, 78, 127
6, 36000, Note_on_c, 15, 78, 0
6, 36000, Note_on_c, 15, 73, 127
6, 36048, Note_on_c, 15, 73, 0
6, 36048, Note_on_c, 15, 76, 127
6, 36096, Note_on_c, 15, 76, 0
6, 36096, Note_on_c, 15, 73, 127
6, 36144, Note_on_c, 15, 73, 0
6, 36144, Note_on_c, 15, 73, 127
6, 36192, Note_on_c, 15, 73, 0
6, 36192, Note_on_c, 15, 73, 127
6, 36240, Note_on_c, 15, 73, 0
6, 36240, Note_on_c, 15, 73, 127
6, 36288, Note_on_c, 15, 73, 0
6, 36336, Note_on_c, 15, 80, 127
6, 36384, Note_on_c, 15, 80, 0
6, 36432, Note_on_c, 15, 73, 127
6, 36480, Note_on_c, 15, 73, 0
6, 36528, Note_on_c, 15, 80, 127
6, 36576, Note_on_c, 15, 80, 0
6, 36624, Note_on_c, 15, 73, 127
6, 36672, Note_on_c, 15, 73, 0
6, 36720, Note_on_c, 15, 80, 127
6, 36768, Note_on_c, 15, 80, 0
6, 36768, Note_on_c, 15, 73, 127
6, 36816, Note_on_c, 15, 73, 0
6, 36816, Note_on_c, 15, 71, 127
6, 36864, Note_on_c, 15, 71, 0
6, 36864, Note_on_c, 15, 73, 127
6, 36912, Note_on_c, 15, 73, 0
6, 52272, Note_on_c, 15, 73, 127
6, 52320, Note_on_c, 15, 73, 0
6, 52320, Note_on_c, 15, 73, 127
6, 52368, Note_on_c, 15, 73, 0
6, 52368, Note_on_c, 15, 73, 127
6, 52416, Note_on_c, 15, 73, 0
6, 52464, Note_on_c, 15, 78, 127
6, 52512, Note_on_c, 15, 78, 0
6, 52560, Note_on_c, 15, 73, 127
6, 52608, Note_on_c, 15, 73, 0
6, 52656, Note_on_c, 15, 78, 127
6, 52704, Note_on_c, 15, 78, 0
6, 52752, Note_on_c, 15, 73, 127
6, 52800, Note_on_c, 15, 73, 0
6, 52848, Note_on_c, 15, 78, 127
6, 52896, Note_on_c, 15, 78, 0
6, 52896, Note_on_c, 15, 73, 127
6, 52944, Note_on_c, 15, 73, 0
6, 52944, Note_on_c, 15, 76, 127
6, 52992, Note_on_c, 15, 76, 0
6, 52992, Note_on_c, 15, 73, 127
6, 53040, Note_on_c, 15, 73, 0
6, 53040, Note_on_c, 15, 73, 127
6, 53088, Note_on_c, 15, 73, 0
6, 53088, Note_on_c, 15, 73, 127
6, 53136, Note_on_c, 15, 73, 0
6, 53136, Note_on_c, 15, 73, 127
6, 53184, Note_on_c, 15, 73, 0
6, 53232, Note_on_c, 15, 80, 127
6, 53280, Note_on_c, 15, 80, 0
6, 53328, Note_on_c, 15, 73, 127
6, 53376, Note_on_c, 15, 73, 0
6, 53424, Note_on_c, 15, 80, 127
6, 53472, Note_on_c, 15, 80, 0
6, 53520, Note_on_c, 15, 73, 127
6, 53568, Note_on_c, 15, 73, 0
6, 53616, Note_on_c, 15, 80, 127
6, 53664, Note_on_c, 15, 80, 0
6, 53664, Note_on_c, 15, 73, 127
6, 53712, Note_on_c, 15, 73, 0
6, 53712, Note_on_c, 15, 76, 127
6, 53760, Note_on_c, 15, 76, 0
6, 53760, Note_on_c, 15, 73, 127
6, 53808, Note_on_c, 15, 73, 0
6, 53808, Note_on_c, 15, 73, 127
6, 53856, Note_on_c, 15, 73, 0
6, 53856, Note_on_c, 15, 73, 127
6, 53904, Note_on_c, 15, 73, 0
6, 53904, Note_on_c, 15, 73, 127
6, 53952, Note_on_c, 15, 73, 0
6, 54000, Note_on_c, 15, 78, 127
6, 54048, Note_on_c, 15, 78, 0
6, 54096, Note_on_c, 15, 73, 127
6, 54144, Note_on_c, 15, 73, 0
6, 54192, Note_on_c, 15, 78, 127
6, 54240, Note_on_c, 15, 78, 0
6, 54288, Note_on_c, 15, 73, 127
6, 54336, Note_on_c, 15, 73, 0
6, 54384, Note_on_c, 15, 78, 127
6, 54432, Note_on_c, 15, 78, 0
6, 54432, Note_on_c, 15, 73, 127
6, 54480, Note_on_c, 15, 73, 0
6, 54480, Note_on_c, 15, 76, 127
6, 54528, Note_on_c, 15, 76, 0
6, 54528, Note_on_c, 15, 73, 127
6, 54576, Note_on_c, 15, 73, 0
6, 54576, Note_on_c, 15, 73, 127
6, 54624, Note_on_c, 15, 73, 0
6, 54624, Note_on_c, 15, 73, 127
6, 54672, Note_on_c, 15, 73, 0
6, 54672, Note_on_c, 15, 73, 127
6, 54720, Note_on_c, 15, 73, 0
6, 54768, Note_on_c, 15, 80, 127
6, 54816, Note_on_c, 15, 80, 0
6, 54864, Note_on_c, 15, 73, 127
6, 54912, Note_on_c, 15, 73, 0
6, 54960, Note_on_c, 15, 80, 127
6, 55008, Note_on_c, 15, 80, 0
6, 55056, Note_on_c, 15, 73, 127
6, 55104, Note_on_c, 15, 73, 0
6, 55152, Note_on_c, 15, 80, 127
6, 55200, Note_on_c, 15, 80, 0
6, 55200, Note_on_c, 15, 73, 127
6, 55248, Note_on_c, 15, 73, 0
6, 55248, Note_on_c, 15, 71, 127
6, 55296, Note_on_c, 15, 71, 0
6, 55296, Note_on_c, 15, 73, 127
6, 55344, Note_on_c, 15, 73, 0
6, 70704, Note_on_c, 15, 73, 127
6, 70752, Note_on_c, 15, 73, 0
6, 70752, Note_on_c, 15, 73, 127
6, 70800, Note_on_c, 15, 73, 0
6, 70800, Note_on_c, 15, 73, 127
6, 70848, Note_on_c, 15, 73, 0
6, 70896, Note_on_c, 15, 78, 127
6, 70944, Note_on_c, 15, 78, 0
6, 70992, Note_on_c, 15, 73, 127
6, 71040, Note_on_c, 15, 73, 0
6, 71088, Note_on_c, 15, 78, 127
6, 71136, Note_on_c, 15, 78, 0
6, 71184, Note_on_c, 15, 73, 127
6, 71232, Note_on_c, 15, 73, 0
6, 71280, Note_on_c, 15, 78, 127
6, 71328, Note_on_c, 15, 78, 0
6, 71328, Note_on_c, 15, 73, 127
6, 71376, Note_on_c, 15, 73, 0
6, 71376, Note_on_c, 15, 76, 127
6, 71424, Note_on_c, 15, 76, 0
6, 71424, Note_on_c, 15, 73, 127
6, 71472, Note_on_c, 15, 73, 0
6, 71472, Note_on_c, 15, 73, 127
6, 71520, Note_on_c, 15, 73, 0
6, 71520, Note_on_c, 15, 73, 127
6, 71568, Note_on_c, 15, 73, 0
6, 71568, Note_on_c, 15, 73, 127
6, 71616, Note_on_c, 15, 73, 0
6, 71664, Note_on_c, 15, 80, 127
6, 71712, Note_on_c, 15, 80, 0
6, 71760, Note_on_c, 15, 73, 127
6, 71808, Note_on_c, 15, 73, 0
6, 71856, Note_on_c, 15, 80, 127
6, 71904, Note_on_c, 15, 80, 0
6, 71952, Note_on_c, 15, 73, 127
6, 72000, Note_on_c, 15, 73, 0
6, 72048, Note_on_c, 15, 80, 127
6, 72096, Note_on_c, 15, 80, 0
6, 72096, Note_on_c, 15, 73, 127
6, 72144, Note_on_c, 15, 73, 0
6, 72144, Note_on_c, 15, 76, 127
6, 72192, Note_on_c, 15, 76, 0
6, 72192, Note_on_c, 15, 73, 127
6, 72240, Note_on_c, 15, 73, 0
6, 72240, Note_on_c, 15, 73, 127
6, 72288, Note_on_c, 15, 73, 0
6, 72288, Note_on_c, 15, 73, 127
6, 72336, Note_on_c, 15, 73, 0
6, 72336, Note_on_c, 15, 73, 127
6, 72384, Note_on_c, 15, 73, 0
6, 72432, Note_on_c, 15, 78, 127
6, 72480, Note_on_c, 15, 78, 0
6, 72528, Note_on_c, 15, 73, 127
6, 72576, Note_on_c, 15, 73, 0
6, 72624, Note_on_c, 15, 78, 127
6, 72672, Note_on_c, 15, 78, 0
6, 72720, Note_on_c, 15, 73, 127
6, 72768, Note_on_c, 15, 73, 0
6, 72816, Note_on_c, 15, 78, 127
6, 72864, Note_on_c, 15, 78, 0
6, 72864, Note_on_c, 15, 73, 127
6, 72912, Note_on_c, 15, 73, 0
6, 72912, Note_on_c, 15, 76, 127
6, 72960, Note_on_c, 15, 76, 0
6, 72960, Note_on_c, 15, 73, 127
6, 73008, Note_on_c, 15, 73, 0
6, 73008, Note_on_c, 15, 73, 127
6, 73056, Note_on_c, 15, 73, 0
6, 73056, Note_on_c, 15, 73, 127
6, 73104, Note_on_c, 15, 73, 0
6, 73104, Note_on_c, 15, 73, 127
6, 73152, Note_on_c, 15, 73, 0
6, 73200, Note_on_c, 15, 80, 127
6, 73248, Note_on_c, 15, 80, 0
6, 73296, Note_on_c, 15, 73, 127
6, 73344, Note_on_c, 15, 73, 0
6, 73392, Note_on_c, 15, 80, 127
6, 73440, Note_on_c, 15, 80, 0
6, 73488, Note_on_c, 15, 73, 127
6, 73536, Note_on_c, 15, 73, 0
6, 73584, Note_on_c, 15, 80, 127
6, 73632, Note_on_c, 15, 80, 0
6, 73632, Note_on_c, 15, 73, 127
6, 73680, Note_on_c, 15, 73, 0
6, 73680, Note_on_c, 15, 71, 127
6, 73728, Note_on_c, 15, 71, 0
6, 73728, Note_on_c, 15, 73, 127
6, 73776, Note_on_c, 15, 73, 0
6, 73776, End_track
7, 0, Start_track
7, 0, MIDI_port, 0
7, 0, Title_t, "Staff-5"
7, 0, Program_c, 12, 29
7, 0, Control_c, 12, 7, 127
7, 0, Control_c, 12, 10, 64
7, 0, Control_c, 12, 7, 127
7, 2688, Note_on_c, 12, 64, 127
7, 2736, Note_on_c, 12, 64, 0
7, 2736, Note_on_c, 12, 66, 127
7, 2784, Note_on_c, 12, 66, 0
7, 2784, Note_on_c, 12, 68, 127
7, 2832, Note_on_c, 12, 68, 0
7, 2832, Note_on_c, 12, 70, 127
7, 2880, Note_on_c, 12, 70, 0
7, 2880, Note_on_c, 12, 68, 127
7, 2928, Note_on_c, 12, 68, 0
7, 2928, Note_on_c, 12, 70, 127
7, 2976, Note_on_c, 12, 70, 0
7, 2976, Note_on_c, 12, 71, 127
7, 3024, Note_on_c, 12, 71, 0
7, 3024, Note_on_c, 12, 73, 127
7, 3072, Note_on_c, 12, 73, 0
7, 3072, Note_on_c, 12, 71, 127
7, 3096, Note_on_c, 12, 71, 0
7, 3096, Note_on_c, 12, 73, 127
7, 3264, Note_on_c, 12, 73, 0
7, 3840, Note_on_c, 12, 70, 127
7, 3864, Note_on_c, 12, 70, 0
7, 3864, Note_on_c, 12, 71, 127
7, 4032, Note_on_c, 12, 71, 0
7, 4608, Note_on_c, 12, 69, 127
7, 4632, Note_on_c, 12, 69, 0
7, 4632, Note_on_c, 12, 70, 127
7, 4800, Note_on_c, 12, 70, 0
7, 5376, Note_on_c, 12, 66, 127
7, 5400, Note_on_c, 12, 66, 0
7, 5400, Note_on_c, 12, 68, 127
7, 5568, Note_on_c, 12, 68, 0
7, 5760, Note_on_c, 12, 76, 127
7, 5808, Note_on_c, 12, 76, 0
7, 5808, Note_on_c, 12, 75, 127
7, 5856, Note_on_c, 12, 75, 0
7, 5856, Note_on_c, 12, 73, 127
7, 5904, Note_on_c, 12, 73, 0
7, 5904, Note_on_c, 12, 71, 127
7, 5952, Note_on_c, 12, 71, 0
7, 5952, Note_on_c, 12, 73, 127
7, 6000, Note_on_c, 12, 73, 0
7, 6000, Note_on_c, 12, 71, 127
7, 6048, Note_on_c, 12, 71, 0
7, 6048, Note_on_c, 12, 70, 127
7, 6096, Note_on_c, 12, 70, 0
7, 6096, Note_on_c, 12, 71, 127
7, 6144, Note_on_c, 12, 71, 0
7, 6144, Note_on_c, 12, 71, 127
7, 6168, Note_on_c, 12, 71, 0
7, 6168, Note_on_c, 12, 73, 127
7, 6336, Note_on_c, 12, 73, 0
7, 6912, Note_on_c, 12, 70, 127
7, 6936, Note_on_c, 12, 70, 0
7, 6936, Note_on_c, 12, 71, 127
7, 7104, Note_on_c, 12, 71, 0
7, 7680, Note_on_c, 12, 69, 127
7, 7704, Note_on_c, 12, 69, 0
7, 7704, Note_on_c, 12, 70, 127
7, 7872, Note_on_c, 12, 70, 0
7, 8448, Note_on_c, 12, 66, 127
7, 8472, Note_on_c, 12, 66, 0
7, 8472, Note_on_c, 12, 68, 127
7, 8640, Note_on_c, 12, 68, 0
7, 8832, Note_on_c, 12, 64, 127
7, 8880, Note_on_c, 12, 64, 0
7, 8880, Note_on_c, 12, 66, 127
7, 8928, Note_on_c, 12, 66, 0
7, 8928, Note_on_c, 12, 68, 127
7, 8976, Note_on_c, 12, 68, 0
7, 8976, Note_on_c, 12, 70, 127
7, 9024, Note_on_c, 12, 70, 0
7, 9024, Note_on_c, 12, 68, 127
7, 9072, Note_on_c, 12, 68, 0
7, 9072, Note_on_c, 12, 70, 127
7, 9120, Note_on_c, 12, 70, 0
7, 9120, Note_on_c, 12, 71, 127
7, 9168, Note_on_c, 12, 71, 0
7, 9168, Note_on_c, 12, 73, 127
7, 9216, Note_on_c, 12, 73, 0
7, 9216, Note_on_c, 12, 70, 127
7, 9240, Note_on_c, 12, 70, 0
7, 9240, Note_on_c, 12, 71, 127
7, 9408, Note_on_c, 12, 71, 0
7, 9984, Note_on_c, 12, 69, 127
7, 10008, Note_on_c, 12, 69, 0
7, 10008, Note_on_c, 12, 70, 127
7, 10176, Note_on_c, 12, 70, 0
7, 10752, Note_on_c, 12, 65, 127
7, 10776, Note_on_c, 12, 65, 0
7, 10776, Note_on_c, 12, 66, 127
7, 10944, Note_on_c, 12, 66, 0
7, 11520, Note_on_c, 12, 66, 127
7, 11544, Note_on_c, 12, 66, 0
7, 11544, Note_on_c, 12, 68, 127
7, 11712, Note_on_c, 12, 68, 0
7, 11904, Note_on_c, 12, 76, 127
7, 11952, Note_on_c, 12, 76, 0
7, 11952, Note_on_c, 12, 75, 127
7, 12000, Note_on_c, 12, 75, 0
7, 12000, Note_on_c, 12, 73, 127
7, 12048, Note_on_c, 12, 73, 0
7, 12048, Note_on_c, 12, 71, 127
7, 12096, Note_on_c, 12, 71, 0
7, 12096, Note_on_c, 12, 73, 127
7, 12144, Note_on_c, 12, 73, 0
7, 12144, Note_on_c, 12, 71, 127
7, 12192, Note_on_c, 12, 71, 0
7, 12192, Note_on_c, 12, 70, 127
7, 12240, Note_on_c, 12, 70, 0
7, 12240, Note_on_c, 12, 71, 127
7, 12288, Note_on_c, 12, 71, 0
7, 12288, Note_on_c, 12, 70, 127
7, 12312, Note_on_c, 12, 70, 0
7, 12312, Note_on_c, 12, 71, 127
7, 12480, Note_on_c, 12, 71, 0
7, 13056, Note_on_c, 12, 74, 127
7, 13080, Note_on_c, 12, 74, 0
7, 13080, Note_on_c, 12, 75, 127
7, 13248, Note_on_c, 12, 75, 0
7, 13824, Note_on_c, 12, 75, 127
7, 13848, Note_on_c, 12, 75, 0
7, 13848, Note_on_c, 12, 76, 127
7, 14016, Note_on_c, 12, 76, 0
7, 14592, Note_on_c, 12, 78, 127
7, 14616, Note_on_c, 12, 78, 0
7, 14616, Note_on_c, 12, 80, 127
7, 14784, Note_on_c, 12, 80, 0
7, 14976, Note_on_c, 12, 64, 127
7, 15024, Note_on_c, 12, 64, 0
7, 15024, Note_on_c, 12, 66, 127
7, 15072, Note_on_c, 12, 66, 0
7, 15072, Note_on_c, 12, 68, 127
7, 15120, Note_on_c, 12, 68, 0
7, 15120, Note_on_c, 12, 70, 127
7, 15168, Note_on_c, 12, 70, 0
7, 15168, Note_on_c, 12, 68, 127
7, 15216, Note_on_c, 12, 68, 0
7, 15216, Note_on_c, 12, 70, 127
7, 15264, Note_on_c, 12, 70, 0
7, 15264, Note_on_c, 12, 71, 127
7, 15312, Note_on_c, 12, 71, 0
7, 15312, Note_on_c, 12, 73, 127
7, 15360, Note_on_c, 12, 73, 0
7, 21120, Note_on_c, 12, 64, 127
7, 21168, Note_on_c, 12, 64, 0
7, 21168, Note_on_c, 12, 66, 127
7, 21216, Note_on_c, 12, 66, 0
7, 21216, Note_on_c, 12, 68, 127
7, 21264, Note_on_c, 12, 68, 0
7, 21264, Note_on_c, 12, 70, 127
7, 21312, Note_on_c, 12, 70, 0
7, 21312, Note_on_c, 12, 68, 127
7, 21360, Note_on_c, 12, 68, 0
7, 21360, Note_on_c, 12, 70, 127
7, 21408, Note_on_c, 12, 70, 0
7, 21408, Note_on_c, 12, 71, 127
7, 21456, Note_on_c, 12, 71, 0
7, 21456, Note_on_c, 12, 73, 127
7, 21504, Note_on_c, 12, 73, 0
7, 21504, Note_on_c, 12, 71, 127
7, 21528, Note_on_c, 12, 71, 0
7, 21528, Note_on_c, 12, 73, 127
7, 21696, Note_on_c, 12, 73, 0
7, 22272, Note_on_c, 12, 70, 127
7, 22296, Note_on_c, 12, 70, 0
7, 22296, Note_on_c, 12, 71, 127
7, 22464, Note_on_c, 12, 71, 0
7, 23040, Note_on_c, 12, 69, 127
7, 23064, Note_on_c, 12, 69, 0
7, 23064, Note_on_c, 12, 70, 127
7, 23232, Note_on_c, 12, 70, 0
7, 23808, Note_on_c, 12, 66, 127
7, 23832, Note_on_c, 12, 66, 0
7, 23832, Note_on_c, 12, 68, 127
7, 24000, Note_on_c, 12, 68, 0
7, 24192, Note_on_c, 12, 76, 127
7, 24240, Note_on_c, 12, 76, 0
7, 24240, Note_on_c, 12, 75, 127
7, 24288, Note_on_c, 12, 75, 0
7, 24288, Note_on_c, 12, 73, 127
7, 24336, Note_on_c, 12, 73, 0
7, 24336, Note_on_c, 12, 71, 127
7, 24384, Note_on_c, 12, 71, 0
7, 24384, Note_on_c, 12, 73, 127
7, 24432, Note_on_c, 12, 73, 0
7, 24432, Note_on_c, 12, 71, 127
7, 24480, Note_on_c, 12, 71, 0
7, 24480, Note_on_c, 12, 70, 127
7, 24528, Note_on_c, 12, 70, 0
7, 24528, Note_on_c, 12, 71, 127
7, 24576, Note_on_c, 12, 71, 0
7, 24576, Note_on_c, 12, 71, 127
7, 24600, Note_on_c, 12, 71, 0
7, 24600, Note_on_c, 12, 73, 127
7, 24768, Note_on_c, 12, 73, 0
7, 25344, Note_on_c, 12, 70, 127
7, 25368, Note_on_c, 12, 70, 0
7, 25368, Note_on_c, 12, 71, 127
7, 25536, Note_on_c, 12, 71, 0
7, 26112, Note_on_c, 12, 69, 127
7, 26136, Note_on_c, 12, 69, 0
7, 26136, Note_on_c, 12, 70, 127
7, 26304, Note_on_c, 12, 70, 0
7, 26880, Note_on_c, 12, 66, 127
7, 26904, Note_on_c, 12, 66, 0
7, 26904, Note_on_c, 12, 68, 127
7, 27072, Note_on_c, 12, 68, 0
7, 27264, Note_on_c, 12, 64, 127
7, 27312, Note_on_c, 12, 64, 0
7, 27312, Note_on_c, 12, 66, 127
7, 27360, Note_on_c, 12, 66, 0
7, 27360, Note_on_c, 12, 68, 127
7, 27408, Note_on_c, 12, 68, 0
7, 27408, Note_on_c, 12, 70, 127
7, 27456, Note_on_c, 12, 70, 0
7, 27456, Note_on_c, 12, 68, 127
7, 27504, Note_on_c, 12, 68, 0
7, 27504, Note_on_c, 12, 70, 127
7, 27552, Note_on_c, 12, 70, 0
7, 27552, Note_on_c, 12, 71, 127
7, 27600, Note_on_c, 12, 71, 0
7, 27600, Note_on_c, 12, 73, 127
7, 27648, Note_on_c, 12, 73, 0
7, 27648, Note_on_c, 12, 70, 127
7, 27672, Note_on_c, 12, 70, 0
7, 27672, Note_on_c, 12, 71, 127
7, 27840, Note_on_c, 12, 71, 0
7, 28416, Note_on_c, 12, 69, 127
7, 28440, Note_on_c, 12, 69, 0
7, 28440, Note_on_c, 12, 70, 127
7, 28608, Note_on_c, 12, 70, 0
7, 29184, Note_on_c, 12, 65, 127
7, 29208, Note_on_c, 12, 65, 0
7, 29208, Note_on_c, 12, 66, 127
7, 29376, Note_on_c, 12, 66, 0
7, 29952, Note_on_c, 12, 66, 127
7, 29976, Note_on_c, 12, 66, 0
7, 29976, Note_on_c, 12, 68, 127
7, 30144, Note_on_c, 12, 68, 0
7, 30336, Note_on_c, 12, 76, 127
7, 30384, Note_on_c, 12, 76, 0
7, 30384, Note_on_c, 12, 75, 127
7, 30432, Note_on_c, 12, 75, 0
7, 30432, Note_on_c, 12, 73, 127
7, 30480, Note_on_c, 12, 73, 0
7, 30480, Note_on_c, 12, 71, 127
7, 30528, Note_on_c, 12, 71, 0
7, 30528, Note_on_c, 12, 73, 127
7, 30576, Note_on_c, 12, 73, 0
7, 30576, Note_on_c, 12, 71, 127
7, 30624, Note_on_c, 12, 71, 0
7, 30624, Note_on_c, 12, 70, 127
7, 30672, Note_on_c, 12, 70, 0
7, 30672, Note_on_c, 12, 71, 127
7, 30720, Note_on_c, 12, 71, 0
7, 30720, Note_on_c, 12, 70, 127
7, 30744, Note_on_c, 12, 70, 0
7, 30744, Note_on_c, 12, 71, 127
7, 30912, Note_on_c, 12, 71, 0
7, 31488, Note_on_c, 12, 74, 127
7, 31512, Note_on_c, 12, 74, 0
7, 31512, Note_on_c, 12, 75, 127
7, 31680, Note_on_c, 12, 75, 0
7, 32256, Note_on_c, 12, 75, 127
7, 32280, Note_on_c, 12, 75, 0
7, 32280, Note_on_c, 12, 76, 127
7, 32448, Note_on_c, 12, 76, 0
7, 33024, Note_on_c, 12, 78, 127
7, 33048, Note_on_c, 12, 78, 0
7, 33048, Note_on_c, 12, 80, 127
7, 33216, Note_on_c, 12, 80, 0
7, 33408, Note_on_c, 12, 64, 127
7, 33456, Note_on_c, 12, 64, 0
7, 33456, Note_on_c, 12, 66, 127
7, 33504, Note_on_c, 12, 66, 0
7, 33504, Note_on_c, 12, 68, 127
7, 33552, Note_on_c, 12, 68, 0
7, 33552, Note_on_c, 12, 70, 127
7, 33600, Note_on_c, 12, 70, 0
7, 33600, Note_on_c, 12, 68, 127
7, 33648, Note_on_c, 12, 68, 0
7, 33648, Note_on_c, 12, 70, 127
7, 33696, Note_on_c, 12, 70, 0
7, 33696, Note_on_c, 12, 71, 127
7, 33744, Note_on_c, 12, 71, 0
7, 33744, Note_on_c, 12, 73, 127
7, 33792, Note_on_c, 12, 73, 0
7, 39552, Note_on_c, 12, 64, 127
7, 39600, Note_on_c, 12, 64, 0
7, 39600, Note_on_c, 12, 66, 127
7, 39648, Note_on_c, 12, 66, 0
7, 39648, Note_on_c, 12, 68, 127
7, 39696, Note_on_c, 12, 68, 0
7, 39696, Note_on_c, 12, 70, 127
7, 39744, Note_on_c, 12, 70, 0
7, 39744, Note_on_c, 12, 68, 127
7, 39792, Note_on_c, 12, 68, 0
7, 39792, Note_on_c, 12, 70, 127
7, 39840, Note_on_c, 12, 70, 0
7, 39840, Note_on_c, 12, 71, 127
7, 39888, Note_on_c, 12, 71, 0
7, 39888, Note_on_c, 12, 73, 127
7, 39936, Note_on_c, 12, 73, 0
7, 39936, Note_on_c, 12, 71, 127
7, 39960, Note_on_c, 12, 71, 0
7, 39960, Note_on_c, 12, 73, 127
7, 40128, Note_on_c, 12, 73, 0
7, 40704, Note_on_c, 12, 70, 127
7, 40728, Note_on_c, 12, 70, 0
7, 40728, Note_on_c, 12, 71, 127
7, 40896, Note_on_c, 12, 71, 0
7, 41472, Note_on_c, 12, 69, 127
7, 41496, Note_on_c, 12, 69, 0
7, 41496, Note_on_c, 12, 70, 127
7, 41664, Note_on_c, 12, 70, 0
7, 42240, Note_on_c, 12, 66, 127
7, 42264, Note_on_c, 12, 66, 0
7, 42264, Note_on_c, 12, 68, 127
7, 42432, Note_on_c, 12, 68, 0
7, 42624, Note_on_c, 12, 76, 127
7, 42672, Note_on_c, 12, 76, 0
7, 42672, Note_on_c, 12, 75, 127
7, 42720, Note_on_c, 12, 75, 0
7, 42720, Note_on_c, 12, 73, 127
7, 42768, Note_on_c, 12, 73, 0
7, 42768, Note_on_c, 12, 71, 127
7, 42816, Note_on_c, 12, 71, 0
7, 42816, Note_on_c, 12, 73, 127
7, 42864, Note_on_c, 12, 73, 0
7, 42864, Note_on_c, 12, 71, 127
7, 42912, Note_on_c, 12, 71, 0
7, 42912, Note_on_c, 12, 70, 127
7, 42960, Note_on_c, 12, 70, 0
7, 42960, Note_on_c, 12, 71, 127
7, 43008, Note_on_c, 12, 71, 0
7, 43008, Note_on_c, 12, 71, 127
7, 43032, Note_on_c, 12, 71, 0
7, 43032, Note_on_c, 12, 73, 127
7, 43200, Note_on_c, 12, 73, 0
7, 43776, Note_on_c, 12, 70, 127
7, 43800, Note_on_c, 12, 70, 0
7, 43800, Note_on_c, 12, 71, 127
7, 43968, Note_on_c, 12, 71, 0
7, 44544, Note_on_c, 12, 69, 127
7, 44568, Note_on_c, 12, 69, 0
7, 44568, Note_on_c, 12, 70, 127
7, 44736, Note_on_c, 12, 70, 0
7, 45312, Note_on_c, 12, 66, 127
7, 45336, Note_on_c, 12, 66, 0
7, 45336, Note_on_c, 12, 68, 127
7, 45504, Note_on_c, 12, 68, 0
7, 45696, Note_on_c, 12, 64, 127
7, 45744, Note_on_c, 12, 64, 0
7, 45744, Note_on_c, 12, 66, 127
7, 45792, Note_on_c, 12, 66, 0
7, 45792, Note_on_c, 12, 68, 127
7, 45840, Note_on_c, 12, 68, 0
7, 45840, Note_on_c, 12, 70, 127
7, 45888, Note_on_c, 12, 70, 0
7, 45888, Note_on_c, 12, 68, 127
7, 45936, Note_on_c, 12, 68, 0
7, 45936, Note_on_c, 12, 70, 127
7, 45984, Note_on_c, 12, 70, 0
7, 45984, Note_on_c, 12, 71, 127
7, 46032, Note_on_c, 12, 71, 0
7, 46032, Note_on_c, 12, 73, 127
7, 46080, Note_on_c, 12, 73, 0
7, 46080, Note_on_c, 12, 70, 127
7, 46104, Note_on_c, 12, 70, 0
7, 46104, Note_on_c, 12, 71, 127
7, 46272, Note_on_c, 12, 71, 0
7, 46848, Note_on_c, 12, 69, 127
7, 46872, Note_on_c, 12, 69, 0
7, 46872, Note_on_c, 12, 70, 127
7, 47040, Note_on_c, 12, 70, 0
7, 47616, Note_on_c, 12, 65, 127
7, 47640, Note_on_c, 12, 65, 0
7, 47640, Note_on_c, 12, 66, 127
7, 47808, Note_on_c, 12, 66, 0
7, 48384, Note_on_c, 12, 66, 127
7, 48408, Note_on_c, 12, 66, 0
7, 48408, Note_on_c, 12, 68, 127
7, 48576, Note_on_c, 12, 68, 0
7, 48768, Note_on_c, 12, 76, 127
7, 48816, Note_on_c, 12, 76, 0
7, 48816, Note_on_c, 12, 75, 127
7, 48864, Note_on_c, 12, 75, 0
7, 48864, Note_on_c, 12, 73, 127
7, 48912, Note_on_c, 12, 73, 0
7, 48912, Note_on_c, 12, 71, 127
7, 48960, Note_on_c, 12, 71, 0
7, 48960, Note_on_c, 12, 73, 127
7, 49008, Note_on_c, 12, 73, 0
7, 49008, Note_on_c, 12, 71, 127
7, 49056, Note_on_c, 12, 71, 0
7, 49056, Note_on_c, 12, 70, 127
7, 49104, Note_on_c, 12, 70, 0
7, 49104, Note_on_c, 12, 71, 127
7, 49152, Note_on_c, 12, 71, 0
7, 49152, Note_on_c, 12, 70, 127
7, 49176, Note_on_c, 12, 70, 0
7, 49176, Note_on_c, 12, 71, 127
7, 49344, Note_on_c, 12, 71, 0
7, 49920, Note_on_c, 12, 74, 127
7, 49944, Note_on_c, 12, 74, 0
7, 49944, Note_on_c, 12, 75, 127
7, 50112, Note_on_c, 12, 75, 0
7, 50688, Note_on_c, 12, 75, 127
7, 50712, Note_on_c, 12, 75, 0
7, 50712, Note_on_c, 12, 76, 127
7, 50880, Note_on_c, 12, 76, 0
7, 51456, Note_on_c, 12, 78, 127
7, 51480, Note_on_c, 12, 78, 0
7, 51480, Note_on_c, 12, 80, 127
7, 51648, Note_on_c, 12, 80, 0
7, 51840, Note_on_c, 12, 64, 127
7, 51888, Note_on_c, 12, 64, 0
7, 51888, Note_on_c, 12, 66, 127
7, 51936, Note_on_c, 12, 66, 0
7, 51936, Note_on_c, 12, 68, 127
7, 51984, Note_on_c, 12, 68, 0
7, 51984, Note_on_c, 12, 70, 127
7, 52032, Note_on_c, 12, 70, 0
7, 52032, Note_on_c, 12, 68, 127
7, 52080, Note_on_c, 12, 68, 0
7, 52080, Note_on_c, 12, 70, 127
7, 52128, Note_on_c, 12, 70, 0
7, 52128, Note_on_c, 12, 71, 127
7, 52176, Note_on_c, 12, 71, 0
7, 52176, Note_on_c, 12, 73, 127
7, 52224, Note_on_c, 12, 73, 0
7, 57984, Note_on_c, 12, 64, 127
7, 58032, Note_on_c, 12, 64, 0
7, 58032, Note_on_c, 12, 66, 127
7, 58080, Note_on_c, 12, 66, 0
7, 58080, Note_on_c, 12, 68, 127
7, 58128, Note_on_c, 12, 68, 0
7, 58128, Note_on_c, 12, 70, 127
7, 58176, Note_on_c, 12, 70, 0
7, 58176, Note_on_c, 12, 68, 127
7, 58224, Note_on_c, 12, 68, 0
7, 58224, Note_on_c, 12, 70, 127
7, 58272, Note_on_c, 12, 70, 0
7, 58272, Note_on_c, 12, 71, 127
7, 58320, Note_on_c, 12, 71, 0
7, 58320, Note_on_c, 12, 73, 127
7, 58368, Note_on_c, 12, 73, 0
7, 58368, Note_on_c, 12, 71, 127
7, 58392, Note_on_c, 12, 71, 0
7, 58392, Note_on_c, 12, 73, 127
7, 58560, Note_on_c, 12, 73, 0
7, 59136, Note_on_c, 12, 70, 127
7, 59160, Note_on_c, 12, 70, 0
7, 59160, Note_on_c, 12, 71, 127
7, 59328, Note_on_c, 12, 71, 0
7, 59904, Note_on_c, 12, 69, 127
7, 59928, Note_on_c, 12, 69, 0
7, 59928, Note_on_c, 12, 70, 127
7, 60096, Note_on_c, 12, 70, 0
7, 60672, Note_on_c, 12, 66, 127
7, 60696, Note_on_c, 12, 66, 0
7, 60696, Note_on_c, 12, 68, 127
7, 60864, Note_on_c, 12, 68, 0
7, 61056, Note_on_c, 12, 76, 127
7, 61104, Note_on_c, 12, 76, 0
7, 61104, Note_on_c, 12, 75, 127
7, 61152, Note_on_c, 12, 75, 0
7, 61152, Note_on_c, 12, 73, 127
7, 61200, Note_on_c, 12, 73, 0
7, 61200, Note_on_c, 12, 71, 127
7, 61248, Note_on_c, 12, 71, 0
7, 61248, Note_on_c, 12, 73, 127
7, 61296, Note_on_c, 12, 73, 0
7, 61296, Note_on_c, 12, 71, 127
7, 61344, Note_on_c, 12, 71, 0
7, 61344, Note_on_c, 12, 70, 127
7, 61392, Note_on_c, 12, 70, 0
7, 61392, Note_on_c, 12, 71, 127
7, 61440, Note_on_c, 12, 71, 0
7, 61440, Note_on_c, 12, 71, 127
7, 61464, Note_on_c, 12, 71, 0
7, 61464, Note_on_c, 12, 73, 127
7, 61632, Note_on_c, 12, 73, 0
7, 62208, Note_on_c, 12, 70, 127
7, 62232, Note_on_c, 12, 70, 0
7, 62232, Note_on_c, 12, 71, 127
7, 62400, Note_on_c, 12, 71, 0
7, 62976, Note_on_c, 12, 69, 127
7, 63000, Note_on_c, 12, 69, 0
7, 63000, Note_on_c, 12, 70, 127
7, 63168, Note_on_c, 12, 70, 0
7, 63744, Note_on_c, 12, 66, 127
7, 63768, Note_on_c, 12, 66, 0
7, 63768, Note_on_c, 12, 68, 127
7, 63936, Note_on_c, 12, 68, 0
7, 64128, Note_on_c, 12, 64, 127
7, 64176, Note_on_c, 12, 64, 0
7, 64176, Note_on_c, 12, 66, 127
7, 64224, Note_on_c, 12, 66, 0
7, 64224, Note_on_c, 12, 68, 127
7, 64272, Note_on_c, 12, 68, 0
7, 64272, Note_on_c, 12, 70, 127
7, 64320, Note_on_c, 12, 70, 0
7, 64320, Note_on_c, 12, 68, 127
7, 64368, Note_on_c, 12, 68, 0
7, 64368, Note_on_c, 12, 70, 127
7, 64416, Note_on_c, 12, 70, 0
7, 64416, Note_on_c, 12, 71, 127
7, 64464, Note_on_c, 12, 71, 0
7, 64464, Note_on_c, 12, 73, 127
7, 64512, Note_on_c, 12, 73, 0
7, 64512, Note_on_c, 12, 70, 127
7, 64536, Note_on_c, 12, 70, 0
7, 64536, Note_on_c, 12, 71, 127
7, 64704, Note_on_c, 12, 71, 0
7, 65280, Note_on_c, 12, 69, 127
7, 65304, Note_on_c, 12, 69, 0
7, 65304, Note_on_c, 12, 70, 127
7, 65472, Note_on_c, 12, 70, 0
7, 66048, Note_on_c, 12, 65, 127
7, 66072, Note_on_c, 12, 65, 0
7, 66072, Note_on_c, 12, 66, 127
7, 66240, Note_on_c, 12, 66, 0
7, 66816, Note_on_c, 12, 66, 127
7, 66840, Note_on_c, 12, 66, 0
7, 66840, Note_on_c, 12, 68, 127
7, 67008, Note_on_c, 12, 68, 0
7, 67200, Note_on_c, 12, 76, 127
7, 67248, Note_on_c, 12, 76, 0
7, 67248, Note_on_c, 12, 75, 127
7, 67296, Note_on_c, 12, 75, 0
7, 67296, Note_on_c, 12, 73, 127
7, 67344, Note_on_c, 12, 73, 0
7, 67344, Note_on_c, 12, 71, 127
7, 67392, Note_on_c, 12, 71, 0
7, 67392, Note_on_c, 12, 73, 127
7, 67440, Note_on_c, 12, 73, 0
7, 67440, Note_on_c, 12, 71, 127
7, 67488, Note_on_c, 12, 71, 0
7, 67488, Note_on_c, 12, 70, 127
7, 67536, Note_on_c, 12, 70, 0
7, 67536, Note_on_c, 12, 71, 127
7, 67584, Note_on_c, 12, 71, 0
7, 67584, Note_on_c, 12, 70, 127
7, 67608, Note_on_c, 12, 70, 0
7, 67608, Note_on_c, 12, 71, 127
7, 67776, Note_on_c, 12, 71, 0
7, 68352, Note_on_c, 12, 74, 127
7, 68376, Note_on_c, 12, 74, 0
7, 68376, Note_on_c, 12, 75, 127
7, 68544, Note_on_c, 12, 75, 0
7, 69120, Note_on_c, 12, 75, 127
7, 69144, Note_on_c, 12, 75, 0
7, 69144, Note_on_c, 12, 76, 127
7, 69312, Note_on_c, 12, 76, 0
7, 69888, Note_on_c, 12, 78, 127
7, 69912, Note_on_c, 12, 78, 0
7, 69912, Note_on_c, 12, 80, 127
7, 70080, Note_on_c, 12, 80, 0
7, 70272, Note_on_c, 12, 64, 127
7, 70320, Note_on_c, 12, 64, 0
7, 70320, Note_on_c, 12, 66, 127
7, 70368, Note_on_c, 12, 66, 0
7, 70368, Note_on_c, 12, 68, 127
7, 70416, Note_on_c, 12, 68, 0
7, 70416, Note_on_c, 12, 70, 127
7, 70464, Note_on_c, 12, 70, 0
7, 70464, Note_on_c, 12, 68, 127
7, 70512, Note_on_c, 12, 68, 0
7, 70512, Note_on_c, 12, 70, 127
7, 70560, Note_on_c, 12, 70, 0
7, 70560, Note_on_c, 12, 71, 127
7, 70608, Note_on_c, 12, 71, 0
7, 70608, Note_on_c, 12, 73, 127
7, 70656, Note_on_c, 12, 73, 0
7, 73752, Control_c, 12, 7, 126
7, 73776, Control_c, 12, 7, 125
7, 73800, Control_c, 12, 7, 124
7, 73824, Control_c, 12, 7, 123
7, 73848, Control_c, 12, 7, 122
7, 73873, Control_c, 12, 7, 121
7, 73897, Control_c, 12, 7, 120
7, 73921, Control_c, 12, 7, 119
7, 73945, Control_c, 12, 7, 118
7, 73969, Control_c, 12, 7, 117
7, 73994, Control_c, 12, 7, 116
7, 74018, Control_c, 12, 7, 115
7, 74042, Control_c, 12, 7, 114
7, 74066, Control_c, 12, 7, 113
7, 74090, Control_c, 12, 7, 112
7, 74115, Control_c, 12, 7, 111
7, 74139, Control_c, 12, 7, 110
7, 74163, Control_c, 12, 7, 109
7, 74187, Control_c, 12, 7, 108
7, 74211, Control_c, 12, 7, 107
7, 74235, Control_c, 12, 7, 106
7, 74260, Control_c, 12, 7, 105
7, 74284, Control_c, 12, 7, 104
7, 74308, Control_c, 12, 7, 103
7, 74332, Control_c, 12, 7, 102
7, 74356, Control_c, 12, 7, 101
7, 74381, Control_c, 12, 7, 100
7, 74405, Control_c, 12, 7, 99
7, 74429, Control_c, 12, 7, 98
7, 74453, Control_c, 12, 7, 97
7, 74477, Control_c, 12, 7, 96
7, 74502, Control_c, 12, 7, 95
7, 74526, Control_c, 12, 7, 94
7, 74550, Control_c, 12, 7, 93
7, 74574, Control_c, 12, 7, 92
7, 74598, Control_c, 12, 7, 91
7, 74622, Control_c, 12, 7, 90
7, 74647, Control_c, 12, 7, 89
7, 74671, Control_c, 12, 7, 88
7, 74695, Control_c, 12, 7, 87
7, 74719, Control_c, 12, 7, 86
7, 74743, Control_c, 12, 7, 85
7, 74768, Control_c, 12, 7, 84
7, 74792, Control_c, 12, 7, 83
7, 74816, Control_c, 12, 7, 82
7, 74840, Control_c, 12, 7, 81
7, 74864, Control_c, 12, 7, 80
7, 74889, Control_c, 12, 7, 79
7, 74913, Control_c, 12, 7, 78
7, 74937, Control_c, 12, 7, 77
7, 74961, Control_c, 12, 7, 76
7, 74985, Control_c, 12, 7, 75
7, 75010, Control_c, 12, 7, 74
7, 75034, Control_c, 12, 7, 73
7, 75058, Control_c, 12, 7, 72
7, 75082, Control_c, 12, 7, 71
7, 75106, Control_c, 12, 7, 70
7, 75130, Control_c, 12, 7, 69
7, 75155, Control_c, 12, 7, 68
7, 75179, Control_c, 12, 7, 67
7, 75203, Control_c, 12, 7, 66
7, 75227, Control_c, 12, 7, 65
7, 75251, Control_c, 12, 7, 64
7, 75276, Control_c, 12, 7, 63
7, 75300, Control_c, 12, 7, 62
7, 75324, Control_c, 12, 7, 61
7, 75348, Control_c, 12, 7, 60
7, 75372, Control_c, 12, 7, 59
7, 75397, Control_c, 12, 7, 58
7, 75421, Control_c, 12, 7, 57
7, 75445, Control_c, 12, 7, 56
7, 75469, Control_c, 12, 7, 55
7, 75493, Control_c, 12, 7, 54
7, 75517, Control_c, 12, 7, 53
7, 75542, Control_c, 12, 7, 52
7, 75566, Control_c, 12, 7, 51
7, 75590, Control_c, 12, 7, 50
7, 75614, Control_c, 12, 7, 49
7, 75638, Control_c, 12, 7, 48
7, 75663, Control_c, 12, 7, 47
7, 75687, Control_c, 12, 7, 46
7, 75711, Control_c, 12, 7, 45
7, 75735, Control_c, 12, 7, 44
7, 75759, Control_c, 12, 7, 43
7, 75784, Control_c, 12, 7, 42
7, 75808, Control_c, 12, 7, 41
7, 75832, Control_c, 12, 7, 40
7, 75856, Control_c, 12, 7, 39
7, 75880, Control_c, 12, 7, 38
7, 75905, Control_c, 12, 7, 37
7, 75929, Control_c, 12, 7, 36
7, 75953, Control_c, 12, 7, 35
7, 75977, Control_c, 12, 7, 34
7, 76001, Control_c, 12, 7, 33
7, 76025, Control_c, 12, 7, 32
7, 76050, Control_c, 12, 7, 31
7, 76074, Control_c, 12, 7, 30
7, 76098, Control_c, 12, 7, 29
7, 76122, Control_c, 12, 7, 28
7, 76146, Control_c, 12, 7, 27
7, 76171, Control_c, 12, 7, 26
7, 76195, Control_c, 12, 7, 25
7, 76219, Control_c, 12, 7, 24
7, 76243, Control_c, 12, 7, 23
7, 76267, Control_c, 12, 7, 22
7, 76292, Control_c, 12, 7, 21
7, 76316, Control_c, 12, 7, 20
7, 76340, Control_c, 12, 7, 19
7, 76364, Control_c, 12, 7, 18
7, 76388, Control_c, 12, 7, 17
7, 76412, Control_c, 12, 7, 16
7, 76416, Note_on_c, 12, 64, 26
7, 76437, Control_c, 12, 7, 15
7, 76461, Control_c, 12, 7, 14
7, 76464, Note_on_c, 12, 64, 0
7, 76464, Note_on_c, 12, 66, 24
7, 76485, Control_c, 12, 7, 13
7, 76509, Control_c, 12, 7, 12
7, 76512, Note_on_c, 12, 66, 0
7, 76512, Note_on_c, 12, 68, 22
7, 76533, Control_c, 12, 7, 11
7, 76558, Control_c, 12, 7, 10
7, 76560, Note_on_c, 12, 68, 0
7, 76560, Note_on_c, 12, 70, 20
7, 76582, Control_c, 12, 7, 9
7, 76606, Control_c, 12, 7, 8
7, 76608, Note_on_c, 12, 70, 0
7, 76608, Note_on_c, 12, 68, 18
7, 76630, Control_c, 12, 7, 7
7, 76654, Control_c, 12, 7, 6
7, 76656, Note_on_c, 12, 68, 0
7, 76656, Note_on_c, 12, 70, 16
7, 76679, Control_c, 12, 7, 5
7, 76703, Control_c, 12, 7, 4
7, 76704, Note_on_c, 12, 70, 0
7, 76704, Note_on_c, 12, 71, 14
7, 76727, Control_c, 12, 7, 3
7, 76751, Control_c, 12, 7, 2
7, 76752, Note_on_c, 12, 71, 0
7, 76752, Note_on_c, 12, 73, 12
7, 76775, Control_c, 12, 7, 1
7, 76799, Control_c, 12, 7, 0
7, 76800, Note_on_c, 12, 73, 0
7, 76800, Control_c, 12, 7, 0
7, 76800, End_track
8, 0, Start_track
8, 0, MIDI_port, 0
8, 0, Title_t, "Staff-7"
8, 0, Program_c, 14, 29
8, 0, Control_c, 14, 7, 127
8, 0, Control_c, 14, 10, 64
8, 0, Control_c, 14, 7, 75
8, 2736, Note_on_c, 14, 64, 127
8, 2784, Note_on_c, 14, 64, 0
8, 2784, Note_on_c, 14, 66, 127
8, 2832, Note_on_c, 14, 66, 0
8, 2832, Note_on_c, 14, 68, 127
8, 2880, Note_on_c, 14, 68, 0
8, 2880, Note_on_c, 14, 70, 127
8, 2928, Note_on_c, 14, 70, 0
8, 2928, Note_on_c, 14, 68, 127
8, 2976, Note_on_c, 14, 68, 0
8, 2976, Note_on_c, 14, 70, 127
8, 3024, Note_on_c, 14, 70, 0
8, 3024, Note_on_c, 14, 71, 127
8, 3072, Note_on_c, 14, 71, 0
8, 3072, Note_on_c, 14, 73, 127
8, 3120, Note_on_c, 14, 73, 0
8, 3120, Note_on_c, 14, 71, 127
8, 3144, Note_on_c, 14, 71, 0
8, 3144, Note_on_c, 14, 73, 127
8, 3312, Note_on_c, 14, 73, 0
8, 3888, Note_on_c, 14, 70, 127
8, 3912, Note_on_c, 14, 70, 0
8, 3912, Note_on_c, 14, 71, 127
8, 4080, Note_on_c, 14, 71, 0
8, 4656, Note_on_c, 14, 69, 127
8, 4680, Note_on_c, 14, 69, 0
8, 4680, Note_on_c, 14, 70, 127
8, 4848, Note_on_c, 14, 70, 0
8, 5424, Note_on_c, 14, 66, 127
8, 5448, Note_on_c, 14, 66, 0
8, 5448, Note_on_c, 14, 68, 127
8, 5616, Note_on_c, 14, 68, 0
8, 5808, Note_on_c, 14, 76, 127
8, 5856, Note_on_c, 14, 76, 0
8, 5856, Note_on_c, 14, 75, 127
8, 5904, Note_on_c, 14, 75, 0
8, 5904, Note_on_c, 14, 73, 127
8, 5952, Note_on_c, 14, 73, 0
8, 5952, Note_on_c, 14, 71, 127
8, 6000, Note_on_c, 14, 71, 0
8, 6000, Note_on_c, 14, 73, 127
8, 6048, Note_on_c, 14, 73, 0
8, 6048, Note_on_c, 14, 71, 127
8, 6096, Note_on_c, 14, 71, 0
8, 6096, Note_on_c, 14, 70, 127
8, 6144, Note_on_c, 14, 70, 0
8, 6144, Note_on_c, 14, 71, 127
8, 6192, Note_on_c, 14, 71, 0
8, 6192, Note_on_c, 14, 71, 127
8, 6216, Note_on_c, 14, 71, 0
8, 6216, Note_on_c, 14, 73, 127
8, 6384, Note_on_c, 14, 73, 0
8, 6960, Note_on_c, 14, 70, 127
8, 6984, Note_on_c, 14, 70, 0
8, 6984, Note_on_c, 14, 71, 127
8, 7152, Note_on_c, 14, 71, 0
8, 7728, Note_on_c, 14, 69, 127
8, 7752, Note_on_c, 14, 69, 0
8, 7752, Note_on_c, 14, 70, 127
8, 7920, Note_on_c, 14, 70, 0
8, 8496, Note_on_c, 14, 66, 127
8, 8520, Note_on_c, 14, 66, 0
8, 8520, Note_on_c, 14, 68, 127
8, 8688, Note_on_c, 14, 68, 0
8, 8880, Note_on_c, 14, 64, 127
8, 8928, Note_on_c, 14, 64, 0
8, 8928, Note_on_c, 14, 66, 127
8, 8976, Note_on_c, 14, 66, 0
8, 8976, Note_on_c, 14, 68, 127
8, 9024, Note_on_c, 14, 68, 0
8, 9024, Note_on_c, 14, 70, 127
8, 9072, Note_on_c, 14, 70, 0
8, 9072, Note_on_c, 14, 68, 127
8, 9120, Note_on_c, 14, 68, 0
8, 9120, Note_on_c, 14, 70, 127
8, 9168, Note_on_c, 14, 70, 0
8, 9168, Note_on_c, 14, 71, 127
8, 9216, Note_on_c, 14, 71, 0
8, 9216, Note_on_c, 14, 73, 127
8, 9264, Note_on_c, 14, 73, 0
8, 9264, Note_on_c, 14, 70, 127
8, 9288, Note_on_c, 14, 70, 0
8, 9288, Note_on_c, 14, 71, 127
8, 9456, Note_on_c, 14, 71, 0
8, 10032, Note_on_c, 14, 69, 127
8, 10056, Note_on_c, 14, 69, 0
8, 10056, Note_on_c, 14, 70, 127
8, 10224, Note_on_c, 14, 70, 0
8, 10800, Note_on_c, 14, 65, 127
8, 10824, Note_on_c, 14, 65, 0
8, 10824, Note_on_c, 14, 66, 127
8, 10992, Note_on_c, 14, 66, 0
8, 11568, Note_on_c, 14, 66, 127
8, 11592, Note_on_c, 14, 66, 0
8, 11592, Note_on_c, 14, 68, 127
8, 11760, Note_on_c, 14, 68, 0
8, 11952, Note_on_c, 14, 76, 127
8, 12000, Note_on_c, 14, 76, 0
8, 12000, Note_on_c, 14, 75, 127
8, 12048, Note_on_c, 14, 75, 0
8, 12048, Note_on_c, 14, 73, 127
8, 12096, Note_on_c, 14, 73, 0
8, 12096, Note_on_c, 14, 71, 127
8, 12144, Note_on_c, 14, 71, 0
8, 12144, Note_on_c, 14, 73, 127
8, 12192, Note_on_c, 14, 73, 0
8, 12192, Note_on_c, 14, 71, 127
8, 12240, Note_on_c, 14, 71, 0
8, 12240, Note_on_c, 14, 70, 127
8, 12288, Note_on_c, 14, 70, 0
8, 12288, Note_on_c, 14, 71, 127
8, 12336, Note_on_c, 14, 71, 0
8, 12336, Note_on_c, 14, 70, 127
8, 12360, Note_on_c, 14, 70, 0
8, 12360, Note_on_c, 14, 71, 127
8, 12528, Note_on_c, 14, 71, 0
8, 13104, Note_on_c, 14, 74, 127
8, 13128, Note_on_c, 14, 74, 0
8, 13128, Note_on_c, 14, 75, 127
8, 13296, Note_on_c, 14, 75, 0
8, 13872, Note_on_c, 14, 75, 127
8, 13896, Note_on_c, 14, 75, 0
8, 13896, Note_on_c, 14, 76, 127
8, 14064, Note_on_c, 14, 76, 0
8, 14640, Note_on_c, 14, 78, 127
8, 14664, Note_on_c, 14, 78, 0
8, 14664, Note_on_c, 14, 80, 127
8, 14832, Note_on_c, 14, 80, 0
8, 15024, Note_on_c, 14, 64, 127
8, 15072, Note_on_c, 14, 64, 0
8, 15072, Note_on_c, 14, 66, 127
8, 15120, Note_on_c, 14, 66, 0
8, 15120, Note_on_c, 14, 68, 127
8, 15168, Note_on_c, 14, 68, 0
8, 15168, Note_on_c, 14, 70, 127
8, 15216, Note_on_c, 14, 70, 0
8, 15216, Note_on_c, 14, 68, 127
8, 15264, Note_on_c, 14, 68, 0
8, 15264, Note_on_c, 14, 70, 127
8, 15312, Note_on_c, 14, 70, 0
8, 15312, Note_on_c, 14, 71, 127
8, 15360, Note_on_c, 14, 71, 0
8, 15360, Note_on_c, 14, 73, 127
8, 15408, Note_on_c, 14, 73, 0
8, 21168, Note_on_c, 14, 64, 127
8, 21216, Note_on_c, 14, 64, 0
8, 21216, Note_on_c, 14, 66, 127
8, 21264, Note_on_c, 14, 66, 0
8, 21264, Note_on_c, 14, 68, 127
8, 21312, Note_on_c, 14, 68, 0
8, 21312, Note_on_c, 14, 70, 127
8, 21360, Note_on_c, 14, 70, 0
8, 21360, Note_on_c, 14, 68, 127
8, 21408, Note_on_c, 14, 68, 0
8, 21408, Note_on_c, 14, 70, 127
8, 21456, Note_on_c, 14, 70, 0
8, 21456, Note_on_c, 14, 71, 127
8, 21504, Note_on_c, 14, 71, 0
8, 21504, Note_on_c, 14, 73, 127
8, 21552, Note_on_c, 14, 73, 0
8, 21552, Note_on_c, 14, 71, 127
8, 21576, Note_on_c, 14, 71, 0
8, 21576, Note_on_c, 14, 73, 127
8, 21744, Note_on_c, 14, 73, 0
8, 22320, Note_on_c, 14, 70, 127
8, 22344, Note_on_c, 14, 70, 0
8, 22344, Note_on_c, 14, 71, 127
8, 22512, Note_on_c, 14, 71, 0
8, 23088, Note_on_c, 14, 69, 127
8, 23112, Note_on_c, 14, 69, 0
8, 23112, Note_on_c, 14, 70, 127
8, 23280, Note_on_c, 14, 70, 0
8, 23856, Note_on_c, 14, 66, 127
8, 23880, Note_on_c, 14, 66, 0
8, 23880, Note_on_c, 14, 68, 127
8, 24048, Note_on_c, 14, 68, 0
8, 24240, Note_on_c, 14, 76, 127
8, 24288, Note_on_c, 14, 76, 0
8, 24288, Note_on_c, 14, 75, 127
8, 24336, Note_on_c, 14, 75, 0
8, 24336, Note_on_c, 14, 73, 127
8, 24384, Note_on_c, 14, 73, 0
8, 24384, Note_on_c, 14, 71, 127
8, 24432, Note_on_c, 14, 71, 0
8, 24432, Note_on_c, 14, 73, 127
8, 24480, Note_on_c, 14, 73, 0
8, 24480, Note_on_c, 14, 71, 127
8, 24528, Note_on_c, 14, 71, 0
8, 24528, Note_on_c, 14, 70, 127
8, 24576, Note_on_c, 14, 70, 0
8, 24576, Note_on_c, 14, 71, 127
8, 24624, Note_on_c, 14, 71, 0
8, 24624, Note_on_c, 14, 71, 127
8, 24648, Note_on_c, 14, 71, 0
8, 24648, Note_on_c, 14, 73, 127
8, 24816, Note_on_c, 14, 73, 0
8, 25392, Note_on_c, 14, 70, 127
8, 25416, Note_on_c, 14, 70, 0
8, 25416, Note_on_c, 14, 71, 127
8, 25584, Note_on_c, 14, 71, 0
8, 26160, Note_on_c, 14, 69, 127
8, 26184, Note_on_c, 14, 69, 0
8, 26184, Note_on_c, 14, 70, 127
8, 26352, Note_on_c, 14, 70, 0
8, 26928, Note_on_c, 14, 66, 127
8, 26952, Note_on_c, 14, 66, 0
8, 26952, Note_on_c, 14, 68, 127
8, 27120, Note_on_c, 14, 68, 0
8, 27312, Note_on_c, 14, 64, 127
8, 27360, Note_on_c, 14, 64, 0
8, 27360, Note_on_c, 14, 66, 127
8, 27408, Note_on_c, 14, 66, 0
8, 27408, Note_on_c, 14, 68, 127
8, 27456, Note_on_c, 14, 68, 0
8, 27456, Note_on_c, 14, 70, 127
8, 27504, Note_on_c, 14, 70, 0
8, 27504, Note_on_c, 14, 68, 127
8, 27552, Note_on_c, 14, 68, 0
8, 27552, Note_on_c, 14, 70, 127
8, 27600, Note_on_c, 14, 70, 0
8, 27600, Note_on_c, 14, 71, 127
8, 27648, Note_on_c, 14, 71, 0
8, 27648, Note_on_c, 14, 73, 127
8, 27696, Note_on_c, 14, 73, 0
8, 27696, Note_on_c, 14, 70, 127
8, 27720, Note_on_c, 14, 70, 0
8, 27720, Note_on_c, 14, 71, 127
8, 27888, Note_on_c, 14, 71, 0
8, 28464, Note_on_c, 14, 69, 127
8, 28488, Note_on_c, 14, 69, 0
8, 28488, Note_on_c, 14, 70, 127
8, 28656, Note_on_c, 14, 70, 0
8, 29232, Note_on_c, 14, 65, 127
8, 29256, Note_on_c, 14, 65, 0
8, 29256, Note_on_c, 14, 66, 127
8, 29424, Note_on_c, 14, 66, 0
8, 30000, Note_on_c, 14, 66, 127
8, 30024, Note_on_c, 14, 66, 0
8, 30024, Note_on_c, 14, 68, 127
8, 30192, Note_on_c, 14, 68, 0
8, 30384, Note_on_c, 14, 76, 127
8, 30432, Note_on_c, 14, 76, 0
8, 30432, Note_on_c, 14, 75, 127
8, 30480, Note_on_c, 14, 75, 0
8, 30480, Note_on_c, 14, 73, 127
8, 30528, Note_on_c, 14, 73, 0
8, 30528, Note_on_c, 14, 71, 127
8, 30576, Note_on_c, 14, 71, 0
8, 30576, Note_on_c, 14, 73, 127
8, 30624, Note_on_c, 14, 73, 0
8, 30624, Note_on_c, 14, 71, 127
8, 30672, Note_on_c, 14, 71, 0
8, 30672, Note_on_c, 14, 70, 127
8, 30720, Note_on_c, 14, 70, 0
8, 30720, Note_on_c, 14, 71, 127
8, 30768, Note_on_c, 14, 71, 0
8, 30768, Note_on_c, 14, 70, 127
8, 30792, Note_on_c, 14, 70, 0
8, 30792, Note_on_c, 14, 71, 127
8, 30960, Note_on_c, 14, 71, 0
8, 31536, Note_on_c, 14, 74, 127
8, 31560, Note_on_c, 14, 74, 0
8, 31560, Note_on_c, 14, 75, 127
8, 31728, Note_on_c, 14, 75, 0
8, 32304, Note_on_c, 14, 75, 127
8, 32328, Note_on_c, 14, 75, 0
8, 32328, Note_on_c, 14, 76, 127
8, 32496, Note_on_c, 14, 76, 0
8, 33072, Note_on_c, 14, 78, 127
8, 33096, Note_on_c, 14, 78, 0
8, 33096, Note_on_c, 14, 80, 127
8, 33264, Note_on_c, 14, 80, 0
8, 33456, Note_on_c, 14, 64, 127
8, 33504, Note_on_c, 14, 64, 0
8, 33504, Note_on_c, 14, 66, 127
8, 33552, Note_on_c, 14, 66, 0
8, 33552, Note_on_c, 14, 68, 127
8, 33600, Note_on_c, 14, 68, 0
8, 33600, Note_on_c, 14, 70, 127
8, 33648, Note_on_c, 14, 70, 0
8, 33648, Note_on_c, 14, 68, 127
8, 33696, Note_on_c, 14, 68, 0
8, 33696, Note_on_c, 14, 70, 127
8, 33744, Note_on_c, 14, 70, 0
8, 33744, Note_on_c, 14, 71, 127
8, 33792, Note_on_c, 14, 71, 0
8, 33792, Note_on_c, 14, 73, 127
8, 33840, Note_on_c, 14, 73, 0
8, 39600, Note_on_c, 14, 64, 127
8, 39648, Note_on_c, 14, 64, 0
8, 39648, Note_on_c, 14, 66, 127
8, 39696, Note_on_c, 14, 66, 0
8, 39696, Note_on_c, 14, 68, 127
8, 39744, Note_on_c, 14, 68, 0
8, 39744, Note_on_c, 14, 70, 127
8, 39792, Note_on_c, 14, 70, 0
8, 39792, Note_on_c, 14, 68, 127
8, 39840, Note_on_c, 14, 68, 0
8, 39840, Note_on_c, 14, 70, 127
8, 39888, Note_on_c, 14, 70, 0
8, 39888, Note_on_c, 14, 71, 127
8, 39936, Note_on_c, 14, 71, 0
8, 39936, Note_on_c, 14, 73, 127
8, 39984, Note_on_c, 14, 73, 0
8, 39984, Note_on_c, 14, 71, 127
8, 40008, Note_on_c, 14, 71, 0
8, 40008, Note_on_c, 14, 73, 127
8, 40176, Note_on_c, 14, 73, 0
8, 40752, Note_on_c, 14, 70, 127
8, 40776, Note_on_c, 14, 70, 0
8, 40776, Note_on_c, 14, 71, 127
8, 40944, Note_on_c, 14, 71, 0
8, 41520, Note_on_c, 14, 69, 127
8, 41544, Note_on_c, 14, 69, 0
8, 41544, Note_on_c, 14, 70, 127
8, 41712, Note_on_c, 14, 70, 0
8, 42288, Note_on_c, 14, 66, 127
8, 42312, Note_on_c, 14, 66, 0
8, 42312, Note_on_c, 14, 68, 127
8, 42480, Note_on_c, 14, 68, 0
8, 42672, Note_on_c, 14, 76, 127
8, 42720, Note_on_c, 14, 76, 0
8, 42720, Note_on_c, 14, 75, 127
8, 42768, Note_on_c, 14, 75, 0
8, 42768, Note_on_c, 14, 73, 127
8, 42816, Note_on_c, 14, 73, 0
8, 42816, Note_on_c, 14, 71, 127
8, 42864, Note_on_c, 14, 71, 0
8, 42864, Note_on_c, 14, 73, 127
8, 42912, Note_on_c, 14, 73, 0
8, 42912, Note_on_c, 14, 71, 127
8, 42960, Note_on_c, 14, 71, 0
8, 42960, Note_on_c, 14, 70, 127
8, 43008, Note_on_c, 14, 70, 0
8, 43008, Note_on_c, 14, 71, 127
8, 43056, Note_on_c, 14, 71, 0
8, 43056, Note_on_c, 14, 71, 127
8, 43080, Note_on_c, 14, 71, 0
8, 43080, Note_on_c, 14, 73, 127
8, 43248, Note_on_c, 14, 73, 0
8, 43824, Note_on_c, 14, 70, 127
8, 43848, Note_on_c, 14, 70, 0
8, 43848, Note_on_c, 14, 71, 127
8, 44016, Note_on_c, 14, 71, 0
8, 44592, Note_on_c, 14, 69, 127
8, 44616, Note_on_c, 14, 69, 0
8, 44616, Note_on_c, 14, 70, 127
8, 44784, Note_on_c, 14, 70, 0
8, 45360, Note_on_c, 14, 66, 127
8, 45384, Note_on_c, 14, 66, 0
8, 45384, Note_on_c, 14, 68, 127
8, 45552, Note_on_c, 14, 68, 0
8, 45744, Note_on_c, 14, 64, 127
8, 45792, Note_on_c, 14, 64, 0
8, 45792, Note_on_c, 14, 66, 127
8, 45840, Note_on_c, 14, 66, 0
8, 45840, Note_on_c, 14, 68, 127
8, 45888, Note_on_c, 14, 68, 0
8, 45888, Note_on_c, 14, 70, 127
8, 45936, Note_on_c, 14, 70, 0
8, 45936, Note_on_c, 14, 68, 127
8, 45984, Note_on_c, 14, 68, 0
8, 45984, Note_on_c, 14, 70, 127
8, 46032, Note_on_c, 14, 70, 0
8, 46032, Note_on_c, 14, 71, 127
8, 46080, Note_on_c, 14, 71, 0
8, 46080, Note_on_c, 14, 73, 127
8, 46128, Note_on_c, 14, 73, 0
8, 46128, Note_on_c, 14, 70, 127
8, 46152, Note_on_c, 14, 70, 0
8, 46152, Note_on_c, 14, 71, 127
8, 46320, Note_on_c, 14, 71, 0
8, 46896, Note_on_c, 14, 69, 127
8, 46920, Note_on_c, 14, 69, 0
8, 46920, Note_on_c, 14, 70, 127
8, 47088, Note_on_c, 14, 70, 0
8, 47664, Note_on_c, 14, 65, 127
8, 47688, Note_on_c, 14, 65, 0
8, 47688, Note_on_c, 14, 66, 127
8, 47856, Note_on_c, 14, 66, 0
8, 48432, Note_on_c, 14, 66, 127
8, 48456, Note_on_c, 14, 66, 0
8, 48456, Note_on_c, 14, 68, 127
8, 48624, Note_on_c, 14, 68, 0
8, 48816, Note_on_c, 14, 76, 127
8, 48864, Note_on_c, 14, 76, 0
8, 48864, Note_on_c, 14, 75, 127
8, 48912, Note_on_c, 14, 75, 0
8, 48912, Note_on_c, 14, 73, 127
8, 48960, Note_on_c, 14, 73, 0
8, 48960, Note_on_c, 14, 71, 127
8, 49008, Note_on_c, 14, 71, 0
8, 49008, Note_on_c, 14, 73, 127
8, 49056, Note_on_c, 14, 73, 0
8, 49056, Note_on_c, 14, 71, 127
8, 49104, Note_on_c, 14, 71, 0
8, 49104, Note_on_c, 14, 70, 127
8, 49152, Note_on_c, 14, 70, 0
8, 49152, Note_on_c, 14, 71, 127
8, 49200, Note_on_c, 14, 71, 0
8, 49200, Note_on_c, 14, 70, 127
8, 49224, Note_on_c, 14, 70, 0
8, 49224, Note_on_c, 14, 71, 127
8, 49392, Note_on_c, 14, 71, 0
8, 49968, Note_on_c, 14, 74, 127
8, 49992, Note_on_c, 14, 74, 0
8, 49992, Note_on_c, 14, 75, 127
8, 50160, Note_on_c, 14, 75, 0
8, 50736, Note_on_c, 14, 75, 127
8, 50760, Note_on_c, 14, 75, 0
8, 50760, Note_on_c, 14, 76, 127
8, 50928, Note_on_c, 14, 76, 0
8, 51504, Note_on_c, 14, 78, 127
8, 51528, Note_on_c, 14, 78, 0
8, 51528, Note_on_c, 14, 80, 127
8, 51696, Note_on_c, 14, 80, 0
8, 51888, Note_on_c, 14, 64, 127
8, 51936, Note_on_c, 14, 64, 0
8, 51936, Note_on_c, 14, 66, 127
8, 51984, Note_on_c, 14, 66, 0
8, 51984, Note_on_c, 14, 68, 127
8, 52032, Note_on_c, 14, 68, 0
8, 52032, Note_on_c, 14, 70, 127
8, 52080, Note_on_c, 14, 70, 0
8, 52080, Note_on_c, 14, 68, 127
8, 52128, Note_on_c, 14, 68, 0
8, 52128, Note_on_c, 14, 70, 127
8, 52176, Note_on_c, 14, 70, 0
8, 52176, Note_on_c, 14, 71, 127
8, 52224, Note_on_c, 14, 71, 0
8, 52224, Note_on_c, 14, 73, 127
8, 52272, Note_on_c, 14, 73, 0
8, 58032, Note_on_c, 14, 64, 127
8, 58080, Note_on_c, 14, 64, 0
8, 58080, Note_on_c, 14, 66, 127
8, 58128, Note_on_c, 14, 66, 0
8, 58128, Note_on_c, 14, 68, 127
8, 58176, Note_on_c, 14, 68, 0
8, 58176, Note_on_c, 14, 70, 127
8, 58224, Note_on_c, 14, 70, 0
8, 58224, Note_on_c, 14, 68, 127
8, 58272, Note_on_c, 14, 68, 0
8, 58272, Note_on_c, 14, 70, 127
8, 58320, Note_on_c, 14, 70, 0
8, 58320, Note_on_c, 14, 71, 127
8, 58368, Note_on_c, 14, 71, 0
8, 58368, Note_on_c, 14, 73, 127
8, 58416, Note_on_c, 14, 73, 0
8, 58416, Note_on_c, 14, 71, 127
8, 58440, Note_on_c, 14, 71, 0
8, 58440, Note_on_c, 14, 73, 127
8, 58608, Note_on_c, 14, 73, 0
8, 59184, Note_on_c, 14, 70, 127
8, 59208, Note_on_c, 14, 70, 0
8, 59208, Note_on_c, 14, 71, 127
8, 59376, Note_on_c, 14, 71, 0
8, 59952, Note_on_c, 14, 69, 127
8, 59976, Note_on_c, 14, 69, 0
8, 59976, Note_on_c, 14, 70, 127
8, 60144, Note_on_c, 14, 70, 0
8, 60720, Note_on_c, 14, 66, 127
8, 60744, Note_on_c, 14, 66, 0
8, 60744, Note_on_c, 14, 68, 127
8, 60912, Note_on_c, 14, 68, 0
8, 61104, Note_on_c, 14, 76, 127
8, 61152, Note_on_c, 14, 76, 0
8, 61152, Note_on_c, 14, 75, 127
8, 61200, Note_on_c, 14, 75, 0
8, 61200, Note_on_c, 14, 73, 127
8, 61248, Note_on_c, 14, 73, 0
8, 61248, Note_on_c, 14, 71, 127
8, 61296, Note_on_c, 14, 71, 0
8, 61296, Note_on_c, 14, 73, 127
8, 61344, Note_on_c, 14, 73, 0
8, 61344, Note_on_c, 14, 71, 127
8, 61392, Note_on_c, 14, 71, 0
8, 61392, Note_on_c, 14, 70, 127
8, 61440, Note_on_c, 14, 70, 0
8, 61440, Note_on_c, 14, 71, 127
8, 61488, Note_on_c, 14, 71, 0
8, 61488, Note_on_c, 14, 71, 127
8, 61512, Note_on_c, 14, 71, 0
8, 61512, Note_on_c, 14, 73, 127
8, 61680, Note_on_c, 14, 73, 0
8, 62256, Note_on_c, 14, 70, 127
8, 62280, Note_on_c, 14, 70, 0
8, 62280, Note_on_c, 14, 71, 127
8, 62448, Note_on_c, 14, 71, 0
8, 63024, Note_on_c, 14, 69, 127
8, 63048, Note_on_c, 14, 69, 0
8, 63048, Note_on_c, 14, 70, 127
8, 63216, Note_on_c, 14, 70, 0
8, 63792, Note_on_c, 14, 66, 127
8, 63816, Note_on_c, 14, 66, 0
8, 63816, Note_on_c, 14, 68, 127
8, 63984, Note_on_c, 14, 68, 0
8, 64176, Note_on_c, 14, 64, 127
8, 64224, Note_on_c, 14, 64, 0
8, 64224, Note_on_c, 14, 66, 127
8, 64272, Note_on_c, 14, 66, 0
8, 64272, Note_on_c, 14, 68, 127
8, 64320, Note_on_c, 14, 68, 0
8, 64320, Note_on_c, 14, 70, 127
8, 64368, Note_on_c, 14, 70, 0
8, 64368, Note_on_c, 14, 68, 127
8, 64416, Note_on_c, 14, 68, 0
8, 64416, Note_on_c, 14, 70, 127
8, 64464, Note_on_c, 14, 70, 0
8, 64464, Note_on_c, 14, 71, 127
8, 64512, Note_on_c, 14, 71, 0
8, 64512, Note_on_c, 14, 73, 127
8, 64560, Note_on_c, 14, 73, 0
8, 64560, Note_on_c, 14, 70, 127
8, 64584, Note_on_c, 14, 70, 0
8, 64584, Note_on_c, 14, 71, 127
8, 64752, Note_on_c, 14, 71, 0
8, 65328, Note_on_c, 14, 69, 127
8, 65352, Note_on_c, 14, 69, 0
8, 65352, Note_on_c, 14, 70, 127
8, 65520, Note_on_c, 14, 70, 0
8, 66096, Note_on_c, 14, 65, 127
8, 66120, Note_on_c, 14, 65, 0
8, 66120, Note_on_c, 14, 66, 127
8, 66288, Note_on_c, 14, 66, 0
8, 66864, Note_on_c, 14, 66, 127
8, 66888, Note_on_c, 14, 66, 0
8, 66888, Note_on_c, 14, 68, 127
8, 67056, Note_on_c, 14, 68, 0
8, 67248, Note_on_c, 14, 76, 127
8, 67296, Note_on_c, 14, 76, 0
8, 67296, Note_on_c, 14, 75, 127
8, 67344, Note_on_c, 14, 75, 0
8, 67344, Note_on_c, 14, 73, 127
8, 67392, Note_on_c, 14, 73, 0
8, 67392, Note_on_c, 14, 71, 127
8, 67440, Note_on_c, 14, 71, 0
8, 67440, Note_on_c, 14, 73, 127
8, 67488, Note_on_c, 14, 73, 0
8, 67488, Note_on_c, 14, 71, 127
8, 67536, Note_on_c, 14, 71, 0
8, 67536, Note_on_c, 14, 70, 127
8, 67584, Note_on_c, 14, 70, 0
8, 67584, Note_on_c, 14, 71, 127
8, 67632, Note_on_c, 14, 71, 0
8, 67632, Note_on_c, 14, 70, 127
8, 67656, Note_on_c, 14, 70, 0
8, 67656, Note_on_c, 14, 71, 127
8, 67824, Note_on_c, 14, 71, 0
8, 68400, Note_on_c, 14, 74, 127
8, 68424, Note_on_c, 14, 74, 0
8, 68424, Note_on_c, 14, 75, 127
8, 68592, Note_on_c, 14, 75, 0
8, 69168, Note_on_c, 14, 75, 127
8, 69192, Note_on_c, 14, 75, 0
8, 69192, Note_on_c, 14, 76, 127
8, 69360, Note_on_c, 14, 76, 0
8, 69936, Note_on_c, 14, 78, 127
8, 69960, Note_on_c, 14, 78, 0
8, 69960, Note_on_c, 14, 80, 127
8, 70128, Note_on_c, 14, 80, 0
8, 70320, Note_on_c, 14, 64, 127
8, 70368, Note_on_c, 14, 64, 0
8, 70368, Note_on_c, 14, 66, 127
8, 70416, Note_on_c, 14, 66, 0
8, 70416, Note_on_c, 14, 68, 127
8, 70464, Note_on_c, 14, 68, 0
8, 70464, Note_on_c, 14, 70, 127
8, 70512, Note_on_c, 14, 70, 0
8, 70512, Note_on_c, 14, 68, 127
8, 70560, Note_on_c, 14, 68, 0
8, 70560, Note_on_c, 14, 70, 127
8, 70608, Note_on_c, 14, 70, 0
8, 70608, Note_on_c, 14, 71, 127
8, 70656, Note_on_c, 14, 71, 0
8, 70656, Note_on_c, 14, 73, 127
8, 70704, Note_on_c, 14, 73, 0
8, 73806, Control_c, 14, 7, 74
8, 73837, Control_c, 14, 7, 73
8, 73868, Control_c, 14, 7, 72
8, 73898, Control_c, 14, 7, 71
8, 73929, Control_c, 14, 7, 70
8, 73960, Control_c, 14, 7, 69
8, 73991, Control_c, 14, 7, 68
8, 74021, Control_c, 14, 7, 67
8, 74052, Control_c, 14, 7, 66
8, 74083, Control_c, 14, 7, 65
8, 74113, Control_c, 14, 7, 64
8, 74144, Control_c, 14, 7, 63
8, 74175, Control_c, 14, 7, 62
8, 74206, Control_c, 14, 7, 61
8, 74236, Control_c, 14, 7, 60
8, 74267, Control_c, 14, 7, 59
8, 74298, Control_c, 14, 7, 58
8, 74328, Control_c, 14, 7, 57
8, 74359, Control_c, 14, 7, 56
8, 74390, Control_c, 14, 7, 55
8, 74421, Control_c, 14, 7, 54
8, 74451, Control_c, 14, 7, 53
8, 74482, Control_c, 14, 7, 52
8, 74513, Control_c, 14, 7, 51
8, 74543, Control_c, 14, 7, 50
8, 74574, Control_c, 14, 7, 49
8, 74605, Control_c, 14, 7, 48
8, 74636, Control_c, 14, 7, 47
8, 74666, Control_c, 14, 7, 46
8, 74697, Control_c, 14, 7, 45
8, 74728, Control_c, 14, 7, 44
8, 74759, Control_c, 14, 7, 43
8, 74789, Control_c, 14, 7, 42
8, 74820, Control_c, 14, 7, 41
8, 74851, Control_c, 14, 7, 40
8, 74881, Control_c, 14, 7, 39
8, 74912, Control_c, 14, 7, 38
8, 74943, Control_c, 14, 7, 37
8, 74974, Control_c, 14, 7, 36
8, 75004, Control_c, 14, 7, 35
8, 75035, Control_c, 14, 7, 34
8, 75066, Control_c, 14, 7, 33
8, 75096, Control_c, 14, 7, 32
8, 75127, Control_c, 14, 7, 31
8, 75158, Control_c, 14, 7, 30
8, 75189, Control_c, 14, 7, 29
8, 75219, Control_c, 14, 7, 28
8, 75250, Control_c, 14, 7, 27
8, 75281, Control_c, 14, 7, 26
8, 75311, Control_c, 14, 7, 25
8, 75342, Control_c, 14, 7, 24
8, 75373, Control_c, 14, 7, 23
8, 75404, Control_c, 14, 7, 22
8, 75434, Control_c, 14, 7, 21
8, 75465, Control_c, 14, 7, 20
8, 75496, Control_c, 14, 7, 19
8, 75527, Control_c, 14, 7, 18
8, 75557, Control_c, 14, 7, 17
8, 75588, Control_c, 14, 7, 16
8, 75619, Control_c, 14, 7, 15
8, 75649, Control_c, 14, 7, 14
8, 75680, Control_c, 14, 7, 13
8, 75711, Control_c, 14, 7, 12
8, 75742, Control_c, 14, 7, 11
8, 75772, Control_c, 14, 7, 10
8, 75803, Control_c, 14, 7, 9
8, 75834, Control_c, 14, 7, 8
8, 75864, Control_c, 14, 7, 7
8, 75895, Control_c, 14, 7, 6
8, 75926, Control_c, 14, 7, 5
8, 75957, Control_c, 14, 7, 4
8, 75987, Control_c, 14, 7, 3
8, 76018, Control_c, 14, 7, 2
8, 76049, Control_c, 14, 7, 1
8, 76079, Control_c, 14, 7, 0
8, 76080, Control_c, 14, 7, 0
8, 76464, Note_on_c, 14, 64, 10
8, 76512, Note_on_c, 14, 64, 0
8, 76512, Note_on_c, 14, 66, 10
8, 76560, Note_on_c, 14, 66, 0
8, 76560, Note_on_c, 14, 68, 10
8, 76608, Note_on_c, 14, 68, 0
8, 76608, Note_on_c, 14, 70, 10
8, 76656, Note_on_c, 14, 70, 0
8, 76656, Note_on_c, 14, 68, 10
8, 76704, Note_on_c, 14, 68, 0
8, 76704, Note_on_c, 14, 70, 10
8, 76752, Note_on_c, 14, 70, 0
8, 76752, Note_on_c, 14, 71, 10
8, 76800, Note_on_c, 14, 71, 0
8, 76800, End_track
9, 0, Start_track
9, 0, MIDI_port, 0
9, 0, Title_t, "Staff-4"
9, 0, Program_c, 11, 30
9, 0, Control_c, 11, 7, 127
9, 0, Control_c, 11, 10, 64
9, 0, Control_c, 11, 7, 127
9, 0, Note_on_c, 11, 44, 127
9, 0, Note_on_c, 11, 49, 127
9, 48, Note_on_c, 11, 44, 0
9, 48, Note_on_c, 11, 49, 0
9, 48, Note_on_c, 11, 44, 127
9, 48, Note_on_c, 11, 49, 127
9, 96, Note_on_c, 11, 44, 0
9, 96, Note_on_c, 11, 49, 0
9, 96, Note_on_c, 11, 44, 127
9, 96, Note_on_c, 11, 49, 127
9, 144, Note_on_c, 11, 44, 0
9, 144, Note_on_c, 11, 49, 0
9, 144, Note_on_c, 11, 44, 127
9, 144, Note_on_c, 11, 49, 127
9, 192, Note_on_c, 11, 44, 0
9, 192, Note_on_c, 11, 49, 0
9, 240, Note_on_c, 11, 44, 127
9, 240, Note_on_c, 11, 49, 127
9, 288, Note_on_c, 11, 44, 0
9, 288, Note_on_c, 11, 49, 0
9, 336, Note_on_c, 11, 44, 127
9, 336, Note_on_c, 11, 49, 127
9, 384, Note_on_c, 11, 44, 0
9, 384, Note_on_c, 11, 49, 0
9, 432, Note_on_c, 11, 44, 127
9, 432, Note_on_c, 11, 49, 127
9, 480, Note_on_c, 11, 44, 0
9, 480, Note_on_c, 11, 49, 0
9, 480, Note_on_c, 11, 44, 127
9, 480, Note_on_c, 11, 49, 127
9, 528, Note_on_c, 11, 44, 0
9, 528, Note_on_c, 11, 49, 0
9, 528, Note_on_c, 11, 44, 127
9, 528, Note_on_c, 11, 49, 127
9, 576, Note_on_c, 11, 44, 0
9, 576, Note_on_c, 11, 49, 0
9, 624, Note_on_c, 11, 44, 127
9, 624, Note_on_c, 11, 49, 127
9, 672, Note_on_c, 11, 44, 0
9, 672, Note_on_c, 11, 49, 0
9, 720, Note_on_c, 11, 44, 127
9, 720, Note_on_c, 11, 49, 127
9, 768, Note_on_c, 11, 44, 0
9, 768, Note_on_c, 11, 49, 0
9, 768, Note_on_c, 11, 47, 127
9, 768, Note_on_c, 11, 52, 127
9, 816, Note_on_c, 11, 47, 0
9, 816, Note_on_c, 11, 52, 0
9, 816, Note_on_c, 11, 47, 127
9, 816, Note_on_c, 11, 52, 127
9, 864, Note_on_c, 11, 47, 0
9, 864, Note_on_c, 11, 52, 0
9, 864, Note_on_c, 11, 47, 127
9, 864, Note_on_c, 11, 52, 127
9, 912, Note_on_c, 11, 47, 0
9, 912, Note_on_c, 11, 52, 0
9, 912, Note_on_c, 11, 47, 127
9, 912, Note_on_c, 11, 52, 127
9, 960, Note_on_c, 11, 47, 0
9, 960, Note_on_c, 11, 52, 0
9, 1008, Note_on_c, 11, 47, 127
9, 1008, Note_on_c, 11, 52, 127
9, 1056, Note_on_c, 11, 47, 0
9, 1056, Note_on_c, 11, 52, 0
9, 1104, Note_on_c, 11, 47, 127
9, 1104, Note_on_c, 11, 52, 127
9, 1152, Note_on_c, 11, 47, 0
9, 1152, Note_on_c, 11, 52, 0
9, 1200, Note_on_c, 11, 47, 127
9, 1200, Note_on_c, 11, 52, 127
9, 1248, Note_on_c, 11, 47, 0
9, 1248, Note_on_c, 11, 52, 0
9, 1248, Note_on_c, 11, 47, 127
9, 1248, Note_on_c, 11, 52, 127
9, 1296, Note_on_c, 11, 47, 0
9, 1296, Note_on_c, 11, 52, 0
9, 1296, Note_on_c, 11, 47, 127
9, 1296, Note_on_c, 11, 52, 127
9, 1344, Note_on_c, 11, 47, 0
9, 1344, Note_on_c, 11, 52, 0
9, 1392, Note_on_c, 11, 47, 127
9, 1392, Note_on_c, 11, 52, 127
9, 1440, Note_on_c, 11, 47, 0
9, 1440, Note_on_c, 11, 52, 0
9, 1488, Note_on_c, 11, 47, 127
9, 1488, Note_on_c, 11, 52, 127
9, 1536, Note_on_c, 11, 47, 0
9, 1536, Note_on_c, 11, 52, 0
9, 1536, Note_on_c, 11, 49, 127
9, 1536, Note_on_c, 11, 54, 127
9, 1584, Note_on_c, 11, 49, 0
9, 1584, Note_on_c, 11, 54, 0
9, 1584, Note_on_c, 11, 49, 127
9, 1584, Note_on_c, 11, 54, 127
9, 1632, Note_on_c, 11, 49, 0
9, 1632, Note_on_c, 11, 54, 0
9, 1632, Note_on_c, 11, 49, 127
9, 1632, Note_on_c, 11, 54, 127
9, 1680, Note_on_c, 11, 49, 0
9, 1680, Note_on_c, 11, 54, 0
9, 1680, Note_on_c, 11, 49, 127
9, 1680, Note_on_c, 11, 54, 127
9, 1728, Note_on_c, 11, 49, 0
9, 1728, Note_on_c, 11, 54, 0
9, 1776, Note_on_c, 11, 49, 127
9, 1776, Note_on_c, 11, 54, 127
9, 1824, Note_on_c, 11, 49, 0
9, 1824, Note_on_c, 11, 54, 0
9, 1872, Note_on_c, 11, 49, 127
9, 1872, Note_on_c, 11, 54, 127
9, 1920, Note_on_c, 11, 49, 0
9, 1920, Note_on_c, 11, 54, 0
9, 1968, Note_on_c, 11, 49, 127
9, 1968, Note_on_c, 11, 54, 127
9, 2016, Note_on_c, 11, 49, 0
9, 2016, Note_on_c, 11, 54, 0
9, 2016, Note_on_c, 11, 49, 127
9, 2016, Note_on_c, 11, 54, 127
9, 2064, Note_on_c, 11, 49, 0
9, 2064, Note_on_c, 11, 54, 0
9, 2064, Note_on_c, 11, 49, 127
9, 2064, Note_on_c, 11, 54, 127
9, 2112, Note_on_c, 11, 49, 0
9, 2112, Note_on_c, 11, 54, 0
9, 2160, Note_on_c, 11, 49, 127
9, 2160, Note_on_c, 11, 54, 127
9, 2208, Note_on_c, 11, 49, 0
9, 2208, Note_on_c, 11, 54, 0
9, 2256, Note_on_c, 11, 49, 127
9, 2256, Note_on_c, 11, 54, 127
9, 2304, Note_on_c, 11, 49, 0
9, 2304, Note_on_c, 11, 54, 0
9, 2304, Note_on_c, 11, 51, 127
9, 2304, Note_on_c, 11, 56, 127
9, 2352, Note_on_c, 11, 51, 0
9, 2352, Note_on_c, 11, 56, 0
9, 2352, Note_on_c, 11, 51, 127
9, 2352, Note_on_c, 11, 56, 127
9, 2400, Note_on_c, 11, 51, 0
9, 2400, Note_on_c, 11, 56, 0
9, 2400, Note_on_c, 11, 51, 127
9, 2400, Note_on_c, 11, 56, 127
9, 2448, Note_on_c, 11, 51, 0
9, 2448, Note_on_c, 11, 56, 0
9, 2448, Note_on_c, 11, 51, 127
9, 2448, Note_on_c, 11, 56, 127
9, 2496, Note_on_c, 11, 51, 0
9, 2496, Note_on_c, 11, 56, 0
9, 2544, Note_on_c, 11, 51, 127
9, 2544, Note_on_c, 11, 56, 127
9, 2592, Note_on_c, 11, 51, 0
9, 2592, Note_on_c, 11, 56, 0
9, 2640, Note_on_c, 11, 51, 127
9, 2640, Note_on_c, 11, 56, 127
9, 2688, Note_on_c, 11, 51, 0
9, 2688, Note_on_c, 11, 56, 0
9, 2736, Note_on_c, 11, 51, 127
9, 2736, Note_on_c, 11, 56, 127
9, 2784, Note_on_c, 11, 51, 0
9, 2784, Note_on_c, 11, 56, 0
9, 2784, Note_on_c, 11, 51, 127
9, 2784, Note_on_c, 11, 56, 127
9, 2832, Note_on_c, 11, 51, 0
9, 2832, Note_on_c, 11, 56, 0
9, 2832, Note_on_c, 11, 51, 127
9, 2832, Note_on_c, 11, 56, 127
9, 2880, Note_on_c, 11, 51, 0
9, 2880, Note_on_c, 11, 56, 0
9, 2928, Note_on_c, 11, 51, 127
9, 2928, Note_on_c, 11, 56, 127
9, 2976, Note_on_c, 11, 51, 0
9, 2976, Note_on_c, 11, 56, 0
9, 3024, Note_on_c, 11, 51, 127
9, 3024, Note_on_c, 11, 56, 127
9, 3072, Note_on_c, 11, 51, 0
9, 3072, Note_on_c, 11, 56, 0
9, 3072, Note_on_c, 11, 44, 127
9, 3072, Note_on_c, 11, 49, 127
9, 3120, Note_on_c, 11, 44, 0
9, 3120, Note_on_c, 11, 49, 0
9, 3120, Note_on_c, 11, 44, 127
9, 3120, Note_on_c, 11, 49, 127
9, 3168, Note_on_c, 11, 44, 0
9, 3168, Note_on_c, 11, 49, 0
9, 3168, Note_on_c, 11, 44, 127
9, 3168, Note_on_c, 11, 49, 127
9, 3216, Note_on_c, 11, 44, 0
9, 3216, Note_on_c, 11, 49, 0
9, 3216, Note_on_c, 11, 44, 127
9, 3216, Note_on_c, 11, 49, 127
9, 3264, Note_on_c, 11, 44, 0
9, 3264, Note_on_c, 11, 49, 0
9, 3312, Note_on_c, 11, 44, 127
9, 3312, Note_on_c, 11, 49, 127
9, 3360, Note_on_c, 11, 44, 0
9, 3360, Note_on_c, 11, 49, 0
9, 3408, Note_on_c, 11, 44, 127
9, 3408, Note_on_c, 11, 49, 127
9, 3456, Note_on_c, 11, 44, 0
9, 3456, Note_on_c, 11, 49, 0
9, 3504, Note_on_c, 11, 44, 127
9, 3504, Note_on_c, 11, 49, 127
9, 3552, Note_on_c, 11, 44, 0
9, 3552, Note_on_c, 11, 49, 0
9, 3552, Note_on_c, 11, 44, 127
9, 3552, Note_on_c, 11, 49, 127
9, 3600, Note_on_c, 11, 44, 0
9, 3600, Note_on_c, 11, 49, 0
9, 3600, Note_on_c, 11, 44, 127
9, 3600, Note_on_c, 11, 49, 127
9, 3648, Note_on_c, 11, 44, 0
9, 3648, Note_on_c, 11, 49, 0
9, 3696, Note_on_c, 11, 44, 127
9, 3696, Note_on_c, 11, 49, 127
9, 3744, Note_on_c, 11, 44, 0
9, 3744, Note_on_c, 11, 49, 0
9, 3792, Note_on_c, 11, 44, 127
9, 3792, Note_on_c, 11, 49, 127
9, 3840, Note_on_c, 11, 44, 0
9, 3840, Note_on_c, 11, 49, 0
9, 3840, Note_on_c, 11, 47, 127
9, 3840, Note_on_c, 11, 52, 127
9, 3888, Note_on_c, 11, 47, 0
9, 3888, Note_on_c, 11, 52, 0
9, 3888, Note_on_c, 11, 47, 127
9, 3888, Note_on_c, 11, 52, 127
9, 3936, Note_on_c, 11, 47, 0
9, 3936, Note_on_c, 11, 52, 0
9, 3936, Note_on_c, 11, 47, 127
9, 3936, Note_on_c, 11, 52, 127
9, 3984, Note_on_c, 11, 47, 0
9, 3984, Note_on_c, 11, 52, 0
9, 3984, Note_on_c, 11, 47, 127
9, 3984, Note_on_c, 11, 52, 127
9, 4032, Note_on_c, 11, 47, 0
9, 4032, Note_on_c, 11, 52, 0
9, 4080, Note_on_c, 11, 47, 127
9, 4080, Note_on_c, 11, 52, 127
9, 4128, Note_on_c, 11, 47, 0
9, 4128, Note_on_c, 11, 52, 0
9, 4176, Note_on_c, 11, 47, 127
9, 4176, Note_on_c, 11, 52, 127
9, 4224, Note_on_c, 11, 47, 0
9, 4224, Note_on_c, 11, 52, 0
9, 4272, Note_on_c, 11, 47, 127
9, 4272, Note_on_c, 11, 52, 127
9, 4320, Note_on_c, 11, 47, 0
9, 4320, Note_on_c, 11, 52, 0
9, 4320, Note_on_c, 11, 47, 127
9, 4320, Note_on_c, 11, 52, 127
9, 4368, Note_on_c, 11, 47, 0
9, 4368, Note_on_c, 11, 52, 0
9, 4368, Note_on_c, 11, 47, 127
9, 4368, Note_on_c, 11, 52, 127
9, 4416, Note_on_c, 11, 47, 0
9, 4416, Note_on_c, 11, 52, 0
9, 4464, Note_on_c, 11, 47, 127
9, 4464, Note_on_c, 11, 52, 127
9, 4512, Note_on_c, 11, 47, 0
9, 4512, Note_on_c, 11, 52, 0
9, 4560, Note_on_c, 11, 47, 127
9, 4560, Note_on_c, 11, 52, 127
9, 4608, Note_on_c, 11, 47, 0
9, 4608, Note_on_c, 11, 52, 0
9, 4608, Note_on_c, 11, 49, 127
9, 4608, Note_on_c, 11, 54, 127
9, 4656, Note_on_c, 11, 49, 0
9, 4656, Note_on_c, 11, 54, 0
9, 4656, Note_on_c, 11, 49, 127
9, 4656, Note_on_c, 11, 54, 127
9, 4704, Note_on_c, 11, 49, 0
9, 4704, Note_on_c, 11, 54, 0
9, 4704, Note_on_c, 11, 49, 127
9, 4704, Note_on_c, 11, 54, 127
9, 4752, Note_on_c, 11, 49, 0
9, 4752, Note_on_c, 11, 54, 0
9, 4752, Note_on_c, 11, 49, 127
9, 4752, Note_on_c, 11, 54, 127
9, 4800, Note_on_c, 11, 49, 0
9, 4800, Note_on_c, 11, 54, 0
9, 4848, Note_on_c, 11, 49, 127
9, 4848, Note_on_c, 11, 54, 127
9, 4896, Note_on_c, 11, 49, 0
9, 4896, Note_on_c, 11, 54, 0
9, 4944, Note_on_c, 11, 49, 127
9, 4944, Note_on_c, 11, 54, 127
9, 4992, Note_on_c, 11, 49, 0
9, 4992, Note_on_c, 11, 54, 0
9, 5040, Note_on_c, 11, 49, 127
9, 5040, Note_on_c, 11, 54, 127
9, 5088, Note_on_c, 11, 49, 0
9, 5088, Note_on_c, 11, 54, 0
9, 5088, Note_on_c, 11, 49, 127
9, 5088, Note_on_c, 11, 54, 127
9, 5136, Note_on_c, 11, 49, 0
9, 5136, Note_on_c, 11, 54, 0
9, 5136, Note_on_c, 11, 49, 127
9, 5136, Note_on_c, 11, 54, 127
9, 5184, Note_on_c, 11, 49, 0
9, 5184, Note_on_c, 11, 54, 0
9, 5232, Note_on_c, 11, 49, 127
9, 5232, Note_on_c, 11, 54, 127
9, 5280, Note_on_c, 11, 49, 0
9, 5280, Note_on_c, 11, 54, 0
9, 5328, Note_on_c, 11, 49, 127
9, 5328, Note_on_c, 11, 54, 127
9, 5376, Note_on_c, 11, 49, 0
9, 5376, Note_on_c, 11, 54, 0
9, 5376, Note_on_c, 11, 51, 127
9, 5376, Note_on_c, 11, 56, 127
9, 5424, Note_on_c, 11, 51, 0
9, 5424, Note_on_c, 11, 56, 0
9, 5424, Note_on_c, 11, 51, 127
9, 5424, Note_on_c, 11, 56, 127
9, 5472, Note_on_c, 11, 51, 0
9, 5472, Note_on_c, 11, 56, 0
9, 5472, Note_on_c, 11, 51, 127
9, 5472, Note_on_c, 11, 56, 127
9, 5520, Note_on_c, 11, 51, 0
9, 5520, Note_on_c, 11, 56, 0
9, 5520, Note_on_c, 11, 51, 127
9, 5520, Note_on_c, 11, 56, 127
9, 5568, Note_on_c, 11, 51, 0
9, 5568, Note_on_c, 11, 56, 0
9, 5616, Note_on_c, 11, 51, 127
9, 5616, Note_on_c, 11, 56, 127
9, 5664, Note_on_c, 11, 51, 0
9, 5664, Note_on_c, 11, 56, 0
9, 5712, Note_on_c, 11, 51, 127
9, 5712, Note_on_c, 11, 56, 127
9, 5760, Note_on_c, 11, 51, 0
9, 5760, Note_on_c, 11, 56, 0
9, 5808, Note_on_c, 11, 51, 127
9, 5808, Note_on_c, 11, 56, 127
9, 5856, Note_on_c, 11, 51, 0
9, 5856, Note_on_c, 11, 56, 0
9, 5856, Note_on_c, 11, 51, 127
9, 5856, Note_on_c, 11, 56, 127
9, 5904, Note_on_c, 11, 51, 0
9, 5904, Note_on_c, 11, 56, 0
9, 5904, Note_on_c, 11, 51, 127
9, 5904, Note_on_c, 11, 56, 127
9, 5952, Note_on_c, 11, 51, 0
9, 5952, Note_on_c, 11, 56, 0
9, 6000, Note_on_c, 11, 51, 127
9, 6000, Note_on_c, 11, 56, 127
9, 6048, Note_on_c, 11, 51, 0
9, 6048, Note_on_c, 11, 56, 0
9, 6096, Note_on_c, 11, 51, 127
9, 6096, Note_on_c, 11, 56, 127
9, 6144, Note_on_c, 11, 51, 0
9, 6144, Note_on_c, 11, 56, 0
9, 6144, Note_on_c, 11, 44, 127
9, 6144, Note_on_c, 11, 49, 127
9, 6192, Note_on_c, 11, 44, 0
9, 6192, Note_on_c, 11, 49, 0
9, 6192, Note_on_c, 11, 44, 127
9, 6192, Note_on_c, 11, 49, 127
9, 6240, Note_on_c, 11, 44, 0
9, 6240, Note_on_c, 11, 49, 0
9, 6240, Note_on_c, 11, 44, 127
9, 6240, Note_on_c, 11, 49, 127
9, 6288, Note_on_c, 11, 44, 0
9, 6288, Note_on_c, 11, 49, 0
9, 6288, Note_on_c, 11, 44, 127
9, 6288, Note_on_c, 11, 49, 127
9, 6336, Note_on_c, 11, 44, 0
9, 6336, Note_on_c, 11, 49, 0
9, 6384, Note_on_c, 11, 44, 127
9, 6384, Note_on_c, 11, 49, 127
9, 6432, Note_on_c, 11, 44, 0
9, 6432, Note_on_c, 11, 49, 0
9, 6480, Note_on_c, 11, 44, 127
9, 6480, Note_on_c, 11, 49, 127
9, 6528, Note_on_c, 11, 44, 0
9, 6528, Note_on_c, 11, 49, 0
9, 6576, Note_on_c, 11, 44, 127
9, 6576, Note_on_c, 11, 49, 127
9, 6624, Note_on_c, 11, 44, 0
9, 6624, Note_on_c, 11, 49, 0
9, 6624, Note_on_c, 11, 44, 127
9, 6624, Note_on_c, 11, 49, 127
9, 6672, Note_on_c, 11, 44, 0
9, 6672, Note_on_c, 11, 49, 0
9, 6672, Note_on_c, 11, 44, 127
9, 6672, Note_on_c, 11, 49, 127
9, 6720, Note_on_c, 11, 44, 0
9, 6720, Note_on_c, 11, 49, 0
9, 6768, Note_on_c, 11, 44, 127
9, 6768, Note_on_c, 11, 49, 127
9, 6816, Note_on_c, 11, 44, 0
9, 6816, Note_on_c, 11, 49, 0
9, 6864, Note_on_c, 11, 44, 127
9, 6864, Note_on_c, 11, 49, 127
9, 6912, Note_on_c, 11, 44, 0
9, 6912, Note_on_c, 11, 49, 0
9, 6912, Note_on_c, 11, 47, 127
9, 6912, Note_on_c, 11, 52, 127
9, 6960, Note_on_c, 11, 47, 0
9, 6960, Note_on_c, 11, 52, 0
9, 6960, Note_on_c, 11, 47, 127
9, 6960, Note_on_c, 11, 52, 127
9, 7008, Note_on_c, 11, 47, 0
9, 7008, Note_on_c, 11, 52, 0
9, 7008, Note_on_c, 11, 47, 127
9, 7008, Note_on_c, 11, 52, 127
9, 7056, Note_on_c, 11, 47, 0
9, 7056, Note_on_c, 11, 52, 0
9, 7056, Note_on_c, 11, 47, 127
9, 7056, Note_on_c, 11, 52, 127
9, 7104, Note_on_c, 11, 47, 0
9, 7104, Note_on_c, 11, 52, 0
9, 7152, Note_on_c, 11, 47, 127
9, 7152, Note_on_c, 11, 52, 127
9, 7200, Note_on_c, 11, 47, 0
9, 7200, Note_on_c, 11, 52, 0
9, 7248, Note_on_c, 11, 47, 127
9, 7248, Note_on_c, 11, 52, 127
9, 7296, Note_on_c, 11, 47, 0
9, 7296, Note_on_c, 11, 52, 0
9, 7344, Note_on_c, 11, 47, 127
9, 7344, Note_on_c, 11, 52, 127
9, 7392, Note_on_c, 11, 47, 0
9, 7392, Note_on_c, 11, 52, 0
9, 7392, Note_on_c, 11, 47, 127
9, 7392, Note_on_c, 11, 52, 127
9, 7440, Note_on_c, 11, 47, 0
9, 7440, Note_on_c, 11, 52, 0
9, 7440, Note_on_c, 11, 47, 127
9, 7440, Note_on_c, 11, 52, 127
9, 7488, Note_on_c, 11, 47, 0
9, 7488, Note_on_c, 11, 52, 0
9, 7536, Note_on_c, 11, 47, 127
9, 7536, Note_on_c, 11, 52, 127
9, 7584, Note_on_c, 11, 47, 0
9, 7584, Note_on_c, 11, 52, 0
9, 7632, Note_on_c, 11, 47, 127
9, 7632, Note_on_c, 11, 52, 127
9, 7680, Note_on_c, 11, 47, 0
9, 7680, Note_on_c, 11, 52, 0
9, 7680, Note_on_c, 11, 49, 127
9, 7680, Note_on_c, 11, 54, 127
9, 7728, Note_on_c, 11, 49, 0
9, 7728, Note_on_c, 11, 54, 0
9, 7728, Note_on_c, 11, 49, 127
9, 7728, Note_on_c, 11, 54, 127
9, 7776, Note_on_c, 11, 49, 0
9, 7776, Note_on_c, 11, 54, 0
9, 7776, Note_on_c, 11, 49, 127
9, 7776, Note_on_c, 11, 54, 127
9, 7824, Note_on_c, 11, 49, 0
9, 7824, Note_on_c, 11, 54, 0
9, 7824, Note_on_c, 11, 49, 127
9, 7824, Note_on_c, 11, 54, 127
9, 7872, Note_on_c, 11, 49, 0
9, 7872, Note_on_c, 11, 54, 0
9, 7920, Note_on_c, 11, 49, 127
9, 7920, Note_on_c, 11, 54, 127
9, 7968, Note_on_c, 11, 49, 0
9, 7968, Note_on_c, 11, 54, 0
9, 8016, Note_on_c, 11, 49, 127
9, 8016, Note_on_c, 11, 54, 127
9, 8064, Note_on_c, 11, 49, 0
9, 8064, Note_on_c, 11, 54, 0
9, 8112, Note_on_c, 11, 49, 127
9, 8112, Note_on_c, 11, 54, 127
9, 8160, Note_on_c, 11, 49, 0
9, 8160, Note_on_c, 11, 54, 0
9, 8160, Note_on_c, 11, 49, 127
9, 8160, Note_on_c, 11, 54, 127
9, 8208, Note_on_c, 11, 49, 0
9, 8208, Note_on_c, 11, 54, 0
9, 8208, Note_on_c, 11, 49, 127
9, 8208, Note_on_c, 11, 54, 127
9, 8256, Note_on_c, 11, 49, 0
9, 8256, Note_on_c, 11, 54, 0
9, 8304, Note_on_c, 11, 49, 127
9, 8304, Note_on_c, 11, 54, 127
9, 8352, Note_on_c, 11, 49, 0
9, 8352, Note_on_c, 11, 54, 0
9, 8400, Note_on_c, 11, 49, 127
9, 8400, Note_on_c, 11, 54, 127
9, 8448, Note_on_c, 11, 49, 0
9, 8448, Note_on_c, 11, 54, 0
9, 8448, Note_on_c, 11, 51, 127
9, 8448, Note_on_c, 11, 56, 127
9, 8496, Note_on_c, 11, 51, 0
9, 8496, Note_on_c, 11, 56, 0
9, 8496, Note_on_c, 11, 51, 127
9, 8496, Note_on_c, 11, 56, 127
9, 8544, Note_on_c, 11, 51, 0
9, 8544, Note_on_c, 11, 56, 0
9, 8544, Note_on_c, 11, 51, 127
9, 8544, Note_on_c, 11, 56, 127
9, 8592, Note_on_c, 11, 51, 0
9, 8592, Note_on_c, 11, 56, 0
9, 8592, Note_on_c, 11, 51, 127
9, 8592, Note_on_c, 11, 56, 127
9, 8640, Note_on_c, 11, 51, 0
9, 8640, Note_on_c, 11, 56, 0
9, 8688, Note_on_c, 11, 51, 127
9, 8688, Note_on_c, 11, 56, 127
9, 8736, Note_on_c, 11, 51, 0
9, 8736, Note_on_c, 11, 56, 0
9, 8784, Note_on_c, 11, 51, 127
9, 8784, Note_on_c, 11, 56, 127
9, 8832, Note_on_c, 11, 51, 0
9, 8832, Note_on_c, 11, 56, 0
9, 8880, Note_on_c, 11, 51, 127
9, 8880, Note_on_c, 11, 56, 127
9, 8928, Note_on_c, 11, 51, 0
9, 8928, Note_on_c, 11, 56, 0
9, 8928, Note_on_c, 11, 51, 127
9, 8928, Note_on_c, 11, 56, 127
9, 8976, Note_on_c, 11, 51, 0
9, 8976, Note_on_c, 11, 56, 0
9, 8976, Note_on_c, 11, 51, 127
9, 8976, Note_on_c, 11, 56, 127
9, 9024, Note_on_c, 11, 51, 0
9, 9024, Note_on_c, 11, 56, 0
9, 9072, Note_on_c, 11, 51, 127
9, 9072, Note_on_c, 11, 56, 127
9, 9120, Note_on_c, 11, 51, 0
9, 9120, Note_on_c, 11, 56, 0
9, 9168, Note_on_c, 11, 51, 127
9, 9168, Note_on_c, 11, 56, 127
9, 9216, Note_on_c, 11, 51, 0
9, 9216, Note_on_c, 11, 56, 0
9, 9216, Note_on_c, 11, 44, 127
9, 9216, Note_on_c, 11, 49, 127
9, 9264, Note_on_c, 11, 44, 0
9, 9264, Note_on_c, 11, 49, 0
9, 9264, Note_on_c, 11, 44, 127
9, 9264, Note_on_c, 11, 49, 127
9, 9312, Note_on_c, 11, 44, 0
9, 9312, Note_on_c, 11, 49, 0
9, 9312, Note_on_c, 11, 44, 127
9, 9312, Note_on_c, 11, 49, 127
9, 9360, Note_on_c, 11, 44, 0
9, 9360, Note_on_c, 11, 49, 0
9, 9360, Note_on_c, 11, 44, 127
9, 9360, Note_on_c, 11, 49, 127
9, 9408, Note_on_c, 11, 44, 0
9, 9408, Note_on_c, 11, 49, 0
9, 9456, Note_on_c, 11, 44, 127
9, 9456, Note_on_c, 11, 49, 127
9, 9504, Note_on_c, 11, 44, 0
9, 9504, Note_on_c, 11, 49, 0
9, 9552, Note_on_c, 11, 44, 127
9, 9552, Note_on_c, 11, 49, 127
9, 9600, Note_on_c, 11, 44, 0
9, 9600, Note_on_c, 11, 49, 0
9, 9648, Note_on_c, 11, 44, 127
9, 9648, Note_on_c, 11, 49, 127
9, 9696, Note_on_c, 11, 44, 0
9, 9696, Note_on_c, 11, 49, 0
9, 9696, Note_on_c, 11, 44, 127
9, 9696, Note_on_c, 11, 49, 127
9, 9744, Note_on_c, 11, 44, 0
9, 9744, Note_on_c, 11, 49, 0
9, 9744, Note_on_c, 11, 44, 127
9, 9744, Note_on_c, 11, 49, 127
9, 9792, Note_on_c, 11, 44, 0
9, 9792, Note_on_c, 11, 49, 0
9, 9840, Note_on_c, 11, 44, 127
9, 9840, Note_on_c, 11, 49, 127
9, 9888, Note_on_c, 11, 44, 0
9, 9888, Note_on_c, 11, 49, 0
9, 9936, Note_on_c, 11, 44, 127
9, 9936, Note_on_c, 11, 49, 127
9, 9984, Note_on_c, 11, 44, 0
9, 9984, Note_on_c, 11, 49, 0
9, 9984, Note_on_c, 11, 47, 127
9, 9984, Note_on_c, 11, 52, 127
9, 10032, Note_on_c, 11, 47, 0
9, 10032, Note_on_c, 11, 52, 0
9, 10032, Note_on_c, 11, 47, 127
9, 10032, Note_on_c, 11, 52, 127
9, 10080, Note_on_c, 11, 47, 0
9, 10080, Note_on_c, 11, 52, 0
9, 10080, Note_on_c, 11, 47, 127
9, 10080, Note_on_c, 11, 52, 127
9, 10128, Note_on_c, 11, 47, 0
9, 10128, Note_on_c, 11, 52, 0
9, 10128, Note_on_c, 11, 47, 127
9, 10128, Note_on_c, 11, 52, 127
9, 10176, Note_on_c, 11, 47, 0
9, 10176, Note_on_c, 11, 52, 0
9, 10224, Note_on_c, 11, 47, 127
9, 10224, Note_on_c, 11, 52, 127
9, 10272, Note_on_c, 11, 47, 0
9, 10272, Note_on_c, 11, 52, 0
9, 10320, Note_on_c, 11, 47, 127
9, 10320, Note_on_c, 11, 52, 127
9, 10368, Note_on_c, 11, 47, 0
9, 10368, Note_on_c, 11, 52, 0
9, 10416, Note_on_c, 11, 47, 127
9, 10416, Note_on_c, 11, 52, 127
9, 10464, Note_on_c, 11, 47, 0
9, 10464, Note_on_c, 11, 52, 0
9, 10464, Note_on_c, 11, 47, 127
9, 10464, Note_on_c, 11, 52, 127
9, 10512, Note_on_c, 11, 47, 0
9, 10512, Note_on_c, 11, 52, 0
9, 10512, Note_on_c, 11, 47, 127
9, 10512, Note_on_c, 11, 52, 127
9, 10560, Note_on_c, 11, 47, 0
9, 10560, Note_on_c, 11, 52, 0
9, 10608, Note_on_c, 11, 47, 127
9, 10608, Note_on_c, 11, 52, 127
9, 10656, Note_on_c, 11, 47, 0
9, 10656, Note_on_c, 11, 52, 0
9, 10704, Note_on_c, 11, 47, 127
9, 10704, Note_on_c, 11, 52, 127
9, 10752, Note_on_c, 11, 47, 0
9, 10752, Note_on_c, 11, 52, 0
9, 10752, Note_on_c, 11, 49, 127
9, 10752, Note_on_c, 11, 54, 127
9, 10800, Note_on_c, 11, 49, 0
9, 10800, Note_on_c, 11, 54, 0
9, 10800, Note_on_c, 11, 49, 127
9, 10800, Note_on_c, 11, 54, 127
9, 10848, Note_on_c, 11, 49, 0
9, 10848, Note_on_c, 11, 54, 0
9, 10848, Note_on_c, 11, 49, 127
9, 10848, Note_on_c, 11, 54, 127
9, 10896, Note_on_c, 11, 49, 0
9, 10896, Note_on_c, 11, 54, 0
9, 10896, Note_on_c, 11, 49, 127
9, 10896, Note_on_c, 11, 54, 127
9, 10944, Note_on_c, 11, 49, 0
9, 10944, Note_on_c, 11, 54, 0
9, 10992, Note_on_c, 11, 49, 127
9, 10992, Note_on_c, 11, 54, 127
9, 11040, Note_on_c, 11, 49, 0
9, 11040, Note_on_c, 11, 54, 0
9, 11088, Note_on_c, 11, 49, 127
9, 11088, Note_on_c, 11, 54, 127
9, 11136, Note_on_c, 11, 49, 0
9, 11136, Note_on_c, 11, 54, 0
9, 11184, Note_on_c, 11, 49, 127
9, 11184, Note_on_c, 11, 54, 127
9, 11232, Note_on_c, 11, 49, 0
9, 11232, Note_on_c, 11, 54, 0
9, 11232, Note_on_c, 11, 49, 127
9, 11232, Note_on_c, 11, 54, 127
9, 11280, Note_on_c, 11, 49, 0
9, 11280, Note_on_c, 11, 54, 0
9, 11280, Note_on_c, 11, 49, 127
9, 11280, Note_on_c, 11, 54, 127
9, 11328, Note_on_c, 11, 49, 0
9, 11328, Note_on_c, 11, 54, 0
9, 11376, Note_on_c, 11, 49, 127
9, 11376, Note_on_c, 11, 54, 127
9, 11424, Note_on_c, 11, 49, 0
9, 11424, Note_on_c, 11, 54, 0
9, 11472, Note_on_c, 11, 49, 127
9, 11472, Note_on_c, 11, 54, 127
9, 11520, Note_on_c, 11, 49, 0
9, 11520, Note_on_c, 11, 54, 0
9, 11520, Note_on_c, 11, 51, 127
9, 11520, Note_on_c, 11, 56, 127
9, 11568, Note_on_c, 11, 51, 0
9, 11568, Note_on_c, 11, 56, 0
9, 11568, Note_on_c, 11, 51, 127
9, 11568, Note_on_c, 11, 56, 127
9, 11616, Note_on_c, 11, 51, 0
9, 11616, Note_on_c, 11, 56, 0
9, 11616, Note_on_c, 11, 51, 127
9, 11616, Note_on_c, 11, 56, 127
9, 11664, Note_on_c, 11, 51, 0
9, 11664, Note_on_c, 11, 56, 0
9, 11664, Note_on_c, 11, 51, 127
9, 11664, Note_on_c, 11, 56, 127
9, 11712, Note_on_c, 11, 51, 0
9, 11712, Note_on_c, 11, 56, 0
9, 11760, Note_on_c, 11, 51, 127
9, 11760, Note_on_c, 11, 56, 127
9, 11808, Note_on_c, 11, 51, 0
9, 11808, Note_on_c, 11, 56, 0
9, 11856, Note_on_c, 11, 51, 127
9, 11856, Note_on_c, 11, 56, 127
9, 11904, Note_on_c, 11, 51, 0
9, 11904, Note_on_c, 11, 56, 0
9, 11952, Note_on_c, 11, 51, 127
9, 11952, Note_on_c, 11, 56, 127
9, 12000, Note_on_c, 11, 51, 0
9, 12000, Note_on_c, 11, 56, 0
9, 12000, Note_on_c, 11, 51, 127
9, 12000, Note_on_c, 11, 56, 127
9, 12048, Note_on_c, 11, 51, 0
9, 12048, Note_on_c, 11, 56, 0
9, 12048, Note_on_c, 11, 51, 127
9, 12048, Note_on_c, 11, 56, 127
9, 12096, Note_on_c, 11, 51, 0
9, 12096, Note_on_c, 11, 56, 0
9, 12144, Note_on_c, 11, 51, 127
9, 12144, Note_on_c, 11, 56, 127
9, 12192, Note_on_c, 11, 51, 0
9, 12192, Note_on_c, 11, 56, 0
9, 12240, Note_on_c, 11, 51, 127
9, 12240, Note_on_c, 11, 56, 127
9, 12288, Note_on_c, 11, 51, 0
9, 12288, Note_on_c, 11, 56, 0
9, 12288, Note_on_c, 11, 44, 127
9, 12288, Note_on_c, 11, 49, 127
9, 12336, Note_on_c, 11, 44, 0
9, 12336, Note_on_c, 11, 49, 0
9, 12336, Note_on_c, 11, 44, 127
9, 12336, Note_on_c, 11, 49, 127
9, 12384, Note_on_c, 11, 44, 0
9, 12384, Note_on_c, 11, 49, 0
9, 12384, Note_on_c, 11, 44, 127
9, 12384, Note_on_c, 11, 49, 127
9, 12432, Note_on_c, 11, 44, 0
9, 12432, Note_on_c, 11, 49, 0
9, 12432, Note_on_c, 11, 44, 127
9, 12432, Note_on_c, 11, 49, 127
9, 12480, Note_on_c, 11, 44, 0
9, 12480, Note_on_c, 11, 49, 0
9, 12528, Note_on_c, 11, 44, 127
9, 12528, Note_on_c, 11, 49, 127
9, 12576, Note_on_c, 11, 44, 0
9, 12576, Note_on_c, 11, 49, 0
9, 12624, Note_on_c, 11, 44, 127
9, 12624, Note_on_c, 11, 49, 127
9, 12672, Note_on_c, 11, 44, 0
9, 12672, Note_on_c, 11, 49, 0
9, 12720, Note_on_c, 11, 44, 127
9, 12720, Note_on_c, 11, 49, 127
9, 12768, Note_on_c, 11, 44, 0
9, 12768, Note_on_c, 11, 49, 0
9, 12768, Note_on_c, 11, 44, 127
9, 12768, Note_on_c, 11, 49, 127
9, 12816, Note_on_c, 11, 44, 0
9, 12816, Note_on_c, 11, 49, 0
9, 12816, Note_on_c, 11, 44, 127
9, 12816, Note_on_c, 11, 49, 127
9, 12864, Note_on_c, 11, 44, 0
9, 12864, Note_on_c, 11, 49, 0
9, 12912, Note_on_c, 11, 44, 127
9, 12912, Note_on_c, 11, 49, 127
9, 12960, Note_on_c, 11, 44, 0
9, 12960, Note_on_c, 11, 49, 0
9, 13008, Note_on_c, 11, 44, 127
9, 13008, Note_on_c, 11, 49, 127
9, 13056, Note_on_c, 11, 44, 0
9, 13056, Note_on_c, 11, 49, 0
9, 13056, Note_on_c, 11, 47, 127
9, 13056, Note_on_c, 11, 52, 127
9, 13104, Note_on_c, 11, 47, 0
9, 13104, Note_on_c, 11, 52, 0
9, 13104, Note_on_c, 11, 47, 127
9, 13104, Note_on_c, 11, 52, 127
9, 13152, Note_on_c, 11, 47, 0
9, 13152, Note_on_c, 11, 52, 0
9, 13152, Note_on_c, 11, 47, 127
9, 13152, Note_on_c, 11, 52, 127
9, 13200, Note_on_c, 11, 47, 0
9, 13200, Note_on_c, 11, 52, 0
9, 13200, Note_on_c, 11, 47, 127
9, 13200, Note_on_c, 11, 52, 127
9, 13248, Note_on_c, 11, 47, 0
9, 13248, Note_on_c, 11, 52, 0
9, 13296, Note_on_c, 11, 47, 127
9, 13296, Note_on_c, 11, 52, 127
9, 13344, Note_on_c, 11, 47, 0
9, 13344, Note_on_c, 11, 52, 0
9, 13392, Note_on_c, 11, 47, 127
9, 13392, Note_on_c, 11, 52, 127
9, 13440, Note_on_c, 11, 47, 0
9, 13440, Note_on_c, 11, 52, 0
9, 13488, Note_on_c, 11, 47, 127
9, 13488, Note_on_c, 11, 52, 127
9, 13536, Note_on_c, 11, 47, 0
9, 13536, Note_on_c, 11, 52, 0
9, 13536, Note_on_c, 11, 47, 127
9, 13536, Note_on_c, 11, 52, 127
9, 13584, Note_on_c, 11, 47, 0
9, 13584, Note_on_c, 11, 52, 0
9, 13584, Note_on_c, 11, 47, 127
9, 13584, Note_on_c, 11, 52, 127
9, 13632, Note_on_c, 11, 47, 0
9, 13632, Note_on_c, 11, 52, 0
9, 13680, Note_on_c, 11, 47, 127
9, 13680, Note_on_c, 11, 52, 127
9, 13728, Note_on_c, 11, 47, 0
9, 13728, Note_on_c, 11, 52, 0
9, 13776, Note_on_c, 11, 47, 127
9, 13776, Note_on_c, 11, 52, 127
9, 13824, Note_on_c, 11, 47, 0
9, 13824, Note_on_c, 11, 52, 0
9, 13824, Note_on_c, 11, 49, 127
9, 13824, Note_on_c, 11, 54, 127
9, 13872, Note_on_c, 11, 49, 0
9, 13872, Note_on_c, 11, 54, 0
9, 13872, Note_on_c, 11, 49, 127
9, 13872, Note_on_c, 11, 54, 127
9, 13920, Note_on_c, 11, 49, 0
9, 13920, Note_on_c, 11, 54, 0
9, 13920, Note_on_c, 11, 49, 127
9, 13920, Note_on_c, 11, 54, 127
9, 13968, Note_on_c, 11, 49, 0
9, 13968, Note_on_c, 11, 54, 0
9, 13968, Note_on_c, 11, 49, 127
9, 13968, Note_on_c, 11, 54, 127
9, 14016, Note_on_c, 11, 49, 0
9, 14016, Note_on_c, 11, 54, 0
9, 14064, Note_on_c, 11, 49, 127
9, 14064, Note_on_c, 11, 54, 127
9, 14112, Note_on_c, 11, 49, 0
9, 14112, Note_on_c, 11, 54, 0
9, 14160, Note_on_c, 11, 49, 127
9, 14160, Note_on_c, 11, 54, 127
9, 14208, Note_on_c, 11, 49, 0
9, 14208, Note_on_c, 11, 54, 0
9, 14256, Note_on_c, 11, 49, 127
9, 14256, Note_on_c, 11, 54, 127
9, 14304, Note_on_c, 11, 49, 0
9, 14304, Note_on_c, 11, 54, 0
9, 14304, Note_on_c, 11, 49, 127
9, 14304, Note_on_c, 11, 54, 127
9, 14352, Note_on_c, 11, 49, 0
9, 14352, Note_on_c, 11, 54, 0
9, 14352, Note_on_c, 11, 49, 127
9, 14352, Note_on_c, 11, 54, 127
9, 14400, Note_on_c, 11, 49, 0
9, 14400, Note_on_c, 11, 54, 0
9, 14448, Note_on_c, 11, 49, 127
9, 14448, Note_on_c, 11, 54, 127
9, 14496, Note_on_c, 11, 49, 0
9, 14496, Note_on_c, 11, 54, 0
9, 14544, Note_on_c, 11, 49, 127
9, 14544, Note_on_c, 11, 54, 127
9, 14592, Note_on_c, 11, 49, 0
9, 14592, Note_on_c, 11, 54, 0
9, 14592, Note_on_c, 11, 51, 127
9, 14592, Note_on_c, 11, 56, 127
9, 14640, Note_on_c, 11, 51, 0
9, 14640, Note_on_c, 11, 56, 0
9, 14640, Note_on_c, 11, 51, 127
9, 14640, Note_on_c, 11, 56, 127
9, 14688, Note_on_c, 11, 51, 0
9, 14688, Note_on_c, 11, 56, 0
9, 14688, Note_on_c, 11, 51, 127
9, 14688, Note_on_c, 11, 56, 127
9, 14736, Note_on_c, 11, 51, 0
9, 14736, Note_on_c, 11, 56, 0
9, 14736, Note_on_c, 11, 51, 127
9, 14736, Note_on_c, 11, 56, 127
9, 14784, Note_on_c, 11, 51, 0
9, 14784, Note_on_c, 11, 56, 0
9, 14832, Note_on_c, 11, 51, 127
9, 14832, Note_on_c, 11, 56, 127
9, 14880, Note_on_c, 11, 51, 0
9, 14880, Note_on_c, 11, 56, 0
9, 14928, Note_on_c, 11, 51, 127
9, 14928, Note_on_c, 11, 56, 127
9, 14976, Note_on_c, 11, 51, 0
9, 14976, Note_on_c, 11, 56, 0
9, 15024, Note_on_c, 11, 51, 127
9, 15024, Note_on_c, 11, 56, 127
9, 15072, Note_on_c, 11, 51, 0
9, 15072, Note_on_c, 11, 56, 0
9, 15072, Note_on_c, 11, 51, 127
9, 15072, Note_on_c, 11, 56, 127
9, 15120, Note_on_c, 11, 51, 0
9, 15120, Note_on_c, 11, 56, 0
9, 15120, Note_on_c, 11, 51, 127
9, 15120, Note_on_c, 11, 56, 127
9, 15168, Note_on_c, 11, 51, 0
9, 15168, Note_on_c, 11, 56, 0
9, 15216, Note_on_c, 11, 51, 127
9, 15216, Note_on_c, 11, 56, 127
9, 15264, Note_on_c, 11, 51, 0
9, 15264, Note_on_c, 11, 56, 0
9, 15312, Note_on_c, 11, 51, 127
9, 15312, Note_on_c, 11, 56, 127
9, 15360, Note_on_c, 11, 51, 0
9, 15360, Note_on_c, 11, 56, 0
9, 15360, Note_on_c, 11, 44, 127
9, 15360, Note_on_c, 11, 49, 127
9, 15408, Note_on_c, 11, 44, 0
9, 15408, Note_on_c, 11, 49, 0
9, 15408, Note_on_c, 11, 44, 127
9, 15408, Note_on_c, 11, 49, 127
9, 15456, Note_on_c, 11, 44, 0
9, 15456, Note_on_c, 11, 49, 0
9, 15456, Note_on_c, 11, 44, 127
9, 15456, Note_on_c, 11, 49, 127
9, 15504, Note_on_c, 11, 44, 0
9, 15504, Note_on_c, 11, 49, 0
9, 15504, Note_on_c, 11, 44, 127
9, 15504, Note_on_c, 11, 49, 127
9, 15552, Note_on_c, 11, 44, 0
9, 15552, Note_on_c, 11, 49, 0
9, 15600, Note_on_c, 11, 44, 127
9, 15600, Note_on_c, 11, 49, 127
9, 15648, Note_on_c, 11, 44, 0
9, 15648, Note_on_c, 11, 49, 0
9, 15696, Note_on_c, 11, 44, 127
9, 15696, Note_on_c, 11, 49, 127
9, 15744, Note_on_c, 11, 44, 0
9, 15744, Note_on_c, 11, 49, 0
9, 15792, Note_on_c, 11, 44, 127
9, 15792, Note_on_c, 11, 49, 127
9, 15840, Note_on_c, 11, 44, 0
9, 15840, Note_on_c, 11, 49, 0
9, 15840, Note_on_c, 11, 44, 127
9, 15840, Note_on_c, 11, 49, 127
9, 15888, Note_on_c, 11, 44, 0
9, 15888, Note_on_c, 11, 49, 0
9, 15888, Note_on_c, 11, 44, 127
9, 15888, Note_on_c, 11, 49, 127
9, 15936, Note_on_c, 11, 44, 0
9, 15936, Note_on_c, 11, 49, 0
9, 15984, Note_on_c, 11, 44, 127
9, 15984, Note_on_c, 11, 49, 127
9, 16032, Note_on_c, 11, 44, 0
9, 16032, Note_on_c, 11, 49, 0
9, 16080, Note_on_c, 11, 44, 127
9, 16080, Note_on_c, 11, 49, 127
9, 16128, Note_on_c, 11, 44, 0
9, 16128, Note_on_c, 11, 49, 0
9, 16128, Note_on_c, 11, 47, 127
9, 16128, Note_on_c, 11, 52, 127
9, 16176, Note_on_c, 11, 47, 0
9, 16176, Note_on_c, 11, 52, 0
9, 16176, Note_on_c, 11, 47, 127
9, 16176, Note_on_c, 11, 52, 127
9, 16224, Note_on_c, 11, 47, 0
9, 16224, Note_on_c, 11, 52, 0
9, 16224, Note_on_c, 11, 47, 127
9, 16224, Note_on_c, 11, 52, 127
9, 16272, Note_on_c, 11, 47, 0
9, 16272, Note_on_c, 11, 52, 0
9, 16272, Note_on_c, 11, 47, 127
9, 16272, Note_on_c, 11, 52, 127
9, 16320, Note_on_c, 11, 47, 0
9, 16320, Note_on_c, 11, 52, 0
9, 16368, Note_on_c, 11, 47, 127
9, 16368, Note_on_c, 11, 52, 127
9, 16416, Note_on_c, 11, 47, 0
9, 16416, Note_on_c, 11, 52, 0
9, 16464, Note_on_c, 11, 47, 127
9, 16464, Note_on_c, 11, 52, 127
9, 16512, Note_on_c, 11, 47, 0
9, 16512, Note_on_c, 11, 52, 0
9, 16560, Note_on_c, 11, 47, 127
9, 16560, Note_on_c, 11, 52, 127
9, 16608, Note_on_c, 11, 47, 0
9, 16608, Note_on_c, 11, 52, 0
9, 16608, Note_on_c, 11, 47, 127
9, 16608, Note_on_c, 11, 52, 127
9, 16656, Note_on_c, 11, 47, 0
9, 16656, Note_on_c, 11, 52, 0
9, 16656, Note_on_c, 11, 47, 127
9, 16656, Note_on_c, 11, 52, 127
9, 16704, Note_on_c, 11, 47, 0
9, 16704, Note_on_c, 11, 52, 0
9, 16752, Note_on_c, 11, 47, 127
9, 16752, Note_on_c, 11, 52, 127
9, 16800, Note_on_c, 11, 47, 0
9, 16800, Note_on_c, 11, 52, 0
9, 16848, Note_on_c, 11, 47, 127
9, 16848, Note_on_c, 11, 52, 127
9, 16896, Note_on_c, 11, 47, 0
9, 16896, Note_on_c, 11, 52, 0
9, 16896, Note_on_c, 11, 49, 127
9, 16896, Note_on_c, 11, 54, 127
9, 16944, Note_on_c, 11, 49, 0
9, 16944, Note_on_c, 11, 54, 0
9, 16944, Note_on_c, 11, 49, 127
9, 16944, Note_on_c, 11, 54, 127
9, 16992, Note_on_c, 11, 49, 0
9, 16992, Note_on_c, 11, 54, 0
9, 16992, Note_on_c, 11, 49, 127
9, 16992, Note_on_c, 11, 54, 127
9, 17040, Note_on_c, 11, 49, 0
9, 17040, Note_on_c, 11, 54, 0
9, 17040, Note_on_c, 11, 49, 127
9, 17040, Note_on_c, 11, 54, 127
9, 17088, Note_on_c, 11, 49, 0
9, 17088, Note_on_c, 11, 54, 0
9, 17136, Note_on_c, 11, 49, 127
9, 17136, Note_on_c, 11, 54, 127
9, 17184, Note_on_c, 11, 49, 0
9, 17184, Note_on_c, 11, 54, 0
9, 17232, Note_on_c, 11, 49, 127
9, 17232, Note_on_c, 11, 54, 127
9, 17280, Note_on_c, 11, 49, 0
9, 17280, Note_on_c, 11, 54, 0
9, 17328, Note_on_c, 11, 49, 127
9, 17328, Note_on_c, 11, 54, 127
9, 17376, Note_on_c, 11, 49, 0
9, 17376, Note_on_c, 11, 54, 0
9, 17376, Note_on_c, 11, 49, 127
9, 17376, Note_on_c, 11, 54, 127
9, 17424, Note_on_c, 11, 49, 0
9, 17424, Note_on_c, 11, 54, 0
9, 17424, Note_on_c, 11, 49, 127
9, 17424, Note_on_c, 11, 54, 127
9, 17472, Note_on_c, 11, 49, 0
9, 17472, Note_on_c, 11, 54, 0
9, 17520, Note_on_c, 11, 49, 127
9, 17520, Note_on_c, 11, 54, 127
9, 17568, Note_on_c, 11, 49, 0
9, 17568, Note_on_c, 11, 54, 0
9, 17616, Note_on_c, 11, 49, 127
9, 17616, Note_on_c, 11, 54, 127
9, 17664, Note_on_c, 11, 49, 0
9, 17664, Note_on_c, 11, 54, 0
9, 17664, Note_on_c, 11, 51, 127
9, 17664, Note_on_c, 11, 56, 127
9, 17712, Note_on_c, 11, 51, 0
9, 17712, Note_on_c, 11, 56, 0
9, 17712, Note_on_c, 11, 51, 127
9, 17712, Note_on_c, 11, 56, 127
9, 17760, Note_on_c, 11, 51, 0
9, 17760, Note_on_c, 11, 56, 0
9, 17760, Note_on_c, 11, 51, 127
9, 17760, Note_on_c, 11, 56, 127
9, 17808, Note_on_c, 11, 51, 0
9, 17808, Note_on_c, 11, 56, 0
9, 17808, Note_on_c, 11, 51, 127
9, 17808, Note_on_c, 11, 56, 127
9, 17856, Note_on_c, 11, 51, 0
9, 17856, Note_on_c, 11, 56, 0
9, 17904, Note_on_c, 11, 51, 127
9, 17904, Note_on_c, 11, 56, 127
9, 17952, Note_on_c, 11, 51, 0
9, 17952, Note_on_c, 11, 56, 0
9, 18000, Note_on_c, 11, 51, 127
9, 18000, Note_on_c, 11, 56, 127
9, 18048, Note_on_c, 11, 51, 0
9, 18048, Note_on_c, 11, 56, 0
9, 18096, Note_on_c, 11, 51, 127
9, 18096, Note_on_c, 11, 56, 127
9, 18144, Note_on_c, 11, 51, 0
9, 18144, Note_on_c, 11, 56, 0
9, 18144, Note_on_c, 11, 51, 127
9, 18144, Note_on_c, 11, 56, 127
9, 18192, Note_on_c, 11, 51, 0
9, 18192, Note_on_c, 11, 56, 0
9, 18192, Note_on_c, 11, 51, 127
9, 18192, Note_on_c, 11, 56, 127
9, 18240, Note_on_c, 11, 51, 0
9, 18240, Note_on_c, 11, 56, 0
9, 18288, Note_on_c, 11, 51, 127
9, 18288, Note_on_c, 11, 56, 127
9, 18336, Note_on_c, 11, 51, 0
9, 18336, Note_on_c, 11, 56, 0
9, 18384, Note_on_c, 11, 51, 127
9, 18384, Note_on_c, 11, 56, 127
9, 18432, Note_on_c, 11, 51, 0
9, 18432, Note_on_c, 11, 56, 0
9, 18432, Note_on_c, 11, 44, 127
9, 18432, Note_on_c, 11, 49, 127
9, 18480, Note_on_c, 11, 44, 0
9, 18480, Note_on_c, 11, 49, 0
9, 18480, Note_on_c, 11, 44, 127
9, 18480, Note_on_c, 11, 49, 127
9, 18528, Note_on_c, 11, 44, 0
9, 18528, Note_on_c, 11, 49, 0
9, 18528, Note_on_c, 11, 44, 127
9, 18528, Note_on_c, 11, 49, 127
9, 18576, Note_on_c, 11, 44, 0
9, 18576, Note_on_c, 11, 49, 0
9, 18576, Note_on_c, 11, 44, 127
9, 18576, Note_on_c, 11, 49, 127
9, 18624, Note_on_c, 11, 44, 0
9, 18624, Note_on_c, 11, 49, 0
9, 18672, Note_on_c, 11, 44, 127
9, 18672, Note_on_c, 11, 49, 127
9, 18720, Note_on_c, 11, 44, 0
9, 18720, Note_on_c, 11, 49, 0
9, 18768, Note_on_c, 11, 44, 127
9, 18768, Note_on_c, 11, 49, 127
9, 18816, Note_on_c, 11, 44, 0
9, 18816, Note_on_c, 11, 49, 0
9, 18864, Note_on_c, 11, 44, 127
9, 18864, Note_on_c, 11, 49, 127
9, 18912, Note_on_c, 11, 44, 0
9, 18912, Note_on_c, 11, 49, 0
9, 18912, Note_on_c, 11, 44, 127
9, 18912, Note_on_c, 11, 49, 127
9, 18960, Note_on_c, 11, 44, 0
9, 18960, Note_on_c, 11, 49, 0
9, 18960, Note_on_c, 11, 44, 127
9, 18960, Note_on_c, 11, 49, 127
9, 19008, Note_on_c, 11, 44, 0
9, 19008, Note_on_c, 11, 49, 0
9, 19056, Note_on_c, 11, 44, 127
9, 19056, Note_on_c, 11, 49, 127
9, 19104, Note_on_c, 11, 44, 0
9, 19104, Note_on_c, 11, 49, 0
9, 19152, Note_on_c, 11, 44, 127
9, 19152, Note_on_c, 11, 49, 127
9, 19200, Note_on_c, 11, 44, 0
9, 19200, Note_on_c, 11, 49, 0
9, 19200, Note_on_c, 11, 47, 127
9, 19200, Note_on_c, 11, 52, 127
9, 19248, Note_on_c, 11, 47, 0
9, 19248, Note_on_c, 11, 52, 0
9, 19248, Note_on_c, 11, 47, 127
9, 19248, Note_on_c, 11, 52, 127
9, 19296, Note_on_c, 11, 47, 0
9, 19296, Note_on_c, 11, 52, 0
9, 19296, Note_on_c, 11, 47, 127
9, 19296, Note_on_c, 11, 52, 127
9, 19344, Note_on_c, 11, 47, 0
9, 19344, Note_on_c, 11, 52, 0
9, 19344, Note_on_c, 11, 47, 127
9, 19344, Note_on_c, 11, 52, 127
9, 19392, Note_on_c, 11, 47, 0
9, 19392, Note_on_c, 11, 52, 0
9, 19440, Note_on_c, 11, 47, 127
9, 19440, Note_on_c, 11, 52, 127
9, 19488, Note_on_c, 11, 47, 0
9, 19488, Note_on_c, 11, 52, 0
9, 19536, Note_on_c, 11, 47, 127
9, 19536, Note_on_c, 11, 52, 127
9, 19584, Note_on_c, 11, 47, 0
9, 19584, Note_on_c, 11, 52, 0
9, 19632, Note_on_c, 11, 47, 127
9, 19632, Note_on_c, 11, 52, 127
9, 19680, Note_on_c, 11, 47, 0
9, 19680, Note_on_c, 11, 52, 0
9, 19680, Note_on_c, 11, 47, 127
9, 19680, Note_on_c, 11, 52, 127
9, 19728, Note_on_c, 11, 47, 0
9, 19728, Note_on_c, 11, 52, 0
9, 19728, Note_on_c, 11, 47, 127
9, 19728, Note_on_c, 11, 52, 127
9, 19776, Note_on_c, 11, 47, 0
9, 19776, Note_on_c, 11, 52, 0
9, 19824, Note_on_c, 11, 47, 127
9, 19824, Note_on_c, 11, 52, 127
9, 19872, Note_on_c, 11, 47, 0
9, 19872, Note_on_c, 11, 52, 0
9, 19920, Note_on_c, 11, 47, 127
9, 19920, Note_on_c, 11, 52, 127
9, 19968, Note_on_c, 11, 47, 0
9, 19968, Note_on_c, 11, 52, 0
9, 19968, Note_on_c, 11, 49, 127
9, 19968, Note_on_c, 11, 54, 127
9, 20016, Note_on_c, 11, 49, 0
9, 20016, Note_on_c, 11, 54, 0
9, 20016, Note_on_c, 11, 49, 127
9, 20016, Note_on_c, 11, 54, 127
9, 20064, Note_on_c, 11, 49, 0
9, 20064, Note_on_c, 11, 54, 0
9, 20064, Note_on_c, 11, 49, 127
9, 20064, Note_on_c, 11, 54, 127
9, 20112, Note_on_c, 11, 49, 0
9, 20112, Note_on_c, 11, 54, 0
9, 20112, Note_on_c, 11, 49, 127
9, 20112, Note_on_c, 11, 54, 127
9, 20160, Note_on_c, 11, 49, 0
9, 20160, Note_on_c, 11, 54, 0
9, 20208, Note_on_c, 11, 49, 127
9, 20208, Note_on_c, 11, 54, 127
9, 20256, Note_on_c, 11, 49, 0
9, 20256, Note_on_c, 11, 54, 0
9, 20304, Note_on_c, 11, 49, 127
9, 20304, Note_on_c, 11, 54, 127
9, 20352, Note_on_c, 11, 49, 0
9, 20352, Note_on_c, 11, 54, 0
9, 20400, Note_on_c, 11, 49, 127
9, 20400, Note_on_c, 11, 54, 127
9, 20448, Note_on_c, 11, 49, 0
9, 20448, Note_on_c, 11, 54, 0
9, 20448, Note_on_c, 11, 49, 127
9, 20448, Note_on_c, 11, 54, 127
9, 20496, Note_on_c, 11, 49, 0
9, 20496, Note_on_c, 11, 54, 0
9, 20496, Note_on_c, 11, 49, 127
9, 20496, Note_on_c, 11, 54, 127
9, 20544, Note_on_c, 11, 49, 0
9, 20544, Note_on_c, 11, 54, 0
9, 20592, Note_on_c, 11, 49, 127
9, 20592, Note_on_c, 11, 54, 127
9, 20640, Note_on_c, 11, 49, 0
9, 20640, Note_on_c, 11, 54, 0
9, 20688, Note_on_c, 11, 49, 127
9, 20688, Note_on_c, 11, 54, 127
9, 20736, Note_on_c, 11, 49, 0
9, 20736, Note_on_c, 11, 54, 0
9, 20736, Note_on_c, 11, 51, 127
9, 20736, Note_on_c, 11, 56, 127
9, 20784, Note_on_c, 11, 51, 0
9, 20784, Note_on_c, 11, 56, 0
9, 20784, Note_on_c, 11, 51, 127
9, 20784, Note_on_c, 11, 56, 127
9, 20832, Note_on_c, 11, 51, 0
9, 20832, Note_on_c, 11, 56, 0
9, 20832, Note_on_c, 11, 51, 127
9, 20832, Note_on_c, 11, 56, 127
9, 20880, Note_on_c, 11, 51, 0
9, 20880, Note_on_c, 11, 56, 0
9, 20880, Note_on_c, 11, 51, 127
9, 20880, Note_on_c, 11, 56, 127
9, 20928, Note_on_c, 11, 51, 0
9, 20928, Note_on_c, 11, 56, 0
9, 20976, Note_on_c, 11, 51, 127
9, 20976, Note_on_c, 11, 56, 127
9, 21024, Note_on_c, 11, 51, 0
9, 21024, Note_on_c, 11, 56, 0
9, 21072, Note_on_c, 11, 51, 127
9, 21072, Note_on_c, 11, 56, 127
9, 21120, Note_on_c, 11, 51, 0
9, 21120, Note_on_c, 11, 56, 0
9, 21168, Note_on_c, 11, 51, 127
9, 21168, Note_on_c, 11, 56, 127
9, 21216, Note_on_c, 11, 51, 0
9, 21216, Note_on_c, 11, 56, 0
9, 21216, Note_on_c, 11, 51, 127
9, 21216, Note_on_c, 11, 56, 127
9, 21264, Note_on_c, 11, 51, 0
9, 21264, Note_on_c, 11, 56, 0
9, 21264, Note_on_c, 11, 51, 127
9, 21264, Note_on_c, 11, 56, 127
9, 21312, Note_on_c, 11, 51, 0
9, 21312, Note_on_c, 11, 56, 0
9, 21360, Note_on_c, 11, 51, 127
9, 21360, Note_on_c, 11, 56, 127
9, 21408, Note_on_c, 11, 51, 0
9, 21408, Note_on_c, 11, 56, 0
9, 21456, Note_on_c, 11, 51, 127
9, 21456, Note_on_c, 11, 56, 127
9, 21504, Note_on_c, 11, 51, 0
9, 21504, Note_on_c, 11, 56, 0
9, 21504, Note_on_c, 11, 44, 127
9, 21504, Note_on_c, 11, 49, 127
9, 21552, Note_on_c, 11, 44, 0
9, 21552, Note_on_c, 11, 49, 0
9, 21552, Note_on_c, 11, 44, 127
9, 21552, Note_on_c, 11, 49, 127
9, 21600, Note_on_c, 11, 44, 0
9, 21600, Note_on_c, 11, 49, 0
9, 21600, Note_on_c, 11, 44, 127
9, 21600, Note_on_c, 11, 49, 127
9, 21648, Note_on_c, 11, 44, 0
9, 21648, Note_on_c, 11, 49, 0
9, 21648, Note_on_c, 11, 44, 127
9, 21648, Note_on_c, 11, 49, 127
9, 21696, Note_on_c, 11, 44, 0
9, 21696, Note_on_c, 11, 49, 0
9, 21744, Note_on_c, 11, 44, 127
9, 21744, Note_on_c, 11, 49, 127
9, 21792, Note_on_c, 11, 44, 0
9, 21792, Note_on_c, 11, 49, 0
9, 21840, Note_on_c, 11, 44, 127
9, 21840, Note_on_c, 11, 49, 127
9, 21888, Note_on_c, 11, 44, 0
9, 21888, Note_on_c, 11, 49, 0
9, 21936, Note_on_c, 11, 44, 127
9, 21936, Note_on_c, 11, 49, 127
9, 21984, Note_on_c, 11, 44, 0
9, 21984, Note_on_c, 11, 49, 0
9, 21984, Note_on_c, 11, 44, 127
9, 21984, Note_on_c, 11, 49, 127
9, 22032, Note_on_c, 11, 44, 0
9, 22032, Note_on_c, 11, 49, 0
9, 22032, Note_on_c, 11, 44, 127
9, 22032, Note_on_c, 11, 49, 127
9, 22080, Note_on_c, 11, 44, 0
9, 22080, Note_on_c, 11, 49, 0
9, 22128, Note_on_c, 11, 44, 127
9, 22128, Note_on_c, 11, 49, 127
9, 22176, Note_on_c, 11, 44, 0
9, 22176, Note_on_c, 11, 49, 0
9, 22224, Note_on_c, 11, 44, 127
9, 22224, Note_on_c, 11, 49, 127
9, 22272, Note_on_c, 11, 44, 0
9, 22272, Note_on_c, 11, 49, 0
9, 22272, Note_on_c, 11, 47, 127
9, 22272, Note_on_c, 11, 52, 127
9, 22320, Note_on_c, 11, 47, 0
9, 22320, Note_on_c, 11, 52, 0
9, 22320, Note_on_c, 11, 47, 127
9, 22320, Note_on_c, 11, 52, 127
9, 22368, Note_on_c, 11, 47, 0
9, 22368, Note_on_c, 11, 52, 0
9, 22368, Note_on_c, 11, 47, 127
9, 22368, Note_on_c, 11, 52, 127
9, 22416, Note_on_c, 11, 47, 0
9, 22416, Note_on_c, 11, 52, 0
9, 22416, Note_on_c, 11, 47, 127
9, 22416, Note_on_c, 11, 52, 127
9, 22464, Note_on_c, 11, 47, 0
9, 22464, Note_on_c, 11, 52, 0
9, 22512, Note_on_c, 11, 47, 127
9, 22512, Note_on_c, 11, 52, 127
9, 22560, Note_on_c, 11, 47, 0
9, 22560, Note_on_c, 11, 52, 0
9, 22608, Note_on_c, 11, 47, 127
9, 22608, Note_on_c, 11, 52, 127
9, 22656, Note_on_c, 11, 47, 0
9, 22656, Note_on_c, 11, 52, 0
9, 22704, Note_on_c, 11, 47, 127
9, 22704, Note_on_c, 11, 52, 127
9, 22752, Note_on_c, 11, 47, 0
9, 22752, Note_on_c, 11, 52, 0
9, 22752, Note_on_c, 11, 47, 127
9, 22752, Note_on_c, 11, 52, 127
9, 22800, Note_on_c, 11, 47, 0
9, 22800, Note_on_c, 11, 52, 0
9, 22800, Note_on_c, 11, 47, 127
9, 22800, Note_on_c, 11, 52, 127
9, 22848, Note_on_c, 11, 47, 0
9, 22848, Note_on_c, 11, 52, 0
9, 22896, Note_on_c, 11, 47, 127
9, 22896, Note_on_c, 11, 52, 127
9, 22944, Note_on_c, 11, 47, 0
9, 22944, Note_on_c, 11, 52, 0
9, 22992, Note_on_c, 11, 47, 127
9, 22992, Note_on_c, 11, 52, 127
9, 23040, Note_on_c, 11, 47, 0
9, 23040, Note_on_c, 11, 52, 0
9, 23040, Note_on_c, 11, 49, 127
9, 23040, Note_on_c, 11, 54, 127
9, 23088, Note_on_c, 11, 49, 0
9, 23088, Note_on_c, 11, 54, 0
9, 23088, Note_on_c, 11, 49, 127
9, 23088, Note_on_c, 11, 54, 127
9, 23136, Note_on_c, 11, 49, 0
9, 23136, Note_on_c, 11, 54, 0
9, 23136, Note_on_c, 11, 49, 127
9, 23136, Note_on_c, 11, 54, 127
9, 23184, Note_on_c, 11, 49, 0
9, 23184, Note_on_c, 11, 54, 0
9, 23184, Note_on_c, 11, 49, 127
9, 23184, Note_on_c, 11, 54, 127
9, 23232, Note_on_c, 11, 49, 0
9, 23232, Note_on_c, 11, 54, 0
9, 23280, Note_on_c, 11, 49, 127
9, 23280, Note_on_c, 11, 54, 127
9, 23328, Note_on_c, 11, 49, 0
9, 23328, Note_on_c, 11, 54, 0
9, 23376, Note_on_c, 11, 49, 127
9, 23376, Note_on_c, 11, 54, 127
9, 23424, Note_on_c, 11, 49, 0
9, 23424, Note_on_c, 11, 54, 0
9, 23472, Note_on_c, 11, 49, 127
9, 23472, Note_on_c, 11, 54, 127
9, 23520, Note_on_c, 11, 49, 0
9, 23520, Note_on_c, 11, 54, 0
9, 23520, Note_on_c, 11, 49, 127
9, 23520, Note_on_c, 11, 54, 127
9, 23568, Note_on_c, 11, 49, 0
9, 23568, Note_on_c, 11, 54, 0
9, 23568, Note_on_c, 11, 49, 127
9, 23568, Note_on_c, 11, 54, 127
9, 23616, Note_on_c, 11, 49, 0
9, 23616, Note_on_c, 11, 54, 0
9, 23664, Note_on_c, 11, 49, 127
9, 23664, Note_on_c, 11, 54, 127
9, 23712, Note_on_c, 11, 49, 0
9, 23712, Note_on_c, 11, 54, 0
9, 23760, Note_on_c, 11, 49, 127
9, 23760, Note_on_c, 11, 54, 127
9, 23808, Note_on_c, 11, 49, 0
9, 23808, Note_on_c, 11, 54, 0
9, 23808, Note_on_c, 11, 51, 127
9, 23808, Note_on_c, 11, 56, 127
9, 23856, Note_on_c, 11, 51, 0
9, 23856, Note_on_c, 11, 56, 0
9, 23856, Note_on_c, 11, 51, 127
9, 23856, Note_on_c, 11, 56, 127
9, 23904, Note_on_c, 11, 51, 0
9, 23904, Note_on_c, 11, 56, 0
9, 23904, Note_on_c, 11, 51, 127
9, 23904, Note_on_c, 11, 56, 127
9, 23952, Note_on_c, 11, 51, 0
9, 23952, Note_on_c, 11, 56, 0
9, 23952, Note_on_c, 11, 51, 127
9, 23952, Note_on_c, 11, 56, 127
9, 24000, Note_on_c, 11, 51, 0
9, 24000, Note_on_c, 11, 56, 0
9, 24048, Note_on_c, 11, 51, 127
9, 24048, Note_on_c, 11, 56, 127
9, 24096, Note_on_c, 11, 51, 0
9, 24096, Note_on_c, 11, 56, 0
9, 24144, Note_on_c, 11, 51, 127
9, 24144, Note_on_c, 11, 56, 127
9, 24192, Note_on_c, 11, 51, 0
9, 24192, Note_on_c, 11, 56, 0
9, 24240, Note_on_c, 11, 51, 127
9, 24240, Note_on_c, 11, 56, 127
9, 24288, Note_on_c, 11, 51, 0
9, 24288, Note_on_c, 11, 56, 0
9, 24288, Note_on_c, 11, 51, 127
9, 24288, Note_on_c, 11, 56, 127
9, 24336, Note_on_c, 11, 51, 0
9, 24336, Note_on_c, 11, 56, 0
9, 24336, Note_on_c, 11, 51, 127
9, 24336, Note_on_c, 11, 56, 127
9, 24384, Note_on_c, 11, 51, 0
9, 24384, Note_on_c, 11, 56, 0
9, 24432, Note_on_c, 11, 51, 127
9, 24432, Note_on_c, 11, 56, 127
9, 24480, Note_on_c, 11, 51, 0
9, 24480, Note_on_c, 11, 56, 0
9, 24528, Note_on_c, 11, 51, 127
9, 24528, Note_on_c, 11, 56, 127
9, 24576, Note_on_c, 11, 51, 0
9, 24576, Note_on_c, 11, 56, 0
9, 24576, Note_on_c, 11, 44, 127
9, 24576, Note_on_c, 11, 49, 127
9, 24624, Note_on_c, 11, 44, 0
9, 24624, Note_on_c, 11, 49, 0
9, 24624, Note_on_c, 11, 44, 127
9, 24624, Note_on_c, 11, 49, 127
9, 24672, Note_on_c, 11, 44, 0
9, 24672, Note_on_c, 11, 49, 0
9, 24672, Note_on_c, 11, 44, 127
9, 24672, Note_on_c, 11, 49, 127
9, 24720, Note_on_c, 11, 44, 0
9, 24720, Note_on_c, 11, 49, 0
9, 24720, Note_on_c, 11, 44, 127
9, 24720, Note_on_c, 11, 49, 127
9, 24768, Note_on_c, 11, 44, 0
9, 24768, Note_on_c, 11, 49, 0
9, 24816, Note_on_c, 11, 44, 127
9, 24816, Note_on_c, 11, 49, 127
9, 24864, Note_on_c, 11, 44, 0
9, 24864, Note_on_c, 11, 49, 0
9, 24912, Note_on_c, 11, 44, 127
9, 24912, Note_on_c, 11, 49, 127
9, 24960, Note_on_c, 11, 44, 0
9, 24960, Note_on_c, 11, 49, 0
9, 25008, Note_on_c, 11, 44, 127
9, 25008, Note_on_c, 11, 49, 127
9, 25056, Note_on_c, 11, 44, 0
9, 25056, Note_on_c, 11, 49, 0
9, 25056, Note_on_c, 11, 44, 127
9, 25056, Note_on_c, 11, 49, 127
9, 25104, Note_on_c, 11, 44, 0
9, 25104, Note_on_c, 11, 49, 0
9, 25104, Note_on_c, 11, 44, 127
9, 25104, Note_on_c, 11, 49, 127
9, 25152, Note_on_c, 11, 44, 0
9, 25152, Note_on_c, 11, 49, 0
9, 25200, Note_on_c, 11, 44, 127
9, 25200, Note_on_c, 11, 49, 127
9, 25248, Note_on_c, 11, 44, 0
9, 25248, Note_on_c, 11, 49, 0
9, 25296, Note_on_c, 11, 44, 127
9, 25296, Note_on_c, 11, 49, 127
9, 25344, Note_on_c, 11, 44, 0
9, 25344, Note_on_c, 11, 49, 0
9, 25344, Note_on_c, 11, 47, 127
9, 25344, Note_on_c, 11, 52, 127
9, 25392, Note_on_c, 11, 47, 0
9, 25392, Note_on_c, 11, 52, 0
9, 25392, Note_on_c, 11, 47, 127
9, 25392, Note_on_c, 11, 52, 127
9, 25440, Note_on_c, 11, 47, 0
9, 25440, Note_on_c, 11, 52, 0
9, 25440, Note_on_c, 11, 47, 127
9, 25440, Note_on_c, 11, 52, 127
9, 25488, Note_on_c, 11, 47, 0
9, 25488, Note_on_c, 11, 52, 0
9, 25488, Note_on_c, 11, 47, 127
9, 25488, Note_on_c, 11, 52, 127
9, 25536, Note_on_c, 11, 47, 0
9, 25536, Note_on_c, 11, 52, 0
9, 25584, Note_on_c, 11, 47, 127
9, 25584, Note_on_c, 11, 52, 127
9, 25632, Note_on_c, 11, 47, 0
9, 25632, Note_on_c, 11, 52, 0
9, 25680, Note_on_c, 11, 47, 127
9, 25680, Note_on_c, 11, 52, 127
9, 25728, Note_on_c, 11, 47, 0
9, 25728, Note_on_c, 11, 52, 0
9, 25776, Note_on_c, 11, 47, 127
9, 25776, Note_on_c, 11, 52, 127
9, 25824, Note_on_c, 11, 47, 0
9, 25824, Note_on_c, 11, 52, 0
9, 25824, Note_on_c, 11, 47, 127
9, 25824, Note_on_c, 11, 52, 127
9, 25872, Note_on_c, 11, 47, 0
9, 25872, Note_on_c, 11, 52, 0
9, 25872, Note_on_c, 11, 47, 127
9, 25872, Note_on_c, 11, 52, 127
9, 25920, Note_on_c, 11, 47, 0
9, 25920, Note_on_c, 11, 52, 0
9, 25968, Note_on_c, 11, 47, 127
9, 25968, Note_on_c, 11, 52, 127
9, 26016, Note_on_c, 11, 47, 0
9, 26016, Note_on_c, 11, 52, 0
9, 26064, Note_on_c, 11, 47, 127
9, 26064, Note_on_c, 11, 52, 127
9, 26112, Note_on_c, 11, 47, 0
9, 26112, Note_on_c, 11, 52, 0
9, 26112, Note_on_c, 11, 49, 127
9, 26112, Note_on_c, 11, 54, 127
9, 26160, Note_on_c, 11, 49, 0
9, 26160, Note_on_c, 11, 54, 0
9, 26160, Note_on_c, 11, 49, 127
9, 26160, Note_on_c, 11, 54, 127
9, 26208, Note_on_c, 11, 49, 0
9, 26208, Note_on_c, 11, 54, 0
9, 26208, Note_on_c, 11, 49, 127
9, 26208, Note_on_c, 11, 54, 127
9, 26256, Note_on_c, 11, 49, 0
9, 26256, Note_on_c, 11, 54, 0
9, 26256, Note_on_c, 11, 49, 127
9, 26256, Note_on_c, 11, 54, 127
9, 26304, Note_on_c, 11, 49, 0
9, 26304, Note_on_c, 11, 54, 0
9, 26352, Note_on_c, 11, 49, 127
9, 26352, Note_on_c, 11, 54, 127
9, 26400, Note_on_c, 11, 49, 0
9, 26400, Note_on_c, 11, 54, 0
9, 26448, Note_on_c, 11, 49, 127
9, 26448, Note_on_c, 11, 54, 127
9, 26496, Note_on_c, 11, 49, 0
9, 26496, Note_on_c, 11, 54, 0
9, 26544, Note_on_c, 11, 49, 127
9, 26544, Note_on_c, 11, 54, 127
9, 26592, Note_on_c, 11, 49, 0
9, 26592, Note_on_c, 11, 54, 0
9, 26592, Note_on_c, 11, 49, 127
9, 26592, Note_on_c, 11, 54, 127
9, 26640, Note_on_c, 11, 49, 0
9, 26640, Note_on_c, 11, 54, 0
9, 26640, Note_on_c, 11, 49, 127
9, 26640, Note_on_c, 11, 54, 127
9, 26688, Note_on_c, 11, 49, 0
9, 26688, Note_on_c, 11, 54, 0
9, 26736, Note_on_c, 11, 49, 127
9, 26736, Note_on_c, 11, 54, 127
9, 26784, Note_on_c, 11, 49, 0
9, 26784, Note_on_c, 11, 54, 0
9, 26832, Note_on_c, 11, 49, 127
9, 26832, Note_on_c, 11, 54, 127
9, 26880, Note_on_c, 11, 49, 0
9, 26880, Note_on_c, 11, 54, 0
9, 26880, Note_on_c, 11, 51, 127
9, 26880, Note_on_c, 11, 56, 127
9, 26928, Note_on_c, 11, 51, 0
9, 26928, Note_on_c, 11, 56, 0
9, 26928, Note_on_c, 11, 51, 127
9, 26928, Note_on_c, 11, 56, 127
9, 26976, Note_on_c, 11, 51, 0
9, 26976, Note_on_c, 11, 56, 0
9, 26976, Note_on_c, 11, 51, 127
9, 26976, Note_on_c, 11, 56, 127
9, 27024, Note_on_c, 11, 51, 0
9, 27024, Note_on_c, 11, 56, 0
9, 27024, Note_on_c, 11, 51, 127
9, 27024, Note_on_c, 11, 56, 127
9, 27072, Note_on_c, 11, 51, 0
9, 27072, Note_on_c, 11, 56, 0
9, 27120, Note_on_c, 11, 51, 127
9, 27120, Note_on_c, 11, 56, 127
9, 27168, Note_on_c, 11, 51, 0
9, 27168, Note_on_c, 11, 56, 0
9, 27216, Note_on_c, 11, 51, 127
9, 27216, Note_on_c, 11, 56, 127
9, 27264, Note_on_c, 11, 51, 0
9, 27264, Note_on_c, 11, 56, 0
9, 27312, Note_on_c, 11, 51, 127
9, 27312, Note_on_c, 11, 56, 127
9, 27360, Note_on_c, 11, 51, 0
9, 27360, Note_on_c, 11, 56, 0
9, 27360, Note_on_c, 11, 51, 127
9, 27360, Note_on_c, 11, 56, 127
9, 27408, Note_on_c, 11, 51, 0
9, 27408, Note_on_c, 11, 56, 0
9, 27408, Note_on_c, 11, 51, 127
9, 27408, Note_on_c, 11, 56, 127
9, 27456, Note_on_c, 11, 51, 0
9, 27456, Note_on_c, 11, 56, 0
9, 27504, Note_on_c, 11, 51, 127
9, 27504, Note_on_c, 11, 56, 127
9, 27552, Note_on_c, 11, 51, 0
9, 27552, Note_on_c, 11, 56, 0
9, 27600, Note_on_c, 11, 51, 127
9, 27600, Note_on_c, 11, 56, 127
9, 27648, Note_on_c, 11, 51, 0
9, 27648, Note_on_c, 11, 56, 0
9, 27648, Note_on_c, 11, 44, 127
9, 27648, Note_on_c, 11, 49, 127
9, 27696, Note_on_c, 11, 44, 0
9, 27696, Note_on_c, 11, 49, 0
9, 27696, Note_on_c, 11, 44, 127
9, 27696, Note_on_c, 11, 49, 127
9, 27744, Note_on_c, 11, 44, 0
9, 27744, Note_on_c, 11, 49, 0
9, 27744, Note_on_c, 11, 44, 127
9, 27744, Note_on_c, 11, 49, 127
9, 27792, Note_on_c, 11, 44, 0
9, 27792, Note_on_c, 11, 49, 0
9, 27792, Note_on_c, 11, 44, 127
9, 27792, Note_on_c, 11, 49, 127
9, 27840, Note_on_c, 11, 44, 0
9, 27840, Note_on_c, 11, 49, 0
9, 27888, Note_on_c, 11, 44, 127
9, 27888, Note_on_c, 11, 49, 127
9, 27936, Note_on_c, 11, 44, 0
9, 27936, Note_on_c, 11, 49, 0
9, 27984, Note_on_c, 11, 44, 127
9, 27984, Note_on_c, 11, 49, 127
9, 28032, Note_on_c, 11, 44, 0
9, 28032, Note_on_c, 11, 49, 0
9, 28080, Note_on_c, 11, 44, 127
9, 28080, Note_on_c, 11, 49, 127
9, 28128, Note_on_c, 11, 44, 0
9, 28128, Note_on_c, 11, 49, 0
9, 28128, Note_on_c, 11, 44, 127
9, 28128, Note_on_c, 11, 49, 127
9, 28176, Note_on_c, 11, 44, 0
9, 28176, Note_on_c, 11, 49, 0
9, 28176, Note_on_c, 11, 44, 127
9, 28176, Note_on_c, 11, 49, 127
9, 28224, Note_on_c, 11, 44, 0
9, 28224, Note_on_c, 11, 49, 0
9, 28272, Note_on_c, 11, 44, 127
9, 28272, Note_on_c, 11, 49, 127
9, 28320, Note_on_c, 11, 44, 0
9, 28320, Note_on_c, 11, 49, 0
9, 28368, Note_on_c, 11, 44, 127
9, 28368, Note_on_c, 11, 49, 127
9, 28416, Note_on_c, 11, 44, 0
9, 28416, Note_on_c, 11, 49, 0
9, 28416, Note_on_c, 11, 47, 127
9, 28416, Note_on_c, 11, 52, 127
9, 28464, Note_on_c, 11, 47, 0
9, 28464, Note_on_c, 11, 52, 0
9, 28464, Note_on_c, 11, 47, 127
9, 28464, Note_on_c, 11, 52, 127
9, 28512, Note_on_c, 11, 47, 0
9, 28512, Note_on_c, 11, 52, 0
9, 28512, Note_on_c, 11, 47, 127
9, 28512, Note_on_c, 11, 52, 127
9, 28560, Note_on_c, 11, 47, 0
9, 28560, Note_on_c, 11, 52, 0
9, 28560, Note_on_c, 11, 47, 127
9, 28560, Note_on_c, 11, 52, 127
9, 28608, Note_on_c, 11, 47, 0
9, 28608, Note_on_c, 11, 52, 0
9, 28656, Note_on_c, 11, 47, 127
9, 28656, Note_on_c, 11, 52, 127
9, 28704, Note_on_c, 11, 47, 0
9, 28704, Note_on_c, 11, 52, 0
9, 28752, Note_on_c, 11, 47, 127
9, 28752, Note_on_c, 11, 52, 127
9, 28800, Note_on_c, 11, 47, 0
9, 28800, Note_on_c, 11, 52, 0
9, 28848, Note_on_c, 11, 47, 127
9, 28848, Note_on_c, 11, 52, 127
9, 28896, Note_on_c, 11, 47, 0
9, 28896, Note_on_c, 11, 52, 0
9, 28896, Note_on_c, 11, 47, 127
9, 28896, Note_on_c, 11, 52, 127
9, 28944, Note_on_c, 11, 47, 0
9, 28944, Note_on_c, 11, 52, 0
9, 28944, Note_on_c, 11, 47, 127
9, 28944, Note_on_c, 11, 52, 127
9, 28992, Note_on_c, 11, 47, 0
9, 28992, Note_on_c, 11, 52, 0
9, 29040, Note_on_c, 11, 47, 127
9, 29040, Note_on_c, 11, 52, 127
9, 29088, Note_on_c, 11, 47, 0
9, 29088, Note_on_c, 11, 52, 0
9, 29136, Note_on_c, 11, 47, 127
9, 29136, Note_on_c, 11, 52, 127
9, 29184, Note_on_c, 11, 47, 0
9, 29184, Note_on_c, 11, 52, 0
9, 29184, Note_on_c, 11, 49, 127
9, 29184, Note_on_c, 11, 54, 127
9, 29232, Note_on_c, 11, 49, 0
9, 29232, Note_on_c, 11, 54, 0
9, 29232, Note_on_c, 11, 49, 127
9, 29232, Note_on_c, 11, 54, 127
9, 29280, Note_on_c, 11, 49, 0
9, 29280, Note_on_c, 11, 54, 0
9, 29280, Note_on_c, 11, 49, 127
9, 29280, Note_on_c, 11, 54, 127
9, 29328, Note_on_c, 11, 49, 0
9, 29328, Note_on_c, 11, 54, 0
9, 29328, Note_on_c, 11, 49, 127
9, 29328, Note_on_c, 11, 54, 127
9, 29376, Note_on_c, 11, 49, 0
9, 29376, Note_on_c, 11, 54, 0
9, 29424, Note_on_c, 11, 49, 127
9, 29424, Note_on_c, 11, 54, 127
9, 29472, Note_on_c, 11, 49, 0
9, 29472, Note_on_c, 11, 54, 0
9, 29520, Note_on_c, 11, 49, 127
9, 29520, Note_on_c, 11, 54, 127
9, 29568, Note_on_c, 11, 49, 0
9, 29568, Note_on_c, 11, 54, 0
9, 29616, Note_on_c, 11, 49, 127
9, 29616, Note_on_c, 11, 54, 127
9, 29664, Note_on_c, 11, 49, 0
9, 29664, Note_on_c, 11, 54, 0
9, 29664, Note_on_c, 11, 49, 127
9, 29664, Note_on_c, 11, 54, 127
9, 29712, Note_on_c, 11, 49, 0
9, 29712, Note_on_c, 11, 54, 0
9, 29712, Note_on_c, 11, 49, 127
9, 29712, Note_on_c, 11, 54, 127
9, 29760, Note_on_c, 11, 49, 0
9, 29760, Note_on_c, 11, 54, 0
9, 29808, Note_on_c, 11, 49, 127
9, 29808, Note_on_c, 11, 54, 127
9, 29856, Note_on_c, 11, 49, 0
9, 29856, Note_on_c, 11, 54, 0
9, 29904, Note_on_c, 11, 49, 127
9, 29904, Note_on_c, 11, 54, 127
9, 29952, Note_on_c, 11, 49, 0
9, 29952, Note_on_c, 11, 54, 0
9, 29952, Note_on_c, 11, 51, 127
9, 29952, Note_on_c, 11, 56, 127
9, 30000, Note_on_c, 11, 51, 0
9, 30000, Note_on_c, 11, 56, 0
9, 30000, Note_on_c, 11, 51, 127
9, 30000, Note_on_c, 11, 56, 127
9, 30048, Note_on_c, 11, 51, 0
9, 30048, Note_on_c, 11, 56, 0
9, 30048, Note_on_c, 11, 51, 127
9, 30048, Note_on_c, 11, 56, 127
9, 30096, Note_on_c, 11, 51, 0
9, 30096, Note_on_c, 11, 56, 0
9, 30096, Note_on_c, 11, 51, 127
9, 30096, Note_on_c, 11, 56, 127
9, 30144, Note_on_c, 11, 51, 0
9, 30144, Note_on_c, 11, 56, 0
9, 30192, Note_on_c, 11, 51, 127
9, 30192, Note_on_c, 11, 56, 127
9, 30240, Note_on_c, 11, 51, 0
9, 30240, Note_on_c, 11, 56, 0
9, 30288, Note_on_c, 11, 51, 127
9, 30288, Note_on_c, 11, 56, 127
9, 30336, Note_on_c, 11, 51, 0
9, 30336, Note_on_c, 11, 56, 0
9, 30384, Note_on_c, 11, 51, 127
9, 30384, Note_on_c, 11, 56, 127
9, 30432, Note_on_c, 11, 51, 0
9, 30432, Note_on_c, 11, 56, 0
9, 30432, Note_on_c, 11, 51, 127
9, 30432, Note_on_c, 11, 56, 127
9, 30480, Note_on_c, 11, 51, 0
9, 30480, Note_on_c, 11, 56, 0
9, 30480, Note_on_c, 11, 51, 127
9, 30480, Note_on_c, 11, 56, 127
9, 30528, Note_on_c, 11, 51, 0
9, 30528, Note_on_c, 11, 56, 0
9, 30576, Note_on_c, 11, 51, 127
9, 30576, Note_on_c, 11, 56, 127
9, 30624, Note_on_c, 11, 51, 0
9, 30624, Note_on_c, 11, 56, 0
9, 30672, Note_on_c, 11, 51, 127
9, 30672, Note_on_c, 11, 56, 127
9, 30720, Note_on_c, 11, 51, 0
9, 30720, Note_on_c, 11, 56, 0
9, 30720, Note_on_c, 11, 44, 127
9, 30720, Note_on_c, 11, 49, 127
9, 30768, Note_on_c, 11, 44, 0
9, 30768, Note_on_c, 11, 49, 0
9, 30768, Note_on_c, 11, 44, 127
9, 30768, Note_on_c, 11, 49, 127
9, 30816, Note_on_c, 11, 44, 0
9, 30816, Note_on_c, 11, 49, 0
9, 30816, Note_on_c, 11, 44, 127
9, 30816, Note_on_c, 11, 49, 127
9, 30864, Note_on_c, 11, 44, 0
9, 30864, Note_on_c, 11, 49, 0
9, 30864, Note_on_c, 11, 44, 127
9, 30864, Note_on_c, 11, 49, 127
9, 30912, Note_on_c, 11, 44, 0
9, 30912, Note_on_c, 11, 49, 0
9, 30960, Note_on_c, 11, 44, 127
9, 30960, Note_on_c, 11, 49, 127
9, 31008, Note_on_c, 11, 44, 0
9, 31008, Note_on_c, 11, 49, 0
9, 31056, Note_on_c, 11, 44, 127
9, 31056, Note_on_c, 11, 49, 127
9, 31104, Note_on_c, 11, 44, 0
9, 31104, Note_on_c, 11, 49, 0
9, 31152, Note_on_c, 11, 44, 127
9, 31152, Note_on_c, 11, 49, 127
9, 31200, Note_on_c, 11, 44, 0
9, 31200, Note_on_c, 11, 49, 0
9, 31200, Note_on_c, 11, 44, 127
9, 31200, Note_on_c, 11, 49, 127
9, 31248, Note_on_c, 11, 44, 0
9, 31248, Note_on_c, 11, 49, 0
9, 31248, Note_on_c, 11, 44, 127
9, 31248, Note_on_c, 11, 49, 127
9, 31296, Note_on_c, 11, 44, 0
9, 31296, Note_on_c, 11, 49, 0
9, 31344, Note_on_c, 11, 44, 127
9, 31344, Note_on_c, 11, 49, 127
9, 31392, Note_on_c, 11, 44, 0
9, 31392, Note_on_c, 11, 49, 0
9, 31440, Note_on_c, 11, 44, 127
9, 31440, Note_on_c, 11, 49, 127
9, 31488, Note_on_c, 11, 44, 0
9, 31488, Note_on_c, 11, 49, 0
9, 31488, Note_on_c, 11, 47, 127
9, 31488, Note_on_c, 11, 52, 127
9, 31536, Note_on_c, 11, 47, 0
9, 31536, Note_on_c, 11, 52, 0
9, 31536, Note_on_c, 11, 47, 127
9, 31536, Note_on_c, 11, 52, 127
9, 31584, Note_on_c, 11, 47, 0
9, 31584, Note_on_c, 11, 52, 0
9, 31584, Note_on_c, 11, 47, 127
9, 31584, Note_on_c, 11, 52, 127
9, 31632, Note_on_c, 11, 47, 0
9, 31632, Note_on_c, 11, 52, 0
9, 31632, Note_on_c, 11, 47, 127
9, 31632, Note_on_c, 11, 52, 127
9, 31680, Note_on_c, 11, 47, 0
9, 31680, Note_on_c, 11, 52, 0
9, 31728, Note_on_c, 11, 47, 127
9, 31728, Note_on_c, 11, 52, 127
9, 31776, Note_on_c, 11, 47, 0
9, 31776, Note_on_c, 11, 52, 0
9, 31824, Note_on_c, 11, 47, 127
9, 31824, Note_on_c, 11, 52, 127
9, 31872, Note_on_c, 11, 47, 0
9, 31872, Note_on_c, 11, 52, 0
9, 31920, Note_on_c, 11, 47, 127
9, 31920, Note_on_c, 11, 52, 127
9, 31968, Note_on_c, 11, 47, 0
9, 31968, Note_on_c, 11, 52, 0
9, 31968, Note_on_c, 11, 47, 127
9, 31968, Note_on_c, 11, 52, 127
9, 32016, Note_on_c, 11, 47, 0
9, 32016, Note_on_c, 11, 52, 0
9, 32016, Note_on_c, 11, 47, 127
9, 32016, Note_on_c, 11, 52, 127
9, 32064, Note_on_c, 11, 47, 0
9, 32064, Note_on_c, 11, 52, 0
9, 32112, Note_on_c, 11, 47, 127
9, 32112, Note_on_c, 11, 52, 127
9, 32160, Note_on_c, 11, 47, 0
9, 32160, Note_on_c, 11, 52, 0
9, 32208, Note_on_c, 11, 47, 127
9, 32208, Note_on_c, 11, 52, 127
9, 32256, Note_on_c, 11, 47, 0
9, 32256, Note_on_c, 11, 52, 0
9, 32256, Note_on_c, 11, 49, 127
9, 32256, Note_on_c, 11, 54, 127
9, 32304, Note_on_c, 11, 49, 0
9, 32304, Note_on_c, 11, 54, 0
9, 32304, Note_on_c, 11, 49, 127
9, 32304, Note_on_c, 11, 54, 127
9, 32352, Note_on_c, 11, 49, 0
9, 32352, Note_on_c, 11, 54, 0
9, 32352, Note_on_c, 11, 49, 127
9, 32352, Note_on_c, 11, 54, 127
9, 32400, Note_on_c, 11, 49, 0
9, 32400, Note_on_c, 11, 54, 0
9, 32400, Note_on_c, 11, 49, 127
9, 32400, Note_on_c, 11, 54, 127
9, 32448, Note_on_c, 11, 49, 0
9, 32448, Note_on_c, 11, 54, 0
9, 32496, Note_on_c, 11, 49, 127
9, 32496, Note_on_c, 11, 54, 127
9, 32544, Note_on_c, 11, 49, 0
9, 32544, Note_on_c, 11, 54, 0
9, 32592, Note_on_c, 11, 49, 127
9, 32592, Note_on_c, 11, 54, 127
9, 32640, Note_on_c, 11, 49, 0
9, 32640, Note_on_c, 11, 54, 0
9, 32688, Note_on_c, 11, 49, 127
9, 32688, Note_on_c, 11, 54, 127
9, 32736, Note_on_c, 11, 49, 0
9, 32736, Note_on_c, 11, 54, 0
9, 32736, Note_on_c, 11, 49, 127
9, 32736, Note_on_c, 11, 54, 127
9, 32784, Note_on_c, 11, 49, 0
9, 32784, Note_on_c, 11, 54, 0
9, 32784, Note_on_c, 11, 49, 127
9, 32784, Note_on_c, 11, 54, 127
9, 32832, Note_on_c, 11, 49, 0
9, 32832, Note_on_c, 11, 54, 0
9, 32880, Note_on_c, 11, 49, 127
9, 32880, Note_on_c, 11, 54, 127
9, 32928, Note_on_c, 11, 49, 0
9, 32928, Note_on_c, 11, 54, 0
9, 32976, Note_on_c, 11, 49, 127
9, 32976, Note_on_c, 11, 54, 127
9, 33024, Note_on_c, 11, 49, 0
9, 33024, Note_on_c, 11, 54, 0
9, 33024, Note_on_c, 11, 51, 127
9, 33024, Note_on_c, 11, 56, 127
9, 33072, Note_on_c, 11, 51, 0
9, 33072, Note_on_c, 11, 56, 0
9, 33072, Note_on_c, 11, 51, 127
9, 33072, Note_on_c, 11, 56, 127
9, 33120, Note_on_c, 11, 51, 0
9, 33120, Note_on_c, 11, 56, 0
9, 33120, Note_on_c, 11, 51, 127
9, 33120, Note_on_c, 11, 56, 127
9, 33168, Note_on_c, 11, 51, 0
9, 33168, Note_on_c, 11, 56, 0
9, 33168, Note_on_c, 11, 51, 127
9, 33168, Note_on_c, 11, 56, 127
9, 33216, Note_on_c, 11, 51, 0
9, 33216, Note_on_c, 11, 56, 0
9, 33264, Note_on_c, 11, 51, 127
9, 33264, Note_on_c, 11, 56, 127
9, 33312, Note_on_c, 11, 51, 0
9, 33312, Note_on_c, 11, 56, 0
9, 33360, Note_on_c, 11, 51, 127
9, 33360, Note_on_c, 11, 56, 127
9, 33408, Note_on_c, 11, 51, 0
9, 33408, Note_on_c, 11, 56, 0
9, 33456, Note_on_c, 11, 51, 127
9, 33456, Note_on_c, 11, 56, 127
9, 33504, Note_on_c, 11, 51, 0
9, 33504, Note_on_c, 11, 56, 0
9, 33504, Note_on_c, 11, 51, 127
9, 33504, Note_on_c, 11, 56, 127
9, 33552, Note_on_c, 11, 51, 0
9, 33552, Note_on_c, 11, 56, 0
9, 33552, Note_on_c, 11, 51, 127
9, 33552, Note_on_c, 11, 56, 127
9, 33600, Note_on_c, 11, 51, 0
9, 33600, Note_on_c, 11, 56, 0
9, 33648, Note_on_c, 11, 51, 127
9, 33648, Note_on_c, 11, 56, 127
9, 33696, Note_on_c, 11, 51, 0
9, 33696, Note_on_c, 11, 56, 0
9, 33744, Note_on_c, 11, 51, 127
9, 33744, Note_on_c, 11, 56, 127
9, 33792, Note_on_c, 11, 51, 0
9, 33792, Note_on_c, 11, 56, 0
9, 33792, Note_on_c, 11, 51, 127
9, 33792, Note_on_c, 11, 56, 127
9, 33888, Note_on_c, 11, 51, 0
9, 33888, Note_on_c, 11, 56, 0
9, 34368, Note_on_c, 11, 51, 127
9, 34368, Note_on_c, 11, 56, 127
9, 34464, Note_on_c, 11, 51, 0
9, 34464, Note_on_c, 11, 56, 0
9, 34464, Note_on_c, 11, 49, 127
9, 34464, Note_on_c, 11, 54, 127
9, 34560, Note_on_c, 11, 49, 0
9, 34560, Note_on_c, 11, 54, 0
9, 35136, Note_on_c, 11, 47, 127
9, 35136, Note_on_c, 11, 52, 127
9, 35232, Note_on_c, 11, 47, 0
9, 35232, Note_on_c, 11, 52, 0
9, 35232, Note_on_c, 11, 51, 127
9, 35232, Note_on_c, 11, 56, 127
9, 35328, Note_on_c, 11, 51, 0
9, 35328, Note_on_c, 11, 56, 0
9, 35328, Note_on_c, 11, 49, 127
9, 35328, Note_on_c, 11, 54, 127
9, 35424, Note_on_c, 11, 49, 0
9, 35424, Note_on_c, 11, 54, 0
9, 35904, Note_on_c, 11, 46, 127
9, 35904, Note_on_c, 11, 51, 127
9, 36000, Note_on_c, 11, 46, 0
9, 36000, Note_on_c, 11, 51, 0
9, 36000, Note_on_c, 11, 47, 127
9, 36000, Note_on_c, 11, 52, 127
9, 36096, Note_on_c, 11, 47, 0
9, 36096, Note_on_c, 11, 52, 0
9, 36480, Note_on_c, 11, 47, 127
9, 36480, Note_on_c, 11, 52, 127
9, 36576, Note_on_c, 11, 47, 0
9, 36576, Note_on_c, 11, 52, 0
9, 36576, Note_on_c, 11, 51, 127
9, 36576, Note_on_c, 11, 56, 127
9, 36864, Note_on_c, 11, 51, 0
9, 36864, Note_on_c, 11, 56, 0
9, 36864, Note_on_c, 11, 44, 127
9, 36864, Note_on_c, 11, 49, 127
9, 36912, Note_on_c, 11, 44, 0
9, 36912, Note_on_c, 11, 49, 0
9, 36912, Note_on_c, 11, 44, 127
9, 36912, Note_on_c, 11, 49, 127
9, 36960, Note_on_c, 11, 44, 0
9, 36960, Note_on_c, 11, 49, 0
9, 36960, Note_on_c, 11, 44, 127
9, 36960, Note_on_c, 11, 49, 127
9, 37008, Note_on_c, 11, 44, 0
9, 37008, Note_on_c, 11, 49, 0
9, 37008, Note_on_c, 11, 44, 127
9, 37008, Note_on_c, 11, 49, 127
9, 37056, Note_on_c, 11, 44, 0
9, 37056, Note_on_c, 11, 49, 0
9, 37104, Note_on_c, 11, 44, 127
9, 37104, Note_on_c, 11, 49, 127
9, 37152, Note_on_c, 11, 44, 0
9, 37152, Note_on_c, 11, 49, 0
9, 37200, Note_on_c, 11, 44, 127
9, 37200, Note_on_c, 11, 49, 127
9, 37248, Note_on_c, 11, 44, 0
9, 37248, Note_on_c, 11, 49, 0
9, 37296, Note_on_c, 11, 44, 127
9, 37296, Note_on_c, 11, 49, 127
9, 37344, Note_on_c, 11, 44, 0
9, 37344, Note_on_c, 11, 49, 0
9, 37344, Note_on_c, 11, 44, 127
9, 37344, Note_on_c, 11, 49, 127
9, 37392, Note_on_c, 11, 44, 0
9, 37392, Note_on_c, 11, 49, 0
9, 37392, Note_on_c, 11, 44, 127
9, 37392, Note_on_c, 11, 49, 127
9, 37440, Note_on_c, 11, 44, 0
9, 37440, Note_on_c, 11, 49, 0
9, 37488, Note_on_c, 11, 44, 127
9, 37488, Note_on_c, 11, 49, 127
9, 37536, Note_on_c, 11, 44, 0
9, 37536, Note_on_c, 11, 49, 0
9, 37584, Note_on_c, 11, 44, 127
9, 37584, Note_on_c, 11, 49, 127
9, 37632, Note_on_c, 11, 44, 0
9, 37632, Note_on_c, 11, 49, 0
9, 37632, Note_on_c, 11, 47, 127
9, 37632, Note_on_c, 11, 52, 127
9, 37680, Note_on_c, 11, 47, 0
9, 37680, Note_on_c, 11, 52, 0
9, 37680, Note_on_c, 11, 47, 127
9, 37680, Note_on_c, 11, 52, 127
9, 37728, Note_on_c, 11, 47, 0
9, 37728, Note_on_c, 11, 52, 0
9, 37728, Note_on_c, 11, 47, 127
9, 37728, Note_on_c, 11, 52, 127
9, 37776, Note_on_c, 11, 47, 0
9, 37776, Note_on_c, 11, 52, 0
9, 37776, Note_on_c, 11, 47, 127
9, 37776, Note_on_c, 11, 52, 127
9, 37824, Note_on_c, 11, 47, 0
9, 37824, Note_on_c, 11, 52, 0
9, 37872, Note_on_c, 11, 47, 127
9, 37872, Note_on_c, 11, 52, 127
9, 37920, Note_on_c, 11, 47, 0
9, 37920, Note_on_c, 11, 52, 0
9, 37968, Note_on_c, 11, 47, 127
9, 37968, Note_on_c, 11, 52, 127
9, 38016, Note_on_c, 11, 47, 0
9, 38016, Note_on_c, 11, 52, 0
9, 38064, Note_on_c, 11, 47, 127
9, 38064, Note_on_c, 11, 52, 127
9, 38112, Note_on_c, 11, 47, 0
9, 38112, Note_on_c, 11, 52, 0
9, 38112, Note_on_c, 11, 47, 127
9, 38112, Note_on_c, 11, 52, 127
9, 38160, Note_on_c, 11, 47, 0
9, 38160, Note_on_c, 11, 52, 0
9, 38160, Note_on_c, 11, 47, 127
9, 38160, Note_on_c, 11, 52, 127
9, 38208, Note_on_c, 11, 47, 0
9, 38208, Note_on_c, 11, 52, 0
9, 38256, Note_on_c, 11, 47, 127
9, 38256, Note_on_c, 11, 52, 127
9, 38304, Note_on_c, 11, 47, 0
9, 38304, Note_on_c, 11, 52, 0
9, 38352, Note_on_c, 11, 47, 127
9, 38352, Note_on_c, 11, 52, 127
9, 38400, Note_on_c, 11, 47, 0
9, 38400, Note_on_c, 11, 52, 0
9, 38400, Note_on_c, 11, 49, 127
9, 38400, Note_on_c, 11, 54, 127
9, 38448, Note_on_c, 11, 49, 0
9, 38448, Note_on_c, 11, 54, 0
9, 38448, Note_on_c, 11, 49, 127
9, 38448, Note_on_c, 11, 54, 127
9, 38496, Note_on_c, 11, 49, 0
9, 38496, Note_on_c, 11, 54, 0
9, 38496, Note_on_c, 11, 49, 127
9, 38496, Note_on_c, 11, 54, 127
9, 38544, Note_on_c, 11, 49, 0
9, 38544, Note_on_c, 11, 54, 0
9, 38544, Note_on_c, 11, 49, 127
9, 38544, Note_on_c, 11, 54, 127
9, 38592, Note_on_c, 11, 49, 0
9, 38592, Note_on_c, 11, 54, 0
9, 38640, Note_on_c, 11, 49, 127
9, 38640, Note_on_c, 11, 54, 127
9, 38688, Note_on_c, 11, 49, 0
9, 38688, Note_on_c, 11, 54, 0
9, 38736, Note_on_c, 11, 49, 127
9, 38736, Note_on_c, 11, 54, 127
9, 38784, Note_on_c, 11, 49, 0
9, 38784, Note_on_c, 11, 54, 0
9, 38832, Note_on_c, 11, 49, 127
9, 38832, Note_on_c, 11, 54, 127
9, 38880, Note_on_c, 11, 49, 0
9, 38880, Note_on_c, 11, 54, 0
9, 38880, Note_on_c, 11, 49, 127
9, 38880, Note_on_c, 11, 54, 127
9, 38928, Note_on_c, 11, 49, 0
9, 38928, Note_on_c, 11, 54, 0
9, 38928, Note_on_c, 11, 49, 127
9, 38928, Note_on_c, 11, 54, 127
9, 38976, Note_on_c, 11, 49, 0
9, 38976, Note_on_c, 11, 54, 0
9, 39024, Note_on_c, 11, 49, 127
9, 39024, Note_on_c, 11, 54, 127
9, 39072, Note_on_c, 11, 49, 0
9, 39072, Note_on_c, 11, 54, 0
9, 39120, Note_on_c, 11, 49, 127
9, 39120, Note_on_c, 11, 54, 127
9, 39168, Note_on_c, 11, 49, 0
9, 39168, Note_on_c, 11, 54, 0
9, 39168, Note_on_c, 11, 51, 127
9, 39168, Note_on_c, 11, 56, 127
9, 39216, Note_on_c, 11, 51, 0
9, 39216, Note_on_c, 11, 56, 0
9, 39216, Note_on_c, 11, 51, 127
9, 39216, Note_on_c, 11, 56, 127
9, 39264, Note_on_c, 11, 51, 0
9, 39264, Note_on_c, 11, 56, 0
9, 39264, Note_on_c, 11, 51, 127
9, 39264, Note_on_c, 11, 56, 127
9, 39312, Note_on_c, 11, 51, 0
9, 39312, Note_on_c, 11, 56, 0
9, 39312, Note_on_c, 11, 51, 127
9, 39312, Note_on_c, 11, 56, 127
9, 39360, Note_on_c, 11, 51, 0
9, 39360, Note_on_c, 11, 56, 0
9, 39408, Note_on_c, 11, 51, 127
9, 39408, Note_on_c, 11, 56, 127
9, 39456, Note_on_c, 11, 51, 0
9, 39456, Note_on_c, 11, 56, 0
9, 39504, Note_on_c, 11, 51, 127
9, 39504, Note_on_c, 11, 56, 127
9, 39552, Note_on_c, 11, 51, 0
9, 39552, Note_on_c, 11, 56, 0
9, 39600, Note_on_c, 11, 51, 127
9, 39600, Note_on_c, 11, 56, 127
9, 39648, Note_on_c, 11, 51, 0
9, 39648, Note_on_c, 11, 56, 0
9, 39648, Note_on_c, 11, 51, 127
9, 39648, Note_on_c, 11, 56, 127
9, 39696, Note_on_c, 11, 51, 0
9, 39696, Note_on_c, 11, 56, 0
9, 39696, Note_on_c, 11, 51, 127
9, 39696, Note_on_c, 11, 56, 127
9, 39744, Note_on_c, 11, 51, 0
9, 39744, Note_on_c, 11, 56, 0
9, 39792, Note_on_c, 11, 51, 127
9, 39792, Note_on_c, 11, 56, 127
9, 39840, Note_on_c, 11, 51, 0
9, 39840, Note_on_c, 11, 56, 0
9, 39888, Note_on_c, 11, 51, 127
9, 39888, Note_on_c, 11, 56, 127
9, 39936, Note_on_c, 11, 51, 0
9, 39936, Note_on_c, 11, 56, 0
9, 39936, Note_on_c, 11, 44, 127
9, 39936, Note_on_c, 11, 49, 127
9, 39984, Note_on_c, 11, 44, 0
9, 39984, Note_on_c, 11, 49, 0
9, 39984, Note_on_c, 11, 44, 127
9, 39984, Note_on_c, 11, 49, 127
9, 40032, Note_on_c, 11, 44, 0
9, 40032, Note_on_c, 11, 49, 0
9, 40032, Note_on_c, 11, 44, 127
9, 40032, Note_on_c, 11, 49, 127
9, 40080, Note_on_c, 11, 44, 0
9, 40080, Note_on_c, 11, 49, 0
9, 40080, Note_on_c, 11, 44, 127
9, 40080, Note_on_c, 11, 49, 127
9, 40128, Note_on_c, 11, 44, 0
9, 40128, Note_on_c, 11, 49, 0
9, 40176, Note_on_c, 11, 44, 127
9, 40176, Note_on_c, 11, 49, 127
9, 40224, Note_on_c, 11, 44, 0
9, 40224, Note_on_c, 11, 49, 0
9, 40272, Note_on_c, 11, 44, 127
9, 40272, Note_on_c, 11, 49, 127
9, 40320, Note_on_c, 11, 44, 0
9, 40320, Note_on_c, 11, 49, 0
9, 40368, Note_on_c, 11, 44, 127
9, 40368, Note_on_c, 11, 49, 127
9, 40416, Note_on_c, 11, 44, 0
9, 40416, Note_on_c, 11, 49, 0
9, 40416, Note_on_c, 11, 44, 127
9, 40416, Note_on_c, 11, 49, 127
9, 40464, Note_on_c, 11, 44, 0
9, 40464, Note_on_c, 11, 49, 0
9, 40464, Note_on_c, 11, 44, 127
9, 40464, Note_on_c, 11, 49, 127
9, 40512, Note_on_c, 11, 44, 0
9, 40512, Note_on_c, 11, 49, 0
9, 40560, Note_on_c, 11, 44, 127
9, 40560, Note_on_c, 11, 49, 127
9, 40608, Note_on_c, 11, 44, 0
9, 40608, Note_on_c, 11, 49, 0
9, 40656, Note_on_c, 11, 44, 127
9, 40656, Note_on_c, 11, 49, 127
9, 40704, Note_on_c, 11, 44, 0
9, 40704, Note_on_c, 11, 49, 0
9, 40704, Note_on_c, 11, 47, 127
9, 40704, Note_on_c, 11, 52, 127
9, 40752, Note_on_c, 11, 47, 0
9, 40752, Note_on_c, 11, 52, 0
9, 40752, Note_on_c, 11, 47, 127
9, 40752, Note_on_c, 11, 52, 127
9, 40800, Note_on_c, 11, 47, 0
9, 40800, Note_on_c, 11, 52, 0
9, 40800, Note_on_c, 11, 47, 127
9, 40800, Note_on_c, 11, 52, 127
9, 40848, Note_on_c, 11, 47, 0
9, 40848, Note_on_c, 11, 52, 0
9, 40848, Note_on_c, 11, 47, 127
9, 40848, Note_on_c, 11, 52, 127
9, 40896, Note_on_c, 11, 47, 0
9, 40896, Note_on_c, 11, 52, 0
9, 40944, Note_on_c, 11, 47, 127
9, 40944, Note_on_c, 11, 52, 127
9, 40992, Note_on_c, 11, 47, 0
9, 40992, Note_on_c, 11, 52, 0
9, 41040, Note_on_c, 11, 47, 127
9, 41040, Note_on_c, 11, 52, 127
9, 41088, Note_on_c, 11, 47, 0
9, 41088, Note_on_c, 11, 52, 0
9, 41136, Note_on_c, 11, 47, 127
9, 41136, Note_on_c, 11, 52, 127
9, 41184, Note_on_c, 11, 47, 0
9, 41184, Note_on_c, 11, 52, 0
9, 41184, Note_on_c, 11, 47, 127
9, 41184, Note_on_c, 11, 52, 127
9, 41232, Note_on_c, 11, 47, 0
9, 41232, Note_on_c, 11, 52, 0
9, 41232, Note_on_c, 11, 47, 127
9, 41232, Note_on_c, 11, 52, 127
9, 41280, Note_on_c, 11, 47, 0
9, 41280, Note_on_c, 11, 52, 0
9, 41328, Note_on_c, 11, 47, 127
9, 41328, Note_on_c, 11, 52, 127
9, 41376, Note_on_c, 11, 47, 0
9, 41376, Note_on_c, 11, 52, 0
9, 41424, Note_on_c, 11, 47, 127
9, 41424, Note_on_c, 11, 52, 127
9, 41472, Note_on_c, 11, 47, 0
9, 41472, Note_on_c, 11, 52, 0
9, 41472, Note_on_c, 11, 49, 127
9, 41472, Note_on_c, 11, 54, 127
9, 41520, Note_on_c, 11, 49, 0
9, 41520, Note_on_c, 11, 54, 0
9, 41520, Note_on_c, 11, 49, 127
9, 41520, Note_on_c, 11, 54, 127
9, 41568, Note_on_c, 11, 49, 0
9, 41568, Note_on_c, 11, 54, 0
9, 41568, Note_on_c, 11, 49, 127
9, 41568, Note_on_c, 11, 54, 127
9, 41616, Note_on_c, 11, 49, 0
9, 41616, Note_on_c, 11, 54, 0
9, 41616, Note_on_c, 11, 49, 127
9, 41616, Note_on_c, 11, 54, 127
9, 41664, Note_on_c, 11, 49, 0
9, 41664, Note_on_c, 11, 54, 0
9, 41712, Note_on_c, 11, 49, 127
9, 41712, Note_on_c, 11, 54, 127
9, 41760, Note_on_c, 11, 49, 0
9, 41760, Note_on_c, 11, 54, 0
9, 41808, Note_on_c, 11, 49, 127
9, 41808, Note_on_c, 11, 54, 127
9, 41856, Note_on_c, 11, 49, 0
9, 41856, Note_on_c, 11, 54, 0
9, 41904, Note_on_c, 11, 49, 127
9, 41904, Note_on_c, 11, 54, 127
9, 41952, Note_on_c, 11, 49, 0
9, 41952, Note_on_c, 11, 54, 0
9, 41952, Note_on_c, 11, 49, 127
9, 41952, Note_on_c, 11, 54, 127
9, 42000, Note_on_c, 11, 49, 0
9, 42000, Note_on_c, 11, 54, 0
9, 42000, Note_on_c, 11, 49, 127
9, 42000, Note_on_c, 11, 54, 127
9, 42048, Note_on_c, 11, 49, 0
9, 42048, Note_on_c, 11, 54, 0
9, 42096, Note_on_c, 11, 49, 127
9, 42096, Note_on_c, 11, 54, 127
9, 42144, Note_on_c, 11, 49, 0
9, 42144, Note_on_c, 11, 54, 0
9, 42192, Note_on_c, 11, 49, 127
9, 42192, Note_on_c, 11, 54, 127
9, 42240, Note_on_c, 11, 49, 0
9, 42240, Note_on_c, 11, 54, 0
9, 42240, Note_on_c, 11, 51, 127
9, 42240, Note_on_c, 11, 56, 127
9, 42288, Note_on_c, 11, 51, 0
9, 42288, Note_on_c, 11, 56, 0
9, 42288, Note_on_c, 11, 51, 127
9, 42288, Note_on_c, 11, 56, 127
9, 42336, Note_on_c, 11, 51, 0
9, 42336, Note_on_c, 11, 56, 0
9, 42336, Note_on_c, 11, 51, 127
9, 42336, Note_on_c, 11, 56, 127
9, 42384, Note_on_c, 11, 51, 0
9, 42384, Note_on_c, 11, 56, 0
9, 42384, Note_on_c, 11, 51, 127
9, 42384, Note_on_c, 11, 56, 127
9, 42432, Note_on_c, 11, 51, 0
9, 42432, Note_on_c, 11, 56, 0
9, 42480, Note_on_c, 11, 51, 127
9, 42480, Note_on_c, 11, 56, 127
9, 42528, Note_on_c, 11, 51, 0
9, 42528, Note_on_c, 11, 56, 0
9, 42576, Note_on_c, 11, 51, 127
9, 42576, Note_on_c, 11, 56, 127
9, 42624, Note_on_c, 11, 51, 0
9, 42624, Note_on_c, 11, 56, 0
9, 42672, Note_on_c, 11, 51, 127
9, 42672, Note_on_c, 11, 56, 127
9, 42720, Note_on_c, 11, 51, 0
9, 42720, Note_on_c, 11, 56, 0
9, 42720, Note_on_c, 11, 51, 127
9, 42720, Note_on_c, 11, 56, 127
9, 42768, Note_on_c, 11, 51, 0
9, 42768, Note_on_c, 11, 56, 0
9, 42768, Note_on_c, 11, 51, 127
9, 42768, Note_on_c, 11, 56, 127
9, 42816, Note_on_c, 11, 51, 0
9, 42816, Note_on_c, 11, 56, 0
9, 42864, Note_on_c, 11, 51, 127
9, 42864, Note_on_c, 11, 56, 127
9, 42912, Note_on_c, 11, 51, 0
9, 42912, Note_on_c, 11, 56, 0
9, 42960, Note_on_c, 11, 51, 127
9, 42960, Note_on_c, 11, 56, 127
9, 43008, Note_on_c, 11, 51, 0
9, 43008, Note_on_c, 11, 56, 0
9, 43008, Note_on_c, 11, 44, 127
9, 43008, Note_on_c, 11, 49, 127
9, 43056, Note_on_c, 11, 44, 0
9, 43056, Note_on_c, 11, 49, 0
9, 43056, Note_on_c, 11, 44, 127
9, 43056, Note_on_c, 11, 49, 127
9, 43104, Note_on_c, 11, 44, 0
9, 43104, Note_on_c, 11, 49, 0
9, 43104, Note_on_c, 11, 44, 127
9, 43104, Note_on_c, 11, 49, 127
9, 43152, Note_on_c, 11, 44, 0
9, 43152, Note_on_c, 11, 49, 0
9, 43152, Note_on_c, 11, 44, 127
9, 43152, Note_on_c, 11, 49, 127
9, 43200, Note_on_c, 11, 44, 0
9, 43200, Note_on_c, 11, 49, 0
9, 43248, Note_on_c, 11, 44, 127
9, 43248, Note_on_c, 11, 49, 127
9, 43296, Note_on_c, 11, 44, 0
9, 43296, Note_on_c, 11, 49, 0
9, 43344, Note_on_c, 11, 44, 127
9, 43344, Note_on_c, 11, 49, 127
9, 43392, Note_on_c, 11, 44, 0
9, 43392, Note_on_c, 11, 49, 0
9, 43440, Note_on_c, 11, 44, 127
9, 43440, Note_on_c, 11, 49, 127
9, 43488, Note_on_c, 11, 44, 0
9, 43488, Note_on_c, 11, 49, 0
9, 43488, Note_on_c, 11, 44, 127
9, 43488, Note_on_c, 11, 49, 127
9, 43536, Note_on_c, 11, 44, 0
9, 43536, Note_on_c, 11, 49, 0
9, 43536, Note_on_c, 11, 44, 127
9, 43536, Note_on_c, 11, 49, 127
9, 43584, Note_on_c, 11, 44, 0
9, 43584, Note_on_c, 11, 49, 0
9, 43632, Note_on_c, 11, 44, 127
9, 43632, Note_on_c, 11, 49, 127
9, 43680, Note_on_c, 11, 44, 0
9, 43680, Note_on_c, 11, 49, 0
9, 43728, Note_on_c, 11, 44, 127
9, 43728, Note_on_c, 11, 49, 127
9, 43776, Note_on_c, 11, 44, 0
9, 43776, Note_on_c, 11, 49, 0
9, 43776, Note_on_c, 11, 47, 127
9, 43776, Note_on_c, 11, 52, 127
9, 43824, Note_on_c, 11, 47, 0
9, 43824, Note_on_c, 11, 52, 0
9, 43824, Note_on_c, 11, 47, 127
9, 43824, Note_on_c, 11, 52, 127
9, 43872, Note_on_c, 11, 47, 0
9, 43872, Note_on_c, 11, 52, 0
9, 43872, Note_on_c, 11, 47, 127
9, 43872, Note_on_c, 11, 52, 127
9, 43920, Note_on_c, 11, 47, 0
9, 43920, Note_on_c, 11, 52, 0
9, 43920, Note_on_c, 11, 47, 127
9, 43920, Note_on_c, 11, 52, 127
9, 43968, Note_on_c, 11, 47, 0
9, 43968, Note_on_c, 11, 52, 0
9, 44016, Note_on_c, 11, 47, 127
9, 44016, Note_on_c, 11, 52, 127
9, 44064, Note_on_c, 11, 47, 0
9, 44064, Note_on_c, 11, 52, 0
9, 44112, Note_on_c, 11, 47, 127
9, 44112, Note_on_c, 11, 52, 127
9, 44160, Note_on_c, 11, 47, 0
9, 44160, Note_on_c, 11, 52, 0
9, 44208, Note_on_c, 11, 47, 127
9, 44208, Note_on_c, 11, 52, 127
9, 44256, Note_on_c, 11, 47, 0
9, 44256, Note_on_c, 11, 52, 0
9, 44256, Note_on_c, 11, 47, 127
9, 44256, Note_on_c, 11, 52, 127
9, 44304, Note_on_c, 11, 47, 0
9, 44304, Note_on_c, 11, 52, 0
9, 44304, Note_on_c, 11, 47, 127
9, 44304, Note_on_c, 11, 52, 127
9, 44352, Note_on_c, 11, 47, 0
9, 44352, Note_on_c, 11, 52, 0
9, 44400, Note_on_c, 11, 47, 127
9, 44400, Note_on_c, 11, 52, 127
9, 44448, Note_on_c, 11, 47, 0
9, 44448, Note_on_c, 11, 52, 0
9, 44496, Note_on_c, 11, 47, 127
9, 44496, Note_on_c, 11, 52, 127
9, 44544, Note_on_c, 11, 47, 0
9, 44544, Note_on_c, 11, 52, 0
9, 44544, Note_on_c, 11, 49, 127
9, 44544, Note_on_c, 11, 54, 127
9, 44592, Note_on_c, 11, 49, 0
9, 44592, Note_on_c, 11, 54, 0
9, 44592, Note_on_c, 11, 49, 127
9, 44592, Note_on_c, 11, 54, 127
9, 44640, Note_on_c, 11, 49, 0
9, 44640, Note_on_c, 11, 54, 0
9, 44640, Note_on_c, 11, 49, 127
9, 44640, Note_on_c, 11, 54, 127
9, 44688, Note_on_c, 11, 49, 0
9, 44688, Note_on_c, 11, 54, 0
9, 44688, Note_on_c, 11, 49, 127
9, 44688, Note_on_c, 11, 54, 127
9, 44736, Note_on_c, 11, 49, 0
9, 44736, Note_on_c, 11, 54, 0
9, 44784, Note_on_c, 11, 49, 127
9, 44784, Note_on_c, 11, 54, 127
9, 44832, Note_on_c, 11, 49, 0
9, 44832, Note_on_c, 11, 54, 0
9, 44880, Note_on_c, 11, 49, 127
9, 44880, Note_on_c, 11, 54, 127
9, 44928, Note_on_c, 11, 49, 0
9, 44928, Note_on_c, 11, 54, 0
9, 44976, Note_on_c, 11, 49, 127
9, 44976, Note_on_c, 11, 54, 127
9, 45024, Note_on_c, 11, 49, 0
9, 45024, Note_on_c, 11, 54, 0
9, 45024, Note_on_c, 11, 49, 127
9, 45024, Note_on_c, 11, 54, 127
9, 45072, Note_on_c, 11, 49, 0
9, 45072, Note_on_c, 11, 54, 0
9, 45072, Note_on_c, 11, 49, 127
9, 45072, Note_on_c, 11, 54, 127
9, 45120, Note_on_c, 11, 49, 0
9, 45120, Note_on_c, 11, 54, 0
9, 45168, Note_on_c, 11, 49, 127
9, 45168, Note_on_c, 11, 54, 127
9, 45216, Note_on_c, 11, 49, 0
9, 45216, Note_on_c, 11, 54, 0
9, 45264, Note_on_c, 11, 49, 127
9, 45264, Note_on_c, 11, 54, 127
9, 45312, Note_on_c, 11, 49, 0
9, 45312, Note_on_c, 11, 54, 0
9, 45312, Note_on_c, 11, 51, 127
9, 45312, Note_on_c, 11, 56, 127
9, 45360, Note_on_c, 11, 51, 0
9, 45360, Note_on_c, 11, 56, 0
9, 45360, Note_on_c, 11, 51, 127
9, 45360, Note_on_c, 11, 56, 127
9, 45408, Note_on_c, 11, 51, 0
9, 45408, Note_on_c, 11, 56, 0
9, 45408, Note_on_c, 11, 51, 127
9, 45408, Note_on_c, 11, 56, 127
9, 45456, Note_on_c, 11, 51, 0
9, 45456, Note_on_c, 11, 56, 0
9, 45456, Note_on_c, 11, 51, 127
9, 45456, Note_on_c, 11, 56, 127
9, 45504, Note_on_c, 11, 51, 0
9, 45504, Note_on_c, 11, 56, 0
9, 45552, Note_on_c, 11, 51, 127
9, 45552, Note_on_c, 11, 56, 127
9, 45600, Note_on_c, 11, 51, 0
9, 45600, Note_on_c, 11, 56, 0
9, 45648, Note_on_c, 11, 51, 127
9, 45648, Note_on_c, 11, 56, 127
9, 45696, Note_on_c, 11, 51, 0
9, 45696, Note_on_c, 11, 56, 0
9, 45744, Note_on_c, 11, 51, 127
9, 45744, Note_on_c, 11, 56, 127
9, 45792, Note_on_c, 11, 51, 0
9, 45792, Note_on_c, 11, 56, 0
9, 45792, Note_on_c, 11, 51, 127
9, 45792, Note_on_c, 11, 56, 127
9, 45840, Note_on_c, 11, 51, 0
9, 45840, Note_on_c, 11, 56, 0
9, 45840, Note_on_c, 11, 51, 127
9, 45840, Note_on_c, 11, 56, 127
9, 45888, Note_on_c, 11, 51, 0
9, 45888, Note_on_c, 11, 56, 0
9, 45936, Note_on_c, 11, 51, 127
9, 45936, Note_on_c, 11, 56, 127
9, 45984, Note_on_c, 11, 51, 0
9, 45984, Note_on_c, 11, 56, 0
9, 46032, Note_on_c, 11, 51, 127
9, 46032, Note_on_c, 11, 56, 127
9, 46080, Note_on_c, 11, 51, 0
9, 46080, Note_on_c, 11, 56, 0
9, 46080, Note_on_c, 11, 44, 127
9, 46080, Note_on_c, 11, 49, 127
9, 46128, Note_on_c, 11, 44, 0
9, 46128, Note_on_c, 11, 49, 0
9, 46128, Note_on_c, 11, 44, 127
9, 46128, Note_on_c, 11, 49, 127
9, 46176, Note_on_c, 11, 44, 0
9, 46176, Note_on_c, 11, 49, 0
9, 46176, Note_on_c, 11, 44, 127
9, 46176, Note_on_c, 11, 49, 127
9, 46224, Note_on_c, 11, 44, 0
9, 46224, Note_on_c, 11, 49, 0
9, 46224, Note_on_c, 11, 44, 127
9, 46224, Note_on_c, 11, 49, 127
9, 46272, Note_on_c, 11, 44, 0
9, 46272, Note_on_c, 11, 49, 0
9, 46320, Note_on_c, 11, 44, 127
9, 46320, Note_on_c, 11, 49, 127
9, 46368, Note_on_c, 11, 44, 0
9, 46368, Note_on_c, 11, 49, 0
9, 46416, Note_on_c, 11, 44, 127
9, 46416, Note_on_c, 11, 49, 127
9, 46464, Note_on_c, 11, 44, 0
9, 46464, Note_on_c, 11, 49, 0
9, 46512, Note_on_c, 11, 44, 127
9, 46512, Note_on_c, 11, 49, 127
9, 46560, Note_on_c, 11, 44, 0
9, 46560, Note_on_c, 11, 49, 0
9, 46560, Note_on_c, 11, 44, 127
9, 46560, Note_on_c, 11, 49, 127
9, 46608, Note_on_c, 11, 44, 0
9, 46608, Note_on_c, 11, 49, 0
9, 46608, Note_on_c, 11, 44, 127
9, 46608, Note_on_c, 11, 49, 127
9, 46656, Note_on_c, 11, 44, 0
9, 46656, Note_on_c, 11, 49, 0
9, 46704, Note_on_c, 11, 44, 127
9, 46704, Note_on_c, 11, 49, 127
9, 46752, Note_on_c, 11, 44, 0
9, 46752, Note_on_c, 11, 49, 0
9, 46800, Note_on_c, 11, 44, 127
9, 46800, Note_on_c, 11, 49, 127
9, 46848, Note_on_c, 11, 44, 0
9, 46848, Note_on_c, 11, 49, 0
9, 46848, Note_on_c, 11, 47, 127
9, 46848, Note_on_c, 11, 52, 127
9, 46896, Note_on_c, 11, 47, 0
9, 46896, Note_on_c, 11, 52, 0
9, 46896, Note_on_c, 11, 47, 127
9, 46896, Note_on_c, 11, 52, 127
9, 46944, Note_on_c, 11, 47, 0
9, 46944, Note_on_c, 11, 52, 0
9, 46944, Note_on_c, 11, 47, 127
9, 46944, Note_on_c, 11, 52, 127
9, 46992, Note_on_c, 11, 47, 0
9, 46992, Note_on_c, 11, 52, 0
9, 46992, Note_on_c, 11, 47, 127
9, 46992, Note_on_c, 11, 52, 127
9, 47040, Note_on_c, 11, 47, 0
9, 47040, Note_on_c, 11, 52, 0
9, 47088, Note_on_c, 11, 47, 127
9, 47088, Note_on_c, 11, 52, 127
9, 47136, Note_on_c, 11, 47, 0
9, 47136, Note_on_c, 11, 52, 0
9, 47184, Note_on_c, 11, 47, 127
9, 47184, Note_on_c, 11, 52, 127
9, 47232, Note_on_c, 11, 47, 0
9, 47232, Note_on_c, 11, 52, 0
9, 47280, Note_on_c, 11, 47, 127
9, 47280, Note_on_c, 11, 52, 127
9, 47328, Note_on_c, 11, 47, 0
9, 47328, Note_on_c, 11, 52, 0
9, 47328, Note_on_c, 11, 47, 127
9, 47328, Note_on_c, 11, 52, 127
9, 47376, Note_on_c, 11, 47, 0
9, 47376, Note_on_c, 11, 52, 0
9, 47376, Note_on_c, 11, 47, 127
9, 47376, Note_on_c, 11, 52, 127
9, 47424, Note_on_c, 11, 47, 0
9, 47424, Note_on_c, 11, 52, 0
9, 47472, Note_on_c, 11, 47, 127
9, 47472, Note_on_c, 11, 52, 127
9, 47520, Note_on_c, 11, 47, 0
9, 47520, Note_on_c, 11, 52, 0
9, 47568, Note_on_c, 11, 47, 127
9, 47568, Note_on_c, 11, 52, 127
9, 47616, Note_on_c, 11, 47, 0
9, 47616, Note_on_c, 11, 52, 0
9, 47616, Note_on_c, 11, 49, 127
9, 47616, Note_on_c, 11, 54, 127
9, 47664, Note_on_c, 11, 49, 0
9, 47664, Note_on_c, 11, 54, 0
9, 47664, Note_on_c, 11, 49, 127
9, 47664, Note_on_c, 11, 54, 127
9, 47712, Note_on_c, 11, 49, 0
9, 47712, Note_on_c, 11, 54, 0
9, 47712, Note_on_c, 11, 49, 127
9, 47712, Note_on_c, 11, 54, 127
9, 47760, Note_on_c, 11, 49, 0
9, 47760, Note_on_c, 11, 54, 0
9, 47760, Note_on_c, 11, 49, 127
9, 47760, Note_on_c, 11, 54, 127
9, 47808, Note_on_c, 11, 49, 0
9, 47808, Note_on_c, 11, 54, 0
9, 47856, Note_on_c, 11, 49, 127
9, 47856, Note_on_c, 11, 54, 127
9, 47904, Note_on_c, 11, 49, 0
9, 47904, Note_on_c, 11, 54, 0
9, 47952, Note_on_c, 11, 49, 127
9, 47952, Note_on_c, 11, 54, 127
9, 48000, Note_on_c, 11, 49, 0
9, 48000, Note_on_c, 11, 54, 0
9, 48048, Note_on_c, 11, 49, 127
9, 48048, Note_on_c, 11, 54, 127
9, 48096, Note_on_c, 11, 49, 0
9, 48096, Note_on_c, 11, 54, 0
9, 48096, Note_on_c, 11, 49, 127
9, 48096, Note_on_c, 11, 54, 127
9, 48144, Note_on_c, 11, 49, 0
9, 48144, Note_on_c, 11, 54, 0
9, 48144, Note_on_c, 11, 49, 127
9, 48144, Note_on_c, 11, 54, 127
9, 48192, Note_on_c, 11, 49, 0
9, 48192, Note_on_c, 11, 54, 0
9, 48240, Note_on_c, 11, 49, 127
9, 48240, Note_on_c, 11, 54, 127
9, 48288, Note_on_c, 11, 49, 0
9, 48288, Note_on_c, 11, 54, 0
9, 48336, Note_on_c, 11, 49, 127
9, 48336, Note_on_c, 11, 54, 127
9, 48384, Note_on_c, 11, 49, 0
9, 48384, Note_on_c, 11, 54, 0
9, 48384, Note_on_c, 11, 51, 127
9, 48384, Note_on_c, 11, 56, 127
9, 48432, Note_on_c, 11, 51, 0
9, 48432, Note_on_c, 11, 56, 0
9, 48432, Note_on_c, 11, 51, 127
9, 48432, Note_on_c, 11, 56, 127
9, 48480, Note_on_c, 11, 51, 0
9, 48480, Note_on_c, 11, 56, 0
9, 48480, Note_on_c, 11, 51, 127
9, 48480, Note_on_c, 11, 56, 127
9, 48528, Note_on_c, 11, 51, 0
9, 48528, Note_on_c, 11, 56, 0
9, 48528, Note_on_c, 11, 51, 127
9, 48528, Note_on_c, 11, 56, 127
9, 48576, Note_on_c, 11, 51, 0
9, 48576, Note_on_c, 11, 56, 0
9, 48624, Note_on_c, 11, 51, 127
9, 48624, Note_on_c, 11, 56, 127
9, 48672, Note_on_c, 11, 51, 0
9, 48672, Note_on_c, 11, 56, 0
9, 48720, Note_on_c, 11, 51, 127
9, 48720, Note_on_c, 11, 56, 127
9, 48768, Note_on_c, 11, 51, 0
9, 48768, Note_on_c, 11, 56, 0
9, 48816, Note_on_c, 11, 51, 127
9, 48816, Note_on_c, 11, 56, 127
9, 48864, Note_on_c, 11, 51, 0
9, 48864, Note_on_c, 11, 56, 0
9, 48864, Note_on_c, 11, 51, 127
9, 48864, Note_on_c, 11, 56, 127
9, 48912, Note_on_c, 11, 51, 0
9, 48912, Note_on_c, 11, 56, 0
9, 48912, Note_on_c, 11, 51, 127
9, 48912, Note_on_c, 11, 56, 127
9, 48960, Note_on_c, 11, 51, 0
9, 48960, Note_on_c, 11, 56, 0
9, 49008, Note_on_c, 11, 51, 127
9, 49008, Note_on_c, 11, 56, 127
9, 49056, Note_on_c, 11, 51, 0
9, 49056, Note_on_c, 11, 56, 0
9, 49104, Note_on_c, 11, 51, 127
9, 49104, Note_on_c, 11, 56, 127
9, 49152, Note_on_c, 11, 51, 0
9, 49152, Note_on_c, 11, 56, 0
9, 49152, Note_on_c, 11, 44, 127
9, 49152, Note_on_c, 11, 49, 127
9, 49200, Note_on_c, 11, 44, 0
9, 49200, Note_on_c, 11, 49, 0
9, 49200, Note_on_c, 11, 44, 127
9, 49200, Note_on_c, 11, 49, 127
9, 49248, Note_on_c, 11, 44, 0
9, 49248, Note_on_c, 11, 49, 0
9, 49248, Note_on_c, 11, 44, 127
9, 49248, Note_on_c, 11, 49, 127
9, 49296, Note_on_c, 11, 44, 0
9, 49296, Note_on_c, 11, 49, 0
9, 49296, Note_on_c, 11, 44, 127
9, 49296, Note_on_c, 11, 49, 127
9, 49344, Note_on_c, 11, 44, 0
9, 49344, Note_on_c, 11, 49, 0
9, 49392, Note_on_c, 11, 44, 127
9, 49392, Note_on_c, 11, 49, 127
9, 49440, Note_on_c, 11, 44, 0
9, 49440, Note_on_c, 11, 49, 0
9, 49488, Note_on_c, 11, 44, 127
9, 49488, Note_on_c, 11, 49, 127
9, 49536, Note_on_c, 11, 44, 0
9, 49536, Note_on_c, 11, 49, 0
9, 49584, Note_on_c, 11, 44, 127
9, 49584, Note_on_c, 11, 49, 127
9, 49632, Note_on_c, 11, 44, 0
9, 49632, Note_on_c, 11, 49, 0
9, 49632, Note_on_c, 11, 44, 127
9, 49632, Note_on_c, 11, 49, 127
9, 49680, Note_on_c, 11, 44, 0
9, 49680, Note_on_c, 11, 49, 0
9, 49680, Note_on_c, 11, 44, 127
9, 49680, Note_on_c, 11, 49, 127
9, 49728, Note_on_c, 11, 44, 0
9, 49728, Note_on_c, 11, 49, 0
9, 49776, Note_on_c, 11, 44, 127
9, 49776, Note_on_c, 11, 49, 127
9, 49824, Note_on_c, 11, 44, 0
9, 49824, Note_on_c, 11, 49, 0
9, 49872, Note_on_c, 11, 44, 127
9, 49872, Note_on_c, 11, 49, 127
9, 49920, Note_on_c, 11, 44, 0
9, 49920, Note_on_c, 11, 49, 0
9, 49920, Note_on_c, 11, 47, 127
9, 49920, Note_on_c, 11, 52, 127
9, 49968, Note_on_c, 11, 47, 0
9, 49968, Note_on_c, 11, 52, 0
9, 49968, Note_on_c, 11, 47, 127
9, 49968, Note_on_c, 11, 52, 127
9, 50016, Note_on_c, 11, 47, 0
9, 50016, Note_on_c, 11, 52, 0
9, 50016, Note_on_c, 11, 47, 127
9, 50016, Note_on_c, 11, 52, 127
9, 50064, Note_on_c, 11, 47, 0
9, 50064, Note_on_c, 11, 52, 0
9, 50064, Note_on_c, 11, 47, 127
9, 50064, Note_on_c, 11, 52, 127
9, 50112, Note_on_c, 11, 47, 0
9, 50112, Note_on_c, 11, 52, 0
9, 50160, Note_on_c, 11, 47, 127
9, 50160, Note_on_c, 11, 52, 127
9, 50208, Note_on_c, 11, 47, 0
9, 50208, Note_on_c, 11, 52, 0
9, 50256, Note_on_c, 11, 47, 127
9, 50256, Note_on_c, 11, 52, 127
9, 50304, Note_on_c, 11, 47, 0
9, 50304, Note_on_c, 11, 52, 0
9, 50352, Note_on_c, 11, 47, 127
9, 50352, Note_on_c, 11, 52, 127
9, 50400, Note_on_c, 11, 47, 0
9, 50400, Note_on_c, 11, 52, 0
9, 50400, Note_on_c, 11, 47, 127
9, 50400, Note_on_c, 11, 52, 127
9, 50448, Note_on_c, 11, 47, 0
9, 50448, Note_on_c, 11, 52, 0
9, 50448, Note_on_c, 11, 47, 127
9, 50448, Note_on_c, 11, 52, 127
9, 50496, Note_on_c, 11, 47, 0
9, 50496, Note_on_c, 11, 52, 0
9, 50544, Note_on_c, 11, 47, 127
9, 50544, Note_on_c, 11, 52, 127
9, 50592, Note_on_c, 11, 47, 0
9, 50592, Note_on_c, 11, 52, 0
9, 50640, Note_on_c, 11, 47, 127
9, 50640, Note_on_c, 11, 52, 127
9, 50688, Note_on_c, 11, 47, 0
9, 50688, Note_on_c, 11, 52, 0
9, 50688, Note_on_c, 11, 49, 127
9, 50688, Note_on_c, 11, 54, 127
9, 50736, Note_on_c, 11, 49, 0
9, 50736, Note_on_c, 11, 54, 0
9, 50736, Note_on_c, 11, 49, 127
9, 50736, Note_on_c, 11, 54, 127
9, 50784, Note_on_c, 11, 49, 0
9, 50784, Note_on_c, 11, 54, 0
9, 50784, Note_on_c, 11, 49, 127
9, 50784, Note_on_c, 11, 54, 127
9, 50832, Note_on_c, 11, 49, 0
9, 50832, Note_on_c, 11, 54, 0
9, 50832, Note_on_c, 11, 49, 127
9, 50832, Note_on_c, 11, 54, 127
9, 50880, Note_on_c, 11, 49, 0
9, 50880, Note_on_c, 11, 54, 0
9, 50928, Note_on_c, 11, 49, 127
9, 50928, Note_on_c, 11, 54, 127
9, 50976, Note_on_c, 11, 49, 0
9, 50976, Note_on_c, 11, 54, 0
9, 51024, Note_on_c, 11, 49, 127
9, 51024, Note_on_c, 11, 54, 127
9, 51072, Note_on_c, 11, 49, 0
9, 51072, Note_on_c, 11, 54, 0
9, 51120, Note_on_c, 11, 49, 127
9, 51120, Note_on_c, 11, 54, 127
9, 51168, Note_on_c, 11, 49, 0
9, 51168, Note_on_c, 11, 54, 0
9, 51168, Note_on_c, 11, 49, 127
9, 51168, Note_on_c, 11, 54, 127
9, 51216, Note_on_c, 11, 49, 0
9, 51216, Note_on_c, 11, 54, 0
9, 51216, Note_on_c, 11, 49, 127
9, 51216, Note_on_c, 11, 54, 127
9, 51264, Note_on_c, 11, 49, 0
9, 51264, Note_on_c, 11, 54, 0
9, 51312, Note_on_c, 11, 49, 127
9, 51312, Note_on_c, 11, 54, 127
9, 51360, Note_on_c, 11, 49, 0
9, 51360, Note_on_c, 11, 54, 0
9, 51408, Note_on_c, 11, 49, 127
9, 51408, Note_on_c, 11, 54, 127
9, 51456, Note_on_c, 11, 49, 0
9, 51456, Note_on_c, 11, 54, 0
9, 51456, Note_on_c, 11, 51, 127
9, 51456, Note_on_c, 11, 56, 127
9, 51504, Note_on_c, 11, 51, 0
9, 51504, Note_on_c, 11, 56, 0
9, 51504, Note_on_c, 11, 51, 127
9, 51504, Note_on_c, 11, 56, 127
9, 51552, Note_on_c, 11, 51, 0
9, 51552, Note_on_c, 11, 56, 0
9, 51552, Note_on_c, 11, 51, 127
9, 51552, Note_on_c, 11, 56, 127
9, 51600, Note_on_c, 11, 51, 0
9, 51600, Note_on_c, 11, 56, 0
9, 51600, Note_on_c, 11, 51, 127
9, 51600, Note_on_c, 11, 56, 127
9, 51648, Note_on_c, 11, 51, 0
9, 51648, Note_on_c, 11, 56, 0
9, 51696, Note_on_c, 11, 51, 127
9, 51696, Note_on_c, 11, 56, 127
9, 51744, Note_on_c, 11, 51, 0
9, 51744, Note_on_c, 11, 56, 0
9, 51792, Note_on_c, 11, 51, 127
9, 51792, Note_on_c, 11, 56, 127
9, 51840, Note_on_c, 11, 51, 0
9, 51840, Note_on_c, 11, 56, 0
9, 51888, Note_on_c, 11, 51, 127
9, 51888, Note_on_c, 11, 56, 127
9, 51936, Note_on_c, 11, 51, 0
9, 51936, Note_on_c, 11, 56, 0
9, 51936, Note_on_c, 11, 51, 127
9, 51936, Note_on_c, 11, 56, 127
9, 51984, Note_on_c, 11, 51, 0
9, 51984, Note_on_c, 11, 56, 0
9, 51984, Note_on_c, 11, 51, 127
9, 51984, Note_on_c, 11, 56, 127
9, 52032, Note_on_c, 11, 51, 0
9, 52032, Note_on_c, 11, 56, 0
9, 52080, Note_on_c, 11, 51, 127
9, 52080, Note_on_c, 11, 56, 127
9, 52128, Note_on_c, 11, 51, 0
9, 52128, Note_on_c, 11, 56, 0
9, 52176, Note_on_c, 11, 51, 127
9, 52176, Note_on_c, 11, 56, 127
9, 52224, Note_on_c, 11, 51, 0
9, 52224, Note_on_c, 11, 56, 0
9, 52224, Note_on_c, 11, 44, 127
9, 52224, Note_on_c, 11, 49, 127
9, 52272, Note_on_c, 11, 44, 0
9, 52272, Note_on_c, 11, 49, 0
9, 52272, Note_on_c, 11, 44, 127
9, 52272, Note_on_c, 11, 49, 127
9, 52320, Note_on_c, 11, 44, 0
9, 52320, Note_on_c, 11, 49, 0
9, 52320, Note_on_c, 11, 44, 127
9, 52320, Note_on_c, 11, 49, 127
9, 52368, Note_on_c, 11, 44, 0
9, 52368, Note_on_c, 11, 49, 0
9, 52368, Note_on_c, 11, 44, 127
9, 52368, Note_on_c, 11, 49, 127
9, 52416, Note_on_c, 11, 44, 0
9, 52416, Note_on_c, 11, 49, 0
9, 52464, Note_on_c, 11, 44, 127
9, 52464, Note_on_c, 11, 49, 127
9, 52512, Note_on_c, 11, 44, 0
9, 52512, Note_on_c, 11, 49, 0
9, 52560, Note_on_c, 11, 44, 127
9, 52560, Note_on_c, 11, 49, 127
9, 52608, Note_on_c, 11, 44, 0
9, 52608, Note_on_c, 11, 49, 0
9, 52656, Note_on_c, 11, 44, 127
9, 52656, Note_on_c, 11, 49, 127
9, 52704, Note_on_c, 11, 44, 0
9, 52704, Note_on_c, 11, 49, 0
9, 52704, Note_on_c, 11, 44, 127
9, 52704, Note_on_c, 11, 49, 127
9, 52752, Note_on_c, 11, 44, 0
9, 52752, Note_on_c, 11, 49, 0
9, 52752, Note_on_c, 11, 44, 127
9, 52752, Note_on_c, 11, 49, 127
9, 52800, Note_on_c, 11, 44, 0
9, 52800, Note_on_c, 11, 49, 0
9, 52848, Note_on_c, 11, 44, 127
9, 52848, Note_on_c, 11, 49, 127
9, 52896, Note_on_c, 11, 44, 0
9, 52896, Note_on_c, 11, 49, 0
9, 52944, Note_on_c, 11, 44, 127
9, 52944, Note_on_c, 11, 49, 127
9, 52992, Note_on_c, 11, 44, 0
9, 52992, Note_on_c, 11, 49, 0
9, 52992, Note_on_c, 11, 47, 127
9, 52992, Note_on_c, 11, 52, 127
9, 53040, Note_on_c, 11, 47, 0
9, 53040, Note_on_c, 11, 52, 0
9, 53040, Note_on_c, 11, 47, 127
9, 53040, Note_on_c, 11, 52, 127
9, 53088, Note_on_c, 11, 47, 0
9, 53088, Note_on_c, 11, 52, 0
9, 53088, Note_on_c, 11, 47, 127
9, 53088, Note_on_c, 11, 52, 127
9, 53136, Note_on_c, 11, 47, 0
9, 53136, Note_on_c, 11, 52, 0
9, 53136, Note_on_c, 11, 47, 127
9, 53136, Note_on_c, 11, 52, 127
9, 53184, Note_on_c, 11, 47, 0
9, 53184, Note_on_c, 11, 52, 0
9, 53232, Note_on_c, 11, 47, 127
9, 53232, Note_on_c, 11, 52, 127
9, 53280, Note_on_c, 11, 47, 0
9, 53280, Note_on_c, 11, 52, 0
9, 53328, Note_on_c, 11, 47, 127
9, 53328, Note_on_c, 11, 52, 127
9, 53376, Note_on_c, 11, 47, 0
9, 53376, Note_on_c, 11, 52, 0
9, 53424, Note_on_c, 11, 47, 127
9, 53424, Note_on_c, 11, 52, 127
9, 53472, Note_on_c, 11, 47, 0
9, 53472, Note_on_c, 11, 52, 0
9, 53472, Note_on_c, 11, 47, 127
9, 53472, Note_on_c, 11, 52, 127
9, 53520, Note_on_c, 11, 47, 0
9, 53520, Note_on_c, 11, 52, 0
9, 53520, Note_on_c, 11, 47, 127
9, 53520, Note_on_c, 11, 52, 127
9, 53568, Note_on_c, 11, 47, 0
9, 53568, Note_on_c, 11, 52, 0
9, 53616, Note_on_c, 11, 47, 127
9, 53616, Note_on_c, 11, 52, 127
9, 53664, Note_on_c, 11, 47, 0
9, 53664, Note_on_c, 11, 52, 0
9, 53712, Note_on_c, 11, 47, 127
9, 53712, Note_on_c, 11, 52, 127
9, 53760, Note_on_c, 11, 47, 0
9, 53760, Note_on_c, 11, 52, 0
9, 53760, Note_on_c, 11, 49, 127
9, 53760, Note_on_c, 11, 54, 127
9, 53808, Note_on_c, 11, 49, 0
9, 53808, Note_on_c, 11, 54, 0
9, 53808, Note_on_c, 11, 49, 127
9, 53808, Note_on_c, 11, 54, 127
9, 53856, Note_on_c, 11, 49, 0
9, 53856, Note_on_c, 11, 54, 0
9, 53856, Note_on_c, 11, 49, 127
9, 53856, Note_on_c, 11, 54, 127
9, 53904, Note_on_c, 11, 49, 0
9, 53904, Note_on_c, 11, 54, 0
9, 53904, Note_on_c, 11, 49, 127
9, 53904, Note_on_c, 11, 54, 127
9, 53952, Note_on_c, 11, 49, 0
9, 53952, Note_on_c, 11, 54, 0
9, 54000, Note_on_c, 11, 49, 127
9, 54000, Note_on_c, 11, 54, 127
9, 54048, Note_on_c, 11, 49, 0
9, 54048, Note_on_c, 11, 54, 0
9, 54096, Note_on_c, 11, 49, 127
9, 54096, Note_on_c, 11, 54, 127
9, 54144, Note_on_c, 11, 49, 0
9, 54144, Note_on_c, 11, 54, 0
9, 54192, Note_on_c, 11, 49, 127
9, 54192, Note_on_c, 11, 54, 127
9, 54240, Note_on_c, 11, 49, 0
9, 54240, Note_on_c, 11, 54, 0
9, 54240, Note_on_c, 11, 49, 127
9, 54240, Note_on_c, 11, 54, 127
9, 54288, Note_on_c, 11, 49, 0
9, 54288, Note_on_c, 11, 54, 0
9, 54288, Note_on_c, 11, 49, 127
9, 54288, Note_on_c, 11, 54, 127
9, 54336, Note_on_c, 11, 49, 0
9, 54336, Note_on_c, 11, 54, 0
9, 54384, Note_on_c, 11, 49, 127
9, 54384, Note_on_c, 11, 54, 127
9, 54432, Note_on_c, 11, 49, 0
9, 54432, Note_on_c, 11, 54, 0
9, 54480, Note_on_c, 11, 49, 127
9, 54480, Note_on_c, 11, 54, 127
9, 54528, Note_on_c, 11, 49, 0
9, 54528, Note_on_c, 11, 54, 0
9, 54528, Note_on_c, 11, 51, 127
9, 54528, Note_on_c, 11, 56, 127
9, 54576, Note_on_c, 11, 51, 0
9, 54576, Note_on_c, 11, 56, 0
9, 54576, Note_on_c, 11, 51, 127
9, 54576, Note_on_c, 11, 56, 127
9, 54624, Note_on_c, 11, 51, 0
9, 54624, Note_on_c, 11, 56, 0
9, 54624, Note_on_c, 11, 51, 127
9, 54624, Note_on_c, 11, 56, 127
9, 54672, Note_on_c, 11, 51, 0
9, 54672, Note_on_c, 11, 56, 0
9, 54672, Note_on_c, 11, 51, 127
9, 54672, Note_on_c, 11, 56, 127
9, 54720, Note_on_c, 11, 51, 0
9, 54720, Note_on_c, 11, 56, 0
9, 54768, Note_on_c, 11, 51, 127
9, 54768, Note_on_c, 11, 56, 127
9, 54816, Note_on_c, 11, 51, 0
9, 54816, Note_on_c, 11, 56, 0
9, 54864, Note_on_c, 11, 51, 127
9, 54864, Note_on_c, 11, 56, 127
9, 54912, Note_on_c, 11, 51, 0
9, 54912, Note_on_c, 11, 56, 0
9, 54960, Note_on_c, 11, 51, 127
9, 54960, Note_on_c, 11, 56, 127
9, 55008, Note_on_c, 11, 51, 0
9, 55008, Note_on_c, 11, 56, 0
9, 55008, Note_on_c, 11, 51, 127
9, 55008, Note_on_c, 11, 56, 127
9, 55056, Note_on_c, 11, 51, 0
9, 55056, Note_on_c, 11, 56, 0
9, 55056, Note_on_c, 11, 51, 127
9, 55056, Note_on_c, 11, 56, 127
9, 55104, Note_on_c, 11, 51, 0
9, 55104, Note_on_c, 11, 56, 0
9, 55152, Note_on_c, 11, 51, 127
9, 55152, Note_on_c, 11, 56, 127
9, 55200, Note_on_c, 11, 51, 0
9, 55200, Note_on_c, 11, 56, 0
9, 55248, Note_on_c, 11, 51, 127
9, 55248, Note_on_c, 11, 56, 127
9, 55296, Note_on_c, 11, 51, 0
9, 55296, Note_on_c, 11, 56, 0
9, 55296, Note_on_c, 11, 44, 127
9, 55296, Note_on_c, 11, 49, 127
9, 55344, Note_on_c, 11, 44, 0
9, 55344, Note_on_c, 11, 49, 0
9, 55344, Note_on_c, 11, 44, 127
9, 55344, Note_on_c, 11, 49, 127
9, 55392, Note_on_c, 11, 44, 0
9, 55392, Note_on_c, 11, 49, 0
9, 55392, Note_on_c, 11, 44, 127
9, 55392, Note_on_c, 11, 49, 127
9, 55440, Note_on_c, 11, 44, 0
9, 55440, Note_on_c, 11, 49, 0
9, 55440, Note_on_c, 11, 44, 127
9, 55440, Note_on_c, 11, 49, 127
9, 55488, Note_on_c, 11, 44, 0
9, 55488, Note_on_c, 11, 49, 0
9, 55536, Note_on_c, 11, 44, 127
9, 55536, Note_on_c, 11, 49, 127
9, 55584, Note_on_c, 11, 44, 0
9, 55584, Note_on_c, 11, 49, 0
9, 55632, Note_on_c, 11, 44, 127
9, 55632, Note_on_c, 11, 49, 127
9, 55680, Note_on_c, 11, 44, 0
9, 55680, Note_on_c, 11, 49, 0
9, 55728, Note_on_c, 11, 44, 127
9, 55728, Note_on_c, 11, 49, 127
9, 55776, Note_on_c, 11, 44, 0
9, 55776, Note_on_c, 11, 49, 0
9, 55776, Note_on_c, 11, 44, 127
9, 55776, Note_on_c, 11, 49, 127
9, 55824, Note_on_c, 11, 44, 0
9, 55824, Note_on_c, 11, 49, 0
9, 55824, Note_on_c, 11, 44, 127
9, 55824, Note_on_c, 11, 49, 127
9, 55872, Note_on_c, 11, 44, 0
9, 55872, Note_on_c, 11, 49, 0
9, 55920, Note_on_c, 11, 44, 127
9, 55920, Note_on_c, 11, 49, 127
9, 55968, Note_on_c, 11, 44, 0
9, 55968, Note_on_c, 11, 49, 0
9, 56016, Note_on_c, 11, 44, 127
9, 56016, Note_on_c, 11, 49, 127
9, 56064, Note_on_c, 11, 44, 0
9, 56064, Note_on_c, 11, 49, 0
9, 56064, Note_on_c, 11, 47, 127
9, 56064, Note_on_c, 11, 52, 127
9, 56112, Note_on_c, 11, 47, 0
9, 56112, Note_on_c, 11, 52, 0
9, 56112, Note_on_c, 11, 47, 127
9, 56112, Note_on_c, 11, 52, 127
9, 56160, Note_on_c, 11, 47, 0
9, 56160, Note_on_c, 11, 52, 0
9, 56160, Note_on_c, 11, 47, 127
9, 56160, Note_on_c, 11, 52, 127
9, 56208, Note_on_c, 11, 47, 0
9, 56208, Note_on_c, 11, 52, 0
9, 56208, Note_on_c, 11, 47, 127
9, 56208, Note_on_c, 11, 52, 127
9, 56256, Note_on_c, 11, 47, 0
9, 56256, Note_on_c, 11, 52, 0
9, 56304, Note_on_c, 11, 47, 127
9, 56304, Note_on_c, 11, 52, 127
9, 56352, Note_on_c, 11, 47, 0
9, 56352, Note_on_c, 11, 52, 0
9, 56400, Note_on_c, 11, 47, 127
9, 56400, Note_on_c, 11, 52, 127
9, 56448, Note_on_c, 11, 47, 0
9, 56448, Note_on_c, 11, 52, 0
9, 56496, Note_on_c, 11, 47, 127
9, 56496, Note_on_c, 11, 52, 127
9, 56544, Note_on_c, 11, 47, 0
9, 56544, Note_on_c, 11, 52, 0
9, 56544, Note_on_c, 11, 47, 127
9, 56544, Note_on_c, 11, 52, 127
9, 56592, Note_on_c, 11, 47, 0
9, 56592, Note_on_c, 11, 52, 0
9, 56592, Note_on_c, 11, 47, 127
9, 56592, Note_on_c, 11, 52, 127
9, 56640, Note_on_c, 11, 47, 0
9, 56640, Note_on_c, 11, 52, 0
9, 56688, Note_on_c, 11, 47, 127
9, 56688, Note_on_c, 11, 52, 127
9, 56736, Note_on_c, 11, 47, 0
9, 56736, Note_on_c, 11, 52, 0
9, 56784, Note_on_c, 11, 47, 127
9, 56784, Note_on_c, 11, 52, 127
9, 56832, Note_on_c, 11, 47, 0
9, 56832, Note_on_c, 11, 52, 0
9, 56832, Note_on_c, 11, 49, 127
9, 56832, Note_on_c, 11, 54, 127
9, 56880, Note_on_c, 11, 49, 0
9, 56880, Note_on_c, 11, 54, 0
9, 56880, Note_on_c, 11, 49, 127
9, 56880, Note_on_c, 11, 54, 127
9, 56928, Note_on_c, 11, 49, 0
9, 56928, Note_on_c, 11, 54, 0
9, 56928, Note_on_c, 11, 49, 127
9, 56928, Note_on_c, 11, 54, 127
9, 56976, Note_on_c, 11, 49, 0
9, 56976, Note_on_c, 11, 54, 0
9, 56976, Note_on_c, 11, 49, 127
9, 56976, Note_on_c, 11, 54, 127
9, 57024, Note_on_c, 11, 49, 0
9, 57024, Note_on_c, 11, 54, 0
9, 57072, Note_on_c, 11, 49, 127
9, 57072, Note_on_c, 11, 54, 127
9, 57120, Note_on_c, 11, 49, 0
9, 57120, Note_on_c, 11, 54, 0
9, 57168, Note_on_c, 11, 49, 127
9, 57168, Note_on_c, 11, 54, 127
9, 57216, Note_on_c, 11, 49, 0
9, 57216, Note_on_c, 11, 54, 0
9, 57264, Note_on_c, 11, 49, 127
9, 57264, Note_on_c, 11, 54, 127
9, 57312, Note_on_c, 11, 49, 0
9, 57312, Note_on_c, 11, 54, 0
9, 57312, Note_on_c, 11, 49, 127
9, 57312, Note_on_c, 11, 54, 127
9, 57360, Note_on_c, 11, 49, 0
9, 57360, Note_on_c, 11, 54, 0
9, 57360, Note_on_c, 11, 49, 127
9, 57360, Note_on_c, 11, 54, 127
9, 57408, Note_on_c, 11, 49, 0
9, 57408, Note_on_c, 11, 54, 0
9, 57456, Note_on_c, 11, 49, 127
9, 57456, Note_on_c, 11, 54, 127
9, 57504, Note_on_c, 11, 49, 0
9, 57504, Note_on_c, 11, 54, 0
9, 57552, Note_on_c, 11, 49, 127
9, 57552, Note_on_c, 11, 54, 127
9, 57600, Note_on_c, 11, 49, 0
9, 57600, Note_on_c, 11, 54, 0
9, 57600, Note_on_c, 11, 51, 127
9, 57600, Note_on_c, 11, 56, 127
9, 57648, Note_on_c, 11, 51, 0
9, 57648, Note_on_c, 11, 56, 0
9, 57648, Note_on_c, 11, 51, 127
9, 57648, Note_on_c, 11, 56, 127
9, 57696, Note_on_c, 11, 51, 0
9, 57696, Note_on_c, 11, 56, 0
9, 57696, Note_on_c, 11, 51, 127
9, 57696, Note_on_c, 11, 56, 127
9, 57744, Note_on_c, 11, 51, 0
9, 57744, Note_on_c, 11, 56, 0
9, 57744, Note_on_c, 11, 51, 127
9, 57744, Note_on_c, 11, 56, 127
9, 57792, Note_on_c, 11, 51, 0
9, 57792, Note_on_c, 11, 56, 0
9, 57840, Note_on_c, 11, 51, 127
9, 57840, Note_on_c, 11, 56, 127
9, 57888, Note_on_c, 11, 51, 0
9, 57888, Note_on_c, 11, 56, 0
9, 57936, Note_on_c, 11, 51, 127
9, 57936, Note_on_c, 11, 56, 127
9, 57984, Note_on_c, 11, 51, 0
9, 57984, Note_on_c, 11, 56, 0
9, 58032, Note_on_c, 11, 51, 127
9, 58032, Note_on_c, 11, 56, 127
9, 58080, Note_on_c, 11, 51, 0
9, 58080, Note_on_c, 11, 56, 0
9, 58080, Note_on_c, 11, 51, 127
9, 58080, Note_on_c, 11, 56, 127
9, 58128, Note_on_c, 11, 51, 0
9, 58128, Note_on_c, 11, 56, 0
9, 58128, Note_on_c, 11, 51, 127
9, 58128, Note_on_c, 11, 56, 127
9, 58176, Note_on_c, 11, 51, 0
9, 58176, Note_on_c, 11, 56, 0
9, 58224, Note_on_c, 11, 51, 127
9, 58224, Note_on_c, 11, 56, 127
9, 58272, Note_on_c, 11, 51, 0
9, 58272, Note_on_c, 11, 56, 0
9, 58320, Note_on_c, 11, 51, 127
9, 58320, Note_on_c, 11, 56, 127
9, 58368, Note_on_c, 11, 51, 0
9, 58368, Note_on_c, 11, 56, 0
9, 58368, Note_on_c, 11, 44, 127
9, 58368, Note_on_c, 11, 49, 127
9, 58416, Note_on_c, 11, 44, 0
9, 58416, Note_on_c, 11, 49, 0
9, 58416, Note_on_c, 11, 44, 127
9, 58416, Note_on_c, 11, 49, 127
9, 58464, Note_on_c, 11, 44, 0
9, 58464, Note_on_c, 11, 49, 0
9, 58464, Note_on_c, 11, 44, 127
9, 58464, Note_on_c, 11, 49, 127
9, 58512, Note_on_c, 11, 44, 0
9, 58512, Note_on_c, 11, 49, 0
9, 58512, Note_on_c, 11, 44, 127
9, 58512, Note_on_c, 11, 49, 127
9, 58560, Note_on_c, 11, 44, 0
9, 58560, Note_on_c, 11, 49, 0
9, 58608, Note_on_c, 11, 44, 127
9, 58608, Note_on_c, 11, 49, 127
9, 58656, Note_on_c, 11, 44, 0
9, 58656, Note_on_c, 11, 49, 0
9, 58704, Note_on_c, 11, 44, 127
9, 58704, Note_on_c, 11, 49, 127
9, 58752, Note_on_c, 11, 44, 0
9, 58752, Note_on_c, 11, 49, 0
9, 58800, Note_on_c, 11, 44, 127
9, 58800, Note_on_c, 11, 49, 127
9, 58848, Note_on_c, 11, 44, 0
9, 58848, Note_on_c, 11, 49, 0
9, 58848, Note_on_c, 11, 44, 127
9, 58848, Note_on_c, 11, 49, 127
9, 58896, Note_on_c, 11, 44, 0
9, 58896, Note_on_c, 11, 49, 0
9, 58896, Note_on_c, 11, 44, 127
9, 58896, Note_on_c, 11, 49, 127
9, 58944, Note_on_c, 11, 44, 0
9, 58944, Note_on_c, 11, 49, 0
9, 58992, Note_on_c, 11, 44, 127
9, 58992, Note_on_c, 11, 49, 127
9, 59040, Note_on_c, 11, 44, 0
9, 59040, Note_on_c, 11, 49, 0
9, 59088, Note_on_c, 11, 44, 127
9, 59088, Note_on_c, 11, 49, 127
9, 59136, Note_on_c, 11, 44, 0
9, 59136, Note_on_c, 11, 49, 0
9, 59136, Note_on_c, 11, 47, 127
9, 59136, Note_on_c, 11, 52, 127
9, 59184, Note_on_c, 11, 47, 0
9, 59184, Note_on_c, 11, 52, 0
9, 59184, Note_on_c, 11, 47, 127
9, 59184, Note_on_c, 11, 52, 127
9, 59232, Note_on_c, 11, 47, 0
9, 59232, Note_on_c, 11, 52, 0
9, 59232, Note_on_c, 11, 47, 127
9, 59232, Note_on_c, 11, 52, 127
9, 59280, Note_on_c, 11, 47, 0
9, 59280, Note_on_c, 11, 52, 0
9, 59280, Note_on_c, 11, 47, 127
9, 59280, Note_on_c, 11, 52, 127
9, 59328, Note_on_c, 11, 47, 0
9, 59328, Note_on_c, 11, 52, 0
9, 59376, Note_on_c, 11, 47, 127
9, 59376, Note_on_c, 11, 52, 127
9, 59424, Note_on_c, 11, 47, 0
9, 59424, Note_on_c, 11, 52, 0
9, 59472, Note_on_c, 11, 47, 127
9, 59472, Note_on_c, 11, 52, 127
9, 59520, Note_on_c, 11, 47, 0
9, 59520, Note_on_c, 11, 52, 0
9, 59568, Note_on_c, 11, 47, 127
9, 59568, Note_on_c, 11, 52, 127
9, 59616, Note_on_c, 11, 47, 0
9, 59616, Note_on_c, 11, 52, 0
9, 59616, Note_on_c, 11, 47, 127
9, 59616, Note_on_c, 11, 52, 127
9, 59664, Note_on_c, 11, 47, 0
9, 59664, Note_on_c, 11, 52, 0
9, 59664, Note_on_c, 11, 47, 127
9, 59664, Note_on_c, 11, 52, 127
9, 59712, Note_on_c, 11, 47, 0
9, 59712, Note_on_c, 11, 52, 0
9, 59760, Note_on_c, 11, 47, 127
9, 59760, Note_on_c, 11, 52, 127
9, 59808, Note_on_c, 11, 47, 0
9, 59808, Note_on_c, 11, 52, 0
9, 59856, Note_on_c, 11, 47, 127
9, 59856, Note_on_c, 11, 52, 127
9, 59904, Note_on_c, 11, 47, 0
9, 59904, Note_on_c, 11, 52, 0
9, 59904, Note_on_c, 11, 49, 127
9, 59904, Note_on_c, 11, 54, 127
9, 59952, Note_on_c, 11, 49, 0
9, 59952, Note_on_c, 11, 54, 0
9, 59952, Note_on_c, 11, 49, 127
9, 59952, Note_on_c, 11, 54, 127
9, 60000, Note_on_c, 11, 49, 0
9, 60000, Note_on_c, 11, 54, 0
9, 60000, Note_on_c, 11, 49, 127
9, 60000, Note_on_c, 11, 54, 127
9, 60048, Note_on_c, 11, 49, 0
9, 60048, Note_on_c, 11, 54, 0
9, 60048, Note_on_c, 11, 49, 127
9, 60048, Note_on_c, 11, 54, 127
9, 60096, Note_on_c, 11, 49, 0
9, 60096, Note_on_c, 11, 54, 0
9, 60144, Note_on_c, 11, 49, 127
9, 60144, Note_on_c, 11, 54, 127
9, 60192, Note_on_c, 11, 49, 0
9, 60192, Note_on_c, 11, 54, 0
9, 60240, Note_on_c, 11, 49, 127
9, 60240, Note_on_c, 11, 54, 127
9, 60288, Note_on_c, 11, 49, 0
9, 60288, Note_on_c, 11, 54, 0
9, 60336, Note_on_c, 11, 49, 127
9, 60336, Note_on_c, 11, 54, 127
9, 60384, Note_on_c, 11, 49, 0
9, 60384, Note_on_c, 11, 54, 0
9, 60384, Note_on_c, 11, 49, 127
9, 60384, Note_on_c, 11, 54, 127
9, 60432, Note_on_c, 11, 49, 0
9, 60432, Note_on_c, 11, 54, 0
9, 60432, Note_on_c, 11, 49, 127
9, 60432, Note_on_c, 11, 54, 127
9, 60480, Note_on_c, 11, 49, 0
9, 60480, Note_on_c, 11, 54, 0
9, 60528, Note_on_c, 11, 49, 127
9, 60528, Note_on_c, 11, 54, 127
9, 60576, Note_on_c, 11, 49, 0
9, 60576, Note_on_c, 11, 54, 0
9, 60624, Note_on_c, 11, 49, 127
9, 60624, Note_on_c, 11, 54, 127
9, 60672, Note_on_c, 11, 49, 0
9, 60672, Note_on_c, 11, 54, 0
9, 60672, Note_on_c, 11, 51, 127
9, 60672, Note_on_c, 11, 56, 127
9, 60720, Note_on_c, 11, 51, 0
9, 60720, Note_on_c, 11, 56, 0
9, 60720, Note_on_c, 11, 51, 127
9, 60720, Note_on_c, 11, 56, 127
9, 60768, Note_on_c, 11, 51, 0
9, 60768, Note_on_c, 11, 56, 0
9, 60768, Note_on_c, 11, 51, 127
9, 60768, Note_on_c, 11, 56, 127
9, 60816, Note_on_c, 11, 51, 0
9, 60816, Note_on_c, 11, 56, 0
9, 60816, Note_on_c, 11, 51, 127
9, 60816, Note_on_c, 11, 56, 127
9, 60864, Note_on_c, 11, 51, 0
9, 60864, Note_on_c, 11, 56, 0
9, 60912, Note_on_c, 11, 51, 127
9, 60912, Note_on_c, 11, 56, 127
9, 60960, Note_on_c, 11, 51, 0
9, 60960, Note_on_c, 11, 56, 0
9, 61008, Note_on_c, 11, 51, 127
9, 61008, Note_on_c, 11, 56, 127
9, 61056, Note_on_c, 11, 51, 0
9, 61056, Note_on_c, 11, 56, 0
9, 61104, Note_on_c, 11, 51, 127
9, 61104, Note_on_c, 11, 56, 127
9, 61152, Note_on_c, 11, 51, 0
9, 61152, Note_on_c, 11, 56, 0
9, 61152, Note_on_c, 11, 51, 127
9, 61152, Note_on_c, 11, 56, 127
9, 61200, Note_on_c, 11, 51, 0
9, 61200, Note_on_c, 11, 56, 0
9, 61200, Note_on_c, 11, 51, 127
9, 61200, Note_on_c, 11, 56, 127
9, 61248, Note_on_c, 11, 51, 0
9, 61248, Note_on_c, 11, 56, 0
9, 61296, Note_on_c, 11, 51, 127
9, 61296, Note_on_c, 11, 56, 127
9, 61344, Note_on_c, 11, 51, 0
9, 61344, Note_on_c, 11, 56, 0
9, 61392, Note_on_c, 11, 51, 127
9, 61392, Note_on_c, 11, 56, 127
9, 61440, Note_on_c, 11, 51, 0
9, 61440, Note_on_c, 11, 56, 0
9, 61440, Note_on_c, 11, 44, 127
9, 61440, Note_on_c, 11, 49, 127
9, 61488, Note_on_c, 11, 44, 0
9, 61488, Note_on_c, 11, 49, 0
9, 61488, Note_on_c, 11, 44, 127
9, 61488, Note_on_c, 11, 49, 127
9, 61536, Note_on_c, 11, 44, 0
9, 61536, Note_on_c, 11, 49, 0
9, 61536, Note_on_c, 11, 44, 127
9, 61536, Note_on_c, 11, 49, 127
9, 61584, Note_on_c, 11, 44, 0
9, 61584, Note_on_c, 11, 49, 0
9, 61584, Note_on_c, 11, 44, 127
9, 61584, Note_on_c, 11, 49, 127
9, 61632, Note_on_c, 11, 44, 0
9, 61632, Note_on_c, 11, 49, 0
9, 61680, Note_on_c, 11, 44, 127
9, 61680, Note_on_c, 11, 49, 127
9, 61728, Note_on_c, 11, 44, 0
9, 61728, Note_on_c, 11, 49, 0
9, 61776, Note_on_c, 11, 44, 127
9, 61776, Note_on_c, 11, 49, 127
9, 61824, Note_on_c, 11, 44, 0
9, 61824, Note_on_c, 11, 49, 0
9, 61872, Note_on_c, 11, 44, 127
9, 61872, Note_on_c, 11, 49, 127
9, 61920, Note_on_c, 11, 44, 0
9, 61920, Note_on_c, 11, 49, 0
9, 61920, Note_on_c, 11, 44, 127
9, 61920, Note_on_c, 11, 49, 127
9, 61968, Note_on_c, 11, 44, 0
9, 61968, Note_on_c, 11, 49, 0
9, 61968, Note_on_c, 11, 44, 127
9, 61968, Note_on_c, 11, 49, 127
9, 62016, Note_on_c, 11, 44, 0
9, 62016, Note_on_c, 11, 49, 0
9, 62064, Note_on_c, 11, 44, 127
9, 62064, Note_on_c, 11, 49, 127
9, 62112, Note_on_c, 11, 44, 0
9, 62112, Note_on_c, 11, 49, 0
9, 62160, Note_on_c, 11, 44, 127
9, 62160, Note_on_c, 11, 49, 127
9, 62208, Note_on_c, 11, 44, 0
9, 62208, Note_on_c, 11, 49, 0
9, 62208, Note_on_c, 11, 47, 127
9, 62208, Note_on_c, 11, 52, 127
9, 62256, Note_on_c, 11, 47, 0
9, 62256, Note_on_c, 11, 52, 0
9, 62256, Note_on_c, 11, 47, 127
9, 62256, Note_on_c, 11, 52, 127
9, 62304, Note_on_c, 11, 47, 0
9, 62304, Note_on_c, 11, 52, 0
9, 62304, Note_on_c, 11, 47, 127
9, 62304, Note_on_c, 11, 52, 127
9, 62352, Note_on_c, 11, 47, 0
9, 62352, Note_on_c, 11, 52, 0
9, 62352, Note_on_c, 11, 47, 127
9, 62352, Note_on_c, 11, 52, 127
9, 62400, Note_on_c, 11, 47, 0
9, 62400, Note_on_c, 11, 52, 0
9, 62448, Note_on_c, 11, 47, 127
9, 62448, Note_on_c, 11, 52, 127
9, 62496, Note_on_c, 11, 47, 0
9, 62496, Note_on_c, 11, 52, 0
9, 62544, Note_on_c, 11, 47, 127
9, 62544, Note_on_c, 11, 52, 127
9, 62592, Note_on_c, 11, 47, 0
9, 62592, Note_on_c, 11, 52, 0
9, 62640, Note_on_c, 11, 47, 127
9, 62640, Note_on_c, 11, 52, 127
9, 62688, Note_on_c, 11, 47, 0
9, 62688, Note_on_c, 11, 52, 0
9, 62688, Note_on_c, 11, 47, 127
9, 62688, Note_on_c, 11, 52, 127
9, 62736, Note_on_c, 11, 47, 0
9, 62736, Note_on_c, 11, 52, 0
9, 62736, Note_on_c, 11, 47, 127
9, 62736, Note_on_c, 11, 52, 127
9, 62784, Note_on_c, 11, 47, 0
9, 62784, Note_on_c, 11, 52, 0
9, 62832, Note_on_c, 11, 47, 127
9, 62832, Note_on_c, 11, 52, 127
9, 62880, Note_on_c, 11, 47, 0
9, 62880, Note_on_c, 11, 52, 0
9, 62928, Note_on_c, 11, 47, 127
9, 62928, Note_on_c, 11, 52, 127
9, 62976, Note_on_c, 11, 47, 0
9, 62976, Note_on_c, 11, 52, 0
9, 62976, Note_on_c, 11, 49, 127
9, 62976, Note_on_c, 11, 54, 127
9, 63024, Note_on_c, 11, 49, 0
9, 63024, Note_on_c, 11, 54, 0
9, 63024, Note_on_c, 11, 49, 127
9, 63024, Note_on_c, 11, 54, 127
9, 63072, Note_on_c, 11, 49, 0
9, 63072, Note_on_c, 11, 54, 0
9, 63072, Note_on_c, 11, 49, 127
9, 63072, Note_on_c, 11, 54, 127
9, 63120, Note_on_c, 11, 49, 0
9, 63120, Note_on_c, 11, 54, 0
9, 63120, Note_on_c, 11, 49, 127
9, 63120, Note_on_c, 11, 54, 127
9, 63168, Note_on_c, 11, 49, 0
9, 63168, Note_on_c, 11, 54, 0
9, 63216, Note_on_c, 11, 49, 127
9, 63216, Note_on_c, 11, 54, 127
9, 63264, Note_on_c, 11, 49, 0
9, 63264, Note_on_c, 11, 54, 0
9, 63312, Note_on_c, 11, 49, 127
9, 63312, Note_on_c, 11, 54, 127
9, 63360, Note_on_c, 11, 49, 0
9, 63360, Note_on_c, 11, 54, 0
9, 63408, Note_on_c, 11, 49, 127
9, 63408, Note_on_c, 11, 54, 127
9, 63456, Note_on_c, 11, 49, 0
9, 63456, Note_on_c, 11, 54, 0
9, 63456, Note_on_c, 11, 49, 127
9, 63456, Note_on_c, 11, 54, 127
9, 63504, Note_on_c, 11, 49, 0
9, 63504, Note_on_c, 11, 54, 0
9, 63504, Note_on_c, 11, 49, 127
9, 63504, Note_on_c, 11, 54, 127
9, 63552, Note_on_c, 11, 49, 0
9, 63552, Note_on_c, 11, 54, 0
9, 63600, Note_on_c, 11, 49, 127
9, 63600, Note_on_c, 11, 54, 127
9, 63648, Note_on_c, 11, 49, 0
9, 63648, Note_on_c, 11, 54, 0
9, 63696, Note_on_c, 11, 49, 127
9, 63696, Note_on_c, 11, 54, 127
9, 63744, Note_on_c, 11, 49, 0
9, 63744, Note_on_c, 11, 54, 0
9, 63744, Note_on_c, 11, 51, 127
9, 63744, Note_on_c, 11, 56, 127
9, 63792, Note_on_c, 11, 51, 0
9, 63792, Note_on_c, 11, 56, 0
9, 63792, Note_on_c, 11, 51, 127
9, 63792, Note_on_c, 11, 56, 127
9, 63840, Note_on_c, 11, 51, 0
9, 63840, Note_on_c, 11, 56, 0
9, 63840, Note_on_c, 11, 51, 127
9, 63840, Note_on_c, 11, 56, 127
9, 63888, Note_on_c, 11, 51, 0
9, 63888, Note_on_c, 11, 56, 0
9, 63888, Note_on_c, 11, 51, 127
9, 63888, Note_on_c, 11, 56, 127
9, 63936, Note_on_c, 11, 51, 0
9, 63936, Note_on_c, 11, 56, 0
9, 63984, Note_on_c, 11, 51, 127
9, 63984, Note_on_c, 11, 56, 127
9, 64032, Note_on_c, 11, 51, 0
9, 64032, Note_on_c, 11, 56, 0
9, 64080, Note_on_c, 11, 51, 127
9, 64080, Note_on_c, 11, 56, 127
9, 64128, Note_on_c, 11, 51, 0
9, 64128, Note_on_c, 11, 56, 0
9, 64176, Note_on_c, 11, 51, 127
9, 64176, Note_on_c, 11, 56, 127
9, 64224, Note_on_c, 11, 51, 0
9, 64224, Note_on_c, 11, 56, 0
9, 64224, Note_on_c, 11, 51, 127
9, 64224, Note_on_c, 11, 56, 127
9, 64272, Note_on_c, 11, 51, 0
9, 64272, Note_on_c, 11, 56, 0
9, 64272, Note_on_c, 11, 51, 127
9, 64272, Note_on_c, 11, 56, 127
9, 64320, Note_on_c, 11, 51, 0
9, 64320, Note_on_c, 11, 56, 0
9, 64368, Note_on_c, 11, 51, 127
9, 64368, Note_on_c, 11, 56, 127
9, 64416, Note_on_c, 11, 51, 0
9, 64416, Note_on_c, 11, 56, 0
9, 64464, Note_on_c, 11, 51, 127
9, 64464, Note_on_c, 11, 56, 127
9, 64512, Note_on_c, 11, 51, 0
9, 64512, Note_on_c, 11, 56, 0
9, 64512, Note_on_c, 11, 44, 127
9, 64512, Note_on_c, 11, 49, 127
9, 64560, Note_on_c, 11, 44, 0
9, 64560, Note_on_c, 11, 49, 0
9, 64560, Note_on_c, 11, 44, 127
9, 64560, Note_on_c, 11, 49, 127
9, 64608, Note_on_c, 11, 44, 0
9, 64608, Note_on_c, 11, 49, 0
9, 64608, Note_on_c, 11, 44, 127
9, 64608, Note_on_c, 11, 49, 127
9, 64656, Note_on_c, 11, 44, 0
9, 64656, Note_on_c, 11, 49, 0
9, 64656, Note_on_c, 11, 44, 127
9, 64656, Note_on_c, 11, 49, 127
9, 64704, Note_on_c, 11, 44, 0
9, 64704, Note_on_c, 11, 49, 0
9, 64752, Note_on_c, 11, 44, 127
9, 64752, Note_on_c, 11, 49, 127
9, 64800, Note_on_c, 11, 44, 0
9, 64800, Note_on_c, 11, 49, 0
9, 64848, Note_on_c, 11, 44, 127
9, 64848, Note_on_c, 11, 49, 127
9, 64896, Note_on_c, 11, 44, 0
9, 64896, Note_on_c, 11, 49, 0
9, 64944, Note_on_c, 11, 44, 127
9, 64944, Note_on_c, 11, 49, 127
9, 64992, Note_on_c, 11, 44, 0
9, 64992, Note_on_c, 11, 49, 0
9, 64992, Note_on_c, 11, 44, 127
9, 64992, Note_on_c, 11, 49, 127
9, 65040, Note_on_c, 11, 44, 0
9, 65040, Note_on_c, 11, 49, 0
9, 65040, Note_on_c, 11, 44, 127
9, 65040, Note_on_c, 11, 49, 127
9, 65088, Note_on_c, 11, 44, 0
9, 65088, Note_on_c, 11, 49, 0
9, 65136, Note_on_c, 11, 44, 127
9, 65136, Note_on_c, 11, 49, 127
9, 65184, Note_on_c, 11, 44, 0
9, 65184, Note_on_c, 11, 49, 0
9, 65232, Note_on_c, 11, 44, 127
9, 65232, Note_on_c, 11, 49, 127
9, 65280, Note_on_c, 11, 44, 0
9, 65280, Note_on_c, 11, 49, 0
9, 65280, Note_on_c, 11, 47, 127
9, 65280, Note_on_c, 11, 52, 127
9, 65328, Note_on_c, 11, 47, 0
9, 65328, Note_on_c, 11, 52, 0
9, 65328, Note_on_c, 11, 47, 127
9, 65328, Note_on_c, 11, 52, 127
9, 65376, Note_on_c, 11, 47, 0
9, 65376, Note_on_c, 11, 52, 0
9, 65376, Note_on_c, 11, 47, 127
9, 65376, Note_on_c, 11, 52, 127
9, 65424, Note_on_c, 11, 47, 0
9, 65424, Note_on_c, 11, 52, 0
9, 65424, Note_on_c, 11, 47, 127
9, 65424, Note_on_c, 11, 52, 127
9, 65472, Note_on_c, 11, 47, 0
9, 65472, Note_on_c, 11, 52, 0
9, 65520, Note_on_c, 11, 47, 127
9, 65520, Note_on_c, 11, 52, 127
9, 65568, Note_on_c, 11, 47, 0
9, 65568, Note_on_c, 11, 52, 0
9, 65616, Note_on_c, 11, 47, 127
9, 65616, Note_on_c, 11, 52, 127
9, 65664, Note_on_c, 11, 47, 0
9, 65664, Note_on_c, 11, 52, 0
9, 65712, Note_on_c, 11, 47, 127
9, 65712, Note_on_c, 11, 52, 127
9, 65760, Note_on_c, 11, 47, 0
9, 65760, Note_on_c, 11, 52, 0
9, 65760, Note_on_c, 11, 47, 127
9, 65760, Note_on_c, 11, 52, 127
9, 65808, Note_on_c, 11, 47, 0
9, 65808, Note_on_c, 11, 52, 0
9, 65808, Note_on_c, 11, 47, 127
9, 65808, Note_on_c, 11, 52, 127
9, 65856, Note_on_c, 11, 47, 0
9, 65856, Note_on_c, 11, 52, 0
9, 65904, Note_on_c, 11, 47, 127
9, 65904, Note_on_c, 11, 52, 127
9, 65952, Note_on_c, 11, 47, 0
9, 65952, Note_on_c, 11, 52, 0
9, 66000, Note_on_c, 11, 47, 127
9, 66000, Note_on_c, 11, 52, 127
9, 66048, Note_on_c, 11, 47, 0
9, 66048, Note_on_c, 11, 52, 0
9, 66048, Note_on_c, 11, 49, 127
9, 66048, Note_on_c, 11, 54, 127
9, 66096, Note_on_c, 11, 49, 0
9, 66096, Note_on_c, 11, 54, 0
9, 66096, Note_on_c, 11, 49, 127
9, 66096, Note_on_c, 11, 54, 127
9, 66144, Note_on_c, 11, 49, 0
9, 66144, Note_on_c, 11, 54, 0
9, 66144, Note_on_c, 11, 49, 127
9, 66144, Note_on_c, 11, 54, 127
9, 66192, Note_on_c, 11, 49, 0
9, 66192, Note_on_c, 11, 54, 0
9, 66192, Note_on_c, 11, 49, 127
9, 66192, Note_on_c, 11, 54, 127
9, 66240, Note_on_c, 11, 49, 0
9, 66240, Note_on_c, 11, 54, 0
9, 66288, Note_on_c, 11, 49, 127
9, 66288, Note_on_c, 11, 54, 127
9, 66336, Note_on_c, 11, 49, 0
9, 66336, Note_on_c, 11, 54, 0
9, 66384, Note_on_c, 11, 49, 127
9, 66384, Note_on_c, 11, 54, 127
9, 66432, Note_on_c, 11, 49, 0
9, 66432, Note_on_c, 11, 54, 0
9, 66480, Note_on_c, 11, 49, 127
9, 66480, Note_on_c, 11, 54, 127
9, 66528, Note_on_c, 11, 49, 0
9, 66528, Note_on_c, 11, 54, 0
9, 66528, Note_on_c, 11, 49, 127
9, 66528, Note_on_c, 11, 54, 127
9, 66576, Note_on_c, 11, 49, 0
9, 66576, Note_on_c, 11, 54, 0
9, 66576, Note_on_c, 11, 49, 127
9, 66576, Note_on_c, 11, 54, 127
9, 66624, Note_on_c, 11, 49, 0
9, 66624, Note_on_c, 11, 54, 0
9, 66672, Note_on_c, 11, 49, 127
9, 66672, Note_on_c, 11, 54, 127
9, 66720, Note_on_c, 11, 49, 0
9, 66720, Note_on_c, 11, 54, 0
9, 66768, Note_on_c, 11, 49, 127
9, 66768, Note_on_c, 11, 54, 127
9, 66816, Note_on_c, 11, 49, 0
9, 66816, Note_on_c, 11, 54, 0
9, 66816, Note_on_c, 11, 51, 127
9, 66816, Note_on_c, 11, 56, 127
9, 66864, Note_on_c, 11, 51, 0
9, 66864, Note_on_c, 11, 56, 0
9, 66864, Note_on_c, 11, 51, 127
9, 66864, Note_on_c, 11, 56, 127
9, 66912, Note_on_c, 11, 51, 0
9, 66912, Note_on_c, 11, 56, 0
9, 66912, Note_on_c, 11, 51, 127
9, 66912, Note_on_c, 11, 56, 127
9, 66960, Note_on_c, 11, 51, 0
9, 66960, Note_on_c, 11, 56, 0
9, 66960, Note_on_c, 11, 51, 127
9, 66960, Note_on_c, 11, 56, 127
9, 67008, Note_on_c, 11, 51, 0
9, 67008, Note_on_c, 11, 56, 0
9, 67056, Note_on_c, 11, 51, 127
9, 67056, Note_on_c, 11, 56, 127
9, 67104, Note_on_c, 11, 51, 0
9, 67104, Note_on_c, 11, 56, 0
9, 67152, Note_on_c, 11, 51, 127
9, 67152, Note_on_c, 11, 56, 127
9, 67200, Note_on_c, 11, 51, 0
9, 67200, Note_on_c, 11, 56, 0
9, 67248, Note_on_c, 11, 51, 127
9, 67248, Note_on_c, 11, 56, 127
9, 67296, Note_on_c, 11, 51, 0
9, 67296, Note_on_c, 11, 56, 0
9, 67296, Note_on_c, 11, 51, 127
9, 67296, Note_on_c, 11, 56, 127
9, 67344, Note_on_c, 11, 51, 0
9, 67344, Note_on_c, 11, 56, 0
9, 67344, Note_on_c, 11, 51, 127
9, 67344, Note_on_c, 11, 56, 127
9, 67392, Note_on_c, 11, 51, 0
9, 67392, Note_on_c, 11, 56, 0
9, 67440, Note_on_c, 11, 51, 127
9, 67440, Note_on_c, 11, 56, 127
9, 67488, Note_on_c, 11, 51, 0
9, 67488, Note_on_c, 11, 56, 0
9, 67536, Note_on_c, 11, 51, 127
9, 67536, Note_on_c, 11, 56, 127
9, 67584, Note_on_c, 11, 51, 0
9, 67584, Note_on_c, 11, 56, 0
9, 67584, Note_on_c, 11, 44, 127
9, 67584, Note_on_c, 11, 49, 127
9, 67632, Note_on_c, 11, 44, 0
9, 67632, Note_on_c, 11, 49, 0
9, 67632, Note_on_c, 11, 44, 127
9, 67632, Note_on_c, 11, 49, 127
9, 67680, Note_on_c, 11, 44, 0
9, 67680, Note_on_c, 11, 49, 0
9, 67680, Note_on_c, 11, 44, 127
9, 67680, Note_on_c, 11, 49, 127
9, 67728, Note_on_c, 11, 44, 0
9, 67728, Note_on_c, 11, 49, 0
9, 67728, Note_on_c, 11, 44, 127
9, 67728, Note_on_c, 11, 49, 127
9, 67776, Note_on_c, 11, 44, 0
9, 67776, Note_on_c, 11, 49, 0
9, 67824, Note_on_c, 11, 44, 127
9, 67824, Note_on_c, 11, 49, 127
9, 67872, Note_on_c, 11, 44, 0
9, 67872, Note_on_c, 11, 49, 0
9, 67920, Note_on_c, 11, 44, 127
9, 67920, Note_on_c, 11, 49, 127
9, 67968, Note_on_c, 11, 44, 0
9, 67968, Note_on_c, 11, 49, 0
9, 68016, Note_on_c, 11, 44, 127
9, 68016, Note_on_c, 11, 49, 127
9, 68064, Note_on_c, 11, 44, 0
9, 68064, Note_on_c, 11, 49, 0
9, 68064, Note_on_c, 11, 44, 127
9, 68064, Note_on_c, 11, 49, 127
9, 68112, Note_on_c, 11, 44, 0
9, 68112, Note_on_c, 11, 49, 0
9, 68112, Note_on_c, 11, 44, 127
9, 68112, Note_on_c, 11, 49, 127
9, 68160, Note_on_c, 11, 44, 0
9, 68160, Note_on_c, 11, 49, 0
9, 68208, Note_on_c, 11, 44, 127
9, 68208, Note_on_c, 11, 49, 127
9, 68256, Note_on_c, 11, 44, 0
9, 68256, Note_on_c, 11, 49, 0
9, 68304, Note_on_c, 11, 44, 127
9, 68304, Note_on_c, 11, 49, 127
9, 68352, Note_on_c, 11, 44, 0
9, 68352, Note_on_c, 11, 49, 0
9, 68352, Note_on_c, 11, 47, 127
9, 68352, Note_on_c, 11, 52, 127
9, 68400, Note_on_c, 11, 47, 0
9, 68400, Note_on_c, 11, 52, 0
9, 68400, Note_on_c, 11, 47, 127
9, 68400, Note_on_c, 11, 52, 127
9, 68448, Note_on_c, 11, 47, 0
9, 68448, Note_on_c, 11, 52, 0
9, 68448, Note_on_c, 11, 47, 127
9, 68448, Note_on_c, 11, 52, 127
9, 68496, Note_on_c, 11, 47, 0
9, 68496, Note_on_c, 11, 52, 0
9, 68496, Note_on_c, 11, 47, 127
9, 68496, Note_on_c, 11, 52, 127
9, 68544, Note_on_c, 11, 47, 0
9, 68544, Note_on_c, 11, 52, 0
9, 68592, Note_on_c, 11, 47, 127
9, 68592, Note_on_c, 11, 52, 127
9, 68640, Note_on_c, 11, 47, 0
9, 68640, Note_on_c, 11, 52, 0
9, 68688, Note_on_c, 11, 47, 127
9, 68688, Note_on_c, 11, 52, 127
9, 68736, Note_on_c, 11, 47, 0
9, 68736, Note_on_c, 11, 52, 0
9, 68784, Note_on_c, 11, 47, 127
9, 68784, Note_on_c, 11, 52, 127
9, 68832, Note_on_c, 11, 47, 0
9, 68832, Note_on_c, 11, 52, 0
9, 68832, Note_on_c, 11, 47, 127
9, 68832, Note_on_c, 11, 52, 127
9, 68880, Note_on_c, 11, 47, 0
9, 68880, Note_on_c, 11, 52, 0
9, 68880, Note_on_c, 11, 47, 127
9, 68880, Note_on_c, 11, 52, 127
9, 68928, Note_on_c, 11, 47, 0
9, 68928, Note_on_c, 11, 52, 0
9, 68976, Note_on_c, 11, 47, 127
9, 68976, Note_on_c, 11, 52, 127
9, 69024, Note_on_c, 11, 47, 0
9, 69024, Note_on_c, 11, 52, 0
9, 69072, Note_on_c, 11, 47, 127
9, 69072, Note_on_c, 11, 52, 127
9, 69120, Note_on_c, 11, 47, 0
9, 69120, Note_on_c, 11, 52, 0
9, 69120, Note_on_c, 11, 49, 127
9, 69120, Note_on_c, 11, 54, 127
9, 69168, Note_on_c, 11, 49, 0
9, 69168, Note_on_c, 11, 54, 0
9, 69168, Note_on_c, 11, 49, 127
9, 69168, Note_on_c, 11, 54, 127
9, 69216, Note_on_c, 11, 49, 0
9, 69216, Note_on_c, 11, 54, 0
9, 69216, Note_on_c, 11, 49, 127
9, 69216, Note_on_c, 11, 54, 127
9, 69264, Note_on_c, 11, 49, 0
9, 69264, Note_on_c, 11, 54, 0
9, 69264, Note_on_c, 11, 49, 127
9, 69264, Note_on_c, 11, 54, 127
9, 69312, Note_on_c, 11, 49, 0
9, 69312, Note_on_c, 11, 54, 0
9, 69360, Note_on_c, 11, 49, 127
9, 69360, Note_on_c, 11, 54, 127
9, 69408, Note_on_c, 11, 49, 0
9, 69408, Note_on_c, 11, 54, 0
9, 69456, Note_on_c, 11, 49, 127
9, 69456, Note_on_c, 11, 54, 127
9, 69504, Note_on_c, 11, 49, 0
9, 69504, Note_on_c, 11, 54, 0
9, 69552, Note_on_c, 11, 49, 127
9, 69552, Note_on_c, 11, 54, 127
9, 69600, Note_on_c, 11, 49, 0
9, 69600, Note_on_c, 11, 54, 0
9, 69600, Note_on_c, 11, 49, 127
9, 69600, Note_on_c, 11, 54, 127
9, 69648, Note_on_c, 11, 49, 0
9, 69648, Note_on_c, 11, 54, 0
9, 69648, Note_on_c, 11, 49, 127
9, 69648, Note_on_c, 11, 54, 127
9, 69696, Note_on_c, 11, 49, 0
9, 69696, Note_on_c, 11, 54, 0
9, 69744, Note_on_c, 11, 49, 127
9, 69744, Note_on_c, 11, 54, 127
9, 69792, Note_on_c, 11, 49, 0
9, 69792, Note_on_c, 11, 54, 0
9, 69840, Note_on_c, 11, 49, 127
9, 69840, Note_on_c, 11, 54, 127
9, 69888, Note_on_c, 11, 49, 0
9, 69888, Note_on_c, 11, 54, 0
9, 69888, Note_on_c, 11, 51, 127
9, 69888, Note_on_c, 11, 56, 127
9, 69936, Note_on_c, 11, 51, 0
9, 69936, Note_on_c, 11, 56, 0
9, 69936, Note_on_c, 11, 51, 127
9, 69936, Note_on_c, 11, 56, 127
9, 69984, Note_on_c, 11, 51, 0
9, 69984, Note_on_c, 11, 56, 0
9, 69984, Note_on_c, 11, 51, 127
9, 69984, Note_on_c, 11, 56, 127
9, 70032, Note_on_c, 11, 51, 0
9, 70032, Note_on_c, 11, 56, 0
9, 70032, Note_on_c, 11, 51, 127
9, 70032, Note_on_c, 11, 56, 127
9, 70080, Note_on_c, 11, 51, 0
9, 70080, Note_on_c, 11, 56, 0
9, 70128, Note_on_c, 11, 51, 127
9, 70128, Note_on_c, 11, 56, 127
9, 70176, Note_on_c, 11, 51, 0
9, 70176, Note_on_c, 11, 56, 0
9, 70224, Note_on_c, 11, 51, 127
9, 70224, Note_on_c, 11, 56, 127
9, 70272, Note_on_c, 11, 51, 0
9, 70272, Note_on_c, 11, 56, 0
9, 70320, Note_on_c, 11, 51, 127
9, 70320, Note_on_c, 11, 56, 127
9, 70368, Note_on_c, 11, 51, 0
9, 70368, Note_on_c, 11, 56, 0
9, 70368, Note_on_c, 11, 51, 127
9, 70368, Note_on_c, 11, 56, 127
9, 70416, Note_on_c, 11, 51, 0
9, 70416, Note_on_c, 11, 56, 0
9, 70416, Note_on_c, 11, 51, 127
9, 70416, Note_on_c, 11, 56, 127
9, 70464, Note_on_c, 11, 51, 0
9, 70464, Note_on_c, 11, 56, 0
9, 70512, Note_on_c, 11, 51, 127
9, 70512, Note_on_c, 11, 56, 127
9, 70560, Note_on_c, 11, 51, 0
9, 70560, Note_on_c, 11, 56, 0
9, 70608, Note_on_c, 11, 51, 127
9, 70608, Note_on_c, 11, 56, 127
9, 70656, Note_on_c, 11, 51, 0
9, 70656, Note_on_c, 11, 56, 0
9, 70656, Note_on_c, 11, 51, 127
9, 70656, Note_on_c, 11, 56, 127
9, 70752, Note_on_c, 11, 51, 0
9, 70752, Note_on_c, 11, 56, 0
9, 71232, Note_on_c, 11, 51, 127
9, 71232, Note_on_c, 11, 56, 127
9, 71328, Note_on_c, 11, 51, 0
9, 71328, Note_on_c, 11, 56, 0
9, 71328, Note_on_c, 11, 49, 127
9, 71328, Note_on_c, 11, 54, 127
9, 71424, Note_on_c, 11, 49, 0
9, 71424, Note_on_c, 11, 54, 0
9, 72000, Note_on_c, 11, 47, 127
9, 72000, Note_on_c, 11, 52, 127
9, 72096, Note_on_c, 11, 47, 0
9, 72096, Note_on_c, 11, 52, 0
9, 72096, Note_on_c, 11, 51, 127
9, 72096, Note_on_c, 11, 56, 127
9, 72192, Note_on_c, 11, 51, 0
9, 72192, Note_on_c, 11, 56, 0
9, 72192, Note_on_c, 11, 49, 127
9, 72192, Note_on_c, 11, 54, 127
9, 72288, Note_on_c, 11, 49, 0
9, 72288, Note_on_c, 11, 54, 0
9, 72768, Note_on_c, 11, 46, 127
9, 72768, Note_on_c, 11, 51, 127
9, 72864, Note_on_c, 11, 46, 0
9, 72864, Note_on_c, 11, 51, 0
9, 72864, Note_on_c, 11, 47, 127
9, 72864, Note_on_c, 11, 52, 127
9, 72960, Note_on_c, 11, 47, 0
9, 72960, Note_on_c, 11, 52, 0
9, 73344, Note_on_c, 11, 47, 127
9, 73344, Note_on_c, 11, 52, 127
9, 73440, Note_on_c, 11, 47, 0
9, 73440, Note_on_c, 11, 52, 0
9, 73440, Note_on_c, 11, 51, 127
9, 73440, Note_on_c, 11, 56, 127
9, 73728, Note_on_c, 11, 51, 0
9, 73728, Note_on_c, 11, 56, 0
9, 73728, Note_on_c, 11, 44, 127
9, 73728, Note_on_c, 11, 49, 127
9, 73752, Control_c, 11, 7, 126
9, 73776, Note_on_c, 11, 44, 0
9, 73776, Note_on_c, 11, 49, 0
9, 73776, Control_c, 11, 7, 125
9, 73776, Note_on_c, 11, 44, 126
9, 73776, Note_on_c, 11, 49, 126
9, 73800, Control_c, 11, 7, 124
9, 73824, Note_on_c, 11, 44, 0
9, 73824, Note_on_c, 11, 49, 0
9, 73824, Control_c, 11, 7, 123
9, 73824, Note_on_c, 11, 44, 125
9, 73824, Note_on_c, 11, 49, 125
9, 73848, Control_c, 11, 7, 122
9, 73872, Note_on_c, 11, 44, 0
9, 73872, Note_on_c, 11, 49, 0
9, 73872, Note_on_c, 11, 44, 124
9, 73872, Note_on_c, 11, 49, 124
9, 73873, Control_c, 11, 7, 121
9, 73897, Control_c, 11, 7, 120
9, 73920, Note_on_c, 11, 44, 0
9, 73920, Note_on_c, 11, 49, 0
9, 73921, Control_c, 11, 7, 119
9, 73945, Control_c, 11, 7, 118
9, 73968, Note_on_c, 11, 44, 122
9, 73968, Note_on_c, 11, 49, 122
9, 73969, Control_c, 11, 7, 117
9, 73994, Control_c, 11, 7, 116
9, 74016, Note_on_c, 11, 44, 0
9, 74016, Note_on_c, 11, 49, 0
9, 74018, Control_c, 11, 7, 115
9, 74042, Control_c, 11, 7, 114
9, 74064, Note_on_c, 11, 44, 120
9, 74064, Note_on_c, 11, 49, 120
9, 74066, Control_c, 11, 7, 113
9, 74090, Control_c, 11, 7, 112
9, 74112, Note_on_c, 11, 44, 0
9, 74112, Note_on_c, 11, 49, 0
9, 74115, Control_c, 11, 7, 111
9, 74139, Control_c, 11, 7, 110
9, 74160, Note_on_c, 11, 44, 118
9, 74160, Note_on_c, 11, 49, 118
9, 74163, Control_c, 11, 7, 109
9, 74187, Control_c, 11, 7, 108
9, 74208, Note_on_c, 11, 44, 0
9, 74208, Note_on_c, 11, 49, 0
9, 74208, Note_on_c, 11, 44, 117
9, 74208, Note_on_c, 11, 49, 117
9, 74211, Control_c, 11, 7, 107
9, 74235, Control_c, 11, 7, 106
9, 74256, Note_on_c, 11, 44, 0
9, 74256, Note_on_c, 11, 49, 0
9, 74256, Note_on_c, 11, 44, 116
9, 74256, Note_on_c, 11, 49, 116
9, 74260, Control_c, 11, 7, 105
9, 74284, Control_c, 11, 7, 104
9, 74304, Note_on_c, 11, 44, 0
9, 74304, Note_on_c, 11, 49, 0
9, 74308, Control_c, 11, 7, 103
9, 74332, Control_c, 11, 7, 102
9, 74352, Note_on_c, 11, 44, 112
9, 74352, Note_on_c, 11, 49, 112
9, 74356, Control_c, 11, 7, 101
9, 74381, Control_c, 11, 7, 100
9, 74400, Note_on_c, 11, 44, 0
9, 74400, Note_on_c, 11, 49, 0
9, 74405, Control_c, 11, 7, 99
9, 74429, Control_c, 11, 7, 98
9, 74448, Note_on_c, 11, 44, 109
9, 74448, Note_on_c, 11, 49, 109
9, 74453, Control_c, 11, 7, 97
9, 74477, Control_c, 11, 7, 96
9, 74496, Note_on_c, 11, 44, 0
9, 74496, Note_on_c, 11, 49, 0
9, 74496, Note_on_c, 11, 47, 107
9, 74496, Note_on_c, 11, 52, 107
9, 74502, Control_c, 11, 7, 95
9, 74526, Control_c, 11, 7, 94
9, 74544, Note_on_c, 11, 47, 0
9, 74544, Note_on_c, 11, 52, 0
9, 74544, Note_on_c, 11, 47, 105
9, 74544, Note_on_c, 11, 52, 105
9, 74550, Control_c, 11, 7, 93
9, 74574, Control_c, 11, 7, 92
9, 74592, Note_on_c, 11, 47, 0
9, 74592, Note_on_c, 11, 52, 0
9, 74592, Note_on_c, 11, 47, 103
9, 74592, Note_on_c, 11, 52, 103
9, 74598, Control_c, 11, 7, 91
9, 74622, Control_c, 11, 7, 90
9, 74640, Note_on_c, 11, 47, 0
9, 74640, Note_on_c, 11, 52, 0
9, 74640, Note_on_c, 11, 47, 101
9, 74640, Note_on_c, 11, 52, 101
9, 74647, Control_c, 11, 7, 89
9, 74671, Control_c, 11, 7, 88
9, 74688, Note_on_c, 11, 47, 0
9, 74688, Note_on_c, 11, 52, 0
9, 74695, Control_c, 11, 7, 87
9, 74719, Control_c, 11, 7, 86
9, 74736, Note_on_c, 11, 47, 97
9, 74736, Note_on_c, 11, 52, 97
9, 74743, Control_c, 11, 7, 85
9, 74768, Control_c, 11, 7, 84
9, 74784, Note_on_c, 11, 47, 0
9, 74784, Note_on_c, 11, 52, 0
9, 74792, Control_c, 11, 7, 83
9, 74816, Control_c, 11, 7, 82
9, 74832, Note_on_c, 11, 47, 93
9, 74832, Note_on_c, 11, 52, 93
9, 74840, Control_c, 11, 7, 81
9, 74864, Control_c, 11, 7, 80
9, 74880, Note_on_c, 11, 47, 0
9, 74880, Note_on_c, 11, 52, 0
9, 74889, Control_c, 11, 7, 79
9, 74913, Control_c, 11, 7, 78
9, 74928, Note_on_c, 11, 47, 89
9, 74928, Note_on_c, 11, 52, 89
9, 74937, Control_c, 11, 7, 77
9, 74961, Control_c, 11, 7, 76
9, 74976, Note_on_c, 11, 47, 0
9, 74976, Note_on_c, 11, 52, 0
9, 74976, Note_on_c, 11, 47, 87
9, 74976, Note_on_c, 11, 52, 87
9, 74985, Control_c, 11, 7, 75
9, 75010, Control_c, 11, 7, 74
9, 75024, Note_on_c, 11, 47, 0
9, 75024, Note_on_c, 11, 52, 0
9, 75024, Note_on_c, 11, 47, 85
9, 75024, Note_on_c, 11, 52, 85
9, 75034, Control_c, 11, 7, 73
9, 75058, Control_c, 11, 7, 72
9, 75072, Note_on_c, 11, 47, 0
9, 75072, Note_on_c, 11, 52, 0
9, 75082, Control_c, 11, 7, 71
9, 75106, Control_c, 11, 7, 70
9, 75120, Note_on_c, 11, 47, 81
9, 75120, Note_on_c, 11, 52, 81
9, 75130, Control_c, 11, 7, 69
9, 75155, Control_c, 11, 7, 68
9, 75168, Note_on_c, 11, 47, 0
9, 75168, Note_on_c, 11, 52, 0
9, 75179, Control_c, 11, 7, 67
9, 75203, Control_c, 11, 7, 66
9, 75216, Note_on_c, 11, 47, 77
9, 75216, Note_on_c, 11, 52, 77
9, 75227, Control_c, 11, 7, 65
9, 75251, Control_c, 11, 7, 64
9, 75264, Note_on_c, 11, 47, 0
9, 75264, Note_on_c, 11, 52, 0
9, 75264, Note_on_c, 11, 49, 75
9, 75264, Note_on_c, 11, 54, 75
9, 75276, Control_c, 11, 7, 63
9, 75300, Control_c, 11, 7, 62
9, 75312, Note_on_c, 11, 49, 0
9, 75312, Note_on_c, 11, 54, 0
9, 75312, Note_on_c, 11, 49, 73
9, 75312, Note_on_c, 11, 54, 73
9, 75324, Control_c, 11, 7, 61
9, 75348, Control_c, 11, 7, 60
9, 75360, Note_on_c, 11, 49, 0
9, 75360, Note_on_c, 11, 54, 0
9, 75360, Note_on_c, 11, 49, 71
9, 75360, Note_on_c, 11, 54, 71
9, 75372, Control_c, 11, 7, 59
9, 75397, Control_c, 11, 7, 58
9, 75408, Note_on_c, 11, 49, 0
9, 75408, Note_on_c, 11, 54, 0
9, 75408, Note_on_c, 11, 49, 69
9, 75408, Note_on_c, 11, 54, 69
9, 75421, Control_c, 11, 7, 57
9, 75445, Control_c, 11, 7, 56
9, 75456, Note_on_c, 11, 49, 0
9, 75456, Note_on_c, 11, 54, 0
9, 75469, Control_c, 11, 7, 55
9, 75493, Control_c, 11, 7, 54
9, 75504, Note_on_c, 11, 49, 65
9, 75504, Note_on_c, 11, 54, 65
9, 75517, Control_c, 11, 7, 53
9, 75542, Control_c, 11, 7, 52
9, 75552, Note_on_c, 11, 49, 0
9, 75552, Note_on_c, 11, 54, 0
9, 75566, Control_c, 11, 7, 51
9, 75590, Control_c, 11, 7, 50
9, 75600, Note_on_c, 11, 49, 61
9, 75600, Note_on_c, 11, 54, 61
9, 75614, Control_c, 11, 7, 49
9, 75638, Control_c, 11, 7, 48
9, 75648, Note_on_c, 11, 49, 0
9, 75648, Note_on_c, 11, 54, 0
9, 75663, Control_c, 11, 7, 47
9, 75687, Control_c, 11, 7, 46
9, 75696, Note_on_c, 11, 49, 57
9, 75696, Note_on_c, 11, 54, 57
9, 75711, Control_c, 11, 7, 45
9, 75735, Control_c, 11, 7, 44
9, 75744, Note_on_c, 11, 49, 0
9, 75744, Note_on_c, 11, 54, 0
9, 75744, Note_on_c, 11, 49, 55
9, 75744, Note_on_c, 11, 54, 55
9, 75759, Control_c, 11, 7, 43
9, 75784, Control_c, 11, 7, 42
9, 75792, Note_on_c, 11, 49, 0
9, 75792, Note_on_c, 11, 54, 0
9, 75792, Note_on_c, 11, 49, 53
9, 75792, Note_on_c, 11, 54, 53
9, 75808, Control_c, 11, 7, 41
9, 75832, Control_c, 11, 7, 40
9, 75840, Note_on_c, 11, 49, 0
9, 75840, Note_on_c, 11, 54, 0
9, 75856, Control_c, 11, 7, 39
9, 75880, Control_c, 11, 7, 38
9, 75888, Note_on_c, 11, 49, 49
9, 75888, Note_on_c, 11, 54, 49
9, 75905, Control_c, 11, 7, 37
9, 75929, Control_c, 11, 7, 36
9, 75936, Note_on_c, 11, 49, 0
9, 75936, Note_on_c, 11, 54, 0
9, 75953, Control_c, 11, 7, 35
9, 75977, Control_c, 11, 7, 34
9, 75984, Note_on_c, 11, 49, 45
9, 75984, Note_on_c, 11, 54, 45
9, 76001, Control_c, 11, 7, 33
9, 76025, Control_c, 11, 7, 32
9, 76032, Note_on_c, 11, 49, 0
9, 76032, Note_on_c, 11, 54, 0
9, 76032, Note_on_c, 11, 51, 43
9, 76032, Note_on_c, 11, 56, 43
9, 76050, Control_c, 11, 7, 31
9, 76074, Control_c, 11, 7, 30
9, 76080, Note_on_c, 11, 51, 0
9, 76080, Note_on_c, 11, 56, 0
9, 76080, Note_on_c, 11, 51, 41
9, 76080, Note_on_c, 11, 56, 41
9, 76098, Control_c, 11, 7, 29
9, 76122, Control_c, 11, 7, 28
9, 76128, Note_on_c, 11, 51, 0
9, 76128, Note_on_c, 11, 56, 0
9, 76128, Note_on_c, 11, 51, 39
9, 76128, Note_on_c, 11, 56, 39
9, 76146, Control_c, 11, 7, 27
9, 76171, Control_c, 11, 7, 26
9, 76176, Note_on_c, 11, 51, 0
9, 76176, Note_on_c, 11, 56, 0
9, 76176, Note_on_c, 11, 51, 37
9, 76176, Note_on_c, 11, 56, 37
9, 76195, Control_c, 11, 7, 25
9, 76219, Control_c, 11, 7, 24
9, 76224, Note_on_c, 11, 51, 0
9, 76224, Note_on_c, 11, 56, 0
9, 76243, Control_c, 11, 7, 23
9, 76267, Control_c, 11, 7, 22
9, 76272, Note_on_c, 11, 51, 33
9, 76272, Note_on_c, 11, 56, 33
9, 76292, Control_c, 11, 7, 21
9, 76316, Control_c, 11, 7, 20
9, 76320, Note_on_c, 11, 51, 0
9, 76320, Note_on_c, 11, 56, 0
9, 76340, Control_c, 11, 7, 19
9, 76364, Control_c, 11, 7, 18
9, 76368, Note_on_c, 11, 51, 29
9, 76368, Note_on_c, 11, 56, 29
9, 76388, Control_c, 11, 7, 17
9, 76412, Control_c, 11, 7, 16
9, 76416, Note_on_c, 11, 51, 0
9, 76416, Note_on_c, 11, 56, 0
9, 76437, Control_c, 11, 7, 15
9, 76461, Control_c, 11, 7, 14
9, 76464, Note_on_c, 11, 51, 25
9, 76464, Note_on_c, 11, 56, 25
9, 76485, Control_c, 11, 7, 13
9, 76509, Control_c, 11, 7, 12
9, 76512, Note_on_c, 11, 51, 0
9, 76512, Note_on_c, 11, 56, 0
9, 76512, Note_on_c, 11, 51, 23
9, 76512, Note_on_c, 11, 56, 23
9, 76533, Control_c, 11, 7, 11
9, 76558, Control_c, 11, 7, 10
9, 76560, Note_on_c, 11, 51, 0
9, 76560, Note_on_c, 11, 56, 0
9, 76560, Note_on_c, 11, 51, 21
9, 76560, Note_on_c, 11, 56, 21
9, 76582, Control_c, 11, 7, 9
9, 76606, Control_c, 11, 7, 8
9, 76608, Note_on_c, 11, 51, 0
9, 76608, Note_on_c, 11, 56, 0
9, 76630, Control_c, 11, 7, 7
9, 76654, Control_c, 11, 7, 6
9, 76656, Note_on_c, 11, 51, 17
9, 76656, Note_on_c, 11, 56, 17
9, 76679, Control_c, 11, 7, 5
9, 76703, Control_c, 11, 7, 4
9, 76704, Note_on_c, 11, 51, 0
9, 76704, Note_on_c, 11, 56, 0
9, 76727, Control_c, 11, 7, 3
9, 76751, Control_c, 11, 7, 2
9, 76752, Note_on_c, 11, 51, 13
9, 76752, Note_on_c, 11, 56, 13
9, 76775, Control_c, 11, 7, 1
9, 76799, Control_c, 11, 7, 0
9, 76800, Note_on_c, 11, 51, 0
9, 76800, Note_on_c, 11, 56, 0
9, 76800, Control_c, 11, 7, 0
9, 76800, End_track
10, 0, Start_track
10, 0, MIDI_port, 0
10, 0, Title_t, "Staff-3"
10, 0, Program_c, 10, 34
10, 0, Control_c, 10, 7, 127
10, 0, Control_c, 10, 10, 64
10, 0, Control_c, 10, 7, 127
10, 0, Note_on_c, 10, 25, 127
10, 48, Note_on_c, 10, 25, 0
10, 48, Note_on_c, 10, 25, 127
10, 96, Note_on_c, 10, 25, 0
10, 96, Note_on_c, 10, 25, 127
10, 144, Note_on_c, 10, 25, 0
10, 144, Note_on_c, 10, 25, 127
10, 192, Note_on_c, 10, 25, 0
10, 240, Note_on_c, 10, 25, 127
10, 288, Note_on_c, 10, 25, 0
10, 336, Note_on_c, 10, 25, 127
10, 384, Note_on_c, 10, 25, 0
10, 432, Note_on_c, 10, 25, 127
10, 480, Note_on_c, 10, 25, 0
10, 480, Note_on_c, 10, 25, 127
10, 528, Note_on_c, 10, 25, 0
10, 528, Note_on_c, 10, 25, 127
10, 576, Note_on_c, 10, 25, 0
10, 624, Note_on_c, 10, 25, 127
10, 672, Note_on_c, 10, 25, 0
10, 720, Note_on_c, 10, 25, 127
10, 768, Note_on_c, 10, 25, 0
10, 768, Note_on_c, 10, 28, 127
10, 816, Note_on_c, 10, 28, 0
10, 816, Note_on_c, 10, 28, 127
10, 864, Note_on_c, 10, 28, 0
10, 864, Note_on_c, 10, 28, 127
10, 912, Note_on_c, 10, 28, 0
10, 912, Note_on_c, 10, 28, 127
10, 960, Note_on_c, 10, 28, 0
10, 1008, Note_on_c, 10, 28, 127
10, 1056, Note_on_c, 10, 28, 0
10, 1104, Note_on_c, 10, 28, 127
10, 1152, Note_on_c, 10, 28, 0
10, 1200, Note_on_c, 10, 28, 127
10, 1248, Note_on_c, 10, 28, 0
10, 1248, Note_on_c, 10, 28, 127
10, 1296, Note_on_c, 10, 28, 0
10, 1296, Note_on_c, 10, 28, 127
10, 1344, Note_on_c, 10, 28, 0
10, 1392, Note_on_c, 10, 28, 127
10, 1440, Note_on_c, 10, 28, 0
10, 1488, Note_on_c, 10, 28, 127
10, 1536, Note_on_c, 10, 28, 0
10, 1536, Note_on_c, 10, 30, 127
10, 1584, Note_on_c, 10, 30, 0
10, 1584, Note_on_c, 10, 30, 127
10, 1632, Note_on_c, 10, 30, 0
10, 1632, Note_on_c, 10, 30, 127
10, 1680, Note_on_c, 10, 30, 0
10, 1680, Note_on_c, 10, 30, 127
10, 1728, Note_on_c, 10, 30, 0
10, 1776, Note_on_c, 10, 30, 127
10, 1824, Note_on_c, 10, 30, 0
10, 1872, Note_on_c, 10, 30, 127
10, 1920, Note_on_c, 10, 30, 0
10, 1968, Note_on_c, 10, 30, 127
10, 2016, Note_on_c, 10, 30, 0
10, 2016, Note_on_c, 10, 30, 127
10, 2064, Note_on_c, 10, 30, 0
10, 2064, Note_on_c, 10, 30, 127
10, 2112, Note_on_c, 10, 30, 0
10, 2160, Note_on_c, 10, 30, 127
10, 2208, Note_on_c, 10, 30, 0
10, 2256, Note_on_c, 10, 30, 127
10, 2304, Note_on_c, 10, 30, 0
10, 2304, Note_on_c, 10, 32, 127
10, 2352, Note_on_c, 10, 32, 0
10, 2352, Note_on_c, 10, 32, 127
10, 2400, Note_on_c, 10, 32, 0
10, 2400, Note_on_c, 10, 32, 127
10, 2448, Note_on_c, 10, 32, 0
10, 2448, Note_on_c, 10, 32, 127
10, 2496, Note_on_c, 10, 32, 0
10, 2544, Note_on_c, 10, 32, 127
10, 2592, Note_on_c, 10, 32, 0
10, 2640, Note_on_c, 10, 32, 127
10, 2688, Note_on_c, 10, 32, 0
10, 2736, Note_on_c, 10, 32, 127
10, 2784, Note_on_c, 10, 32, 0
10, 2784, Note_on_c, 10, 32, 127
10, 2832, Note_on_c, 10, 32, 0
10, 2832, Note_on_c, 10, 32, 127
10, 2880, Note_on_c, 10, 32, 0
10, 2928, Note_on_c, 10, 32, 127
10, 2976, Note_on_c, 10, 32, 0
10, 3024, Note_on_c, 10, 32, 127
10, 3072, Note_on_c, 10, 32, 0
10, 3072, Note_on_c, 10, 25, 127
10, 3120, Note_on_c, 10, 25, 0
10, 3120, Note_on_c, 10, 25, 127
10, 3168, Note_on_c, 10, 25, 0
10, 3168, Note_on_c, 10, 25, 127
10, 3216, Note_on_c, 10, 25, 0
10, 3216, Note_on_c, 10, 25, 127
10, 3264, Note_on_c, 10, 25, 0
10, 3312, Note_on_c, 10, 25, 127
10, 3360, Note_on_c, 10, 25, 0
10, 3408, Note_on_c, 10, 25, 127
10, 3456, Note_on_c, 10, 25, 0
10, 3504, Note_on_c, 10, 25, 127
10, 3552, Note_on_c, 10, 25, 0
10, 3552, Note_on_c, 10, 25, 127
10, 3600, Note_on_c, 10, 25, 0
10, 3600, Note_on_c, 10, 25, 127
10, 3648, Note_on_c, 10, 25, 0
10, 3696, Note_on_c, 10, 25, 127
10, 3744, Note_on_c, 10, 25, 0
10, 3792, Note_on_c, 10, 25, 127
10, 3840, Note_on_c, 10, 25, 0
10, 3840, Note_on_c, 10, 28, 127
10, 3888, Note_on_c, 10, 28, 0
10, 3888, Note_on_c, 10, 28, 127
10, 3936, Note_on_c, 10, 28, 0
10, 3936, Note_on_c, 10, 28, 127
10, 3984, Note_on_c, 10, 28, 0
10, 3984, Note_on_c, 10, 28, 127
10, 4032, Note_on_c, 10, 28, 0
10, 4080, Note_on_c, 10, 28, 127
10, 4128, Note_on_c, 10, 28, 0
10, 4176, Note_on_c, 10, 28, 127
10, 4224, Note_on_c, 10, 28, 0
10, 4272, Note_on_c, 10, 28, 127
10, 4320, Note_on_c, 10, 28, 0
10, 4320, Note_on_c, 10, 28, 127
10, 4368, Note_on_c, 10, 28, 0
10, 4368, Note_on_c, 10, 28, 127
10, 4416, Note_on_c, 10, 28, 0
10, 4464, Note_on_c, 10, 28, 127
10, 4512, Note_on_c, 10, 28, 0
10, 4560, Note_on_c, 10, 28, 127
10, 4608, Note_on_c, 10, 28, 0
10, 4608, Note_on_c, 10, 30, 127
10, 4656, Note_on_c, 10, 30, 0
10, 4656, Note_on_c, 10, 30, 127
10, 4704, Note_on_c, 10, 30, 0
10, 4704, Note_on_c, 10, 30, 127
10, 4752, Note_on_c, 10, 30, 0
10, 4752, Note_on_c, 10, 30, 127
10, 4800, Note_on_c, 10, 30, 0
10, 4848, Note_on_c, 10, 30, 127
10, 4896, Note_on_c, 10, 30, 0
10, 4944, Note_on_c, 10, 30, 127
10, 4992, Note_on_c, 10, 30, 0
10, 5040, Note_on_c, 10, 30, 127
10, 5088, Note_on_c, 10, 30, 0
10, 5088, Note_on_c, 10, 30, 127
10, 5136, Note_on_c, 10, 30, 0
10, 5136, Note_on_c, 10, 30, 127
10, 5184, Note_on_c, 10, 30, 0
10, 5232, Note_on_c, 10, 30, 127
10, 5280, Note_on_c, 10, 30, 0
10, 5328, Note_on_c, 10, 30, 127
10, 5376, Note_on_c, 10, 30, 0
10, 5376, Note_on_c, 10, 32, 127
10, 5424, Note_on_c, 10, 32, 0
10, 5424, Note_on_c, 10, 32, 127
10, 5472, Note_on_c, 10, 32, 0
10, 5472, Note_on_c, 10, 32, 127
10, 5520, Note_on_c, 10, 32, 0
10, 5520, Note_on_c, 10, 32, 127
10, 5568, Note_on_c, 10, 32, 0
10, 5616, Note_on_c, 10, 32, 127
10, 5664, Note_on_c, 10, 32, 0
10, 5712, Note_on_c, 10, 32, 127
10, 5760, Note_on_c, 10, 32, 0
10, 5808, Note_on_c, 10, 32, 127
10, 5856, Note_on_c, 10, 32, 0
10, 5856, Note_on_c, 10, 32, 127
10, 5904, Note_on_c, 10, 32, 0
10, 5904, Note_on_c, 10, 32, 127
10, 5952, Note_on_c, 10, 32, 0
10, 6000, Note_on_c, 10, 32, 127
10, 6048, Note_on_c, 10, 32, 0
10, 6096, Note_on_c, 10, 32, 127
10, 6144, Note_on_c, 10, 32, 0
10, 6144, Note_on_c, 10, 25, 127
10, 6192, Note_on_c, 10, 25, 0
10, 6192, Note_on_c, 10, 25, 127
10, 6240, Note_on_c, 10, 25, 0
10, 6240, Note_on_c, 10, 25, 127
10, 6288, Note_on_c, 10, 25, 0
10, 6288, Note_on_c, 10, 25, 127
10, 6336, Note_on_c, 10, 25, 0
10, 6384, Note_on_c, 10, 25, 127
10, 6432, Note_on_c, 10, 25, 0
10, 6480, Note_on_c, 10, 25, 127
10, 6528, Note_on_c, 10, 25, 0
10, 6576, Note_on_c, 10, 25, 127
10, 6624, Note_on_c, 10, 25, 0
10, 6624, Note_on_c, 10, 25, 127
10, 6672, Note_on_c, 10, 25, 0
10, 6672, Note_on_c, 10, 25, 127
10, 6720, Note_on_c, 10, 25, 0
10, 6768, Note_on_c, 10, 25, 127
10, 6816, Note_on_c, 10, 25, 0
10, 6864, Note_on_c, 10, 25, 127
10, 6912, Note_on_c, 10, 25, 0
10, 6912, Note_on_c, 10, 28, 127
10, 6960, Note_on_c, 10, 28, 0
10, 6960, Note_on_c, 10, 28, 127
10, 7008, Note_on_c, 10, 28, 0
10, 7008, Note_on_c, 10, 28, 127
10, 7056, Note_on_c, 10, 28, 0
10, 7056, Note_on_c, 10, 28, 127
10, 7104, Note_on_c, 10, 28, 0
10, 7152, Note_on_c, 10, 28, 127
10, 7200, Note_on_c, 10, 28, 0
10, 7248, Note_on_c, 10, 28, 127
10, 7296, Note_on_c, 10, 28, 0
10, 7344, Note_on_c, 10, 28, 127
10, 7392, Note_on_c, 10, 28, 0
10, 7392, Note_on_c, 10, 28, 127
10, 7440, Note_on_c, 10, 28, 0
10, 7440, Note_on_c, 10, 28, 127
10, 7488, Note_on_c, 10, 28, 0
10, 7536, Note_on_c, 10, 28, 127
10, 7584, Note_on_c, 10, 28, 0
10, 7632, Note_on_c, 10, 28, 127
10, 7680, Note_on_c, 10, 28, 0
10, 7680, Note_on_c, 10, 30, 127
10, 7728, Note_on_c, 10, 30, 0
10, 7728, Note_on_c, 10, 30, 127
10, 7776, Note_on_c, 10, 30, 0
10, 7776, Note_on_c, 10, 30, 127
10, 7824, Note_on_c, 10, 30, 0
10, 7824, Note_on_c, 10, 30, 127
10, 7872, Note_on_c, 10, 30, 0
10, 7920, Note_on_c, 10, 30, 127
10, 7968, Note_on_c, 10, 30, 0
10, 8016, Note_on_c, 10, 30, 127
10, 8064, Note_on_c, 10, 30, 0
10, 8112, Note_on_c, 10, 30, 127
10, 8160, Note_on_c, 10, 30, 0
10, 8160, Note_on_c, 10, 30, 127
10, 8208, Note_on_c, 10, 30, 0
10, 8208, Note_on_c, 10, 30, 127
10, 8256, Note_on_c, 10, 30, 0
10, 8304, Note_on_c, 10, 30, 127
10, 8352, Note_on_c, 10, 30, 0
10, 8400, Note_on_c, 10, 30, 127
10, 8448, Note_on_c, 10, 30, 0
10, 8448, Note_on_c, 10, 32, 127
10, 8496, Note_on_c, 10, 32, 0
10, 8496, Note_on_c, 10, 32, 127
10, 8544, Note_on_c, 10, 32, 0
10, 8544, Note_on_c, 10, 32, 127
10, 8592, Note_on_c, 10, 32, 0
10, 8592, Note_on_c, 10, 32, 127
10, 8640, Note_on_c, 10, 32, 0
10, 8688, Note_on_c, 10, 32, 127
10, 8736, Note_on_c, 10, 32, 0
10, 8784, Note_on_c, 10, 32, 127
10, 8832, Note_on_c, 10, 32, 0
10, 8880, Note_on_c, 10, 32, 127
10, 8928, Note_on_c, 10, 32, 0
10, 8928, Note_on_c, 10, 32, 127
10, 8976, Note_on_c, 10, 32, 0
10, 8976, Note_on_c, 10, 32, 127
10, 9024, Note_on_c, 10, 32, 0
10, 9072, Note_on_c, 10, 32, 127
10, 9120, Note_on_c, 10, 32, 0
10, 9168, Note_on_c, 10, 32, 127
10, 9216, Note_on_c, 10, 32, 0
10, 9216, Note_on_c, 10, 25, 127
10, 9264, Note_on_c, 10, 25, 0
10, 9264, Note_on_c, 10, 25, 127
10, 9312, Note_on_c, 10, 25, 0
10, 9312, Note_on_c, 10, 25, 127
10, 9360, Note_on_c, 10, 25, 0
10, 9360, Note_on_c, 10, 25, 127
10, 9408, Note_on_c, 10, 25, 0
10, 9456, Note_on_c, 10, 25, 127
10, 9504, Note_on_c, 10, 25, 0
10, 9552, Note_on_c, 10, 25, 127
10, 9600, Note_on_c, 10, 25, 0
10, 9648, Note_on_c, 10, 25, 127
10, 9696, Note_on_c, 10, 25, 0
10, 9696, Note_on_c, 10, 25, 127
10, 9744, Note_on_c, 10, 25, 0
10, 9744, Note_on_c, 10, 25, 127
10, 9792, Note_on_c, 10, 25, 0
10, 9840, Note_on_c, 10, 25, 127
10, 9888, Note_on_c, 10, 25, 0
10, 9936, Note_on_c, 10, 25, 127
10, 9984, Note_on_c, 10, 25, 0
10, 9984, Note_on_c, 10, 28, 127
10, 10032, Note_on_c, 10, 28, 0
10, 10032, Note_on_c, 10, 28, 127
10, 10080, Note_on_c, 10, 28, 0
10, 10080, Note_on_c, 10, 28, 127
10, 10128, Note_on_c, 10, 28, 0
10, 10128, Note_on_c, 10, 28, 127
10, 10176, Note_on_c, 10, 28, 0
10, 10224, Note_on_c, 10, 28, 127
10, 10272, Note_on_c, 10, 28, 0
10, 10320, Note_on_c, 10, 28, 127
10, 10368, Note_on_c, 10, 28, 0
10, 10416, Note_on_c, 10, 28, 127
10, 10464, Note_on_c, 10, 28, 0
10, 10464, Note_on_c, 10, 28, 127
10, 10512, Note_on_c, 10, 28, 0
10, 10512, Note_on_c, 10, 28, 127
10, 10560, Note_on_c, 10, 28, 0
10, 10608, Note_on_c, 10, 28, 127
10, 10656, Note_on_c, 10, 28, 0
10, 10704, Note_on_c, 10, 28, 127
10, 10752, Note_on_c, 10, 28, 0
10, 10752, Note_on_c, 10, 30, 127
10, 10800, Note_on_c, 10, 30, 0
10, 10800, Note_on_c, 10, 30, 127
10, 10848, Note_on_c, 10, 30, 0
10, 10848, Note_on_c, 10, 30, 127
10, 10896, Note_on_c, 10, 30, 0
10, 10896, Note_on_c, 10, 30, 127
10, 10944, Note_on_c, 10, 30, 0
10, 10992, Note_on_c, 10, 30, 127
10, 11040, Note_on_c, 10, 30, 0
10, 11088, Note_on_c, 10, 30, 127
10, 11136, Note_on_c, 10, 30, 0
10, 11184, Note_on_c, 10, 30, 127
10, 11232, Note_on_c, 10, 30, 0
10, 11232, Note_on_c, 10, 30, 127
10, 11280, Note_on_c, 10, 30, 0
10, 11280, Note_on_c, 10, 30, 127
10, 11328, Note_on_c, 10, 30, 0
10, 11376, Note_on_c, 10, 30, 127
10, 11424, Note_on_c, 10, 30, 0
10, 11472, Note_on_c, 10, 30, 127
10, 11520, Note_on_c, 10, 30, 0
10, 11520, Note_on_c, 10, 32, 127
10, 11568, Note_on_c, 10, 32, 0
10, 11568, Note_on_c, 10, 32, 127
10, 11616, Note_on_c, 10, 32, 0
10, 11616, Note_on_c, 10, 32, 127
10, 11664, Note_on_c, 10, 32, 0
10, 11664, Note_on_c, 10, 32, 127
10, 11712, Note_on_c, 10, 32, 0
10, 11760, Note_on_c, 10, 32, 127
10, 11808, Note_on_c, 10, 32, 0
10, 11856, Note_on_c, 10, 32, 127
10, 11904, Note_on_c, 10, 32, 0
10, 11952, Note_on_c, 10, 32, 127
10, 12000, Note_on_c, 10, 32, 0
10, 12000, Note_on_c, 10, 32, 127
10, 12048, Note_on_c, 10, 32, 0
10, 12048, Note_on_c, 10, 32, 127
10, 12096, Note_on_c, 10, 32, 0
10, 12144, Note_on_c, 10, 32, 127
10, 12192, Note_on_c, 10, 32, 0
10, 12240, Note_on_c, 10, 32, 127
10, 12288, Note_on_c, 10, 32, 0
10, 12288, Note_on_c, 10, 25, 127
10, 12336, Note_on_c, 10, 25, 0
10, 12336, Note_on_c, 10, 25, 127
10, 12384, Note_on_c, 10, 25, 0
10, 12384, Note_on_c, 10, 25, 127
10, 12432, Note_on_c, 10, 25, 0
10, 12432, Note_on_c, 10, 25, 127
10, 12480, Note_on_c, 10, 25, 0
10, 12528, Note_on_c, 10, 25, 127
10, 12576, Note_on_c, 10, 25, 0
10, 12624, Note_on_c, 10, 25, 127
10, 12672, Note_on_c, 10, 25, 0
10, 12720, Note_on_c, 10, 25, 127
10, 12768, Note_on_c, 10, 25, 0
10, 12768, Note_on_c, 10, 25, 127
10, 12816, Note_on_c, 10, 25, 0
10, 12816, Note_on_c, 10, 25, 127
10, 12864, Note_on_c, 10, 25, 0
10, 12912, Note_on_c, 10, 25, 127
10, 12960, Note_on_c, 10, 25, 0
10, 13008, Note_on_c, 10, 25, 127
10, 13056, Note_on_c, 10, 25, 0
10, 13056, Note_on_c, 10, 28, 127
10, 13104, Note_on_c, 10, 28, 0
10, 13104, Note_on_c, 10, 28, 127
10, 13152, Note_on_c, 10, 28, 0
10, 13152, Note_on_c, 10, 28, 127
10, 13200, Note_on_c, 10, 28, 0
10, 13200, Note_on_c, 10, 28, 127
10, 13248, Note_on_c, 10, 28, 0
10, 13296, Note_on_c, 10, 28, 127
10, 13344, Note_on_c, 10, 28, 0
10, 13392, Note_on_c, 10, 28, 127
10, 13440, Note_on_c, 10, 28, 0
10, 13488, Note_on_c, 10, 28, 127
10, 13536, Note_on_c, 10, 28, 0
10, 13536, Note_on_c, 10, 28, 127
10, 13584, Note_on_c, 10, 28, 0
10, 13584, Note_on_c, 10, 28, 127
10, 13632, Note_on_c, 10, 28, 0
10, 13680, Note_on_c, 10, 28, 127
10, 13728, Note_on_c, 10, 28, 0
10, 13776, Note_on_c, 10, 28, 127
10, 13824, Note_on_c, 10, 28, 0
10, 13824, Note_on_c, 10, 30, 127
10, 13872, Note_on_c, 10, 30, 0
10, 13872, Note_on_c, 10, 30, 127
10, 13920, Note_on_c, 10, 30, 0
10, 13920, Note_on_c, 10, 30, 127
10, 13968, Note_on_c, 10, 30, 0
10, 13968, Note_on_c, 10, 30, 127
10, 14016, Note_on_c, 10, 30, 0
10, 14064, Note_on_c, 10, 30, 127
10, 14112, Note_on_c, 10, 30, 0
10, 14160, Note_on_c, 10, 30, 127
10, 14208, Note_on_c, 10, 30, 0
10, 14256, Note_on_c, 10, 30, 127
10, 14304, Note_on_c, 10, 30, 0
10, 14304, Note_on_c, 10, 30, 127
10, 14352, Note_on_c, 10, 30, 0
10, 14352, Note_on_c, 10, 30, 127
10, 14400, Note_on_c, 10, 30, 0
10, 14448, Note_on_c, 10, 30, 127
10, 14496, Note_on_c, 10, 30, 0
10, 14544, Note_on_c, 10, 30, 127
10, 14592, Note_on_c, 10, 30, 0
10, 14592, Note_on_c, 10, 32, 127
10, 14640, Note_on_c, 10, 32, 0
10, 14640, Note_on_c, 10, 32, 127
10, 14688, Note_on_c, 10, 32, 0
10, 14688, Note_on_c, 10, 32, 127
10, 14736, Note_on_c, 10, 32, 0
10, 14736, Note_on_c, 10, 32, 127
10, 14784, Note_on_c, 10, 32, 0
10, 14832, Note_on_c, 10, 32, 127
10, 14880, Note_on_c, 10, 32, 0
10, 14928, Note_on_c, 10, 32, 127
10, 14976, Note_on_c, 10, 32, 0
10, 15024, Note_on_c, 10, 32, 127
10, 15072, Note_on_c, 10, 32, 0
10, 15072, Note_on_c, 10, 32, 127
10, 15120, Note_on_c, 10, 32, 0
10, 15120, Note_on_c, 10, 32, 127
10, 15168, Note_on_c, 10, 32, 0
10, 15216, Note_on_c, 10, 32, 127
10, 15264, Note_on_c, 10, 32, 0
10, 15312, Note_on_c, 10, 32, 127
10, 15360, Note_on_c, 10, 32, 0
10, 15360, Note_on_c, 10, 25, 127
10, 15408, Note_on_c, 10, 25, 0
10, 15408, Note_on_c, 10, 25, 127
10, 15456, Note_on_c, 10, 25, 0
10, 15456, Note_on_c, 10, 25, 127
10, 15504, Note_on_c, 10, 25, 0
10, 15504, Note_on_c, 10, 25, 127
10, 15552, Note_on_c, 10, 25, 0
10, 15600, Note_on_c, 10, 25, 127
10, 15648, Note_on_c, 10, 25, 0
10, 15696, Note_on_c, 10, 25, 127
10, 15744, Note_on_c, 10, 25, 0
10, 15792, Note_on_c, 10, 25, 127
10, 15840, Note_on_c, 10, 25, 0
10, 15840, Note_on_c, 10, 25, 127
10, 15888, Note_on_c, 10, 25, 0
10, 15888, Note_on_c, 10, 25, 127
10, 15936, Note_on_c, 10, 25, 0
10, 15984, Note_on_c, 10, 25, 127
10, 16032, Note_on_c, 10, 25, 0
10, 16080, Note_on_c, 10, 25, 127
10, 16128, Note_on_c, 10, 25, 0
10, 16128, Note_on_c, 10, 28, 127
10, 16176, Note_on_c, 10, 28, 0
10, 16176, Note_on_c, 10, 28, 127
10, 16224, Note_on_c, 10, 28, 0
10, 16224, Note_on_c, 10, 28, 127
10, 16272, Note_on_c, 10, 28, 0
10, 16272, Note_on_c, 10, 28, 127
10, 16320, Note_on_c, 10, 28, 0
10, 16368, Note_on_c, 10, 28, 127
10, 16416, Note_on_c, 10, 28, 0
10, 16464, Note_on_c, 10, 28, 127
10, 16512, Note_on_c, 10, 28, 0
10, 16560, Note_on_c, 10, 28, 127
10, 16608, Note_on_c, 10, 28, 0
10, 16608, Note_on_c, 10, 28, 127
10, 16656, Note_on_c, 10, 28, 0
10, 16656, Note_on_c, 10, 28, 127
10, 16704, Note_on_c, 10, 28, 0
10, 16752, Note_on_c, 10, 28, 127
10, 16800, Note_on_c, 10, 28, 0
10, 16848, Note_on_c, 10, 28, 127
10, 16896, Note_on_c, 10, 28, 0
10, 16896, Note_on_c, 10, 30, 127
10, 16944, Note_on_c, 10, 30, 0
10, 16944, Note_on_c, 10, 30, 127
10, 16992, Note_on_c, 10, 30, 0
10, 16992, Note_on_c, 10, 30, 127
10, 17040, Note_on_c, 10, 30, 0
10, 17040, Note_on_c, 10, 30, 127
10, 17088, Note_on_c, 10, 30, 0
10, 17136, Note_on_c, 10, 30, 127
10, 17184, Note_on_c, 10, 30, 0
10, 17232, Note_on_c, 10, 30, 127
10, 17280, Note_on_c, 10, 30, 0
10, 17328, Note_on_c, 10, 30, 127
10, 17376, Note_on_c, 10, 30, 0
10, 17376, Note_on_c, 10, 30, 127
10, 17424, Note_on_c, 10, 30, 0
10, 17424, Note_on_c, 10, 30, 127
10, 17472, Note_on_c, 10, 30, 0
10, 17520, Note_on_c, 10, 30, 127
10, 17568, Note_on_c, 10, 30, 0
10, 17616, Note_on_c, 10, 30, 127
10, 17664, Note_on_c, 10, 30, 0
10, 17664, Note_on_c, 10, 32, 127
10, 17712, Note_on_c, 10, 32, 0
10, 17712, Note_on_c, 10, 32, 127
10, 17760, Note_on_c, 10, 32, 0
10, 17760, Note_on_c, 10, 32, 127
10, 17808, Note_on_c, 10, 32, 0
10, 17808, Note_on_c, 10, 32, 127
10, 17856, Note_on_c, 10, 32, 0
10, 17904, Note_on_c, 10, 32, 127
10, 17952, Note_on_c, 10, 32, 0
10, 18000, Note_on_c, 10, 32, 127
10, 18048, Note_on_c, 10, 32, 0
10, 18096, Note_on_c, 10, 32, 127
10, 18144, Note_on_c, 10, 32, 0
10, 18144, Note_on_c, 10, 32, 127
10, 18192, Note_on_c, 10, 32, 0
10, 18192, Note_on_c, 10, 32, 127
10, 18240, Note_on_c, 10, 32, 0
10, 18288, Note_on_c, 10, 32, 127
10, 18336, Note_on_c, 10, 32, 0
10, 18384, Note_on_c, 10, 32, 127
10, 18432, Note_on_c, 10, 32, 0
10, 18432, Note_on_c, 10, 25, 127
10, 18480, Note_on_c, 10, 25, 0
10, 18480, Note_on_c, 10, 25, 127
10, 18528, Note_on_c, 10, 25, 0
10, 18528, Note_on_c, 10, 25, 127
10, 18576, Note_on_c, 10, 25, 0
10, 18576, Note_on_c, 10, 25, 127
10, 18624, Note_on_c, 10, 25, 0
10, 18672, Note_on_c, 10, 25, 127
10, 18720, Note_on_c, 10, 25, 0
10, 18768, Note_on_c, 10, 25, 127
10, 18816, Note_on_c, 10, 25, 0
10, 18864, Note_on_c, 10, 25, 127
10, 18912, Note_on_c, 10, 25, 0
10, 18912, Note_on_c, 10, 25, 127
10, 18960, Note_on_c, 10, 25, 0
10, 18960, Note_on_c, 10, 25, 127
10, 19008, Note_on_c, 10, 25, 0
10, 19056, Note_on_c, 10, 25, 127
10, 19104, Note_on_c, 10, 25, 0
10, 19152, Note_on_c, 10, 25, 127
10, 19200, Note_on_c, 10, 25, 0
10, 19200, Note_on_c, 10, 28, 127
10, 19248, Note_on_c, 10, 28, 0
10, 19248, Note_on_c, 10, 28, 127
10, 19296, Note_on_c, 10, 28, 0
10, 19296, Note_on_c, 10, 28, 127
10, 19344, Note_on_c, 10, 28, 0
10, 19344, Note_on_c, 10, 28, 127
10, 19392, Note_on_c, 10, 28, 0
10, 19440, Note_on_c, 10, 28, 127
10, 19488, Note_on_c, 10, 28, 0
10, 19536, Note_on_c, 10, 28, 127
10, 19584, Note_on_c, 10, 28, 0
10, 19632, Note_on_c, 10, 28, 127
10, 19680, Note_on_c, 10, 28, 0
10, 19680, Note_on_c, 10, 28, 127
10, 19728, Note_on_c, 10, 28, 0
10, 19728, Note_on_c, 10, 28, 127
10, 19776, Note_on_c, 10, 28, 0
10, 19824, Note_on_c, 10, 28, 127
10, 19872, Note_on_c, 10, 28, 0
10, 19920, Note_on_c, 10, 28, 127
10, 19968, Note_on_c, 10, 28, 0
10, 19968, Note_on_c, 10, 30, 127
10, 20016, Note_on_c, 10, 30, 0
10, 20016, Note_on_c, 10, 30, 127
10, 20064, Note_on_c, 10, 30, 0
10, 20064, Note_on_c, 10, 30, 127
10, 20112, Note_on_c, 10, 30, 0
10, 20112, Note_on_c, 10, 30, 127
10, 20160, Note_on_c, 10, 30, 0
10, 20208, Note_on_c, 10, 30, 127
10, 20256, Note_on_c, 10, 30, 0
10, 20304, Note_on_c, 10, 30, 127
10, 20352, Note_on_c, 10, 30, 0
10, 20400, Note_on_c, 10, 30, 127
10, 20448, Note_on_c, 10, 30, 0
10, 20448, Note_on_c, 10, 30, 127
10, 20496, Note_on_c, 10, 30, 0
10, 20496, Note_on_c, 10, 30, 127
10, 20544, Note_on_c, 10, 30, 0
10, 20592, Note_on_c, 10, 30, 127
10, 20640, Note_on_c, 10, 30, 0
10, 20688, Note_on_c, 10, 30, 127
10, 20736, Note_on_c, 10, 30, 0
10, 20736, Note_on_c, 10, 32, 127
10, 20784, Note_on_c, 10, 32, 0
10, 20784, Note_on_c, 10, 32, 127
10, 20832, Note_on_c, 10, 32, 0
10, 20832, Note_on_c, 10, 32, 127
10, 20880, Note_on_c, 10, 32, 0
10, 20880, Note_on_c, 10, 32, 127
10, 20928, Note_on_c, 10, 32, 0
10, 20976, Note_on_c, 10, 32, 127
10, 21024, Note_on_c, 10, 32, 0
10, 21072, Note_on_c, 10, 32, 127
10, 21120, Note_on_c, 10, 32, 0
10, 21168, Note_on_c, 10, 32, 127
10, 21216, Note_on_c, 10, 32, 0
10, 21216, Note_on_c, 10, 32, 127
10, 21264, Note_on_c, 10, 32, 0
10, 21264, Note_on_c, 10, 32, 127
10, 21312, Note_on_c, 10, 32, 0
10, 21360, Note_on_c, 10, 32, 127
10, 21408, Note_on_c, 10, 32, 0
10, 21456, Note_on_c, 10, 32, 127
10, 21504, Note_on_c, 10, 32, 0
10, 21504, Note_on_c, 10, 25, 127
10, 21552, Note_on_c, 10, 25, 0
10, 21552, Note_on_c, 10, 25, 127
10, 21600, Note_on_c, 10, 25, 0
10, 21600, Note_on_c, 10, 25, 127
10, 21648, Note_on_c, 10, 25, 0
10, 21648, Note_on_c, 10, 25, 127
10, 21696, Note_on_c, 10, 25, 0
10, 21744, Note_on_c, 10, 25, 127
10, 21792, Note_on_c, 10, 25, 0
10, 21840, Note_on_c, 10, 25, 127
10, 21888, Note_on_c, 10, 25, 0
10, 21936, Note_on_c, 10, 25, 127
10, 21984, Note_on_c, 10, 25, 0
10, 21984, Note_on_c, 10, 25, 127
10, 22032, Note_on_c, 10, 25, 0
10, 22032, Note_on_c, 10, 25, 127
10, 22080, Note_on_c, 10, 25, 0
10, 22128, Note_on_c, 10, 25, 127
10, 22176, Note_on_c, 10, 25, 0
10, 22224, Note_on_c, 10, 25, 127
10, 22272, Note_on_c, 10, 25, 0
10, 22272, Note_on_c, 10, 28, 127
10, 22320, Note_on_c, 10, 28, 0
10, 22320, Note_on_c, 10, 28, 127
10, 22368, Note_on_c, 10, 28, 0
10, 22368, Note_on_c, 10, 28, 127
10, 22416, Note_on_c, 10, 28, 0
10, 22416, Note_on_c, 10, 28, 127
10, 22464, Note_on_c, 10, 28, 0
10, 22512, Note_on_c, 10, 28, 127
10, 22560, Note_on_c, 10, 28, 0
10, 22608, Note_on_c, 10, 28, 127
10, 22656, Note_on_c, 10, 28, 0
10, 22704, Note_on_c, 10, 28, 127
10, 22752, Note_on_c, 10, 28, 0
10, 22752, Note_on_c, 10, 28, 127
10, 22800, Note_on_c, 10, 28, 0
10, 22800, Note_on_c, 10, 28, 127
10, 22848, Note_on_c, 10, 28, 0
10, 22896, Note_on_c, 10, 28, 127
10, 22944, Note_on_c, 10, 28, 0
10, 22992, Note_on_c, 10, 28, 127
10, 23040, Note_on_c, 10, 28, 0
10, 23040, Note_on_c, 10, 30, 127
10, 23088, Note_on_c, 10, 30, 0
10, 23088, Note_on_c, 10, 30, 127
10, 23136, Note_on_c, 10, 30, 0
10, 23136, Note_on_c, 10, 30, 127
10, 23184, Note_on_c, 10, 30, 0
10, 23184, Note_on_c, 10, 30, 127
10, 23232, Note_on_c, 10, 30, 0
10, 23280, Note_on_c, 10, 30, 127
10, 23328, Note_on_c, 10, 30, 0
10, 23376, Note_on_c, 10, 30, 127
10, 23424, Note_on_c, 10, 30, 0
10, 23472, Note_on_c, 10, 30, 127
10, 23520, Note_on_c, 10, 30, 0
10, 23520, Note_on_c, 10, 30, 127
10, 23568, Note_on_c, 10, 30, 0
10, 23568, Note_on_c, 10, 30, 127
10, 23616, Note_on_c, 10, 30, 0
10, 23664, Note_on_c, 10, 30, 127
10, 23712, Note_on_c, 10, 30, 0
10, 23760, Note_on_c, 10, 30, 127
10, 23808, Note_on_c, 10, 30, 0
10, 23808, Note_on_c, 10, 32, 127
10, 23856, Note_on_c, 10, 32, 0
10, 23856, Note_on_c, 10, 32, 127
10, 23904, Note_on_c, 10, 32, 0
10, 23904, Note_on_c, 10, 32, 127
10, 23952, Note_on_c, 10, 32, 0
10, 23952, Note_on_c, 10, 32, 127
10, 24000, Note_on_c, 10, 32, 0
10, 24048, Note_on_c, 10, 32, 127
10, 24096, Note_on_c, 10, 32, 0
10, 24144, Note_on_c, 10, 32, 127
10, 24192, Note_on_c, 10, 32, 0
10, 24240, Note_on_c, 10, 32, 127
10, 24288, Note_on_c, 10, 32, 0
10, 24288, Note_on_c, 10, 32, 127
10, 24336, Note_on_c, 10, 32, 0
10, 24336, Note_on_c, 10, 32, 127
10, 24384, Note_on_c, 10, 32, 0
10, 24432, Note_on_c, 10, 32, 127
10, 24480, Note_on_c, 10, 32, 0
10, 24528, Note_on_c, 10, 32, 127
10, 24576, Note_on_c, 10, 32, 0
10, 24576, Note_on_c, 10, 25, 127
10, 24624, Note_on_c, 10, 25, 0
10, 24624, Note_on_c, 10, 25, 127
10, 24672, Note_on_c, 10, 25, 0
10, 24672, Note_on_c, 10, 25, 127
10, 24720, Note_on_c, 10, 25, 0
10, 24720, Note_on_c, 10, 25, 127
10, 24768, Note_on_c, 10, 25, 0
10, 24816, Note_on_c, 10, 25, 127
10, 24864, Note_on_c, 10, 25, 0
10, 24912, Note_on_c, 10, 25, 127
10, 24960, Note_on_c, 10, 25, 0
10, 25008, Note_on_c, 10, 25, 127
10, 25056, Note_on_c, 10, 25, 0
10, 25056, Note_on_c, 10, 25, 127
10, 25104, Note_on_c, 10, 25, 0
10, 25104, Note_on_c, 10, 25, 127
10, 25152, Note_on_c, 10, 25, 0
10, 25200, Note_on_c, 10, 25, 127
10, 25248, Note_on_c, 10, 25, 0
10, 25296, Note_on_c, 10, 25, 127
10, 25344, Note_on_c, 10, 25, 0
10, 25344, Note_on_c, 10, 28, 127
10, 25392, Note_on_c, 10, 28, 0
10, 25392, Note_on_c, 10, 28, 127
10, 25440, Note_on_c, 10, 28, 0
10, 25440, Note_on_c, 10, 28, 127
10, 25488, Note_on_c, 10, 28, 0
10, 25488, Note_on_c, 10, 28, 127
10, 25536, Note_on_c, 10, 28, 0
10, 25584, Note_on_c, 10, 28, 127
10, 25632, Note_on_c, 10, 28, 0
10, 25680, Note_on_c, 10, 28, 127
10, 25728, Note_on_c, 10, 28, 0
10, 25776, Note_on_c, 10, 28, 127
10, 25824, Note_on_c, 10, 28, 0
10, 25824, Note_on_c, 10, 28, 127
10, 25872, Note_on_c, 10, 28, 0
10, 25872, Note_on_c, 10, 28, 127
10, 25920, Note_on_c, 10, 28, 0
10, 25968, Note_on_c, 10, 28, 127
10, 26016, Note_on_c, 10, 28, 0
10, 26064, Note_on_c, 10, 28, 127
10, 26112, Note_on_c, 10, 28, 0
10, 26112, Note_on_c, 10, 30, 127
10, 26160, Note_on_c, 10, 30, 0
10, 26160, Note_on_c, 10, 30, 127
10, 26208, Note_on_c, 10, 30, 0
10, 26208, Note_on_c, 10, 30, 127
10, 26256, Note_on_c, 10, 30, 0
10, 26256, Note_on_c, 10, 30, 127
10, 26304, Note_on_c, 10, 30, 0
10, 26352, Note_on_c, 10, 30, 127
10, 26400, Note_on_c, 10, 30, 0
10, 26448, Note_on_c, 10, 30, 127
10, 26496, Note_on_c, 10, 30, 0
10, 26544, Note_on_c, 10, 30, 127
10, 26592, Note_on_c, 10, 30, 0
10, 26592, Note_on_c, 10, 30, 127
10, 26640, Note_on_c, 10, 30, 0
10, 26640, Note_on_c, 10, 30, 127
10, 26688, Note_on_c, 10, 30, 0
10, 26736, Note_on_c, 10, 30, 127
10, 26784, Note_on_c, 10, 30, 0
10, 26832, Note_on_c, 10, 30, 127
10, 26880, Note_on_c, 10, 30, 0
10, 26880, Note_on_c, 10, 32, 127
10, 26928, Note_on_c, 10, 32, 0
10, 26928, Note_on_c, 10, 32, 127
10, 26976, Note_on_c, 10, 32, 0
10, 26976, Note_on_c, 10, 32, 127
10, 27024, Note_on_c, 10, 32, 0
10, 27024, Note_on_c, 10, 32, 127
10, 27072, Note_on_c, 10, 32, 0
10, 27120, Note_on_c, 10, 32, 127
10, 27168, Note_on_c, 10, 32, 0
10, 27216, Note_on_c, 10, 32, 127
10, 27264, Note_on_c, 10, 32, 0
10, 27312, Note_on_c, 10, 32, 127
10, 27360, Note_on_c, 10, 32, 0
10, 27360, Note_on_c, 10, 32, 127
10, 27408, Note_on_c, 10, 32, 0
10, 27408, Note_on_c, 10, 32, 127
10, 27456, Note_on_c, 10, 32, 0
10, 27504, Note_on_c, 10, 32, 127
10, 27552, Note_on_c, 10, 32, 0
10, 27600, Note_on_c, 10, 32, 127
10, 27648, Note_on_c, 10, 32, 0
10, 27648, Note_on_c, 10, 25, 127
10, 27696, Note_on_c, 10, 25, 0
10, 27696, Note_on_c, 10, 25, 127
10, 27744, Note_on_c, 10, 25, 0
10, 27744, Note_on_c, 10, 25, 127
10, 27792, Note_on_c, 10, 25, 0
10, 27792, Note_on_c, 10, 25, 127
10, 27840, Note_on_c, 10, 25, 0
10, 27888, Note_on_c, 10, 25, 127
10, 27936, Note_on_c, 10, 25, 0
10, 27984, Note_on_c, 10, 25, 127
10, 28032, Note_on_c, 10, 25, 0
10, 28080, Note_on_c, 10, 25, 127
10, 28128, Note_on_c, 10, 25, 0
10, 28128, Note_on_c, 10, 25, 127
10, 28176, Note_on_c, 10, 25, 0
10, 28176, Note_on_c, 10, 25, 127
10, 28224, Note_on_c, 10, 25, 0
10, 28272, Note_on_c, 10, 25, 127
10, 28320, Note_on_c, 10, 25, 0
10, 28368, Note_on_c, 10, 25, 127
10, 28416, Note_on_c, 10, 25, 0
10, 28416, Note_on_c, 10, 28, 127
10, 28464, Note_on_c, 10, 28, 0
10, 28464, Note_on_c, 10, 28, 127
10, 28512, Note_on_c, 10, 28, 0
10, 28512, Note_on_c, 10, 28, 127
10, 28560, Note_on_c, 10, 28, 0
10, 28560, Note_on_c, 10, 28, 127
10, 28608, Note_on_c, 10, 28, 0
10, 28656, Note_on_c, 10, 28, 127
10, 28704, Note_on_c, 10, 28, 0
10, 28752, Note_on_c, 10, 28, 127
10, 28800, Note_on_c, 10, 28, 0
10, 28848, Note_on_c, 10, 28, 127
10, 28896, Note_on_c, 10, 28, 0
10, 28896, Note_on_c, 10, 28, 127
10, 28944, Note_on_c, 10, 28, 0
10, 28944, Note_on_c, 10, 28, 127
10, 28992, Note_on_c, 10, 28, 0
10, 29040, Note_on_c, 10, 28, 127
10, 29088, Note_on_c, 10, 28, 0
10, 29136, Note_on_c, 10, 28, 127
10, 29184, Note_on_c, 10, 28, 0
10, 29184, Note_on_c, 10, 30, 127
10, 29232, Note_on_c, 10, 30, 0
10, 29232, Note_on_c, 10, 30, 127
10, 29280, Note_on_c, 10, 30, 0
10, 29280, Note_on_c, 10, 30, 127
10, 29328, Note_on_c, 10, 30, 0
10, 29328, Note_on_c, 10, 30, 127
10, 29376, Note_on_c, 10, 30, 0
10, 29424, Note_on_c, 10, 30, 127
10, 29472, Note_on_c, 10, 30, 0
10, 29520, Note_on_c, 10, 30, 127
10, 29568, Note_on_c, 10, 30, 0
10, 29616, Note_on_c, 10, 30, 127
10, 29664, Note_on_c, 10, 30, 0
10, 29664, Note_on_c, 10, 30, 127
10, 29712, Note_on_c, 10, 30, 0
10, 29712, Note_on_c, 10, 30, 127
10, 29760, Note_on_c, 10, 30, 0
10, 29808, Note_on_c, 10, 30, 127
10, 29856, Note_on_c, 10, 30, 0
10, 29904, Note_on_c, 10, 30, 127
10, 29952, Note_on_c, 10, 30, 0
10, 29952, Note_on_c, 10, 32, 127
10, 30000, Note_on_c, 10, 32, 0
10, 30000, Note_on_c, 10, 32, 127
10, 30048, Note_on_c, 10, 32, 0
10, 30048, Note_on_c, 10, 32, 127
10, 30096, Note_on_c, 10, 32, 0
10, 30096, Note_on_c, 10, 32, 127
10, 30144, Note_on_c, 10, 32, 0
10, 30192, Note_on_c, 10, 32, 127
10, 30240, Note_on_c, 10, 32, 0
10, 30288, Note_on_c, 10, 32, 127
10, 30336, Note_on_c, 10, 32, 0
10, 30384, Note_on_c, 10, 32, 127
10, 30432, Note_on_c, 10, 32, 0
10, 30432, Note_on_c, 10, 32, 127
10, 30480, Note_on_c, 10, 32, 0
10, 30480, Note_on_c, 10, 32, 127
10, 30528, Note_on_c, 10, 32, 0
10, 30576, Note_on_c, 10, 32, 127
10, 30624, Note_on_c, 10, 32, 0
10, 30672, Note_on_c, 10, 32, 127
10, 30720, Note_on_c, 10, 32, 0
10, 30720, Note_on_c, 10, 25, 127
10, 30768, Note_on_c, 10, 25, 0
10, 30768, Note_on_c, 10, 25, 127
10, 30816, Note_on_c, 10, 25, 0
10, 30816, Note_on_c, 10, 25, 127
10, 30864, Note_on_c, 10, 25, 0
10, 30864, Note_on_c, 10, 25, 127
10, 30912, Note_on_c, 10, 25, 0
10, 30960, Note_on_c, 10, 25, 127
10, 31008, Note_on_c, 10, 25, 0
10, 31056, Note_on_c, 10, 25, 127
10, 31104, Note_on_c, 10, 25, 0
10, 31152, Note_on_c, 10, 25, 127
10, 31200, Note_on_c, 10, 25, 0
10, 31200, Note_on_c, 10, 25, 127
10, 31248, Note_on_c, 10, 25, 0
10, 31248, Note_on_c, 10, 25, 127
10, 31296, Note_on_c, 10, 25, 0
10, 31344, Note_on_c, 10, 25, 127
10, 31392, Note_on_c, 10, 25, 0
10, 31440, Note_on_c, 10, 25, 127
10, 31488, Note_on_c, 10, 25, 0
10, 31488, Note_on_c, 10, 28, 127
10, 31536, Note_on_c, 10, 28, 0
10, 31536, Note_on_c, 10, 28, 127
10, 31584, Note_on_c, 10, 28, 0
10, 31584, Note_on_c, 10, 28, 127
10, 31632, Note_on_c, 10, 28, 0
10, 31632, Note_on_c, 10, 28, 127
10, 31680, Note_on_c, 10, 28, 0
10, 31728, Note_on_c, 10, 28, 127
10, 31776, Note_on_c, 10, 28, 0
10, 31824, Note_on_c, 10, 28, 127
10, 31872, Note_on_c, 10, 28, 0
10, 31920, Note_on_c, 10, 28, 127
10, 31968, Note_on_c, 10, 28, 0
10, 31968, Note_on_c, 10, 28, 127
10, 32016, Note_on_c, 10, 28, 0
10, 32016, Note_on_c, 10, 28, 127
10, 32064, Note_on_c, 10, 28, 0
10, 32112, Note_on_c, 10, 28, 127
10, 32160, Note_on_c, 10, 28, 0
10, 32208, Note_on_c, 10, 28, 127
10, 32256, Note_on_c, 10, 28, 0
10, 32256, Note_on_c, 10, 30, 127
10, 32304, Note_on_c, 10, 30, 0
10, 32304, Note_on_c, 10, 30, 127
10, 32352, Note_on_c, 10, 30, 0
10, 32352, Note_on_c, 10, 30, 127
10, 32400, Note_on_c, 10, 30, 0
10, 32400, Note_on_c, 10, 30, 127
10, 32448, Note_on_c, 10, 30, 0
10, 32496, Note_on_c, 10, 30, 127
10, 32544, Note_on_c, 10, 30, 0
10, 32592, Note_on_c, 10, 30, 127
10, 32640, Note_on_c, 10, 30, 0
10, 32688, Note_on_c, 10, 30, 127
10, 32736, Note_on_c, 10, 30, 0
10, 32736, Note_on_c, 10, 30, 127
10, 32784, Note_on_c, 10, 30, 0
10, 32784, Note_on_c, 10, 30, 127
10, 32832, Note_on_c, 10, 30, 0
10, 32880, Note_on_c, 10, 30, 127
10, 32928, Note_on_c, 10, 30, 0
10, 32976, Note_on_c, 10, 30, 127
10, 33024, Note_on_c, 10, 30, 0
10, 33024, Note_on_c, 10, 32, 127
10, 33072, Note_on_c, 10, 32, 0
10, 33072, Note_on_c, 10, 32, 127
10, 33120, Note_on_c, 10, 32, 0
10, 33120, Note_on_c, 10, 32, 127
10, 33168, Note_on_c, 10, 32, 0
10, 33168, Note_on_c, 10, 32, 127
10, 33216, Note_on_c, 10, 32, 0
10, 33264, Note_on_c, 10, 32, 127
10, 33312, Note_on_c, 10, 32, 0
10, 33360, Note_on_c, 10, 32, 127
10, 33408, Note_on_c, 10, 32, 0
10, 33456, Note_on_c, 10, 32, 127
10, 33504, Note_on_c, 10, 32, 0
10, 33504, Note_on_c, 10, 32, 127
10, 33552, Note_on_c, 10, 32, 0
10, 33552, Note_on_c, 10, 32, 127
10, 33600, Note_on_c, 10, 32, 0
10, 33648, Note_on_c, 10, 32, 127
10, 33696, Note_on_c, 10, 32, 0
10, 33744, Note_on_c, 10, 32, 127
10, 33792, Note_on_c, 10, 32, 0
10, 33792, Note_on_c, 10, 32, 127
10, 33888, Note_on_c, 10, 32, 0
10, 34368, Note_on_c, 10, 32, 127
10, 34464, Note_on_c, 10, 32, 0
10, 34464, Note_on_c, 10, 30, 127
10, 34560, Note_on_c, 10, 30, 0
10, 35136, Note_on_c, 10, 28, 127
10, 35232, Note_on_c, 10, 28, 0
10, 35232, Note_on_c, 10, 32, 127
10, 35328, Note_on_c, 10, 32, 0
10, 35328, Note_on_c, 10, 30, 127
10, 35424, Note_on_c, 10, 30, 0
10, 35904, Note_on_c, 10, 27, 127
10, 36000, Note_on_c, 10, 27, 0
10, 36000, Note_on_c, 10, 28, 127
10, 36096, Note_on_c, 10, 28, 0
10, 36480, Note_on_c, 10, 28, 127
10, 36576, Note_on_c, 10, 28, 0
10, 36576, Note_on_c, 10, 32, 127
10, 36864, Note_on_c, 10, 32, 0
10, 36864, Note_on_c, 10, 25, 127
10, 36912, Note_on_c, 10, 25, 0
10, 36912, Note_on_c, 10, 25, 127
10, 36960, Note_on_c, 10, 25, 0
10, 36960, Note_on_c, 10, 25, 127
10, 37008, Note_on_c, 10, 25, 0
10, 37008, Note_on_c, 10, 25, 127
10, 37056, Note_on_c, 10, 25, 0
10, 37104, Note_on_c, 10, 25, 127
10, 37152, Note_on_c, 10, 25, 0
10, 37200, Note_on_c, 10, 25, 127
10, 37248, Note_on_c, 10, 25, 0
10, 37296, Note_on_c, 10, 25, 127
10, 37344, Note_on_c, 10, 25, 0
10, 37344, Note_on_c, 10, 25, 127
10, 37392, Note_on_c, 10, 25, 0
10, 37392, Note_on_c, 10, 25, 127
10, 37440, Note_on_c, 10, 25, 0
10, 37488, Note_on_c, 10, 25, 127
10, 37536, Note_on_c, 10, 25, 0
10, 37584, Note_on_c, 10, 25, 127
10, 37632, Note_on_c, 10, 25, 0
10, 37632, Note_on_c, 10, 28, 127
10, 37680, Note_on_c, 10, 28, 0
10, 37680, Note_on_c, 10, 28, 127
10, 37728, Note_on_c, 10, 28, 0
10, 37728, Note_on_c, 10, 28, 127
10, 37776, Note_on_c, 10, 28, 0
10, 37776, Note_on_c, 10, 28, 127
10, 37824, Note_on_c, 10, 28, 0
10, 37872, Note_on_c, 10, 28, 127
10, 37920, Note_on_c, 10, 28, 0
10, 37968, Note_on_c, 10, 28, 127
10, 38016, Note_on_c, 10, 28, 0
10, 38064, Note_on_c, 10, 28, 127
10, 38112, Note_on_c, 10, 28, 0
10, 38112, Note_on_c, 10, 28, 127
10, 38160, Note_on_c, 10, 28, 0
10, 38160, Note_on_c, 10, 28, 127
10, 38208, Note_on_c, 10, 28, 0
10, 38256, Note_on_c, 10, 28, 127
10, 38304, Note_on_c, 10, 28, 0
10, 38352, Note_on_c, 10, 28, 127
10, 38400, Note_on_c, 10, 28, 0
10, 38400, Note_on_c, 10, 30, 127
10, 38448, Note_on_c, 10, 30, 0
10, 38448, Note_on_c, 10, 30, 127
10, 38496, Note_on_c, 10, 30, 0
10, 38496, Note_on_c, 10, 30, 127
10, 38544, Note_on_c, 10, 30, 0
10, 38544, Note_on_c, 10, 30, 127
10, 38592, Note_on_c, 10, 30, 0
10, 38640, Note_on_c, 10, 30, 127
10, 38688, Note_on_c, 10, 30, 0
10, 38736, Note_on_c, 10, 30, 127
10, 38784, Note_on_c, 10, 30, 0
10, 38832, Note_on_c, 10, 30, 127
10, 38880, Note_on_c, 10, 30, 0
10, 38880, Note_on_c, 10, 30, 127
10, 38928, Note_on_c, 10, 30, 0
10, 38928, Note_on_c, 10, 30, 127
10, 38976, Note_on_c, 10, 30, 0
10, 39024, Note_on_c, 10, 30, 127
10, 39072, Note_on_c, 10, 30, 0
10, 39120, Note_on_c, 10, 30, 127
10, 39168, Note_on_c, 10, 30, 0
10, 39168, Note_on_c, 10, 32, 127
10, 39216, Note_on_c, 10, 32, 0
10, 39216, Note_on_c, 10, 32, 127
10, 39264, Note_on_c, 10, 32, 0
10, 39264, Note_on_c, 10, 32, 127
10, 39312, Note_on_c, 10, 32, 0
10, 39312, Note_on_c, 10, 32, 127
10, 39360, Note_on_c, 10, 32, 0
10, 39408, Note_on_c, 10, 32, 127
10, 39456, Note_on_c, 10, 32, 0
10, 39504, Note_on_c, 10, 32, 127
10, 39552, Note_on_c, 10, 32, 0
10, 39600, Note_on_c, 10, 32, 127
10, 39648, Note_on_c, 10, 32, 0
10, 39648, Note_on_c, 10, 32, 127
10, 39696, Note_on_c, 10, 32, 0
10, 39696, Note_on_c, 10, 32, 127
10, 39744, Note_on_c, 10, 32, 0
10, 39792, Note_on_c, 10, 32, 127
10, 39840, Note_on_c, 10, 32, 0
10, 39888, Note_on_c, 10, 32, 127
10, 39936, Note_on_c, 10, 32, 0
10, 39936, Note_on_c, 10, 25, 127
10, 39984, Note_on_c, 10, 25, 0
10, 39984, Note_on_c, 10, 25, 127
10, 40032, Note_on_c, 10, 25, 0
10, 40032, Note_on_c, 10, 25, 127
10, 40080, Note_on_c, 10, 25, 0
10, 40080, Note_on_c, 10, 25, 127
10, 40128, Note_on_c, 10, 25, 0
10, 40176, Note_on_c, 10, 25, 127
10, 40224, Note_on_c, 10, 25, 0
10, 40272, Note_on_c, 10, 25, 127
10, 40320, Note_on_c, 10, 25, 0
10, 40368, Note_on_c, 10, 25, 127
10, 40416, Note_on_c, 10, 25, 0
10, 40416, Note_on_c, 10, 25, 127
10, 40464, Note_on_c, 10, 25, 0
10, 40464, Note_on_c, 10, 25, 127
10, 40512, Note_on_c, 10, 25, 0
10, 40560, Note_on_c, 10, 25, 127
10, 40608, Note_on_c, 10, 25, 0
10, 40656, Note_on_c, 10, 25, 127
10, 40704, Note_on_c, 10, 25, 0
10, 40704, Note_on_c, 10, 28, 127
10, 40752, Note_on_c, 10, 28, 0
10, 40752, Note_on_c, 10, 28, 127
10, 40800, Note_on_c, 10, 28, 0
10, 40800, Note_on_c, 10, 28, 127
10, 40848, Note_on_c, 10, 28, 0
10, 40848, Note_on_c, 10, 28, 127
10, 40896, Note_on_c, 10, 28, 0
10, 40944, Note_on_c, 10, 28, 127
10, 40992, Note_on_c, 10, 28, 0
10, 41040, Note_on_c, 10, 28, 127
10, 41088, Note_on_c, 10, 28, 0
10, 41136, Note_on_c, 10, 28, 127
10, 41184, Note_on_c, 10, 28, 0
10, 41184, Note_on_c, 10, 28, 127
10, 41232, Note_on_c, 10, 28, 0
10, 41232, Note_on_c, 10, 28, 127
10, 41280, Note_on_c, 10, 28, 0
10, 41328, Note_on_c, 10, 28, 127
10, 41376, Note_on_c, 10, 28, 0
10, 41424, Note_on_c, 10, 28, 127
10, 41472, Note_on_c, 10, 28, 0
10, 41472, Note_on_c, 10, 30, 127
10, 41520, Note_on_c, 10, 30, 0
10, 41520, Note_on_c, 10, 30, 127
10, 41568, Note_on_c, 10, 30, 0
10, 41568, Note_on_c, 10, 30, 127
10, 41616, Note_on_c, 10, 30, 0
10, 41616, Note_on_c, 10, 30, 127
10, 41664, Note_on_c, 10, 30, 0
10, 41712, Note_on_c, 10, 30, 127
10, 41760, Note_on_c, 10, 30, 0
10, 41808, Note_on_c, 10, 30, 127
10, 41856, Note_on_c, 10, 30, 0
10, 41904, Note_on_c, 10, 30, 127
10, 41952, Note_on_c, 10, 30, 0
10, 41952, Note_on_c, 10, 30, 127
10, 42000, Note_on_c, 10, 30, 0
10, 42000, Note_on_c, 10, 30, 127
10, 42048, Note_on_c, 10, 30, 0
10, 42096, Note_on_c, 10, 30, 127
10, 42144, Note_on_c, 10, 30, 0
10, 42192, Note_on_c, 10, 30, 127
10, 42240, Note_on_c, 10, 30, 0
10, 42240, Note_on_c, 10, 32, 127
10, 42288, Note_on_c, 10, 32, 0
10, 42288, Note_on_c, 10, 32, 127
10, 42336, Note_on_c, 10, 32, 0
10, 42336, Note_on_c, 10, 32, 127
10, 42384, Note_on_c, 10, 32, 0
10, 42384, Note_on_c, 10, 32, 127
10, 42432, Note_on_c, 10, 32, 0
10, 42480, Note_on_c, 10, 32, 127
10, 42528, Note_on_c, 10, 32, 0
10, 42576, Note_on_c, 10, 32, 127
10, 42624, Note_on_c, 10, 32, 0
10, 42672, Note_on_c, 10, 32, 127
10, 42720, Note_on_c, 10, 32, 0
10, 42720, Note_on_c, 10, 32, 127
10, 42768, Note_on_c, 10, 32, 0
10, 42768, Note_on_c, 10, 32, 127
10, 42816, Note_on_c, 10, 32, 0
10, 42864, Note_on_c, 10, 32, 127
10, 42912, Note_on_c, 10, 32, 0
10, 42960, Note_on_c, 10, 32, 127
10, 43008, Note_on_c, 10, 32, 0
10, 43008, Note_on_c, 10, 25, 127
10, 43056, Note_on_c, 10, 25, 0
10, 43056, Note_on_c, 10, 25, 127
10, 43104, Note_on_c, 10, 25, 0
10, 43104, Note_on_c, 10, 25, 127
10, 43152, Note_on_c, 10, 25, 0
10, 43152, Note_on_c, 10, 25, 127
10, 43200, Note_on_c, 10, 25, 0
10, 43248, Note_on_c, 10, 25, 127
10, 43296, Note_on_c, 10, 25, 0
10, 43344, Note_on_c, 10, 25, 127
10, 43392, Note_on_c, 10, 25, 0
10, 43440, Note_on_c, 10, 25, 127
10, 43488, Note_on_c, 10, 25, 0
10, 43488, Note_on_c, 10, 25, 127
10, 43536, Note_on_c, 10, 25, 0
10, 43536, Note_on_c, 10, 25, 127
10, 43584, Note_on_c, 10, 25, 0
10, 43632, Note_on_c, 10, 25, 127
10, 43680, Note_on_c, 10, 25, 0
10, 43728, Note_on_c, 10, 25, 127
10, 43776, Note_on_c, 10, 25, 0
10, 43776, Note_on_c, 10, 28, 127
10, 43824, Note_on_c, 10, 28, 0
10, 43824, Note_on_c, 10, 28, 127
10, 43872, Note_on_c, 10, 28, 0
10, 43872, Note_on_c, 10, 28, 127
10, 43920, Note_on_c, 10, 28, 0
10, 43920, Note_on_c, 10, 28, 127
10, 43968, Note_on_c, 10, 28, 0
10, 44016, Note_on_c, 10, 28, 127
10, 44064, Note_on_c, 10, 28, 0
10, 44112, Note_on_c, 10, 28, 127
10, 44160, Note_on_c, 10, 28, 0
10, 44208, Note_on_c, 10, 28, 127
10, 44256, Note_on_c, 10, 28, 0
10, 44256, Note_on_c, 10, 28, 127
10, 44304, Note_on_c, 10, 28, 0
10, 44304, Note_on_c, 10, 28, 127
10, 44352, Note_on_c, 10, 28, 0
10, 44400, Note_on_c, 10, 28, 127
10, 44448, Note_on_c, 10, 28, 0
10, 44496, Note_on_c, 10, 28, 127
10, 44544, Note_on_c, 10, 28, 0
10, 44544, Note_on_c, 10, 30, 127
10, 44592, Note_on_c, 10, 30, 0
10, 44592, Note_on_c, 10, 30, 127
10, 44640, Note_on_c, 10, 30, 0
10, 44640, Note_on_c, 10, 30, 127
10, 44688, Note_on_c, 10, 30, 0
10, 44688, Note_on_c, 10, 30, 127
10, 44736, Note_on_c, 10, 30, 0
10, 44784, Note_on_c, 10, 30, 127
10, 44832, Note_on_c, 10, 30, 0
10, 44880, Note_on_c, 10, 30, 127
10, 44928, Note_on_c, 10, 30, 0
10, 44976, Note_on_c, 10, 30, 127
10, 45024, Note_on_c, 10, 30, 0
10, 45024, Note_on_c, 10, 30, 127
10, 45072, Note_on_c, 10, 30, 0
10, 45072, Note_on_c, 10, 30, 127
10, 45120, Note_on_c, 10, 30, 0
10, 45168, Note_on_c, 10, 30, 127
10, 45216, Note_on_c, 10, 30, 0
10, 45264, Note_on_c, 10, 30, 127
10, 45312, Note_on_c, 10, 30, 0
10, 45312, Note_on_c, 10, 32, 127
10, 45360, Note_on_c, 10, 32, 0
10, 45360, Note_on_c, 10, 32, 127
10, 45408, Note_on_c, 10, 32, 0
10, 45408, Note_on_c, 10, 32, 127
10, 45456, Note_on_c, 10, 32, 0
10, 45456, Note_on_c, 10, 32, 127
10, 45504, Note_on_c, 10, 32, 0
10, 45552, Note_on_c, 10, 32, 127
10, 45600, Note_on_c, 10, 32, 0
10, 45648, Note_on_c, 10, 32, 127
10, 45696, Note_on_c, 10, 32, 0
10, 45744, Note_on_c, 10, 32, 127
10, 45792, Note_on_c, 10, 32, 0
10, 45792, Note_on_c, 10, 32, 127
10, 45840, Note_on_c, 10, 32, 0
10, 45840, Note_on_c, 10, 32, 127
10, 45888, Note_on_c, 10, 32, 0
10, 45936, Note_on_c, 10, 32, 127
10, 45984, Note_on_c, 10, 32, 0
10, 46032, Note_on_c, 10, 32, 127
10, 46080, Note_on_c, 10, 32, 0
10, 46080, Note_on_c, 10, 25, 127
10, 46128, Note_on_c, 10, 25, 0
10, 46128, Note_on_c, 10, 25, 127
10, 46176, Note_on_c, 10, 25, 0
10, 46176, Note_on_c, 10, 25, 127
10, 46224, Note_on_c, 10, 25, 0
10, 46224, Note_on_c, 10, 25, 127
10, 46272, Note_on_c, 10, 25, 0
10, 46320, Note_on_c, 10, 25, 127
10, 46368, Note_on_c, 10, 25, 0
10, 46416, Note_on_c, 10, 25, 127
10, 46464, Note_on_c, 10, 25, 0
10, 46512, Note_on_c, 10, 25, 127
10, 46560, Note_on_c, 10, 25, 0
10, 46560, Note_on_c, 10, 25, 127
10, 46608, Note_on_c, 10, 25, 0
10, 46608, Note_on_c, 10, 25, 127
10, 46656, Note_on_c, 10, 25, 0
10, 46704, Note_on_c, 10, 25, 127
10, 46752, Note_on_c, 10, 25, 0
10, 46800, Note_on_c, 10, 25, 127
10, 46848, Note_on_c, 10, 25, 0
10, 46848, Note_on_c, 10, 28, 127
10, 46896, Note_on_c, 10, 28, 0
10, 46896, Note_on_c, 10, 28, 127
10, 46944, Note_on_c, 10, 28, 0
10, 46944, Note_on_c, 10, 28, 127
10, 46992, Note_on_c, 10, 28, 0
10, 46992, Note_on_c, 10, 28, 127
10, 47040, Note_on_c, 10, 28, 0
10, 47088, Note_on_c, 10, 28, 127
10, 47136, Note_on_c, 10, 28, 0
10, 47184, Note_on_c, 10, 28, 127
10, 47232, Note_on_c, 10, 28, 0
10, 47280, Note_on_c, 10, 28, 127
10, 47328, Note_on_c, 10, 28, 0
10, 47328, Note_on_c, 10, 28, 127
10, 47376, Note_on_c, 10, 28, 0
10, 47376, Note_on_c, 10, 28, 127
10, 47424, Note_on_c, 10, 28, 0
10, 47472, Note_on_c, 10, 28, 127
10, 47520, Note_on_c, 10, 28, 0
10, 47568, Note_on_c, 10, 28, 127
10, 47616, Note_on_c, 10, 28, 0
10, 47616, Note_on_c, 10, 30, 127
10, 47664, Note_on_c, 10, 30, 0
10, 47664, Note_on_c, 10, 30, 127
10, 47712, Note_on_c, 10, 30, 0
10, 47712, Note_on_c, 10, 30, 127
10, 47760, Note_on_c, 10, 30, 0
10, 47760, Note_on_c, 10, 30, 127
10, 47808, Note_on_c, 10, 30, 0
10, 47856, Note_on_c, 10, 30, 127
10, 47904, Note_on_c, 10, 30, 0
10, 47952, Note_on_c, 10, 30, 127
10, 48000, Note_on_c, 10, 30, 0
10, 48048, Note_on_c, 10, 30, 127
10, 48096, Note_on_c, 10, 30, 0
10, 48096, Note_on_c, 10, 30, 127
10, 48144, Note_on_c, 10, 30, 0
10, 48144, Note_on_c, 10, 30, 127
10, 48192, Note_on_c, 10, 30, 0
10, 48240, Note_on_c, 10, 30, 127
10, 48288, Note_on_c, 10, 30, 0
10, 48336, Note_on_c, 10, 30, 127
10, 48384, Note_on_c, 10, 30, 0
10, 48384, Note_on_c, 10, 32, 127
10, 48432, Note_on_c, 10, 32, 0
10, 48432, Note_on_c, 10, 32, 127
10, 48480, Note_on_c, 10, 32, 0
10, 48480, Note_on_c, 10, 32, 127
10, 48528, Note_on_c, 10, 32, 0
10, 48528, Note_on_c, 10, 32, 127
10, 48576, Note_on_c, 10, 32, 0
10, 48624, Note_on_c, 10, 32, 127
10, 48672, Note_on_c, 10, 32, 0
10, 48720, Note_on_c, 10, 32, 127
10, 48768, Note_on_c, 10, 32, 0
10, 48816, Note_on_c, 10, 32, 127
10, 48864, Note_on_c, 10, 32, 0
10, 48864, Note_on_c, 10, 32, 127
10, 48912, Note_on_c, 10, 32, 0
10, 48912, Note_on_c, 10, 32, 127
10, 48960, Note_on_c, 10, 32, 0
10, 49008, Note_on_c, 10, 32, 127
10, 49056, Note_on_c, 10, 32, 0
10, 49104, Note_on_c, 10, 32, 127
10, 49152, Note_on_c, 10, 32, 0
10, 49152, Note_on_c, 10, 25, 127
10, 49200, Note_on_c, 10, 25, 0
10, 49200, Note_on_c, 10, 25, 127
10, 49248, Note_on_c, 10, 25, 0
10, 49248, Note_on_c, 10, 25, 127
10, 49296, Note_on_c, 10, 25, 0
10, 49296, Note_on_c, 10, 25, 127
10, 49344, Note_on_c, 10, 25, 0
10, 49392, Note_on_c, 10, 25, 127
10, 49440, Note_on_c, 10, 25, 0
10, 49488, Note_on_c, 10, 25, 127
10, 49536, Note_on_c, 10, 25, 0
10, 49584, Note_on_c, 10, 25, 127
10, 49632, Note_on_c, 10, 25, 0
10, 49632, Note_on_c, 10, 25, 127
10, 49680, Note_on_c, 10, 25, 0
10, 49680, Note_on_c, 10, 25, 127
10, 49728, Note_on_c, 10, 25, 0
10, 49776, Note_on_c, 10, 25, 127
10, 49824, Note_on_c, 10, 25, 0
10, 49872, Note_on_c, 10, 25, 127
10, 49920, Note_on_c, 10, 25, 0
10, 49920, Note_on_c, 10, 28, 127
10, 49968, Note_on_c, 10, 28, 0
10, 49968, Note_on_c, 10, 28, 127
10, 50016, Note_on_c, 10, 28, 0
10, 50016, Note_on_c, 10, 28, 127
10, 50064, Note_on_c, 10, 28, 0
10, 50064, Note_on_c, 10, 28, 127
10, 50112, Note_on_c, 10, 28, 0
10, 50160, Note_on_c, 10, 28, 127
10, 50208, Note_on_c, 10, 28, 0
10, 50256, Note_on_c, 10, 28, 127
10, 50304, Note_on_c, 10, 28, 0
10, 50352, Note_on_c, 10, 28, 127
10, 50400, Note_on_c, 10, 28, 0
10, 50400, Note_on_c, 10, 28, 127
10, 50448, Note_on_c, 10, 28, 0
10, 50448, Note_on_c, 10, 28, 127
10, 50496, Note_on_c, 10, 28, 0
10, 50544, Note_on_c, 10, 28, 127
10, 50592, Note_on_c, 10, 28, 0
10, 50640, Note_on_c, 10, 28, 127
10, 50688, Note_on_c, 10, 28, 0
10, 50688, Note_on_c, 10, 30, 127
10, 50736, Note_on_c, 10, 30, 0
10, 50736, Note_on_c, 10, 30, 127
10, 50784, Note_on_c, 10, 30, 0
10, 50784, Note_on_c, 10, 30, 127
10, 50832, Note_on_c, 10, 30, 0
10, 50832, Note_on_c, 10, 30, 127
10, 50880, Note_on_c, 10, 30, 0
10, 50928, Note_on_c, 10, 30, 127
10, 50976, Note_on_c, 10, 30, 0
10, 51024, Note_on_c, 10, 30, 127
10, 51072, Note_on_c, 10, 30, 0
10, 51120, Note_on_c, 10, 30, 127
10, 51168, Note_on_c, 10, 30, 0
10, 51168, Note_on_c, 10, 30, 127
10, 51216, Note_on_c, 10, 30, 0
10, 51216, Note_on_c, 10, 30, 127
10, 51264, Note_on_c, 10, 30, 0
10, 51312, Note_on_c, 10, 30, 127
10, 51360, Note_on_c, 10, 30, 0
10, 51408, Note_on_c, 10, 30, 127
10, 51456, Note_on_c, 10, 30, 0
10, 51456, Note_on_c, 10, 32, 127
10, 51504, Note_on_c, 10, 32, 0
10, 51504, Note_on_c, 10, 32, 127
10, 51552, Note_on_c, 10, 32, 0
10, 51552, Note_on_c, 10, 32, 127
10, 51600, Note_on_c, 10, 32, 0
10, 51600, Note_on_c, 10, 32, 127
10, 51648, Note_on_c, 10, 32, 0
10, 51696, Note_on_c, 10, 32, 127
10, 51744, Note_on_c, 10, 32, 0
10, 51792, Note_on_c, 10, 32, 127
10, 51840, Note_on_c, 10, 32, 0
10, 51888, Note_on_c, 10, 32, 127
10, 51936, Note_on_c, 10, 32, 0
10, 51936, Note_on_c, 10, 32, 127
10, 51984, Note_on_c, 10, 32, 0
10, 51984, Note_on_c, 10, 32, 127
10, 52032, Note_on_c, 10, 32, 0
10, 52080, Note_on_c, 10, 32, 127
10, 52128, Note_on_c, 10, 32, 0
10, 52176, Note_on_c, 10, 32, 127
10, 52224, Note_on_c, 10, 32, 0
10, 52224, Note_on_c, 10, 25, 127
10, 52272, Note_on_c, 10, 25, 0
10, 52272, Note_on_c, 10, 25, 127
10, 52320, Note_on_c, 10, 25, 0
10, 52320, Note_on_c, 10, 25, 127
10, 52368, Note_on_c, 10, 25, 0
10, 52368, Note_on_c, 10, 25, 127
10, 52416, Note_on_c, 10, 25, 0
10, 52464, Note_on_c, 10, 25, 127
10, 52512, Note_on_c, 10, 25, 0
10, 52560, Note_on_c, 10, 25, 127
10, 52608, Note_on_c, 10, 25, 0
10, 52656, Note_on_c, 10, 25, 127
10, 52704, Note_on_c, 10, 25, 0
10, 52704, Note_on_c, 10, 25, 127
10, 52752, Note_on_c, 10, 25, 0
10, 52752, Note_on_c, 10, 25, 127
10, 52800, Note_on_c, 10, 25, 0
10, 52848, Note_on_c, 10, 25, 127
10, 52896, Note_on_c, 10, 25, 0
10, 52944, Note_on_c, 10, 25, 127
10, 52992, Note_on_c, 10, 25, 0
10, 52992, Note_on_c, 10, 28, 127
10, 53040, Note_on_c, 10, 28, 0
10, 53040, Note_on_c, 10, 28, 127
10, 53088, Note_on_c, 10, 28, 0
10, 53088, Note_on_c, 10, 28, 127
10, 53136, Note_on_c, 10, 28, 0
10, 53136, Note_on_c, 10, 28, 127
10, 53184, Note_on_c, 10, 28, 0
10, 53232, Note_on_c, 10, 28, 127
10, 53280, Note_on_c, 10, 28, 0
10, 53328, Note_on_c, 10, 28, 127
10, 53376, Note_on_c, 10, 28, 0
10, 53424, Note_on_c, 10, 28, 127
10, 53472, Note_on_c, 10, 28, 0
10, 53472, Note_on_c, 10, 28, 127
10, 53520, Note_on_c, 10, 28, 0
10, 53520, Note_on_c, 10, 28, 127
10, 53568, Note_on_c, 10, 28, 0
10, 53616, Note_on_c, 10, 28, 127
10, 53664, Note_on_c, 10, 28, 0
10, 53712, Note_on_c, 10, 28, 127
10, 53760, Note_on_c, 10, 28, 0
10, 53760, Note_on_c, 10, 30, 127
10, 53808, Note_on_c, 10, 30, 0
10, 53808, Note_on_c, 10, 30, 127
10, 53856, Note_on_c, 10, 30, 0
10, 53856, Note_on_c, 10, 30, 127
10, 53904, Note_on_c, 10, 30, 0
10, 53904, Note_on_c, 10, 30, 127
10, 53952, Note_on_c, 10, 30, 0
10, 54000, Note_on_c, 10, 30, 127
10, 54048, Note_on_c, 10, 30, 0
10, 54096, Note_on_c, 10, 30, 127
10, 54144, Note_on_c, 10, 30, 0
10, 54192, Note_on_c, 10, 30, 127
10, 54240, Note_on_c, 10, 30, 0
10, 54240, Note_on_c, 10, 30, 127
10, 54288, Note_on_c, 10, 30, 0
10, 54288, Note_on_c, 10, 30, 127
10, 54336, Note_on_c, 10, 30, 0
10, 54384, Note_on_c, 10, 30, 127
10, 54432, Note_on_c, 10, 30, 0
10, 54480, Note_on_c, 10, 30, 127
10, 54528, Note_on_c, 10, 30, 0
10, 54528, Note_on_c, 10, 32, 127
10, 54576, Note_on_c, 10, 32, 0
10, 54576, Note_on_c, 10, 32, 127
10, 54624, Note_on_c, 10, 32, 0
10, 54624, Note_on_c, 10, 32, 127
10, 54672, Note_on_c, 10, 32, 0
10, 54672, Note_on_c, 10, 32, 127
10, 54720, Note_on_c, 10, 32, 0
10, 54768, Note_on_c, 10, 32, 127
10, 54816, Note_on_c, 10, 32, 0
10, 54864, Note_on_c, 10, 32, 127
10, 54912, Note_on_c, 10, 32, 0
10, 54960, Note_on_c, 10, 32, 127
10, 55008, Note_on_c, 10, 32, 0
10, 55008, Note_on_c, 10, 32, 127
10, 55056, Note_on_c, 10, 32, 0
10, 55056, Note_on_c, 10, 32, 127
10, 55104, Note_on_c, 10, 32, 0
10, 55152, Note_on_c, 10, 32, 127
10, 55200, Note_on_c, 10, 32, 0
10, 55248, Note_on_c, 10, 32, 127
10, 55296, Note_on_c, 10, 32, 0
10, 55296, Note_on_c, 10, 25, 127
10, 55344, Note_on_c, 10, 25, 0
10, 55344, Note_on_c, 10, 25, 127
10, 55392, Note_on_c, 10, 25, 0
10, 55392, Note_on_c, 10, 25, 127
10, 55440, Note_on_c, 10, 25, 0
10, 55440, Note_on_c, 10, 25, 127
10, 55488, Note_on_c, 10, 25, 0
10, 55536, Note_on_c, 10, 25, 127
10, 55584, Note_on_c, 10, 25, 0
10, 55632, Note_on_c, 10, 25, 127
10, 55680, Note_on_c, 10, 25, 0
10, 55728, Note_on_c, 10, 25, 127
10, 55776, Note_on_c, 10, 25, 0
10, 55776, Note_on_c, 10, 25, 127
10, 55824, Note_on_c, 10, 25, 0
10, 55824, Note_on_c, 10, 25, 127
10, 55872, Note_on_c, 10, 25, 0
10, 55920, Note_on_c, 10, 25, 127
10, 55968, Note_on_c, 10, 25, 0
10, 56016, Note_on_c, 10, 25, 127
10, 56064, Note_on_c, 10, 25, 0
10, 56064, Note_on_c, 10, 28, 127
10, 56112, Note_on_c, 10, 28, 0
10, 56112, Note_on_c, 10, 28, 127
10, 56160, Note_on_c, 10, 28, 0
10, 56160, Note_on_c, 10, 28, 127
10, 56208, Note_on_c, 10, 28, 0
10, 56208, Note_on_c, 10, 28, 127
10, 56256, Note_on_c, 10, 28, 0
10, 56304, Note_on_c, 10, 28, 127
10, 56352, Note_on_c, 10, 28, 0
10, 56400, Note_on_c, 10, 28, 127
10, 56448, Note_on_c, 10, 28, 0
10, 56496, Note_on_c, 10, 28, 127
10, 56544, Note_on_c, 10, 28, 0
10, 56544, Note_on_c, 10, 28, 127
10, 56592, Note_on_c, 10, 28, 0
10, 56592, Note_on_c, 10, 28, 127
10, 56640, Note_on_c, 10, 28, 0
10, 56688, Note_on_c, 10, 28, 127
10, 56736, Note_on_c, 10, 28, 0
10, 56784, Note_on_c, 10, 28, 127
10, 56832, Note_on_c, 10, 28, 0
10, 56832, Note_on_c, 10, 30, 127
10, 56880, Note_on_c, 10, 30, 0
10, 56880, Note_on_c, 10, 30, 127
10, 56928, Note_on_c, 10, 30, 0
10, 56928, Note_on_c, 10, 30, 127
10, 56976, Note_on_c, 10, 30, 0
10, 56976, Note_on_c, 10, 30, 127
10, 57024, Note_on_c, 10, 30, 0
10, 57072, Note_on_c, 10, 30, 127
10, 57120, Note_on_c, 10, 30, 0
10, 57168, Note_on_c, 10, 30, 127
10, 57216, Note_on_c, 10, 30, 0
10, 57264, Note_on_c, 10, 30, 127
10, 57312, Note_on_c, 10, 30, 0
10, 57312, Note_on_c, 10, 30, 127
10, 57360, Note_on_c, 10, 30, 0
10, 57360, Note_on_c, 10, 30, 127
10, 57408, Note_on_c, 10, 30, 0
10, 57456, Note_on_c, 10, 30, 127
10, 57504, Note_on_c, 10, 30, 0
10, 57552, Note_on_c, 10, 30, 127
10, 57600, Note_on_c, 10, 30, 0
10, 57600, Note_on_c, 10, 32, 127
10, 57648, Note_on_c, 10, 32, 0
10, 57648, Note_on_c, 10, 32, 127
10, 57696, Note_on_c, 10, 32, 0
10, 57696, Note_on_c, 10, 32, 127
10, 57744, Note_on_c, 10, 32, 0
10, 57744, Note_on_c, 10, 32, 127
10, 57792, Note_on_c, 10, 32, 0
10, 57840, Note_on_c, 10, 32, 127
10, 57888, Note_on_c, 10, 32, 0
10, 57936, Note_on_c, 10, 32, 127
10, 57984, Note_on_c, 10, 32, 0
10, 58032, Note_on_c, 10, 32, 127
10, 58080, Note_on_c, 10, 32, 0
10, 58080, Note_on_c, 10, 32, 127
10, 58128, Note_on_c, 10, 32, 0
10, 58128, Note_on_c, 10, 32, 127
10, 58176, Note_on_c, 10, 32, 0
10, 58224, Note_on_c, 10, 32, 127
10, 58272, Note_on_c, 10, 32, 0
10, 58320, Note_on_c, 10, 32, 127
10, 58368, Note_on_c, 10, 32, 0
10, 58368, Note_on_c, 10, 25, 127
10, 58416, Note_on_c, 10, 25, 0
10, 58416, Note_on_c, 10, 25, 127
10, 58464, Note_on_c, 10, 25, 0
10, 58464, Note_on_c, 10, 25, 127
10, 58512, Note_on_c, 10, 25, 0
10, 58512, Note_on_c, 10, 25, 127
10, 58560, Note_on_c, 10, 25, 0
10, 58608, Note_on_c, 10, 25, 127
10, 58656, Note_on_c, 10, 25, 0
10, 58704, Note_on_c, 10, 25, 127
10, 58752, Note_on_c, 10, 25, 0
10, 58800, Note_on_c, 10, 25, 127
10, 58848, Note_on_c, 10, 25, 0
10, 58848, Note_on_c, 10, 25, 127
10, 58896, Note_on_c, 10, 25, 0
10, 58896, Note_on_c, 10, 25, 127
10, 58944, Note_on_c, 10, 25, 0
10, 58992, Note_on_c, 10, 25, 127
10, 59040, Note_on_c, 10, 25, 0
10, 59088, Note_on_c, 10, 25, 127
10, 59136, Note_on_c, 10, 25, 0
10, 59136, Note_on_c, 10, 28, 127
10, 59184, Note_on_c, 10, 28, 0
10, 59184, Note_on_c, 10, 28, 127
10, 59232, Note_on_c, 10, 28, 0
10, 59232, Note_on_c, 10, 28, 127
10, 59280, Note_on_c, 10, 28, 0
10, 59280, Note_on_c, 10, 28, 127
10, 59328, Note_on_c, 10, 28, 0
10, 59376, Note_on_c, 10, 28, 127
10, 59424, Note_on_c, 10, 28, 0
10, 59472, Note_on_c, 10, 28, 127
10, 59520, Note_on_c, 10, 28, 0
10, 59568, Note_on_c, 10, 28, 127
10, 59616, Note_on_c, 10, 28, 0
10, 59616, Note_on_c, 10, 28, 127
10, 59664, Note_on_c, 10, 28, 0
10, 59664, Note_on_c, 10, 28, 127
10, 59712, Note_on_c, 10, 28, 0
10, 59760, Note_on_c, 10, 28, 127
10, 59808, Note_on_c, 10, 28, 0
10, 59856, Note_on_c, 10, 28, 127
10, 59904, Note_on_c, 10, 28, 0
10, 59904, Note_on_c, 10, 30, 127
10, 59952, Note_on_c, 10, 30, 0
10, 59952, Note_on_c, 10, 30, 127
10, 60000, Note_on_c, 10, 30, 0
10, 60000, Note_on_c, 10, 30, 127
10, 60048, Note_on_c, 10, 30, 0
10, 60048, Note_on_c, 10, 30, 127
10, 60096, Note_on_c, 10, 30, 0
10, 60144, Note_on_c, 10, 30, 127
10, 60192, Note_on_c, 10, 30, 0
10, 60240, Note_on_c, 10, 30, 127
10, 60288, Note_on_c, 10, 30, 0
10, 60336, Note_on_c, 10, 30, 127
10, 60384, Note_on_c, 10, 30, 0
10, 60384, Note_on_c, 10, 30, 127
10, 60432, Note_on_c, 10, 30, 0
10, 60432, Note_on_c, 10, 30, 127
10, 60480, Note_on_c, 10, 30, 0
10, 60528, Note_on_c, 10, 30, 127
10, 60576, Note_on_c, 10, 30, 0
10, 60624, Note_on_c, 10, 30, 127
10, 60672, Note_on_c, 10, 30, 0
10, 60672, Note_on_c, 10, 32, 127
10, 60720, Note_on_c, 10, 32, 0
10, 60720, Note_on_c, 10, 32, 127
10, 60768, Note_on_c, 10, 32, 0
10, 60768, Note_on_c, 10, 32, 127
10, 60816, Note_on_c, 10, 32, 0
10, 60816, Note_on_c, 10, 32, 127
10, 60864, Note_on_c, 10, 32, 0
10, 60912, Note_on_c, 10, 32, 127
10, 60960, Note_on_c, 10, 32, 0
10, 61008, Note_on_c, 10, 32, 127
10, 61056, Note_on_c, 10, 32, 0
10, 61104, Note_on_c, 10, 32, 127
10, 61152, Note_on_c, 10, 32, 0
10, 61152, Note_on_c, 10, 32, 127
10, 61200, Note_on_c, 10, 32, 0
10, 61200, Note_on_c, 10, 32, 127
10, 61248, Note_on_c, 10, 32, 0
10, 61296, Note_on_c, 10, 32, 127
10, 61344, Note_on_c, 10, 32, 0
10, 61392, Note_on_c, 10, 32, 127
10, 61440, Note_on_c, 10, 32, 0
10, 61440, Note_on_c, 10, 25, 127
10, 61488, Note_on_c, 10, 25, 0
10, 61488, Note_on_c, 10, 25, 127
10, 61536, Note_on_c, 10, 25, 0
10, 61536, Note_on_c, 10, 25, 127
10, 61584, Note_on_c, 10, 25, 0
10, 61584, Note_on_c, 10, 25, 127
10, 61632, Note_on_c, 10, 25, 0
10, 61680, Note_on_c, 10, 25, 127
10, 61728, Note_on_c, 10, 25, 0
10, 61776, Note_on_c, 10, 25, 127
10, 61824, Note_on_c, 10, 25, 0
10, 61872, Note_on_c, 10, 25, 127
10, 61920, Note_on_c, 10, 25, 0
10, 61920, Note_on_c, 10, 25, 127
10, 61968, Note_on_c, 10, 25, 0
10, 61968, Note_on_c, 10, 25, 127
10, 62016, Note_on_c, 10, 25, 0
10, 62064, Note_on_c, 10, 25, 127
10, 62112, Note_on_c, 10, 25, 0
10, 62160, Note_on_c, 10, 25, 127
10, 62208, Note_on_c, 10, 25, 0
10, 62208, Note_on_c, 10, 28, 127
10, 62256, Note_on_c, 10, 28, 0
10, 62256, Note_on_c, 10, 28, 127
10, 62304, Note_on_c, 10, 28, 0
10, 62304, Note_on_c, 10, 28, 127
10, 62352, Note_on_c, 10, 28, 0
10, 62352, Note_on_c, 10, 28, 127
10, 62400, Note_on_c, 10, 28, 0
10, 62448, Note_on_c, 10, 28, 127
10, 62496, Note_on_c, 10, 28, 0
10, 62544, Note_on_c, 10, 28, 127
10, 62592, Note_on_c, 10, 28, 0
10, 62640, Note_on_c, 10, 28, 127
10, 62688, Note_on_c, 10, 28, 0
10, 62688, Note_on_c, 10, 28, 127
10, 62736, Note_on_c, 10, 28, 0
10, 62736, Note_on_c, 10, 28, 127
10, 62784, Note_on_c, 10, 28, 0
10, 62832, Note_on_c, 10, 28, 127
10, 62880, Note_on_c, 10, 28, 0
10, 62928, Note_on_c, 10, 28, 127
10, 62976, Note_on_c, 10, 28, 0
10, 62976, Note_on_c, 10, 30, 127
10, 63024, Note_on_c, 10, 30, 0
10, 63024, Note_on_c, 10, 30, 127
10, 63072, Note_on_c, 10, 30, 0
10, 63072, Note_on_c, 10, 30, 127
10, 63120, Note_on_c, 10, 30, 0
10, 63120, Note_on_c, 10, 30, 127
10, 63168, Note_on_c, 10, 30, 0
10, 63216, Note_on_c, 10, 30, 127
10, 63264, Note_on_c, 10, 30, 0
10, 63312, Note_on_c, 10, 30, 127
10, 63360, Note_on_c, 10, 30, 0
10, 63408, Note_on_c, 10, 30, 127
10, 63456, Note_on_c, 10, 30, 0
10, 63456, Note_on_c, 10, 30, 127
10, 63504, Note_on_c, 10, 30, 0
10, 63504, Note_on_c, 10, 30, 127
10, 63552, Note_on_c, 10, 30, 0
10, 63600, Note_on_c, 10, 30, 127
10, 63648, Note_on_c, 10, 30, 0
10, 63696, Note_on_c, 10, 30, 127
10, 63744, Note_on_c, 10, 30, 0
10, 63744, Note_on_c, 10, 32, 127
10, 63792, Note_on_c, 10, 32, 0
10, 63792, Note_on_c, 10, 32, 127
10, 63840, Note_on_c, 10, 32, 0
10, 63840, Note_on_c, 10, 32, 127
10, 63888, Note_on_c, 10, 32, 0
10, 63888, Note_on_c, 10, 32, 127
10, 63936, Note_on_c, 10, 32, 0
10, 63984, Note_on_c, 10, 32, 127
10, 64032, Note_on_c, 10, 32, 0
10, 64080, Note_on_c, 10, 32, 127
10, 64128, Note_on_c, 10, 32, 0
10, 64176, Note_on_c, 10, 32, 127
10, 64224, Note_on_c, 10, 32, 0
10, 64224, Note_on_c, 10, 32, 127
10, 64272, Note_on_c, 10, 32, 0
10, 64272, Note_on_c, 10, 32, 127
10, 64320, Note_on_c, 10, 32, 0
10, 64368, Note_on_c, 10, 32, 127
10, 64416, Note_on_c, 10, 32, 0
10, 64464, Note_on_c, 10, 32, 127
10, 64512, Note_on_c, 10, 32, 0
10, 64512, Note_on_c, 10, 25, 127
10, 64560, Note_on_c, 10, 25, 0
10, 64560, Note_on_c, 10, 25, 127
10, 64608, Note_on_c, 10, 25, 0
10, 64608, Note_on_c, 10, 25, 127
10, 64656, Note_on_c, 10, 25, 0
10, 64656, Note_on_c, 10, 25, 127
10, 64704, Note_on_c, 10, 25, 0
10, 64752, Note_on_c, 10, 25, 127
10, 64800, Note_on_c, 10, 25, 0
10, 64848, Note_on_c, 10, 25, 127
10, 64896, Note_on_c, 10, 25, 0
10, 64944, Note_on_c, 10, 25, 127
10, 64992, Note_on_c, 10, 25, 0
10, 64992, Note_on_c, 10, 25, 127
10, 65040, Note_on_c, 10, 25, 0
10, 65040, Note_on_c, 10, 25, 127
10, 65088, Note_on_c, 10, 25, 0
10, 65136, Note_on_c, 10, 25, 127
10, 65184, Note_on_c, 10, 25, 0
10, 65232, Note_on_c, 10, 25, 127
10, 65280, Note_on_c, 10, 25, 0
10, 65280, Note_on_c, 10, 28, 127
10, 65328, Note_on_c, 10, 28, 0
10, 65328, Note_on_c, 10, 28, 127
10, 65376, Note_on_c, 10, 28, 0
10, 65376, Note_on_c, 10, 28, 127
10, 65424, Note_on_c, 10, 28, 0
10, 65424, Note_on_c, 10, 28, 127
10, 65472, Note_on_c, 10, 28, 0
10, 65520, Note_on_c, 10, 28, 127
10, 65568, Note_on_c, 10, 28, 0
10, 65616, Note_on_c, 10, 28, 127
10, 65664, Note_on_c, 10, 28, 0
10, 65712, Note_on_c, 10, 28, 127
10, 65760, Note_on_c, 10, 28, 0
10, 65760, Note_on_c, 10, 28, 127
10, 65808, Note_on_c, 10, 28, 0
10, 65808, Note_on_c, 10, 28, 127
10, 65856, Note_on_c, 10, 28, 0
10, 65904, Note_on_c, 10, 28, 127
10, 65952, Note_on_c, 10, 28, 0
10, 66000, Note_on_c, 10, 28, 127
10, 66048, Note_on_c, 10, 28, 0
10, 66048, Note_on_c, 10, 30, 127
10, 66096, Note_on_c, 10, 30, 0
10, 66096, Note_on_c, 10, 30, 127
10, 66144, Note_on_c, 10, 30, 0
10, 66144, Note_on_c, 10, 30, 127
10, 66192, Note_on_c, 10, 30, 0
10, 66192, Note_on_c, 10, 30, 127
10, 66240, Note_on_c, 10, 30, 0
10, 66288, Note_on_c, 10, 30, 127
10, 66336, Note_on_c, 10, 30, 0
10, 66384, Note_on_c, 10, 30, 127
10, 66432, Note_on_c, 10, 30, 0
10, 66480, Note_on_c, 10, 30, 127
10, 66528, Note_on_c, 10, 30, 0
10, 66528, Note_on_c, 10, 30, 127
10, 66576, Note_on_c, 10, 30, 0
10, 66576, Note_on_c, 10, 30, 127
10, 66624, Note_on_c, 10, 30, 0
10, 66672, Note_on_c, 10, 30, 127
10, 66720, Note_on_c, 10, 30, 0
10, 66768, Note_on_c, 10, 30, 127
10, 66816, Note_on_c, 10, 30, 0
10, 66816, Note_on_c, 10, 32, 127
10, 66864, Note_on_c, 10, 32, 0
10, 66864, Note_on_c, 10, 32, 127
10, 66912, Note_on_c, 10, 32, 0
10, 66912, Note_on_c, 10, 32, 127
10, 66960, Note_on_c, 10, 32, 0
10, 66960, Note_on_c, 10, 32, 127
10, 67008, Note_on_c, 10, 32, 0
10, 67056, Note_on_c, 10, 32, 127
10, 67104, Note_on_c, 10, 32, 0
10, 67152, Note_on_c, 10, 32, 127
10, 67200, Note_on_c, 10, 32, 0
10, 67248, Note_on_c, 10, 32, 127
10, 67296, Note_on_c, 10, 32, 0
10, 67296, Note_on_c, 10, 32, 127
10, 67344, Note_on_c, 10, 32, 0
10, 67344, Note_on_c, 10, 32, 127
10, 67392, Note_on_c, 10, 32, 0
10, 67440, Note_on_c, 10, 32, 127
10, 67488, Note_on_c, 10, 32, 0
10, 67536, Note_on_c, 10, 32, 127
10, 67584, Note_on_c, 10, 32, 0
10, 67584, Note_on_c, 10, 25, 127
10, 67632, Note_on_c, 10, 25, 0
10, 67632, Note_on_c, 10, 25, 127
10, 67680, Note_on_c, 10, 25, 0
10, 67680, Note_on_c, 10, 25, 127
10, 67728, Note_on_c, 10, 25, 0
10, 67728, Note_on_c, 10, 25, 127
10, 67776, Note_on_c, 10, 25, 0
10, 67824, Note_on_c, 10, 25, 127
10, 67872, Note_on_c, 10, 25, 0
10, 67920, Note_on_c, 10, 25, 127
10, 67968, Note_on_c, 10, 25, 0
10, 68016, Note_on_c, 10, 25, 127
10, 68064, Note_on_c, 10, 25, 0
10, 68064, Note_on_c, 10, 25, 127
10, 68112, Note_on_c, 10, 25, 0
10, 68112, Note_on_c, 10, 25, 127
10, 68160, Note_on_c, 10, 25, 0
10, 68208, Note_on_c, 10, 25, 127
10, 68256, Note_on_c, 10, 25, 0
10, 68304, Note_on_c, 10, 25, 127
10, 68352, Note_on_c, 10, 25, 0
10, 68352, Note_on_c, 10, 28, 127
10, 68400, Note_on_c, 10, 28, 0
10, 68400, Note_on_c, 10, 28, 127
10, 68448, Note_on_c, 10, 28, 0
10, 68448, Note_on_c, 10, 28, 127
10, 68496, Note_on_c, 10, 28, 0
10, 68496, Note_on_c, 10, 28, 127
10, 68544, Note_on_c, 10, 28, 0
10, 68592, Note_on_c, 10, 28, 127
10, 68640, Note_on_c, 10, 28, 0
10, 68688, Note_on_c, 10, 28, 127
10, 68736, Note_on_c, 10, 28, 0
10, 68784, Note_on_c, 10, 28, 127
10, 68832, Note_on_c, 10, 28, 0
10, 68832, Note_on_c, 10, 28, 127
10, 68880, Note_on_c, 10, 28, 0
10, 68880, Note_on_c, 10, 28, 127
10, 68928, Note_on_c, 10, 28, 0
10, 68976, Note_on_c, 10, 28, 127
10, 69024, Note_on_c, 10, 28, 0
10, 69072, Note_on_c, 10, 28, 127
10, 69120, Note_on_c, 10, 28, 0
10, 69120, Note_on_c, 10, 30, 127
10, 69168, Note_on_c, 10, 30, 0
10, 69168, Note_on_c, 10, 30, 127
10, 69216, Note_on_c, 10, 30, 0
10, 69216, Note_on_c, 10, 30, 127
10, 69264, Note_on_c, 10, 30, 0
10, 69264, Note_on_c, 10, 30, 127
10, 69312, Note_on_c, 10, 30, 0
10, 69360, Note_on_c, 10, 30, 127
10, 69408, Note_on_c, 10, 30, 0
10, 69456, Note_on_c, 10, 30, 127
10, 69504, Note_on_c, 10, 30, 0
10, 69552, Note_on_c, 10, 30, 127
10, 69600, Note_on_c, 10, 30, 0
10, 69600, Note_on_c, 10, 30, 127
10, 69648, Note_on_c, 10, 30, 0
10, 69648, Note_on_c, 10, 30, 127
10, 69696, Note_on_c, 10, 30, 0
10, 69744, Note_on_c, 10, 30, 127
10, 69792, Note_on_c, 10, 30, 0
10, 69840, Note_on_c, 10, 30, 127
10, 69888, Note_on_c, 10, 30, 0
10, 69888, Note_on_c, 10, 32, 127
10, 69936, Note_on_c, 10, 32, 0
10, 69936, Note_on_c, 10, 32, 127
10, 69984, Note_on_c, 10, 32, 0
10, 69984, Note_on_c, 10, 32, 127
10, 70032, Note_on_c, 10, 32, 0
10, 70032, Note_on_c, 10, 32, 127
10, 70080, Note_on_c, 10, 32, 0
10, 70128, Note_on_c, 10, 32, 127
10, 70176, Note_on_c, 10, 32, 0
10, 70224, Note_on_c, 10, 32, 127
10, 70272, Note_on_c, 10, 32, 0
10, 70320, Note_on_c, 10, 32, 127
10, 70368, Note_on_c, 10, 32, 0
10, 70368, Note_on_c, 10, 32, 127
10, 70416, Note_on_c, 10, 32, 0
10, 70416, Note_on_c, 10, 32, 127
10, 70464, Note_on_c, 10, 32, 0
10, 70512, Note_on_c, 10, 32, 127
10, 70560, Note_on_c, 10, 32, 0
10, 70608, Note_on_c, 10, 32, 127
10, 70656, Note_on_c, 10, 32, 0
10, 70656, Note_on_c, 10, 32, 127
10, 70752, Note_on_c, 10, 32, 0
10, 71232, Note_on_c, 10, 32, 127
10, 71328, Note_on_c, 10, 32, 0
10, 71328, Note_on_c, 10, 30, 127
10, 71424, Note_on_c, 10, 30, 0
10, 72000, Note_on_c, 10, 28, 127
10, 72096, Note_on_c, 10, 28, 0
10, 72096, Note_on_c, 10, 32, 127
10, 72192, Note_on_c, 10, 32, 0
10, 72192, Note_on_c, 10, 30, 127
10, 72288, Note_on_c, 10, 30, 0
10, 72768, Note_on_c, 10, 27, 127
10, 72864, Note_on_c, 10, 27, 0
10, 72864, Note_on_c, 10, 28, 127
10, 72960, Note_on_c, 10, 28, 0
10, 73344, Note_on_c, 10, 28, 127
10, 73440, Note_on_c, 10, 28, 0
10, 73440, Note_on_c, 10, 32, 127
10, 73728, Note_on_c, 10, 32, 0
10, 73728, Note_on_c, 10, 25, 127
10, 73752, Control_c, 10, 7, 126
10, 73776, Note_on_c, 10, 25, 0
10, 73776, Control_c, 10, 7, 125
10, 73776, Note_on_c, 10, 25, 126
10, 73800, Control_c, 10, 7, 124
10, 73824, Note_on_c, 10, 25, 0
10, 73824, Control_c, 10, 7, 123
10, 73824, Note_on_c, 10, 25, 125
10, 73848, Control_c, 10, 7, 122
10, 73872, Note_on_c, 10, 25, 0
10, 73872, Note_on_c, 10, 25, 124
10, 73873, Control_c, 10, 7, 121
10, 73897, Control_c, 10, 7, 120
10, 73920, Note_on_c, 10, 25, 0
10, 73921, Control_c, 10, 7, 119
10, 73945, Control_c, 10, 7, 118
10, 73968, Note_on_c, 10, 25, 122
10, 73969, Control_c, 10, 7, 117
10, 73994, Control_c, 10, 7, 116
10, 74016, Note_on_c, 10, 25, 0
10, 74018, Control_c, 10, 7, 115
10, 74042, Control_c, 10, 7, 114
10, 74064, Note_on_c, 10, 25, 120
10, 74066, Control_c, 10, 7, 113
10, 74090, Control_c, 10, 7, 112
10, 74112, Note_on_c, 10, 25, 0
10, 74115, Control_c, 10, 7, 111
10, 74139, Control_c, 10, 7, 110
10, 74160, Note_on_c, 10, 25, 118
10, 74163, Control_c, 10, 7, 109
10, 74187, Control_c, 10, 7, 108
10, 74208, Note_on_c, 10, 25, 0
10, 74208, Note_on_c, 10, 25, 117
10, 74211, Control_c, 10, 7, 107
10, 74235, Control_c, 10, 7, 106
10, 74256, Note_on_c, 10, 25, 0
10, 74256, Note_on_c, 10, 25, 116
10, 74260, Control_c, 10, 7, 105
10, 74284, Control_c, 10, 7, 104
10, 74304, Note_on_c, 10, 25, 0
10, 74308, Control_c, 10, 7, 103
10, 74332, Control_c, 10, 7, 102
10, 74352, Note_on_c, 10, 25, 112
10, 74356, Control_c, 10, 7, 101
10, 74381, Control_c, 10, 7, 100
10, 74400, Note_on_c, 10, 25, 0
10, 74405, Control_c, 10, 7, 99
10, 74429, Control_c, 10, 7, 98
10, 74448, Note_on_c, 10, 25, 109
10, 74453, Control_c, 10, 7, 97
10, 74477, Control_c, 10, 7, 96
10, 74496, Note_on_c, 10, 25, 0
10, 74496, Note_on_c, 10, 28, 107
10, 74502, Control_c, 10, 7, 95
10, 74526, Control_c, 10, 7, 94
10, 74544, Note_on_c, 10, 28, 0
10, 74544, Note_on_c, 10, 28, 105
10, 74550, Control_c, 10, 7, 93
10, 74574, Control_c, 10, 7, 92
10, 74592, Note_on_c, 10, 28, 0
10, 74592, Note_on_c, 10, 28, 103
10, 74598, Control_c, 10, 7, 91
10, 74622, Control_c, 10, 7, 90
10, 74640, Note_on_c, 10, 28, 0
10, 74640, Note_on_c, 10, 28, 101
10, 74647, Control_c, 10, 7, 89
10, 74671, Control_c, 10, 7, 88
10, 74688, Note_on_c, 10, 28, 0
10, 74695, Control_c, 10, 7, 87
10, 74719, Control_c, 10, 7, 86
10, 74736, Note_on_c, 10, 28, 97
10, 74743, Control_c, 10, 7, 85
10, 74768, Control_c, 10, 7, 84
10, 74784, Note_on_c, 10, 28, 0
10, 74792, Control_c, 10, 7, 83
10, 74816, Control_c, 10, 7, 82
10, 74832, Note_on_c, 10, 28, 93
10, 74840, Control_c, 10, 7, 81
10, 74864, Control_c, 10, 7, 80
10, 74880, Note_on_c, 10, 28, 0
10, 74889, Control_c, 10, 7, 79
10, 74913, Control_c, 10, 7, 78
10, 74928, Note_on_c, 10, 28, 89
10, 74937, Control_c, 10, 7, 77
10, 74961, Control_c, 10, 7, 76
10, 74976, Note_on_c, 10, 28, 0
10, 74976, Note_on_c, 10, 28, 87
10, 74985, Control_c, 10, 7, 75
10, 75010, Control_c, 10, 7, 74
10, 75024, Note_on_c, 10, 28, 0
10, 75024, Note_on_c, 10, 28, 85
10, 75034, Control_c, 10, 7, 73
10, 75058, Control_c, 10, 7, 72
10, 75072, Note_on_c, 10, 28, 0
10, 75082, Control_c, 10, 7, 71
10, 75106, Control_c, 10, 7, 70
10, 75120, Note_on_c, 10, 28, 81
10, 75130, Control_c, 10, 7, 69
10, 75155, Control_c, 10, 7, 68
10, 75168, Note_on_c, 10, 28, 0
10, 75179, Control_c, 10, 7, 67
10, 75203, Control_c, 10, 7, 66
10, 75216, Note_on_c, 10, 28, 77
10, 75227, Control_c, 10, 7, 65
10, 75251, Control_c, 10, 7, 64
10, 75264, Note_on_c, 10, 28, 0
10, 75264, Note_on_c, 10, 30, 75
10, 75276, Control_c, 10, 7, 63
10, 75300, Control_c, 10, 7, 62
10, 75312, Note_on_c, 10, 30, 0
10, 75312, Note_on_c, 10, 30, 73
10, 75324, Control_c, 10, 7, 61
10, 75348, Control_c, 10, 7, 60
10, 75360, Note_on_c, 10, 30, 0
10, 75360, Note_on_c, 10, 30, 71
10, 75372, Control_c, 10, 7, 59
10, 75397, Control_c, 10, 7, 58
10, 75408, Note_on_c, 10, 30, 0
10, 75408, Note_on_c, 10, 30, 69
10, 75421, Control_c, 10, 7, 57
10, 75445, Control_c, 10, 7, 56
10, 75456, Note_on_c, 10, 30, 0
10, 75469, Control_c, 10, 7, 55
10, 75493, Control_c, 10, 7, 54
10, 75504, Note_on_c, 10, 30, 65
10, 75517, Control_c, 10, 7, 53
10, 75542, Control_c, 10, 7, 52
10, 75552, Note_on_c, 10, 30, 0
10, 75566, Control_c, 10, 7, 51
10, 75590, Control_c, 10, 7, 50
10, 75600, Note_on_c, 10, 30, 61
10, 75614, Control_c, 10, 7, 49
10, 75638, Control_c, 10, 7, 48
10, 75648, Note_on_c, 10, 30, 0
10, 75663, Control_c, 10, 7, 47
10, 75687, Control_c, 10, 7, 46
10, 75696, Note_on_c, 10, 30, 57
10, 75711, Control_c, 10, 7, 45
10, 75735, Control_c, 10, 7, 44
10, 75744, Note_on_c, 10, 30, 0
10, 75744, Note_on_c, 10, 30, 55
10, 75759, Control_c, 10, 7, 43
10, 75784, Control_c, 10, 7, 42
10, 75792, Note_on_c, 10, 30, 0
10, 75792, Note_on_c, 10, 30, 53
10, 75808, Control_c, 10, 7, 41
10, 75832, Control_c, 10, 7, 40
10, 75840, Note_on_c, 10, 30, 0
10, 75856, Control_c, 10, 7, 39
10, 75880, Control_c, 10, 7, 38
10, 75888, Note_on_c, 10, 30, 49
10, 75905, Control_c, 10, 7, 37
10, 75929, Control_c, 10, 7, 36
10, 75936, Note_on_c, 10, 30, 0
10, 75953, Control_c, 10, 7, 35
10, 75977, Control_c, 10, 7, 34
10, 75984, Note_on_c, 10, 30, 45
10, 76001, Control_c, 10, 7, 33
10, 76025, Control_c, 10, 7, 32
10, 76032, Note_on_c, 10, 30, 0
10, 76032, Note_on_c, 10, 32, 43
10, 76050, Control_c, 10, 7, 31
10, 76074, Control_c, 10, 7, 30
10, 76080, Note_on_c, 10, 32, 0
10, 76080, Note_on_c, 10, 32, 41
10, 76098, Control_c, 10, 7, 29
10, 76122, Control_c, 10, 7, 28
10, 76128, Note_on_c, 10, 32, 0
10, 76128, Note_on_c, 10, 32, 39
10, 76146, Control_c, 10, 7, 27
10, 76171, Control_c, 10, 7, 26
10, 76176, Note_on_c, 10, 32, 0
10, 76176, Note_on_c, 10, 32, 37
10, 76195, Control_c, 10, 7, 25
10, 76219, Control_c, 10, 7, 24
10, 76224, Note_on_c, 10, 32, 0
10, 76243, Control_c, 10, 7, 23
10, 76267, Control_c, 10, 7, 22
10, 76272, Note_on_c, 10, 32, 33
10, 76292, Control_c, 10, 7, 21
10, 76316, Control_c, 10, 7, 20
10, 76320, Note_on_c, 10, 32, 0
10, 76340, Control_c, 10, 7, 19
10, 76364, Control_c, 10, 7, 18
10, 76368, Note_on_c, 10, 32, 29
10, 76388, Control_c, 10, 7, 17
10, 76412, Control_c, 10, 7, 16
10, 76416, Note_on_c, 10, 32, 0
10, 76437, Control_c, 10, 7, 15
10, 76461, Control_c, 10, 7, 14
10, 76464, Note_on_c, 10, 32, 25
10, 76485, Control_c, 10, 7, 13
10, 76509, Control_c, 10, 7, 12
10, 76512, Note_on_c, 10, 32, 0
10, 76512, Note_on_c, 10, 32, 23
10, 76533, Control_c, 10, 7, 11
10, 76558, Control_c, 10, 7, 10
10, 76560, Note_on_c, 10, 32, 0
10, 76560, Note_on_c, 10, 32, 21
10, 76582, Control_c, 10, 7, 9
10, 76606, Control_c, 10, 7, 8
10, 76608, Note_on_c, 10, 32, 0
10, 76630, Control_c, 10, 7, 7
10, 76654, Control_c, 10, 7, 6
10, 76656, Note_on_c, 10, 32, 17
10, 76679, Control_c, 10, 7, 5
10, 76703, Control_c, 10, 7, 4
10, 76704, Note_on_c, 10, 32, 0
10, 76727, Control_c, 10, 7, 3
10, 76751, Control_c, 10, 7, 2
10, 76752, Note_on_c, 10, 32, 13
10, 76775, Control_c, 10, 7, 1
10, 76799, Control_c, 10, 7, 0
10, 76800, Note_on_c, 10, 32, 0
10, 76800, Control_c, 10, 7, 0
10, 76800, End_track
0, 0, End_of_file
